<svg width="16" height="16" viewBox="0 0 16 16" fill="none" xmlns="http://www.w3.org/2000/svg">
<path d="M3.69034 14.5907C3.79818 14.6468 3.91927 14.6724 4.0406 14.6649C4.16192 14.6574 4.27891 14.617 4.37901 14.548L13.0457 8.548C13.1342 8.48664 13.2066 8.40474 13.2566 8.3093C13.3066 8.21386 13.3327 8.10773 13.3327 8C13.3327 7.89226 13.3066 7.78613 13.2566 7.69069C13.2066 7.59526 13.1342 7.51335 13.0457 7.452L4.37901 1.452C4.27899 1.38279 4.16195 1.34227 4.04055 1.33481C3.91915 1.32735 3.79803 1.35325 3.69029 1.40969C3.58256 1.46613 3.49232 1.55097 3.42934 1.65503C3.36636 1.75908 3.33305 1.87837 3.33301 2V14C3.33299 14.1217 3.36628 14.2411 3.42927 14.3452C3.49226 14.4493 3.58254 14.5342 3.69034 14.5907Z" fill="white"/>
</svg>
