<svg width="40" height="40" viewBox="0 0 40 40" fill="none" xmlns="http://www.w3.org/2000/svg">
<circle cx="20" cy="20" r="20" fill="#FFCE31"/>
<g clip-path="url(#clip0)">
<path d="M19.0814 25.2469C18.9289 25.3992 18.9289 25.6465 19.0814 25.7991C19.2341 25.9515 19.4813 25.9515 19.6336 25.7991C19.7863 25.6465 19.7863 25.3992 19.6336 25.2469C19.4813 25.0941 19.2341 25.0941 19.0814 25.2469Z" fill="#4D4D4D"/>
<path d="M29.0993 24.5686L26.1336 22.0468C26.1199 22.0352 26.1054 22.0245 26.0903 22.0149C25.3122 21.5196 24.3132 21.6293 23.6609 22.2815L22.0439 23.8983C21.9319 24.0105 21.7649 24.0436 21.6184 23.9832C19.7925 23.2278 18.2926 22.0908 17.1602 20.6038C16.2967 19.4699 15.9854 18.5689 15.9444 18.4419C15.9395 18.4148 15.9317 18.3878 15.9207 18.3614C15.8602 18.2149 15.8933 18.0481 16.0056 17.9361L17.6224 16.3188C18.2747 15.6665 18.3843 14.6675 17.889 13.8895C17.885 13.8832 17.8809 13.8771 17.8766 13.871L15.7349 10.8948C15.0611 9.8494 13.5933 9.69147 12.7124 10.5722L12.3886 10.896C12.3885 10.8963 12.3882 10.8966 12.3879 10.8968L11.2319 12.0528C9.85339 13.4314 9.62786 15.5029 10.5799 18.0438C11.3953 20.2203 13.0277 22.6024 15.1763 24.751C17.3757 26.9504 19.8221 28.613 22.0648 29.4325C24.2847 30.2435 26.646 30.3435 28.3173 28.672L29.4075 27.5819C30.2844 26.7049 30.1314 25.2467 29.0993 24.5686ZM25.6496 22.6605L28.6127 25.1802C28.6263 25.1918 28.6408 25.2025 28.6559 25.2121C29.2888 25.6151 29.3846 26.5001 28.855 27.0296L28.7741 27.1106L23.7203 23.3267L24.2133 22.8339C24.5986 22.4484 25.1857 22.3787 25.6496 22.6605ZM15.0823 11.324C15.0862 11.3303 15.0904 11.3365 15.0946 11.3425L17.2354 14.3176C17.5263 14.7832 17.459 15.3775 17.07 15.7665L16.5923 16.2444L13.1731 11.2163L13.2648 11.1246C13.7966 10.5928 14.6808 10.6934 15.0823 11.324ZM22.3328 28.6987C20.1947 27.9175 17.8493 26.3193 15.7286 24.1986C13.6571 22.1272 12.0883 19.8441 11.3112 17.7698C10.7279 16.2128 10.3365 14.0529 11.7842 12.6053L12.6108 11.7786L16.03 16.8066L15.4534 17.3836C15.1253 17.711 15.0221 18.1957 15.1859 18.6272C15.3092 19.1332 15.8765 20.1834 16.4488 20.9573C17.2911 22.0963 18.8199 23.6708 21.3198 24.705C21.7591 24.8868 22.26 24.787 22.5963 24.4508L23.1623 23.8847L28.2161 27.6686L27.7649 28.1197C26.2129 29.6718 23.9543 29.2912 22.3328 28.6987Z" fill="#4D4D4D"/>
<path d="M18.3484 24.3146C17.9358 23.9528 17.2222 23.3306 16.8463 22.9439C15.9247 21.9968 14.9578 20.8487 14.3828 20.0193C14.26 19.842 14.0166 19.7977 13.8393 19.9207C13.662 20.0435 13.6179 20.2869 13.7407 20.4642C14.4658 21.5104 15.5312 22.7125 16.2863 23.4885C16.6831 23.8968 17.4028 24.5246 17.8333 24.9019C17.9952 25.0438 18.2419 25.0283 18.3846 24.8658C18.5268 24.7037 18.5106 24.4568 18.3484 24.3146Z" fill="#4D4D4D"/>
</g>
<defs>
<clipPath id="clip0">
<rect width="20" height="20" fill="white" transform="translate(10 10)"/>
</clipPath>
</defs>
</svg>
