<svg width="40" height="40" viewBox="0 0 40 40" fill="none" xmlns="http://www.w3.org/2000/svg">
<circle cx="20" cy="20" r="20" fill="#FFCE31"/>
<path d="M28.999 18.3712C28.7967 18.3712 28.6328 18.5353 28.6328 18.7374V20.0425C28.6328 20.7914 28.0234 21.4008 27.2745 21.4008H25.1871C25.0899 21.4008 24.9969 21.4392 24.9281 21.5079L22.3975 24.0386V21.767C22.3975 21.5646 22.2335 21.4008 22.0313 21.4008H16.7881C16.0392 21.4008 15.4298 20.7915 15.4298 20.0425V14.5027C15.4298 13.7538 16.0392 13.1445 16.7881 13.1445H27.2745C28.0234 13.1445 28.6328 13.7538 28.6328 14.5027V15.8077C28.6328 16.01 28.7967 16.1739 28.999 16.1739C29.2011 16.1739 29.3652 16.01 29.3652 15.8077V14.5027C29.3652 13.35 28.4274 12.4121 27.2745 12.4121H16.7881C15.6352 12.4121 14.6973 13.35 14.6973 14.5027V19.2075H12.0319C11.2508 19.2075 10.6152 19.8429 10.6152 20.6242V23.9988C10.6152 24.7801 11.2508 25.4155 12.0319 25.4155H13.1519L14.967 27.2306C15.0371 27.3008 15.1308 27.3379 15.2261 27.3379C15.2732 27.3379 15.3209 27.3288 15.3661 27.31C15.503 27.2534 15.5923 27.1199 15.5923 26.9717V25.4155H18.4201C19.2013 25.4155 19.8368 24.7801 19.8368 23.9988V22.1332H21.6651V24.9227C21.6651 25.0709 21.7543 25.2043 21.8912 25.261C21.9364 25.2797 21.984 25.2889 22.0313 25.2889C22.1266 25.2889 22.2202 25.2517 22.2903 25.1815L25.3387 22.1332H27.2745C28.4274 22.1332 29.3652 21.1953 29.3652 20.0425V18.7374C29.3652 18.5353 29.2011 18.3712 28.999 18.3712ZM19.1045 23.9988C19.1045 24.3762 18.7975 24.683 18.4201 24.683H15.2261C15.0237 24.683 14.8598 24.8471 14.8598 25.0492V26.0877L13.5625 24.7904C13.4939 24.7217 13.4007 24.683 13.3036 24.683H12.0319C11.6546 24.683 11.3477 24.3762 11.3477 23.9988V20.6242C11.3477 20.2468 11.6546 19.9399 12.0319 19.9399H14.6973V20.0425C14.6973 21.1953 15.6352 22.1332 16.7881 22.1332H19.1045V23.9988Z" fill="#4D4D4D"/>
<path d="M25.6018 14.812H18.4607C18.2585 14.812 18.0945 14.976 18.0945 15.1782C18.0945 15.3806 18.2585 15.5444 18.4607 15.5444H25.6018C25.804 15.5444 25.968 15.3806 25.968 15.1782C25.968 14.976 25.804 14.812 25.6018 14.812Z" fill="#4D4D4D"/>
<path d="M25.968 17.1558C25.968 16.9535 25.804 16.7896 25.6018 16.7896H18.4607C18.2585 16.7896 18.0945 16.9535 18.0945 17.1558C18.0945 17.3581 18.2585 17.522 18.4607 17.522H25.6018C25.804 17.522 25.968 17.3581 25.968 17.1558Z" fill="#4D4D4D"/>
<path d="M18.4607 18.7671C18.2585 18.7671 18.0945 18.9311 18.0945 19.1333C18.0945 19.3356 18.2585 19.4995 18.4607 19.4995H22.5806C22.7828 19.4995 22.9468 19.3356 22.9468 19.1333C22.9468 18.9311 22.7828 18.7671 22.5806 18.7671H18.4607Z" fill="#4D4D4D"/>
<path d="M28.999 16.9062C28.7974 16.9062 28.6328 17.0708 28.6328 17.2725C28.6328 17.4742 28.7974 17.6387 28.999 17.6387C29.2007 17.6387 29.3652 17.4742 29.3652 17.2725C29.3652 17.0708 29.2007 16.9062 28.999 16.9062Z" fill="#4D4D4D"/>
</svg>
