<svg width="70" height="70" viewBox="0 0 70 70" fill="none" xmlns="http://www.w3.org/2000/svg">
<circle cx="35" cy="35" r="35" fill="white"/>
<path d="M37.374 36.9368H43.3833C43.626 36.9368 43.8227 36.74 43.8227 36.4973C43.8227 36.2546 43.626 36.0579 43.3833 36.0579H37.374C37.1313 36.0579 36.9346 36.2546 36.9346 36.4973C36.9346 36.74 37.1313 36.9368 37.374 36.9368Z" fill="black"/>
<path d="M37.374 39.7241H43.3833C43.626 39.7241 43.8227 39.5274 43.8227 39.2847C43.8227 39.042 43.626 38.8452 43.3833 38.8452H37.374C37.1313 38.8452 36.9346 39.042 36.9346 39.2847C36.9346 39.5274 37.1313 39.7241 37.374 39.7241Z" fill="black"/>
<path d="M37.374 42.5115H43.3833C43.626 42.5115 43.8227 42.3147 43.8227 42.072C43.8227 41.8293 43.626 41.6326 43.3833 41.6326H37.374C37.1313 41.6326 36.9346 41.8293 36.9346 42.072C36.9346 42.3147 37.1313 42.5115 37.374 42.5115Z" fill="black"/>
<path d="M32.5776 26.1361H26.5684C26.3257 26.1361 26.1289 26.3329 26.1289 26.5756C26.1289 26.8183 26.3257 27.015 26.5684 27.015H32.5776C32.8203 27.015 33.0171 26.8183 33.0171 26.5756C33.0171 26.3329 32.8203 26.1361 32.5776 26.1361Z" fill="black"/>
<path d="M33.0171 29.3629C33.0171 29.1202 32.8203 28.9235 32.5776 28.9235H26.5684C26.3257 28.9235 26.1289 29.1202 26.1289 29.3629C26.1289 29.6056 26.3257 29.8024 26.5684 29.8024H32.5776C32.8203 29.8024 33.0171 29.6057 33.0171 29.3629Z" fill="black"/>
<path d="M26.5684 31.7108C26.3257 31.7108 26.1289 31.9076 26.1289 32.1503C26.1289 32.393 26.3257 32.5897 26.5684 32.5897H29.573C29.8157 32.5897 30.0124 32.393 30.0124 32.1503C30.0124 31.9076 29.8157 31.7108 29.573 31.7108H26.5684Z" fill="black"/>
<path d="M43.0563 32.0576H38.9256C39.2281 31.2718 39.3816 30.4448 39.3816 29.5902V29.3098C39.3816 25.4848 36.2667 22.373 32.438 22.373H30.0346C29.7919 22.373 29.5951 22.5698 29.5951 22.8125C29.5951 23.0552 29.7919 23.252 30.0346 23.252H32.438C35.7821 23.252 38.5027 25.9695 38.5027 29.3098V29.5902C38.5027 30.451 38.3244 31.2796 37.9735 32.0576H37.5603C34.9454 32.0576 32.6639 33.5093 31.4798 35.648H26.9437L25.6177 35.6479C25.4391 35.6475 25.3723 35.6643 25.2093 35.7481L23.0642 36.8496L23.184 34.6252C23.2074 34.462 23.1475 34.306 23.0209 34.2015C21.6596 33.0424 20.8789 31.3619 20.8789 29.5902V29.3098C20.8789 25.9695 23.5995 23.252 26.9437 23.252H28.005C28.2477 23.252 28.4445 23.0553 28.4445 22.8126C28.4445 22.5699 28.2477 22.3731 28.005 22.3731H26.9437C23.1149 22.3731 20 25.4848 20 29.3098V29.5902C20 31.5525 20.8349 33.4163 22.2978 34.7365L22.1583 37.3262C22.1412 37.6201 22.2865 37.7737 22.3747 37.8389C22.4463 37.892 22.5518 37.9426 22.6936 37.9426C22.7683 37.9426 22.8531 37.9286 22.9483 37.8935C22.965 37.8874 22.9812 37.8802 22.997 37.8721L25.611 36.5298C25.613 36.5288 25.6149 36.5278 25.6167 36.5269L31.071 36.527C30.7778 37.294 30.6167 38.1257 30.6167 38.9943V39.2763C30.6167 43.1003 33.7316 46.2114 37.5603 46.2114H38.3493C38.592 46.2114 38.7887 46.0146 38.7887 45.7719C38.7887 45.5292 38.592 45.3325 38.3493 45.3325H37.5603C34.2162 45.3325 31.4956 42.6157 31.4956 39.2763V38.9943C31.4956 38.0403 31.7178 37.1372 32.1129 36.3335C32.1336 36.3029 32.1501 36.2693 32.1627 36.2339C33.1694 34.2778 35.211 32.9365 37.5603 32.9365H43.0563C46.4005 32.9365 49.1211 35.654 49.1211 38.9943V39.2763C49.1211 41.0478 48.3385 42.729 46.9739 43.8891C46.9714 43.8912 46.9689 43.8934 46.9665 43.8955C46.846 44.0027 46.7913 44.1526 46.8144 44.3112L46.9354 46.5351L44.8057 45.4429L44.7924 45.4359C44.6306 45.3505 44.5612 45.3325 44.3885 45.3325C44.3861 45.3325 44.3836 45.3325 44.3812 45.3325L40.3787 45.3325C40.136 45.3325 39.9393 45.5293 39.9393 45.772C39.9393 46.0147 40.136 46.2114 40.3787 46.2114H43.0562H44.3787C44.3799 46.212 44.381 46.2127 44.3823 46.2133L47.0013 47.5568C47.0175 47.5651 47.0343 47.5724 47.0514 47.5787C47.1464 47.6132 47.2309 47.6271 47.3053 47.6271C47.4467 47.6271 47.5518 47.577 47.6231 47.5246C47.7107 47.4602 47.8555 47.3087 47.8416 47.0141L47.7004 44.4209C49.1646 43.0999 50 41.2368 50 39.2763V38.9943C50 35.1694 46.8851 32.0576 43.0563 32.0576Z" fill="black"/>
</svg>
