<svg width="70" height="70" viewBox="0 0 70 70" fill="none" xmlns="http://www.w3.org/2000/svg">
<circle cx="35" cy="35" r="35" fill="white"/>
<g clip-path="url(#clip0)">
<path d="M48.9525 32.1993C48.6455 31.6838 48.3556 31.1967 48.1981 30.7116C48.0308 30.1963 47.9746 29.6129 47.9152 28.9952C47.8201 28.0082 47.7219 26.9876 47.1358 26.1821C46.5435 25.3683 45.5991 24.9597 44.6858 24.5646C44.1202 24.3199 43.586 24.0887 43.1549 23.775C42.732 23.4672 42.3525 23.0346 41.9506 22.5766C41.2904 21.824 40.6077 21.0458 39.6362 20.7304C38.7068 20.4286 37.7148 20.6485 36.7554 20.861C36.1667 20.9915 35.558 21.1264 35 21.1264C34.4421 21.1264 33.8333 20.9915 33.2446 20.861C32.2852 20.6485 31.2932 20.4286 30.3637 20.7304C29.3923 21.0459 28.7096 21.824 28.0494 22.5766C27.6476 23.0346 27.268 23.4672 26.8451 23.775C26.6963 23.8834 26.5265 23.988 26.326 24.095C26.1118 24.2092 26.0308 24.4753 26.145 24.6895C26.2592 24.9037 26.5254 24.9846 26.7396 24.8704C26.9765 24.7441 27.1802 24.6182 27.3623 24.4856C27.8643 24.1203 28.2943 23.6301 28.7101 23.1562C29.3188 22.4624 29.8937 21.8071 30.6352 21.5663C31.3371 21.3385 32.1713 21.5233 33.0545 21.7191C33.6894 21.8598 34.3459 22.0053 35.0001 22.0053C35.6543 22.0053 36.3108 21.8598 36.9457 21.719C37.829 21.5233 38.6633 21.3385 39.3649 21.5662C40.1065 21.807 40.6814 22.4623 41.2901 23.1561C41.7059 23.6301 42.1359 24.1202 42.6379 24.4855C43.1477 24.8566 43.7523 25.1181 44.337 25.3711C45.179 25.7353 45.9743 26.0795 46.4253 26.6992C46.8702 27.3105 46.9529 28.1697 47.0405 29.0793C47.1018 29.7168 47.1653 30.3761 47.3623 30.9829C47.5503 31.5617 47.8794 32.1144 48.1976 32.6489C48.6724 33.4469 49.1211 34.2004 49.1211 35C49.1211 35.7995 48.6724 36.5531 48.1973 37.351C47.8791 37.8855 47.55 38.4381 47.3621 39.0168C47.1651 39.6236 47.1017 40.2829 47.0403 40.9205C46.9527 41.8301 46.87 42.6893 46.4251 43.3006C45.9741 43.9203 45.1788 44.2644 44.3367 44.6287C43.752 44.8816 43.1475 45.1432 42.6377 45.5142C42.1357 45.8795 41.7057 46.3697 41.2899 46.8436C40.6812 47.5374 40.1063 48.1927 39.3648 48.4335C38.663 48.6613 37.8288 48.4764 36.9455 48.2806C36.3106 48.14 35.6541 47.9945 34.9999 47.9945C34.3457 47.9945 33.6893 48.14 33.0543 48.2806C32.1711 48.4764 31.3369 48.6613 30.6351 48.4335C29.8935 48.1927 29.3186 47.5374 28.71 46.8436C28.2941 46.3696 27.8642 45.8795 27.3621 45.5141C26.8524 45.1431 26.2477 44.8816 25.6631 44.6286C24.8211 44.2643 24.0257 43.9202 23.5747 43.3006C23.1298 42.6892 23.0472 41.8301 22.9596 40.9204C22.8982 40.2829 22.8348 39.6236 22.6378 39.0168C22.4499 38.4381 22.1208 37.8854 21.8026 37.351C21.3276 36.5531 20.8789 35.7995 20.8789 35C20.8789 34.2004 21.3276 33.4469 21.8027 32.649C22.1209 32.1145 22.45 31.5618 22.6379 30.9831C22.8349 30.3763 22.8983 29.717 22.9597 29.0794C23.0473 28.1698 23.13 27.3106 23.5749 26.6993C23.8313 26.3471 24.2153 26.0554 24.8202 25.7537C25.0374 25.6454 25.1256 25.3815 25.0173 25.1643C24.9089 24.9471 24.645 24.8589 24.4279 24.9672C23.9312 25.215 23.3047 25.577 22.8642 26.1822C22.2781 26.9876 22.1799 28.0082 22.0848 28.9953C22.0254 29.613 21.9692 30.1964 21.8019 30.7117C21.6444 31.1969 21.3545 31.6838 21.0475 32.1994C20.5325 33.0642 20 33.9586 20 35C20 36.0413 20.5325 36.9357 21.0475 37.8006C21.3545 38.3162 21.6444 38.8032 21.8019 39.2883C21.9692 39.8036 22.0254 40.387 22.0848 41.0046C22.1798 41.9917 22.2781 43.0124 22.8642 43.8178C23.4565 44.6316 24.4009 45.0402 25.3142 45.4353C25.8798 45.68 26.4141 45.9112 26.8451 46.2249C27.268 46.5327 27.6475 46.9653 28.0494 47.4233C28.7096 48.1759 29.3923 48.9541 30.3638 49.2695C30.6911 49.3758 31.0261 49.4174 31.3648 49.4174C31.9878 49.4174 32.6231 49.2766 33.2446 49.1389C33.8333 49.0084 34.4421 48.8735 35 48.8735C35.558 48.8735 36.1667 49.0084 36.7554 49.1389C37.7148 49.3514 38.7068 49.5713 39.6363 49.2695C40.6077 48.9541 41.2904 48.1759 41.9506 47.4233C42.3524 46.9653 42.732 46.5327 43.1549 46.2248C43.5859 45.9112 44.1202 45.68 44.6858 45.4353C45.5991 45.0401 46.5435 44.6315 47.1358 43.8177C47.7219 43.0123 47.8201 41.9917 47.9152 41.0046C47.9746 40.3869 48.0308 39.8035 48.1981 39.2883C48.3556 38.8031 48.6455 38.3161 48.9525 37.8006C49.4675 36.9357 50 36.0413 50 35C50 33.9586 49.4675 33.0643 48.9525 32.1993Z" fill="black"/>
<path d="M24.2217 31.4979C24.0969 31.8824 23.8641 32.2732 23.6177 32.687C23.1945 33.3978 22.7568 34.1328 22.7568 34.9999C22.7568 35.867 23.1945 36.602 23.6177 37.3128C23.8641 37.7267 24.0968 38.1176 24.2217 38.5019C24.3545 38.911 24.3996 39.3796 24.4473 39.8756C24.5254 40.6868 24.6061 41.5257 25.0947 42.197C25.5881 42.8751 26.3643 43.2109 27.1149 43.5357C27.5691 43.7322 27.998 43.9178 28.34 44.1666C28.6754 44.4107 28.9801 44.758 29.3026 45.1257C29.8453 45.7443 30.4064 46.3839 31.2157 46.6466C31.4907 46.7359 31.7708 46.7708 32.053 46.7708C32.566 46.7708 33.086 46.6556 33.5947 46.5428C34.0893 46.4332 34.5565 46.3297 34.9997 46.3297C35.4429 46.3297 35.9101 46.4332 36.4047 46.5428C37.1933 46.7176 38.0087 46.8984 38.7837 46.6466C39.593 46.3839 40.1541 45.7443 40.6967 45.1257C41.0193 44.7581 41.324 44.4107 41.6593 44.1666C42.0013 43.9178 42.4303 43.7322 42.8844 43.5357C43.635 43.2109 44.4112 42.8751 44.9047 42.197C45.3932 41.5257 45.4739 40.6869 45.552 39.8757C45.5998 39.3796 45.6449 38.911 45.7777 38.502C45.9025 38.1176 46.1353 37.7267 46.3817 37.3128C46.8049 36.602 47.2426 35.867 47.2426 35C47.2426 34.133 46.8049 33.3979 46.3817 32.6871C46.1353 32.2732 45.9026 31.8824 45.7777 31.4979C45.6449 31.0889 45.5998 30.6203 45.552 30.1243C45.474 29.313 45.3932 28.4742 44.9047 27.8029C44.4112 27.1248 43.635 26.789 42.8844 26.4643C42.4303 26.2677 42.0013 26.0822 41.6593 25.8333C41.324 25.5892 41.0193 25.2419 40.6967 24.8742C40.1541 24.2556 39.593 23.6161 38.7837 23.3533C38.0086 23.1016 37.1933 23.2823 36.4047 23.4571C35.9101 23.5667 35.4429 23.6703 34.9997 23.6703C34.5565 23.6703 34.0893 23.5667 33.5947 23.4571C32.8061 23.2823 31.9907 23.1016 31.2157 23.3533C30.4064 23.616 29.8453 24.2556 29.3026 24.8742C28.9801 25.2419 28.6754 25.5892 28.34 25.8333C27.998 26.0822 27.5691 26.2678 27.1149 26.4643C26.3643 26.789 25.5881 27.1248 25.0947 27.8029C24.6061 28.4742 24.5254 29.313 24.4473 30.1243C24.3996 30.6203 24.3545 31.0888 24.2217 31.4979ZM25.3222 30.2084C25.392 29.4827 25.458 28.7972 25.8053 28.32C26.1575 27.8361 26.7921 27.5615 27.464 27.2708C27.9421 27.064 28.4365 26.85 28.8572 26.5438C29.2716 26.2423 29.6233 25.8414 29.9634 25.4538C30.449 24.9002 30.9077 24.3773 31.4871 24.1892C32.0343 24.0116 32.6999 24.159 33.4046 24.3152C33.9236 24.4302 34.4603 24.5491 34.9998 24.5491C35.5392 24.5491 36.0759 24.4302 36.5949 24.3152C37.2995 24.159 37.965 24.0114 38.5124 24.1892C39.0918 24.3773 39.5505 24.9002 40.0361 25.4538C40.3762 25.8414 40.7279 26.2423 41.1423 26.5438C41.563 26.85 42.0574 27.064 42.5356 27.2708C43.2074 27.5615 43.842 27.836 44.1942 28.32C44.5415 28.7972 44.6075 29.4827 44.6773 30.2084C44.7275 30.7297 44.7794 31.2688 44.9419 31.7693C45.0972 32.2474 45.3663 32.6995 45.6267 33.1367C46.0058 33.7734 46.3638 34.3747 46.3638 34.9999C46.3638 35.6251 46.0058 36.2265 45.6267 36.8631C45.3663 37.3003 45.0972 37.7524 44.9419 38.2305C44.7794 38.731 44.7275 39.2701 44.6773 39.7914C44.6075 40.5172 44.5415 41.2026 44.1942 41.6798C43.842 42.1638 43.2075 42.4383 42.5356 42.729C42.0574 42.9358 41.563 43.1498 41.1423 43.456C40.7279 43.7576 40.3762 44.1585 40.0361 44.5461C39.5505 45.0997 39.0918 45.6225 38.5124 45.8106C37.9651 45.9883 37.2996 45.8408 36.5949 45.6847C36.0759 45.5696 35.5392 45.4507 34.9998 45.4507C34.4603 45.4507 33.9236 45.5696 33.4046 45.6847C32.7 45.8408 32.0344 45.9883 31.4871 45.8106C30.9077 45.6225 30.449 45.0997 29.9634 44.5461C29.6233 44.1584 29.2716 43.7576 28.8572 43.456C28.4365 43.1498 27.9421 42.9359 27.464 42.729C26.7921 42.4383 26.1576 42.1638 25.8053 41.6798C25.458 41.2026 25.392 40.5171 25.3222 39.7914C25.272 39.2701 25.2202 38.7311 25.0576 38.2305C24.9024 37.7525 24.6332 37.3004 24.3729 36.8632C23.9938 36.2265 23.6357 35.6252 23.6357 34.9999C23.6357 34.3747 23.9938 33.7734 24.3729 33.1367C24.6332 32.6995 24.9024 32.2473 25.0576 31.7693C25.2201 31.2688 25.272 30.7297 25.3222 30.2084Z" fill="black"/>
<path d="M33.417 40.8256C33.3913 40.8256 33.3657 40.8252 33.34 40.8243C32.6903 40.8023 32.0794 40.503 31.6639 40.0031L29.4823 37.3781C28.9987 36.7962 29.0786 35.9294 29.6605 35.4458L30.2721 34.9375C30.8541 34.4539 31.7208 34.5338 32.2045 35.1157L33.3036 36.4382C33.3654 36.5125 33.4441 36.5259 33.4855 36.5273C33.5266 36.5287 33.6064 36.5207 33.673 36.4506C33.6767 36.4468 33.6805 36.443 33.6844 36.4392L39.298 30.9621C39.5502 30.7006 39.8887 30.5519 40.2522 30.543C40.6181 30.5339 40.9666 30.6685 41.2319 30.9213L41.8077 31.4698C42.3556 31.9917 42.3767 32.8619 41.8549 33.4097C41.8518 33.413 41.8487 33.4161 41.8456 33.4192L38.8625 36.3677C38.6898 36.5384 38.4116 36.5367 38.2411 36.364C38.0705 36.1914 38.0721 35.9132 38.2446 35.7426L41.2223 32.7994C41.406 32.6023 41.3971 32.2924 41.2015 32.1061L40.6257 31.5575C40.5303 31.4667 40.4051 31.418 40.2735 31.4215C40.1417 31.4248 40.0192 31.479 39.9283 31.5744C39.9245 31.5783 39.9208 31.5821 39.917 31.5858L34.3031 37.0631C34.082 37.2916 33.7725 37.4165 33.4557 37.4054C33.1347 37.3946 32.8329 37.2467 32.6276 36.9997L31.5285 35.6772C31.3547 35.468 31.043 35.4393 30.8339 35.6131L30.2222 36.1214C30.013 36.2952 29.9843 36.6068 30.1581 36.816L32.3397 39.441C32.595 39.7482 32.9704 39.9321 33.3696 39.9456C33.7685 39.9594 34.1558 39.801 34.4313 39.5118C34.4344 39.5086 34.4375 39.5055 34.4406 39.5024L36.9044 37.0671C37.0771 36.8964 37.3553 36.8981 37.5259 37.0707C37.6965 37.2434 37.6949 37.5216 37.5223 37.6922L35.0629 40.1231C34.6327 40.5722 34.0369 40.8256 33.417 40.8256Z" fill="black"/>
</g>
<defs>
<clipPath id="clip0">
<rect width="30" height="30" fill="white" transform="translate(20 20)"/>
</clipPath>
</defs>
</svg>
