<svg width="35" height="35" viewBox="0 0 35 35" fill="none" xmlns="http://www.w3.org/2000/svg">
<g clip-path="url(#clip0)">
<path d="M23.5197 4.66641H18.8429V7.36501H23.5197V4.66641Z" fill="#D5F5FB"/>
<path d="M18.7202 4.66643H23.6422C24.5483 4.66643 25.2828 3.9319 25.2828 3.02578C25.2828 2.11966 24.5483 1.38513 23.6422 1.38513H18.7202C17.8141 1.38513 17.0796 2.11966 17.0796 3.02578C17.0796 3.9319 17.8141 4.66643 18.7202 4.66643Z" fill="#FF7480"/>
<path d="M21.1917 33.6154C28.4406 33.6154 34.3169 27.7391 34.3169 20.4902C34.3169 13.2414 28.4406 7.36502 21.1917 7.36502C13.9429 7.36502 8.06653 13.2414 8.06653 20.4902C8.06653 27.7391 13.9429 33.6154 21.1917 33.6154Z" fill="#DF033D"/>
<path d="M21.1917 30.4113C26.671 30.4113 31.1128 25.9695 31.1128 20.4902C31.1128 15.011 26.671 10.5692 21.1917 10.5692C15.7125 10.5692 11.2706 15.011 11.2706 20.4902C11.2706 25.9695 15.7125 30.4113 21.1917 30.4113Z" fill="white"/>
<path d="M21.1917 21.9308C21.9873 21.9308 22.6323 21.2859 22.6323 20.4902C22.6323 19.6946 21.9873 19.0496 21.1917 19.0496C20.3961 19.0496 19.7511 19.6946 19.7511 20.4902C19.7511 21.2859 20.3961 21.9308 21.1917 21.9308Z" fill="#FF838E"/>
<path d="M34.9325 19.1167C34.6183 15.9559 33.2062 12.976 30.9561 10.7259C29.0333 8.80311 26.6798 7.56749 24.2034 7.01808V5.28118C25.2148 5.02954 25.9666 4.11399 25.9666 3.02576C25.9666 1.74414 24.924 0.701508 23.6424 0.701508H18.7204C17.4388 0.701508 16.3962 1.74414 16.3962 3.02576C16.3962 4.11392 17.148 5.02948 18.1594 5.28118V7.02293C15.6906 7.57467 13.3448 8.80858 11.4275 10.726C11.0079 11.1455 10.621 11.5857 10.2668 12.0432C10.2496 12.0419 10.2325 12.0406 10.215 12.0406H5.34353C4.96604 12.0406 4.65993 12.3466 4.65993 12.7242C4.65993 13.1018 4.96604 13.4078 5.34353 13.4078H9.3366C8.83538 14.2469 8.43124 15.1282 8.12361 16.0353H0.683604C0.306118 16.0353 0 16.3414 0 16.7189C0 17.0965 0.306118 17.4025 0.683604 17.4025H7.73731C7.54029 18.2673 7.42723 19.1475 7.39804 20.0301H4.37507C3.99758 20.0301 3.69146 20.3361 3.69146 20.7137C3.69146 21.0912 3.99758 21.3973 4.37507 21.3973H7.41984C7.47754 22.2821 7.6198 23.1624 7.84668 24.0249H3.41802C3.04054 24.0249 2.73442 24.3309 2.73442 24.7085C2.73442 25.086 3.04054 25.3921 3.41802 25.3921H8.28296C8.95358 27.1661 10.0016 28.8288 11.4275 30.2547C13.6797 32.5069 16.6627 33.9193 19.8268 34.232C20.2784 34.2765 20.7303 34.2986 21.1816 34.2986C23.8492 34.2986 26.4828 33.5266 28.7175 32.0714C29.0339 31.8653 29.1234 31.4418 28.9174 31.1255C28.7113 30.8091 28.2878 30.7196 27.9715 30.9256C23.0798 34.111 16.5286 33.4223 12.3942 29.2879C7.54323 24.4369 7.54323 16.5438 12.3942 11.6928C17.2452 6.84185 25.1383 6.84185 29.9893 11.6928C34.1182 15.8217 34.8107 22.3673 31.6358 27.2566C31.4302 27.5732 31.5202 27.9967 31.8368 28.2022C32.1536 28.4079 32.5769 28.3178 32.7825 28.0012C34.4788 25.3888 35.2423 22.2336 34.9325 19.1167ZM17.7634 3.02583C17.7634 2.49809 18.1927 2.06878 18.7204 2.06878H23.6424C24.1701 2.06878 24.5994 2.49809 24.5994 3.02583C24.5994 3.55357 24.1701 3.98288 23.6424 3.98288H23.5198H18.843H18.7204C18.1927 3.98288 17.7634 3.55351 17.7634 3.02583ZM19.5266 6.78791V5.35009H22.8361V6.78545C21.7372 6.65475 20.6254 6.65556 19.5266 6.78791Z" fill="black"/>
<path d="M30.473 29.0874C30.2926 29.0874 30.1169 29.1605 29.9898 29.2877C29.862 29.4148 29.7894 29.5912 29.7894 29.771C29.7894 29.9508 29.862 30.1271 29.9898 30.2543C30.1169 30.3821 30.2926 30.4546 30.473 30.4546C30.6528 30.4546 30.8285 30.3821 30.9563 30.2543C31.0835 30.1271 31.1566 29.9508 31.1566 29.771C31.1566 29.5912 31.0835 29.4148 30.9563 29.2877C30.8285 29.1605 30.6527 29.0874 30.473 29.0874Z" fill="black"/>
<path d="M21.1918 9.88553C15.3444 9.88553 10.5872 14.6427 10.5872 20.4902C10.5872 26.3377 15.3444 31.0949 21.1918 31.0949C27.0393 31.0949 31.7965 26.3377 31.7965 20.4902C31.7965 14.6427 27.0393 9.88553 21.1918 9.88553ZM21.1918 29.7277C16.0982 29.7277 11.9544 25.5837 11.9544 20.4902C11.9544 15.3967 16.0982 11.2527 21.1918 11.2527C26.2855 11.2527 30.4293 15.3967 30.4293 20.4902C30.4293 25.5837 26.2855 29.7277 21.1918 29.7277Z" fill="black"/>
<path d="M25.5161 15.1993L22.1302 18.5851C21.847 18.4451 21.5285 18.366 21.1919 18.366C20.8551 18.366 20.5367 18.4451 20.2535 18.5851L18.7382 17.0697C18.4712 16.8028 18.0385 16.8028 17.7714 17.0697C17.5044 17.3367 17.5044 17.7696 17.7714 18.0365L19.2867 19.5518C19.1466 19.835 19.0676 20.1535 19.0676 20.4902C19.0676 21.6615 20.0205 22.6144 21.1919 22.6144C22.3632 22.6144 23.3161 21.6615 23.3161 20.4902C23.3161 20.1535 23.237 19.835 23.097 19.5518L26.3835 16.2653L26.4828 16.166C26.7498 15.8991 26.7498 15.4662 26.4828 15.1993C26.2159 14.9323 25.7831 14.9323 25.5161 15.1993ZM21.1919 21.2473C20.7744 21.2473 20.4348 20.9076 20.4348 20.4902C20.4348 20.0728 20.7744 19.7332 21.1919 19.7332C21.6093 19.7332 21.9489 20.0728 21.9489 20.4902C21.9489 20.9076 21.6093 21.2473 21.1919 21.2473Z" fill="black"/>
<path d="M28.5008 19.815H27.8674C27.49 19.815 27.1838 20.121 27.1838 20.4986C27.1838 20.8761 27.49 21.1822 27.8674 21.1822H28.5008C28.8783 21.1822 29.1844 20.8761 29.1844 20.4986C29.1844 20.121 28.8783 19.815 28.5008 19.815Z" fill="black"/>
<path d="M14.5161 19.7983H13.8828C13.5053 19.7983 13.1992 20.1044 13.1992 20.4819C13.1992 20.8595 13.5053 21.1655 13.8828 21.1655H14.5161C14.8936 21.1655 15.1997 20.8595 15.1997 20.4819C15.1997 20.1044 14.8936 19.7983 14.5161 19.7983Z" fill="black"/>
<path d="M21.2001 14.4981C21.5776 14.4981 21.8837 14.192 21.8837 13.8145V13.1812C21.8837 12.8037 21.5776 12.4976 21.2001 12.4976C20.8226 12.4976 20.5165 12.8037 20.5165 13.1812V13.8145C20.5165 14.192 20.8226 14.4981 21.2001 14.4981Z" fill="black"/>
<path d="M21.1835 26.4824C20.806 26.4824 20.4999 26.7884 20.4999 27.166V27.7992C20.4999 28.1768 20.806 28.4828 21.1835 28.4828C21.561 28.4828 21.8671 28.1768 21.8671 27.7992V27.166C21.8671 26.7884 21.561 26.4824 21.1835 26.4824Z" fill="black"/>
<path d="M0.683594 24.0246C0.503809 24.0246 0.327441 24.0977 0.200293 24.2249C0.0731445 24.352 0 24.5284 0 24.7082C0 24.8887 0.0730762 25.0643 0.200293 25.1915C0.32751 25.3186 0.503809 25.3918 0.683594 25.3918C0.863379 25.3918 1.03975 25.3186 1.16683 25.1915C1.29397 25.0643 1.36719 24.888 1.36719 24.7082C1.36719 24.5284 1.29404 24.352 1.16683 24.2249C1.03975 24.0977 0.863379 24.0246 0.683594 24.0246Z" fill="black"/>
</g>
<defs>
<clipPath id="clip0">
<rect width="35" height="35" fill="white"/>
</clipPath>
</defs>
</svg>
