<svg xmlns="http://www.w3.org/2000/svg" viewBox="0 0 2244.44 805.6"><defs><style>.cls-1{fill:#d03027;}.cls-2{fill:#004977;}</style></defs><g id="Layer_2" data-name="Layer 2"><g id="Layer_1-2" data-name="Layer 1"><path class="cls-1" d="M1523.25,582.67c-.12.13-.25.13-.25.26-95.62,67.66-208.8,138.74-330.61,213.35l-4.8,2.79a3.64,3.64,0,0,0,4.17,5.95l4-2.16c103.34-53.87,222-117.88,341.37-183.51a14,14,0,0,1,1.9-1,151.82,151.82,0,0,1-15.83-35.67ZM2150.57,74.88C1999.92-91.31,1030.5,58.18,618.32,148.24l-9.6,2a3.57,3.57,0,0,0-2.93,4.11v.07a3.57,3.57,0,0,0,4.17,2.9l9.49-1.89C961,94.62,1671.22,10.38,1824,161.9c46.67,46.29,35.54,105.72-18.6,176,29.09,18.72,49.83,48.18,59.2,85,211.2-140.13,353-274.07,286-348.06Z"/><path class="cls-2" d="M1584.21,539c1.91,58.43,39,106.36,87.14,106.36,93.47,0,133.31-114.83,130.52-191.48-2-58.56-40-106.36-88.14-106.36C1633.41,347.43,1581.43,461.76,1584.21,539Zm-49.32-3.16C1531.47,436.09,1609.63,334,1723.2,334c75.89,0,125.6,50.59,128.38,128.13,3.67,105.21-69.43,201.85-188.2,201.85C1587.25,664,1537.54,613.53,1534.89,535.88ZM459.27,509.57A109.84,109.84,0,0,1,443.46,514c-6.45,1.53-18.34,3.55-35.54,6.33-11.9,1.9-20.11,4.3-24.79,7.71-4.42,3.29-7.07,7.22-7.84,12.14-.88,5.19.76,9.24,5.19,12.53s12.13,4.8,22.9,4.8a74,74,0,0,0,23.52-3.79c7.71-2.53,14.28-6,19.22-10.25a30.89,30.89,0,0,0,8.34-12.14c1.27-3.29,2.92-10.49,4.81-21.75Zm98.64-61.34c-.37,9.1-2,17.2-4.42,31.24l-16.7,93.71c-1.39,8.36,1.65,14.81,9.36,19.36l-.5,3.67L450,596.08l-.89-23.79a192.55,192.55,0,0,1-45.9,19.62c-15.18,3.93-27.45,5.56-45.78,5.56-30.87,0-48.57-3.16-60.84-13.91-12.4-11-18.47-18.34-17.84-33.52.51-8.72,5.06-20,11.51-27.82s15.69-13.15,25.42-17.85,21.5-8.08,38.32-10.73,40.48-5.45,72-8.1c16.56-1.39,26.69-5.18,31.37-7.08,6.57-2.53,9.22-5.44,10.11-10.75,1.77-9.62-1.26-15.18-14.17-17.71-34.39-6.83-99,4.43-132.28,12.65l18.08-48.82c43.88-6.45,85-10.5,128.38-10.5,69.17,0,91.18,19.61,90.41,44.9ZM835.16,596.08l33.13-187.31h91.57l-33.14,187.3Zm38.19-230.69c2.78-15.43,27.06-27.83,54.12-27.83s47.06,12.52,44.4,27.83c-2.92,15.43-27.07,27.94-54.39,27.94C890.42,393.33,870.69,380.82,873.35,365.39ZM1285,510c-4.17,1.39-9.48,2.91-15.93,4.42s-18.34,3.43-35.54,6.2c-11.76,1.91-20.11,4.31-24.66,7.72a19.09,19.09,0,0,0-8,12c-1,5.19.88,9.37,5.18,12.52,4.68,3.17,12.27,4.68,23,4.68A78.74,78.74,0,0,0,1252.6,554c7.84-2.66,14.3-6,19.35-10.25a31.7,31.7,0,0,0,8.1-12.14q1.88-4.76,4.94-21.63Zm98.65-61.46c-.37,9.22-2,17.33-4.55,31.23l-16.56,93.85c-1.39,8.22,1.64,14.79,9.36,19.35l-.51,3.29-95.61.12-.76-23.9a185,185,0,0,1-45.91,19.6c-15.19,4-27.45,5.69-46,5.69-30.86,0-48.44-3-60.71-13.91-12.52-11.13-18.46-18.34-17.84-33.51.39-8.86,4.94-20.11,11.51-27.84,6.59-8.08,15.69-13.15,25.56-17.83s21.5-8.08,38.2-10.87c16.94-2.65,40.59-5.43,72.08-8.09,16.45-1.39,26.56-5.05,31.24-7,6.7-2.53,9.23-5.44,10.24-10.89,1.65-9.47-1.26-15-14-17.69-34.65-6.84-99,4.43-132.28,12.64L1165,414c44-6.45,85-10.51,128.37-10.51,68.93.14,90.94,19.87,90.31,45ZM266.4,528.79c-29.85,6-46.54,8.23-76,8.23-43.77,0-78.54-21.76-76.65-61.6C115.13,448.86,146.5,393,226.3,393c25.17,0,44.78,4.42,71.21,19.48l11.63-65c-35.91-13.53-59.7-15.55-90.56-15.3C113.88,333.27,13.45,380.83.93,477.57-11.72,575.84,108.31,600.5,161.55,600.26c30.74-.14,62.73-1.39,92.58-4.44Zm743.91-121,6.58-38.2,95.75-20.87-10.25,58.94h46.91l-8.84,37.69-45.53-.12-27.7,150.62s-92.2-.62-92.58,0l27.57-150.25H967.57l7.08-37.93h35.66Zm510.83-70.45L1476.63,596l-93.22.12,46.92-261.3ZM714,452.65a53,53,0,0,0-32.51,10.89c-9.6,7.33-15.68,17.95-18.08,32Q659,520,668.71,530.81C675.29,538,684.65,541.7,697,541.7c8.34,0,16.94-1.53,23.27-4.68,7.84-4.17,13.28-8.48,18-15.43a62.16,62.16,0,0,0,10.12-24.67c2.66-14.8.38-25.81-6.45-33.14S726,452.65,714,452.65ZM547.3,660.71l44.64-250.93h80.44l-6.21,32c7-9.61,18.09-17.45,33.53-23.78s33-11,52-11c21,0,33.89,1.13,49.58,9.24s26.56,20.11,32.37,35.54c6.06,15.17,7.34,32.37,4,51-5.43,31-20.48,55.27-45.27,73.23-24.53,18-46.67,22.64-78.16,22.76a118.51,118.51,0,0,1-28.2-3c-7.59-2-13.66-4.43-18.22-7.34s-9.1-7.08-15-13.66l-14.93,86Zm1662.07-185c-.5-15.06-8.1-25.29-23.65-25.29-37.56,0-77.52,73.6-84.36,103.19,61.6.13,109.53-36.55,108-77.9ZM2217.45,591l7.22,4.94c-18.34,37.3-55.64,67.28-99.41,67.28-35.79,0-65.25-23.91-66.77-68.68-2.91-80.31,72.34-154.8,133.93-154.8,26.44,0,51,11.5,52,40,2.28,63.88-87.39,83.35-146.45,84.74-1.91,6.7-2.66,13.41-2.28,23.52,1,26.44,16.95,48.7,50.09,48.7,28.58,0,57.16-23,71.71-45.67Z"/><path class="cls-2" d="M1850.19,473.65c6.32-.89,16.56-2,21-2,6.71,0,13,1.27,13.41,8,.14,3.92-6.95,32.37-8.47,38.95l-14.28,63c-5.83,25.8-12,52.74-17.59,74.11h36.67l20.62-99.79c62.87-65.51,87.14-86.89,101.94-86.89,6.7,0,11.26,3.55,11.64,11.51.38,11.51-6.84,37.69-9.24,45.28l-21,72.72c-4.82,16.32-8.35,31.11-8,41.62.63,15.93,10.23,23,24.65,23,26.83,0,46.3-27.94,63.24-55.39l-4.94-9c-6.82,11-22.75,35.16-35.28,35.16-3.93,0-7.71-2.65-7.84-9.23-.37-8.47,3.16-21.25,5.7-29.72l23.4-85.25c6.31-23.52,9.22-38.57,9.1-46.66-.63-15.93-9.88-23.4-24.16-23.4-24.15,0-56.15,17.7-124.06,95.74h-1l8.59-38.07c4.68-20.87,9.23-42.62,13.54-57.68-23.54,8.49-57.17,18-77.92,22Z"/></g></g></svg>