<svg xmlns="http://www.w3.org/2000/svg" viewBox="0 0 56.57 24.24"><defs><style>.cls-1{fill:#ec038d;}</style></defs><g id="Layer_2" data-name="Layer 2"><g id="Layer_1-2" data-name="Layer 1"><path class="cls-1" d="M56,1.7A3.45,3.45,0,0,0,51.65.35a3.9,3.9,0,0,0-1.94,4.94c.55,1.68,2.22,2.55,3.77,3.15.59.44,0,1.33-.16,1.9a33.8,33.8,0,0,1-1.76,3.82c-.36,0-.35-.66-.59-.89a48.54,48.54,0,0,1-3.35-10A3.85,3.85,0,0,0,45.84.34a3.42,3.42,0,0,0-4.28,1.17A2.69,2.69,0,0,0,39.31.08c-1.74-.16-3.2,1.09-4.12,2.44A2.56,2.56,0,0,0,34,.89C32.45,0,30.59.2,28.86.29c0,1.06,0,2.12,0,3.17a5.67,5.67,0,0,0-2-2.31C23.21-1.17,18,.33,15.7,3.85A4,4,0,0,0,14.05.58a3.61,3.61,0,0,0-4.5.58,4.24,4.24,0,0,0-.67,4.39c.62,1.68,2.36,2.36,3.85,3.06-.22,1.73-1.26,3.26-1.92,4.86-.19.18-.15.75-.48.69A52.8,52.8,0,0,1,6.43,2.82a3.28,3.28,0,0,0-4-2.7A3.06,3.06,0,0,0,.05,3.73a33.69,33.69,0,0,0,1.79,6.52,42.54,42.54,0,0,0,2.57,6.06C5.62,18.07,8,18.4,10,18c1.56-2.83,2.87-5.81,4.26-8.72a9.39,9.39,0,0,0,3.28,7A8.24,8.24,0,0,0,25,17.93a8.11,8.11,0,0,0,3.94-2.64c.74,2.69,4.08,3.3,6.4,2.63,0-4.26,0-8.51,0-12.77a1.42,1.42,0,0,1,.89-1.51c0,1.45.56,3.24,2.14,3.64a2.92,2.92,0,0,0,3.22-1.43,58.27,58.27,0,0,0,3.11,9.41,4.59,4.59,0,0,0,4.75,2.58,9.45,9.45,0,0,1-1.58,2.29c-.27.24-.55.66-1,.64a6.62,6.62,0,0,0-1.31-2.16c-1.44-1.53-4.34-1.51-5.49.36a3.28,3.28,0,0,0,.51,4.12,4.28,4.28,0,0,0,4.48.88,10,10,0,0,0,4.16-3.56,50.89,50.89,0,0,0,5-9,25,25,0,0,0,2.19-6.33A5.4,5.4,0,0,0,56,1.7ZM20.48,3.26A2.56,2.56,0,0,1,22,1.84a1.48,1.48,0,0,1,1.77,1.09c.88,2.69-.72,6.08-3.63,6.6A9.9,9.9,0,0,1,20.48,3.26Zm8.37,11.22a6.71,6.71,0,0,1-8.33-3.84c2.87,0,6.62-.13,8.27-2.92C28.94,9.68,28.83,12.28,28.85,14.48Z"/></g></g></svg>