<svg xmlns="http://www.w3.org/2000/svg" viewBox="0 0 370 65.22"><defs><style>.cls-1{fill:#1a1818;}.cls-2{fill:#fff;}.cls-3{fill:#e71d1c;}</style></defs><g id="Layer_2" data-name="Layer 2"><g id="Layer_1-2" data-name="Layer 1"><path class="cls-1" d="M47.85,35.1s0,22.55,0,22.55A5.48,5.48,0,0,1,42.23,63H39.17v1.15H65.05V63H62a5.55,5.55,0,0,1-5.63-5.32V7.4A5.55,5.55,0,0,1,62,2.09h3.06V.93H39.17V2.09h3.06A5.52,5.52,0,0,1,47.85,7.4V31.91H17.19V7.4a5.58,5.58,0,0,1,5.63-5.31h3.06V.93H0V2.09H3.06A5.55,5.55,0,0,1,8.69,7.4V57.65A5.52,5.52,0,0,1,3.06,63H0v1.15H25.88V63H22.82a5.55,5.55,0,0,1-5.63-5.32s0-22.55,0-22.55Z"/><path class="cls-1" d="M109.39,47.59c.22,3.71-2.08,9.35-5.27,12.22A19.42,19.42,0,0,1,90.83,65c-6.65,0-12.37-3.54-14.45-4.34a4.81,4.81,0,0,0-3.9.17c-1.15.72-1.86,1.86-2.13,4h-1V42.93h1a23.5,23.5,0,0,0,6,12.94c3.19,3.68,9.21,5.76,15,4.83a11.49,11.49,0,0,0,9.1-11.94c-.19-2.24-.68-5.49-5.33-8.53-2.92-1.91-7.07-4.61-11-7.22-5-3.29-9.46-6.85-10.73-8.29a13,13,0,0,1-3.72-8.95A15.17,15.17,0,0,1,74.12,5,18.07,18.07,0,0,1,87.06,0c5.85,0,10.28,3.1,11.79,3.81a4.72,4.72,0,0,0,4.12,0c.93-.54,1.55-1.33,1.81-3.46h1V21.09h-1C103.9,14.35,101,9.31,98.93,7.44A13.39,13.39,0,0,0,87,4.16c-5.69,1.11-8.47,3.68-9,8.24-.4,3.48,1.48,5.62,2.57,6.92C82.76,22,96.82,29.94,103.19,35.45c3.28,2.83,5.85,6.2,6.2,12.14"/><path class="cls-1" d="M130,60.55c4.38,1.35,12.71,2.39,18.52-1.77,7-5,8.43-17.17-1.4-23.52-4-2.56-13.84-2.38-17.12-1.61Zm0-30.46c3.1.79,12.23,1,15.77-1.24,5.55-3.53,7.48-9.18,6.46-14.18A12.26,12.26,0,0,0,147.27,7C141.86,3.15,134.07,3.77,130,5Zm20.38,1.77c11.27,3.86,14.48,11.81,12.39,20-2.46,9.63-13.32,11.58-16.84,12.05-1.59.21-5.65.19-9.66.19-7.16,0-16.21,0-23.49,0V62.94h3.73a5.15,5.15,0,0,0,5.07-5V7.49a5.19,5.19,0,0,0-5-5.05H112.8V1.28h22.46a49.16,49.16,0,0,1,10.24.89c3.19.62,12.5,3.37,14.71,12.05,1.71,6.73-1.64,15.2-9.84,17.64"/><path class="cls-1" d="M222,2l.91,21.4-1.28,0c-.62-5.41-2.66-9.22-5.23-11.7a24.24,24.24,0,0,0-4.17-3.44,20.18,20.18,0,0,0-14.35-2.94c-9,1.59-13.56,7.51-15.86,13.2-2.84,7-4.64,19,.18,29.07a22.54,22.54,0,0,0,17.19,12.49c4.93.76,15.86.52,24.19-10.72l1.33.89c-6.47,9.13-15.07,15-24.9,14.88a32.19,32.19,0,0,1-24.11-11.16c-3.81-4.34-6.73-12.58-6.77-19.76,0-6.38,1.38-13.48,3.67-17.64a30.24,30.24,0,0,1,23-15.28c8.13-.8,13.47.79,18,3.41,2.28,1.3,3.56,1.46,4.8.93A3.64,3.64,0,0,0,220.9,2Z"/><path class="cls-2" d="M338.43,64.11H275.3V1h63.13Z"/><path class="cls-3" d="M243.73,32.56l31.56,31.56V1Z"/><path class="cls-3" d="M275.3,64.12h63.13L306.86,32.56Z"/><path class="cls-3" d="M306.86,32.56,338.43,1H275.3Z"/><path class="cls-3" d="M338.43,1V64.12L370,32.56Z"/></g></g></svg>