<svg xmlns="http://www.w3.org/2000/svg" viewBox="0 0 311.81 56.91"><defs><style>.cls-1{fill:#ee2c42;}</style></defs><g id="Layer_2" data-name="Layer 2"><g id="Calque_1" data-name="Calque 1"><path class="cls-1" d="M32,2.7c0,7,11.73,14.77,11.73,22.75a4.83,4.83,0,0,1-.33,1.6c11,2.31,18.74,7.77,18.74,14.16,0,8.59-13.85,15.7-31,15.7C13.59,56.91,0,49.92,0,41.54,0,35.15,8.42,30,18.58,27.22c0,3.52,11.55,14.71,11.83,19.22a4.66,4.66,0,0,1,0,1.49c2.5-1.32,2.5-5.46,2.5-5.46,0-9.8-11.24-14.15-11.24-23.79,0-3.75,1.74-6.5,3.31-7.27V14.1c0,7,12.16,14.82,12.16,21.21v2.1C40,36.31,40,31.07,40,31.07c0-8.81-11.3-13.72-11.3-23.8C28.67,3.53,30.41.78,32,0Z"/><path class="cls-1" d="M86.78,54.2a30.41,30.41,0,0,1-10.21-1.7V42.09H78c.76,5.5,4.88,9.69,9.6,9.69s8-2.64,8-6.83c0-4.46-4.4-6.49-7.33-8l-4.23-2.15c-4-2-7.27-5.34-7.27-10,0-5.78,4.23-10.74,12.31-10.74A29.48,29.48,0,0,1,99.26,16v9.3H97.79c-.86-5-3.58-8.87-9.11-8.87-4.13,0-6.57,2.87-6.57,5.78,0,3.8,2.6,5.51,5.64,7.05L92,31.41c3.85,2,8.63,5.28,8.63,10.9,0,7.16-4.89,11.89-13.84,11.89"/><path class="cls-1" d="M114.13,42.86c-1.14.5-3.15,1.43-3.15,4.07a3.54,3.54,0,0,0,3.64,3.75,8.25,8.25,0,0,0,4.61-1.87V40.66ZM111.9,54a5.77,5.77,0,0,1-6.08-6.16c0-2.65,1.91-4.68,6.08-6.23l7.33-2.69V36.58c0-3.46-1.57-5.61-4-5.61a4.82,4.82,0,0,0-4.07,2.15,3.29,3.29,0,0,0-.38,1.76,5.22,5.22,0,0,0,.59,2l-3.58,1.65a6.63,6.63,0,0,1-1-3.08c0-.22,0-.44,0-.6.27-2,2-3.31,4.23-4.68a10.49,10.49,0,0,1,5.48-1.76c6.84,0,8,5.5,8,7.32V47.15c0,1.82.16,3,1.62,3a3.09,3.09,0,0,0,1.31-.22l1.3-.44v1.65L121.29,54a5.54,5.54,0,0,1-1.9-3.58C117.6,52,114.51,54,111.9,54"/><path class="cls-1" d="M130.57,53.43V52.11l1.79-.33a2.19,2.19,0,0,0,1.85-2.15V34.93c0-1.26-.6-1.93-1.69-1.93a3.61,3.61,0,0,0-1.24.22l-.71.28V31.85l7.81-3.41h1.15v4.07c2.38-2.7,5.2-4.07,7.7-4.07,5.54,0,8.19,4,8.19,8.69v12.5a2.19,2.19,0,0,0,1.91,2.15l1.84.33v1.32H146.25V52.11l1.79-.33a2.29,2.29,0,0,0,2-2.15V37.19c0-1.65-.44-5.34-4.78-5.34a8.68,8.68,0,0,0-5.59,2.59V49.63a2.29,2.29,0,0,0,2,2.15l1.79.33v1.32Z"/><path class="cls-1" d="M177.89,31.79h-7.6V45.45c0,3,1.58,4.68,3.86,4.68a8.08,8.08,0,0,0,3.74-1.05l.6,1.32-4.89,3.14a12.65,12.65,0,0,1-1.46.16c-4.72,0-7.27-2.8-7.27-8.75V31.79h-4V30.42s6-2.31,8.3-8h1.08v7h8.58Z"/><path class="cls-1" d="M189.27,42.86c-1.13.5-3.14,1.43-3.14,4.07a3.54,3.54,0,0,0,3.63,3.75,8.23,8.23,0,0,0,4.61-1.87V40.66ZM187.05,54A5.77,5.77,0,0,1,181,47.82c0-2.65,1.9-4.68,6.08-6.23l7.32-2.69V36.58c0-3.46-1.57-5.61-4-5.61a4.83,4.83,0,0,0-4.07,2.15,3.38,3.38,0,0,0-.38,1.76,5.16,5.16,0,0,0,.6,2L183,38.56a6.52,6.52,0,0,1-1-3.08c0-.22.06-.44.06-.6.27-2,1.95-3.31,4.23-4.68a10.47,10.47,0,0,1,5.48-1.76c6.84,0,8,5.5,8,7.32V47.15c0,1.82.17,3,1.63,3a3,3,0,0,0,1.3-.22l1.31-.44v1.65L196.44,54a5.54,5.54,0,0,1-1.9-3.58C192.75,52,189.66,54,187.05,54"/><path class="cls-1" d="M205.71,53.43V52.11l1.8-.33a2.19,2.19,0,0,0,1.84-2.15V34.93c0-1.26-.6-1.93-1.68-1.93a3.67,3.67,0,0,0-1.25.22l-.71.28V31.85l7.82-3.41h1.14v4.07c2.39-2.7,5.21-4.07,7.71-4.07,5.53,0,8.19,4,8.19,8.69v12.5a2.19,2.19,0,0,0,1.9,2.15l1.84.33v1.32H221.4V52.11l1.79-.33a2.28,2.28,0,0,0,1.95-2.15V37.19c0-1.65-.43-5.34-4.77-5.34a8.66,8.66,0,0,0-5.59,2.59V49.63a2.29,2.29,0,0,0,1.95,2.15l1.79.33v1.32Z"/><path class="cls-1" d="M250.54,30.75c-3.9,0-7.92,2.53-7.92,9.91,0,6.16,3,9.91,7.81,9.91A5.87,5.87,0,0,0,255.54,48V33.67a5.16,5.16,0,0,0-5-2.92M248.1,54c-5.1,0-11.24-3.85-11.24-12.22A13.06,13.06,0,0,1,250,28.44a14.08,14.08,0,0,1,5.59,1V16.88c0-1.33-.71-1.71-1.58-1.71a5.07,5.07,0,0,0-1.52.27l-1.08.39V14.17l8.47-3.63H261V46.82c0,2.1.33,3.31,1.79,3.31a3,3,0,0,0,1.3-.22l1.31-.44v1.65L257.76,54a5.9,5.9,0,0,1-2.06-3.63A10.37,10.37,0,0,1,248.1,54"/><path class="cls-1" d="M284.4,37v-.11c0-4.13-2.27-6.11-5-6.11-3,0-5.32,2-6,6.22Zm-11.12,2.26v.27c0,7.32,4.07,11,9.22,11A11.27,11.27,0,0,0,289.4,48v2.2A13.94,13.94,0,0,1,279.85,54c-8.47,0-12.21-6.44-12.21-12.55,0-7.16,5.37-13,12.31-13A9.79,9.79,0,0,1,290.1,38.51v.72Z"/><path class="cls-1" d="M293.3,53.43V52.11l1.79-.33a2.23,2.23,0,0,0,1.85-2.15V34.93c0-1.26-.6-1.93-1.68-1.93a3.63,3.63,0,0,0-1.25.22l-.71.28V31.85L301,28.44h1.14v5.34c2-3.86,4.29-5.45,7-5.45,2.17,0,2.71.55,2.71.55v5.83h-1.08a2.65,2.65,0,0,0-2.93-2.31c-1.74,0-3.91.49-5.43,3.69V49.63a2.44,2.44,0,0,0,2.12,2.15l2.6.33v1.32Z"/></g></g></svg>