<svg xmlns="http://www.w3.org/2000/svg" viewBox="0 0 380 96.38"><defs><style>.cls-1{fill:#003087;}.cls-2{fill:#009cde;}.cls-3{fill:#012169;}</style></defs><g id="Layer_2" data-name="Layer 2"><g id="Layer_1-2" data-name="Layer 1"><path class="cls-1" d="M69.55,7.27C65.08,2.18,57,0,46.69,0H16.74A4.3,4.3,0,0,0,12.5,3.62L0,82.72a2.57,2.57,0,0,0,2.54,3h18.5l4.64-29.46-.14.93a4.27,4.27,0,0,1,4.22-3.62h8.78c17.27,0,30.78-7,34.73-27.3.12-.6.22-1.18.31-1.75,1.17-7.5,0-12.6-4.06-17.22"/><path class="cls-2" d="M295.93,44.91c-1.13,7.42-6.8,7.42-12.28,7.42h-3.12l2.19-13.86a1.72,1.72,0,0,1,1.7-1.45h1.43c3.73,0,7.26,0,9.08,2.12,1.08,1.28,1.41,3.16,1,5.77m-2.39-19.37H272.87A2.87,2.87,0,0,0,270,28l-8.36,53a1.72,1.72,0,0,0,1.7,2H274a2,2,0,0,0,2-1.69l2.38-15a2.87,2.87,0,0,1,2.83-2.42h6.55c13.62,0,21.48-6.59,23.53-19.66.93-5.71,0-10.2-2.63-13.34-2.95-3.46-8.16-5.29-15.08-5.29"/><path class="cls-1" d="M148.44,44.91c-1.13,7.42-6.8,7.42-12.28,7.42H133l2.19-13.86a1.72,1.72,0,0,1,1.7-1.45h1.43c3.73,0,7.26,0,9.08,2.12,1.09,1.28,1.41,3.16,1,5.77m-2.38-19.37H125.38A2.87,2.87,0,0,0,122.54,28l-8.36,53a1.72,1.72,0,0,0,1.7,2h9.87a2.87,2.87,0,0,0,2.84-2.42l2.26-14.31a2.87,2.87,0,0,1,2.84-2.42h6.54c13.62,0,21.48-6.59,23.53-19.66.93-5.71,0-10.2-2.63-13.34-2.94-3.46-8.15-5.29-15.07-5.29"/><path class="cls-1" d="M194.06,63.94a11,11,0,0,1-11.17,9.46,7.67,7.67,0,0,1-8.2-9.63,11.07,11.07,0,0,1,11.09-9.53,8.35,8.35,0,0,1,6.6,2.7,8.5,8.5,0,0,1,1.68,7m13.8-19.27H198a1.72,1.72,0,0,0-1.7,1.46l-.44,2.76-.69-1c-2.14-3.11-6.92-4.15-11.7-4.15-10.94,0-20.28,8.29-22.1,19.92-1,5.8.4,11.34,3.69,15.21,3,3.55,7.33,5,12.47,5a19,19,0,0,0,13.71-5.66L190.75,81a1.73,1.73,0,0,0,1.71,2h8.91a2.86,2.86,0,0,0,2.84-2.42l5.36-33.9a1.73,1.73,0,0,0-1.71-2"/><path class="cls-2" d="M341.55,63.94a11,11,0,0,1-11.18,9.46,8.33,8.33,0,0,1-6.64-2.67,8.43,8.43,0,0,1-1.56-7,11.08,11.08,0,0,1,11.1-9.53,8.37,8.37,0,0,1,6.6,2.7,8.5,8.5,0,0,1,1.68,7m13.8-19.27h-9.9a1.72,1.72,0,0,0-1.7,1.46l-.44,2.76-.69-1c-2.15-3.11-6.93-4.15-11.7-4.15-10.94,0-20.28,8.29-22.1,19.92-.95,5.8.4,11.34,3.69,15.21,3,3.55,7.33,5,12.47,5a18.93,18.93,0,0,0,13.7-5.66L338.24,81A1.72,1.72,0,0,0,340,83h8.91a2.86,2.86,0,0,0,2.84-2.42l5.35-33.9a1.72,1.72,0,0,0-1.7-2"/><path class="cls-1" d="M260.6,44.67h-10a2.88,2.88,0,0,0-2.38,1.26L234.54,66.15l-5.82-19.43a2.87,2.87,0,0,0-2.75-2h-9.78A1.72,1.72,0,0,0,214.56,47l10.95,32.17-10.3,14.54a1.72,1.72,0,0,0,1.4,2.72h9.95a2.88,2.88,0,0,0,2.36-1.23L262,47.38a1.73,1.73,0,0,0-1.42-2.71"/><path class="cls-2" d="M367,27l-8.48,54a1.72,1.72,0,0,0,1.7,2h8.53a2.86,2.86,0,0,0,2.84-2.42l8.37-53a1.73,1.73,0,0,0-1.71-2h-9.55A1.72,1.72,0,0,0,367,27"/><path class="cls-1" d="M69.55,7.27C65.08,2.18,57,0,46.69,0H16.74A4.3,4.3,0,0,0,12.5,3.62L0,82.72a2.57,2.57,0,0,0,2.54,3h18.5l4.64-29.46-.14.93a4.27,4.27,0,0,1,4.22-3.62h8.78c17.27,0,30.78-7,34.73-27.3.12-.6.22-1.18.31-1.75,1.17-7.5,0-12.6-4.06-17.22"/><path class="cls-1" d="M30.7,24.59a3.74,3.74,0,0,1,2.09-2.8,3.66,3.66,0,0,1,1.61-.37H57.89a47.93,47.93,0,0,1,7.74.57c.68.1,1.34.23,2,.37s1.26.31,1.86.48l.89.28a21.29,21.29,0,0,1,3.25,1.37c1.17-7.5,0-12.6-4.06-17.22C65.08,2.18,57,0,46.69,0H16.74A4.31,4.31,0,0,0,12.5,3.62L0,82.72a2.57,2.57,0,0,0,2.54,3h18.5l4.64-29.46Z"/><path class="cls-2" d="M73.61,24.49h0c-.09.57-.19,1.15-.31,1.75-4,20.28-17.46,27.3-34.73,27.3H29.78a4.25,4.25,0,0,0-4.21,3.62l-4.5,28.53-1.28,8.09A2.24,2.24,0,0,0,22,96.38H37.6a3.75,3.75,0,0,0,3.7-3.16l.15-.79,2.94-18.62.19-1a3.76,3.76,0,0,1,3.7-3.17h2.34c15.1,0,26.92-6.13,30.38-23.88,1.44-7.41.69-13.6-3.12-17.95a15,15,0,0,0-4.27-3.29"/><path class="cls-3" d="M69.47,22.84q-.9-.27-1.86-.48c-.64-.14-1.3-.26-2-.37a47.93,47.93,0,0,0-7.74-.57H34.4a3.66,3.66,0,0,0-1.61.37,3.74,3.74,0,0,0-2.09,2.8l-5,31.64-.14.93a4.26,4.26,0,0,1,4.21-3.62h8.79c17.27,0,30.78-7,34.73-27.3.12-.6.22-1.18.31-1.75a20.33,20.33,0,0,0-3.25-1.37l-.89-.28"/></g></g></svg>