<svg xmlns="http://www.w3.org/2000/svg" viewBox="0 0 497.71 78.06"><defs><style>.cls-1{fill:#1c1848;}.cls-2{fill:#f16560;}.cls-3{fill:#e21e2e;}</style></defs><g id="Layer_2" data-name="Layer 2"><g id="Layer_1-2" data-name="Layer 1"><path class="cls-1" d="M258.8,0c-1.66.58-8.36,2.9-11.38,4v15.2H239v10h8.39V63.13C247.42,74.72,254.8,78,261,78a45.54,45.54,0,0,0,12-1.34V66.73a20.76,20.76,0,0,1-6.07.89c-4.48,0-8.1-.87-8.1-7.29V29.2H273v-10H258.81C258.81,18,258.78,3.37,258.8,0Z"/><path class="cls-1" d="M340.18,50.42c-.65,3-1,5.16-1.15,6.15-.17-1-.66-3.18-1.36-6.18C334.27,37,325.63,3.15,324.94.2H313.48c-.46,2.07-9.12,36.63-12.54,50.19-.79,3.1-1.3,5.92-1.36,6.18-.06-.27-.58-3.08-1.19-6.16C295.76,37.22,289.13,4.09,288.33.13c-2.39,0-10.73.07-12,.07,0,0,14.4,68.85,16,76.54h11.86c.58-2.06,9.87-38.2,13.36-51.79.72-2.86,1.19-5.16,1.3-5.54.08.41.57,2.7,1.28,5.47,3.35,12.92,12,46.53,13.25,51.86h12c.71-3.66,14.65-72.55,15.37-76.54-1.83,0-8.41-.06-11.33-.07C349.17,1.77,342.77,36.84,340.18,50.42Z"/><path class="cls-1" d="M211.31,18c-6.4,0-12.74,1-17.34,3V31.17c3.11-1.47,10.56-3,15.41-3,12.77,0,12.84,5.6,12.84,11.72H209.13c-14.87,0-22.85,9.07-22.85,18.82,0,13.48,11.08,19.25,20.06,19.25,8.13,0,12.73-3.83,16-6.93,0,1.7,0,3,0,5.67h11.31V37.51C233.61,19.49,217.58,18,211.31,18Zm10.93,42.59c-2.76,3.46-7.77,7.28-14.35,7.28s-10.06-4.11-10.06-9.09,3.73-8.9,12-8.9h12.36Z"/><path class="cls-1" d="M166.64.2V52.87c0,.73-.06,2.75.09,4.65-.94-1.88-2-3.57-2.34-4.13-1-1.74-31-50-32.84-53.19H120.08c0,1.91,0,75.72,0,76.54h11.16V24.21c0-1.11,0-3.18-.12-4.51.55,1.18,1.6,2.92,2.34,4.14s31.32,49.82,33.11,52.9c1.81,0,9.14,0,11.19,0,0-2.28.05-74.14,0-76.54Z"/><path class="cls-1" d="M388.51,18.13c-8.77,0-26,5.73-26,30.08C362.52,73.09,380,78,389.42,78s13.75-1.91,18.18-4V63.58a32.94,32.94,0,0,1-16.41,4.3c-13.3,0-16.68-9.13-16.68-15.63h37.9C414.53,37.54,408.51,18.13,388.51,18.13Zm-14,24.5c0-6.38,4.42-14.47,13.42-14.47,9.74,0,12.93,8.91,12.93,14.47Z"/><path class="cls-1" d="M497.7,29.2c0-1.25,0-9.64,0-10H483.48c0-1.19,0-15.82,0-19.19-1.65.58-8.36,2.9-11.38,4,0,0,0,11.89,0,15.2h-8.37c0,1.15,0,9.25,0,10h8.37V63.13c0,11.59,7.39,14.87,13.64,14.87a45.67,45.67,0,0,0,12-1.34V66.73a21,21,0,0,1-6.06.89c-4.49,0-8.11-.87-8.11-7.29V29.2Z"/><path class="cls-1" d="M447.44,44.36c-1.87-.8-4.09-1.76-7.38-3.22s-8.33-3.38-8.33-7.55c0-3.75,3.75-5.6,9.08-5.6a33.76,33.76,0,0,1,15.6,3.91V21.25c-2.42-1.21-9.07-3.07-16.06-3.07-15.41,0-20.38,9.58-20.38,15.89,0,9.84,7,13.42,11,15.25,4.56,2.07,6.91,3,10.31,4.54,5.05,2.22,7.77,3.45,7.77,7.57,0,3.65-3,6.66-10.18,6.66-6.92,0-14.06-2.72-18-4.8V74.14a45.5,45.5,0,0,0,18.31,3.92c14.54,0,21.61-9,21.61-17C460.82,52.79,456.92,48.45,447.44,44.36Z"/><path class="cls-2" d="M55.88,43.66a.75.75,0,0,0,.61.35.74.74,0,0,0,.63-.33L68.61,23.79a2.8,2.8,0,0,0,0-2.76L57.45,1.76A3.05,3.05,0,0,0,54.77.23h-1a1.63,1.63,0,0,1,1.65,1.64,1.55,1.55,0,0,1-.2.75L45.1,20a5.57,5.57,0,0,0,.08,5.27Z"/><path class="cls-2" d="M37.5,33.2a.68.68,0,0,0,0-.7.73.73,0,0,0-.6-.37h-23a2.75,2.75,0,0,0-2.32,1.35L.41,52.8a3.16,3.16,0,0,0,0,3.11l.51.82a1.65,1.65,0,0,1,.61-2.24,1.49,1.49,0,0,1,.75-.16H22.36a5.37,5.37,0,0,0,4.52-2.7Z"/><path class="cls-2" d="M37.7,54.26a.76.76,0,0,0-.62.41.78.78,0,0,0,0,.71l11.5,19.89A2.85,2.85,0,0,0,51,76.67l22.27,0a3.11,3.11,0,0,0,2.67-1.6l.52-.82a1.66,1.66,0,0,1-2.26.52,4.2,4.2,0,0,1-.57-.46l-10-17.47A5.63,5.63,0,0,0,59,54.26Z"/><path class="cls-3" d="M45.1,20,55.21,2.62a1.55,1.55,0,0,0,.2-.75A1.63,1.63,0,0,0,53.76.23H32.42A2.7,2.7,0,0,0,30,1.58L18.52,21.46a.75.75,0,0,0,.6,1.08l21.51,0a5.17,5.17,0,0,1,4.45,2.58l.1.14A5.57,5.57,0,0,1,45.1,20Z"/><path class="cls-3" d="M22.36,54.33H2.28a1.49,1.49,0,0,0-.75.16,1.66,1.66,0,0,0-.62,2.24L11.63,75.21a2.71,2.71,0,0,0,2.31,1.45h23a.78.78,0,0,0,.66-1.1L26.78,56.92a5.29,5.29,0,0,1,0-5.13l.09-.16A5.37,5.37,0,0,1,22.36,54.33Z"/><path class="cls-3" d="M63.63,56.82l10,17.47a4.2,4.2,0,0,0,.57.46,1.66,1.66,0,0,0,2.26-.51L87.06,55.75a2.79,2.79,0,0,0,0-2.78L75.64,33.09a.75.75,0,0,0-.63-.33.7.7,0,0,0-.62.31L63.63,51.7a5.13,5.13,0,0,1-4.45,2.56H59A5.63,5.63,0,0,1,63.63,56.82Z"/></g></g></svg>