<svg xmlns="http://www.w3.org/2000/svg" viewBox="0 0 365 112.11"><defs><style>.cls-1{fill:#006bb6;}</style></defs><g id="Layer_2" data-name="Layer 2"><g id="Layer_1-2" data-name="Layer 1"><path class="cls-1" d="M22.53,28.76V41.33h.34c4.18-9.67,12.07-14.18,22.7-14.18S63.13,31.66,68,41.33c4.19-9.67,13.69-14.18,23.84-14.18,7.24,0,15.14,2.58,20,8.37,5.48,6.45,4.34,15.8,4.34,24v51H92.44V67.25c0-3.22.31-11.27-.5-14.33-1.28-5.16-5.16-6.6-10.13-6.6A11.5,11.5,0,0,0,71.49,52.6c-1.76,3.87-1.6,10.31-1.6,14.65v43.32H46.22V67.25c0-8.54,1.61-21.08-10.64-21.08S23.65,58.39,23.65,67.25v43.32H0V28.76Z"/><path class="cls-1" d="M151.14,76.19c0,4.5.15,9.64,2.73,13.67a11.4,11.4,0,0,0,10,5.63c13.36,0,13.36-17.07,13.36-25.92,0-9.17,0-26.26-13-26.26-11.44,0-13,12.41-13,21.11ZM127.13,0h23.68V39h.64c4-8,10.77-11.92,20-11.92,23.37,0,30.43,23.2,30.43,42.52,0,21.42-8.5,42.54-33.18,42.54-11.74,0-17.37-4.37-23.32-14.19-2.91,3.53-3.87,8.23-5.33,12.55H127.13Z"/><path class="cls-1" d="M209.52,28.76H232V42.62h.29c4.86-10.47,11.59-15.47,23.52-15.47,7.71,0,15.31,2.42,20.15,9,4.5,6.11,4.5,16.42,4.5,23.83v50.56H256.72V66.62c0-8.37,1.17-20.62-10.79-20.62a11.38,11.38,0,0,0-10,6.1c-2.42,4.69-2.72,9.37-2.72,14.52v43.95h-23.7Z"/><path class="cls-1" d="M339.21,71.35c-9,1-25.61,3.05-25.61,15,0,6.42,3.86,10.8,10.46,10.8A14.31,14.31,0,0,0,336,90.36c3.38-5.17,3.23-10,3.23-15.79Zm2.27,39.12a46.7,46.7,0,0,1-1.15-12.71c-6.76,9.67-13.87,14.35-26.1,14.35-14.48,0-25.78-7.72-25.78-23.21,0-12.07,7.58-20.29,18.38-24.33,9.34-3.53,22.38-4.17,32.38-5.14v-2c0-3.54.31-7.74-2.1-10.76-2.11-2.77-6.13-3.9-9.67-3.9-7.57,0-14.17,3.9-14.17,11.93l-22.39-2.1c2.39-19.78,21.73-25.6,39-25.6,8.38,0,19.34,1.93,25.9,7.42,8.4,6.76,7.61,15.78,7.61,25.62V98.25A38.12,38.12,0,0,0,365,110.47Z"/></g></g></svg>