<svg xmlns="http://www.w3.org/2000/svg" viewBox="0 0 329.19 350"><defs><style>.cls-1{fill:#0e1f7f;}</style></defs><g id="Layer_2" data-name="Layer 2"><g id="Layer_1-2" data-name="Layer 1"><path class="cls-1" d="M50.45,141.89c0-49.19,27.12-97.12,81.35-97.12,54.87,0,82.61,46.67,82.61,97.12,0,49.82-24.59,97.12-82.61,97.12C75,239,50.45,190.45,50.45,141.89ZM0,141.89c0,83.87,47.93,142.52,131.8,142.52,84.51,0,133.06-58.65,133.06-142.52C264.86,60.54,215.67,0,131.8,0,48.56,0,0,60.54,0,141.89Z"/><path class="cls-1" d="M252.88,350V330.45C263,321,302.07,288.2,302.07,267.38c0-10.72-9.46-15.76-18.29-15.76-10.09,0-19.55,4.41-27.12,9.46l-1.89-19.55a82.39,82.39,0,0,1,34.69-8.2c21.44,0,35.31,11.35,35.31,34,0,24-24.59,46.67-42.88,64.33h47.3V350Z"/></g></g></svg>