<svg width="153" height="90" viewBox="0 0 153 90" fill="none" xmlns="http://www.w3.org/2000/svg">
<path d="M6 3C6 4.65685 4.65685 6 3 6C1.34315 6 0 4.65685 0 3C0 1.34315 1.34315 0 3 0C4.65685 0 6 1.34315 6 3Z" fill="#FEFEFE"/>
<path d="M6 24C6 25.6569 4.65685 27 3 27C1.34315 27 0 25.6569 0 24C0 22.3431 1.34315 21 3 21C4.65685 21 6 22.3431 6 24Z" fill="#FEFEFE"/>
<path d="M6 45C6 46.6569 4.65685 48 3 48C1.34315 48 0 46.6569 0 45C0 43.3431 1.34315 42 3 42C4.65685 42 6 43.3431 6 45Z" fill="#FEFEFE"/>
<path d="M6 66C6 67.6569 4.65685 69 3 69C1.34315 69 0 67.6569 0 66C0 64.3431 1.34315 63 3 63C4.65685 63 6 64.3431 6 66Z" fill="#FEFEFE"/>
<path d="M6 87C6 88.6569 4.65685 90 3 90C1.34315 90 0 88.6569 0 87C0 85.3431 1.34315 84 3 84C4.65685 84 6 85.3431 6 87Z" fill="#FEFEFE"/>
<path d="M27 3C27 4.65685 25.6569 6 24 6C22.3431 6 21 4.65685 21 3C21 1.34315 22.3431 0 24 0C25.6569 0 27 1.34315 27 3Z" fill="#FEFEFE"/>
<path d="M27 24C27 25.6569 25.6569 27 24 27C22.3431 27 21 25.6569 21 24C21 22.3431 22.3431 21 24 21C25.6569 21 27 22.3431 27 24Z" fill="#FEFEFE"/>
<path d="M27 45C27 46.6569 25.6569 48 24 48C22.3431 48 21 46.6569 21 45C21 43.3431 22.3431 42 24 42C25.6569 42 27 43.3431 27 45Z" fill="#FEFEFE"/>
<path d="M27 66C27 67.6569 25.6569 69 24 69C22.3431 69 21 67.6569 21 66C21 64.3431 22.3431 63 24 63C25.6569 63 27 64.3431 27 66Z" fill="#FEFEFE"/>
<path d="M27 87C27 88.6569 25.6569 90 24 90C22.3431 90 21 88.6569 21 87C21 85.3431 22.3431 84 24 84C25.6569 84 27 85.3431 27 87Z" fill="#FEFEFE"/>
<path d="M48 3C48 4.65685 46.6569 6 45 6C43.3431 6 42 4.65685 42 3C42 1.34315 43.3431 0 45 0C46.6569 0 48 1.34315 48 3Z" fill="#FEFEFE"/>
<path d="M48 24C48 25.6569 46.6569 27 45 27C43.3431 27 42 25.6569 42 24C42 22.3431 43.3431 21 45 21C46.6569 21 48 22.3431 48 24Z" fill="#FEFEFE"/>
<path d="M48 45C48 46.6569 46.6569 48 45 48C43.3431 48 42 46.6569 42 45C42 43.3431 43.3431 42 45 42C46.6569 42 48 43.3431 48 45Z" fill="#FEFEFE"/>
<path d="M48 66C48 67.6569 46.6569 69 45 69C43.3431 69 42 67.6569 42 66C42 64.3431 43.3431 63 45 63C46.6569 63 48 64.3431 48 66Z" fill="#FEFEFE"/>
<path d="M48 87C48 88.6569 46.6569 90 45 90C43.3431 90 42 88.6569 42 87C42 85.3431 43.3431 84 45 84C46.6569 84 48 85.3431 48 87Z" fill="#FEFEFE"/>
<path d="M69 3C69 4.65685 67.6569 6 66 6C64.3431 6 63 4.65685 63 3C63 1.34315 64.3431 0 66 0C67.6569 0 69 1.34315 69 3Z" fill="#FEFEFE"/>
<path d="M69 24C69 25.6569 67.6569 27 66 27C64.3431 27 63 25.6569 63 24C63 22.3431 64.3431 21 66 21C67.6569 21 69 22.3431 69 24Z" fill="#FEFEFE"/>
<path d="M69 45C69 46.6569 67.6569 48 66 48C64.3431 48 63 46.6569 63 45C63 43.3431 64.3431 42 66 42C67.6569 42 69 43.3431 69 45Z" fill="#FEFEFE"/>
<path d="M69 66C69 67.6569 67.6569 69 66 69C64.3431 69 63 67.6569 63 66C63 64.3431 64.3431 63 66 63C67.6569 63 69 64.3431 69 66Z" fill="#FEFEFE"/>
<path d="M69 87C69 88.6569 67.6569 90 66 90C64.3431 90 63 88.6569 63 87C63 85.3431 64.3431 84 66 84C67.6569 84 69 85.3431 69 87Z" fill="#FEFEFE"/>
<path d="M90 3C90 4.65685 88.6569 6 87 6C85.3431 6 84 4.65685 84 3C84 1.34315 85.3431 0 87 0C88.6569 0 90 1.34315 90 3Z" fill="#FEFEFE"/>
<path d="M90 24C90 25.6569 88.6569 27 87 27C85.3431 27 84 25.6569 84 24C84 22.3431 85.3431 21 87 21C88.6569 21 90 22.3431 90 24Z" fill="#FEFEFE"/>
<path d="M90 45C90 46.6569 88.6569 48 87 48C85.3431 48 84 46.6569 84 45C84 43.3431 85.3431 42 87 42C88.6569 42 90 43.3431 90 45Z" fill="#FEFEFE"/>
<path d="M90 66C90 67.6569 88.6569 69 87 69C85.3431 69 84 67.6569 84 66C84 64.3431 85.3431 63 87 63C88.6569 63 90 64.3431 90 66Z" fill="#FEFEFE"/>
<path d="M90 87C90 88.6569 88.6569 90 87 90C85.3431 90 84 88.6569 84 87C84 85.3431 85.3431 84 87 84C88.6569 84 90 85.3431 90 87Z" fill="#FEFEFE"/>
<path d="M111 3C111 4.65685 109.657 6 108 6C106.343 6 105 4.65685 105 3C105 1.34315 106.343 0 108 0C109.657 0 111 1.34315 111 3Z" fill="#FEFEFE"/>
<path d="M132 3C132 4.65685 130.657 6 129 6C127.343 6 126 4.65685 126 3C126 1.34315 127.343 0 129 0C130.657 0 132 1.34315 132 3Z" fill="#FEFEFE"/>
<path d="M153 3C153 4.65685 151.657 6 150 6C148.343 6 147 4.65685 147 3C147 1.34315 148.343 0 150 0C151.657 0 153 1.34315 153 3Z" fill="#FEFEFE"/>
<path d="M111 24C111 25.6569 109.657 27 108 27C106.343 27 105 25.6569 105 24C105 22.3431 106.343 21 108 21C109.657 21 111 22.3431 111 24Z" fill="#FEFEFE"/>
<path d="M132 24C132 25.6569 130.657 27 129 27C127.343 27 126 25.6569 126 24C126 22.3431 127.343 21 129 21C130.657 21 132 22.3431 132 24Z" fill="#FEFEFE"/>
<path d="M153 24C153 25.6569 151.657 27 150 27C148.343 27 147 25.6569 147 24C147 22.3431 148.343 21 150 21C151.657 21 153 22.3431 153 24Z" fill="#FEFEFE"/>
<path d="M111 45C111 46.6569 109.657 48 108 48C106.343 48 105 46.6569 105 45C105 43.3431 106.343 42 108 42C109.657 42 111 43.3431 111 45Z" fill="#FEFEFE"/>
<path d="M132 45C132 46.6569 130.657 48 129 48C127.343 48 126 46.6569 126 45C126 43.3431 127.343 42 129 42C130.657 42 132 43.3431 132 45Z" fill="#FEFEFE"/>
<path d="M153 45C153 46.6569 151.657 48 150 48C148.343 48 147 46.6569 147 45C147 43.3431 148.343 42 150 42C151.657 42 153 43.3431 153 45Z" fill="#FEFEFE"/>
<path d="M111 66C111 67.6569 109.657 69 108 69C106.343 69 105 67.6569 105 66C105 64.3431 106.343 63 108 63C109.657 63 111 64.3431 111 66Z" fill="#FEFEFE"/>
<path d="M132 66C132 67.6569 130.657 69 129 69C127.343 69 126 67.6569 126 66C126 64.3431 127.343 63 129 63C130.657 63 132 64.3431 132 66Z" fill="#FEFEFE"/>
<path d="M153 66C153 67.6569 151.657 69 150 69C148.343 69 147 67.6569 147 66C147 64.3431 148.343 63 150 63C151.657 63 153 64.3431 153 66Z" fill="#FEFEFE"/>
<path d="M111 87C111 88.6569 109.657 90 108 90C106.343 90 105 88.6569 105 87C105 85.3431 106.343 84 108 84C109.657 84 111 85.3431 111 87Z" fill="#FEFEFE"/>
<path d="M132 87C132 88.6569 130.657 90 129 90C127.343 90 126 88.6569 126 87C126 85.3431 127.343 84 129 84C130.657 84 132 85.3431 132 87Z" fill="#FEFEFE"/>
<path d="M153 87C153 88.6569 151.657 90 150 90C148.343 90 147 88.6569 147 87C147 85.3431 148.343 84 150 84C151.657 84 153 85.3431 153 87Z" fill="#FEFEFE"/>
</svg>
