<svg width="140" height="83" viewBox="0 0 140 83" fill="none" xmlns="http://www.w3.org/2000/svg">
<path d="M5.4902 2.7451C5.4902 4.26117 4.26117 5.4902 2.7451 5.4902C1.22902 5.4902 0 4.26117 0 2.7451C0 1.22902 1.22902 0 2.7451 0C4.26117 0 5.4902 1.22902 5.4902 2.7451Z" fill="#FEAC00" fill-opacity="0.4"/>
<path d="M5.4902 21.9608C5.4902 23.4769 4.26117 24.7059 2.7451 24.7059C1.22902 24.7059 0 23.4769 0 21.9608C0 20.4447 1.22902 19.2157 2.7451 19.2157C4.26117 19.2157 5.4902 20.4447 5.4902 21.9608Z" fill="#FEAC00" fill-opacity="0.4"/>
<path d="M5.4902 41.1765C5.4902 42.6925 4.26117 43.9216 2.7451 43.9216C1.22902 43.9216 0 42.6925 0 41.1765C0 39.6604 1.22902 38.4314 2.7451 38.4314C4.26117 38.4314 5.4902 39.6604 5.4902 41.1765Z" fill="#FEAC00" fill-opacity="0.4"/>
<path d="M5.4902 60.3922C5.4902 61.9082 4.26117 63.1373 2.7451 63.1373C1.22902 63.1373 0 61.9082 0 60.3922C0 58.8761 1.22902 57.6471 2.7451 57.6471C4.26117 57.6471 5.4902 58.8761 5.4902 60.3922Z" fill="#FEAC00" fill-opacity="0.4"/>
<path d="M5.4902 79.6078C5.4902 81.1239 4.26117 82.3529 2.7451 82.3529C1.22902 82.3529 0 81.1239 0 79.6078C0 78.0918 1.22902 76.8627 2.7451 76.8627C4.26117 76.8627 5.4902 78.0918 5.4902 79.6078Z" fill="#FEAC00" fill-opacity="0.4"/>
<path d="M24.7059 2.7451C24.7059 4.26117 23.4769 5.4902 21.9608 5.4902C20.4447 5.4902 19.2157 4.26117 19.2157 2.7451C19.2157 1.22902 20.4447 0 21.9608 0C23.4769 0 24.7059 1.22902 24.7059 2.7451Z" fill="#FEAC00" fill-opacity="0.4"/>
<path d="M24.7059 21.9608C24.7059 23.4769 23.4769 24.7059 21.9608 24.7059C20.4447 24.7059 19.2157 23.4769 19.2157 21.9608C19.2157 20.4447 20.4447 19.2157 21.9608 19.2157C23.4769 19.2157 24.7059 20.4447 24.7059 21.9608Z" fill="#FEAC00" fill-opacity="0.4"/>
<path d="M24.7059 41.1765C24.7059 42.6925 23.4769 43.9216 21.9608 43.9216C20.4447 43.9216 19.2157 42.6925 19.2157 41.1765C19.2157 39.6604 20.4447 38.4314 21.9608 38.4314C23.4769 38.4314 24.7059 39.6604 24.7059 41.1765Z" fill="#FEAC00" fill-opacity="0.4"/>
<path d="M24.7059 60.3922C24.7059 61.9082 23.4769 63.1373 21.9608 63.1373C20.4447 63.1373 19.2157 61.9082 19.2157 60.3922C19.2157 58.8761 20.4447 57.6471 21.9608 57.6471C23.4769 57.6471 24.7059 58.8761 24.7059 60.3922Z" fill="#FEAC00" fill-opacity="0.4"/>
<path d="M24.7059 79.6078C24.7059 81.1239 23.4769 82.3529 21.9608 82.3529C20.4447 82.3529 19.2157 81.1239 19.2157 79.6078C19.2157 78.0918 20.4447 76.8627 21.9608 76.8627C23.4769 76.8627 24.7059 78.0918 24.7059 79.6078Z" fill="#FEAC00" fill-opacity="0.4"/>
<path d="M43.9216 2.7451C43.9216 4.26117 42.6925 5.4902 41.1765 5.4902C39.6604 5.4902 38.4314 4.26117 38.4314 2.7451C38.4314 1.22902 39.6604 0 41.1765 0C42.6925 0 43.9216 1.22902 43.9216 2.7451Z" fill="#FEAC00" fill-opacity="0.4"/>
<path d="M43.9216 21.9608C43.9216 23.4769 42.6925 24.7059 41.1765 24.7059C39.6604 24.7059 38.4314 23.4769 38.4314 21.9608C38.4314 20.4447 39.6604 19.2157 41.1765 19.2157C42.6925 19.2157 43.9216 20.4447 43.9216 21.9608Z" fill="#FEAC00" fill-opacity="0.4"/>
<path d="M43.9216 41.1765C43.9216 42.6925 42.6925 43.9216 41.1765 43.9216C39.6604 43.9216 38.4314 42.6925 38.4314 41.1765C38.4314 39.6604 39.6604 38.4314 41.1765 38.4314C42.6925 38.4314 43.9216 39.6604 43.9216 41.1765Z" fill="#FEAC00" fill-opacity="0.4"/>
<path d="M43.9216 60.3922C43.9216 61.9082 42.6925 63.1373 41.1765 63.1373C39.6604 63.1373 38.4314 61.9082 38.4314 60.3922C38.4314 58.8761 39.6604 57.6471 41.1765 57.6471C42.6925 57.6471 43.9216 58.8761 43.9216 60.3922Z" fill="#FEAC00" fill-opacity="0.4"/>
<path d="M43.9216 79.6078C43.9216 81.1239 42.6925 82.3529 41.1765 82.3529C39.6604 82.3529 38.4314 81.1239 38.4314 79.6078C38.4314 78.0918 39.6604 76.8627 41.1765 76.8627C42.6925 76.8627 43.9216 78.0918 43.9216 79.6078Z" fill="#FEAC00" fill-opacity="0.4"/>
<path d="M63.1373 2.7451C63.1373 4.26117 61.9082 5.4902 60.3922 5.4902C58.8761 5.4902 57.6471 4.26117 57.6471 2.7451C57.6471 1.22902 58.8761 0 60.3922 0C61.9082 0 63.1373 1.22902 63.1373 2.7451Z" fill="#FEAC00" fill-opacity="0.4"/>
<path d="M63.1373 21.9608C63.1373 23.4769 61.9082 24.7059 60.3922 24.7059C58.8761 24.7059 57.6471 23.4769 57.6471 21.9608C57.6471 20.4447 58.8761 19.2157 60.3922 19.2157C61.9082 19.2157 63.1373 20.4447 63.1373 21.9608Z" fill="#FEAC00" fill-opacity="0.4"/>
<path d="M63.1373 41.1765C63.1373 42.6925 61.9082 43.9216 60.3922 43.9216C58.8761 43.9216 57.6471 42.6925 57.6471 41.1765C57.6471 39.6604 58.8761 38.4314 60.3922 38.4314C61.9082 38.4314 63.1373 39.6604 63.1373 41.1765Z" fill="#FEAC00" fill-opacity="0.4"/>
<path d="M63.1373 60.3922C63.1373 61.9082 61.9082 63.1373 60.3922 63.1373C58.8761 63.1373 57.6471 61.9082 57.6471 60.3922C57.6471 58.8761 58.8761 57.6471 60.3922 57.6471C61.9082 57.6471 63.1373 58.8761 63.1373 60.3922Z" fill="#FEAC00" fill-opacity="0.4"/>
<path d="M63.1373 79.6078C63.1373 81.1239 61.9082 82.3529 60.3922 82.3529C58.8761 82.3529 57.6471 81.1239 57.6471 79.6078C57.6471 78.0918 58.8761 76.8627 60.3922 76.8627C61.9082 76.8627 63.1373 78.0918 63.1373 79.6078Z" fill="#FEAC00" fill-opacity="0.4"/>
<path d="M82.3529 2.7451C82.3529 4.26117 81.1239 5.4902 79.6078 5.4902C78.0918 5.4902 76.8627 4.26117 76.8627 2.7451C76.8627 1.22902 78.0918 0 79.6078 0C81.1239 0 82.3529 1.22902 82.3529 2.7451Z" fill="#FEAC00" fill-opacity="0.4"/>
<path d="M82.3529 21.9608C82.3529 23.4769 81.1239 24.7059 79.6078 24.7059C78.0918 24.7059 76.8627 23.4769 76.8627 21.9608C76.8627 20.4447 78.0918 19.2157 79.6078 19.2157C81.1239 19.2157 82.3529 20.4447 82.3529 21.9608Z" fill="#FEAC00" fill-opacity="0.4"/>
<path d="M82.3529 41.1765C82.3529 42.6925 81.1239 43.9216 79.6078 43.9216C78.0918 43.9216 76.8627 42.6925 76.8627 41.1765C76.8627 39.6604 78.0918 38.4314 79.6078 38.4314C81.1239 38.4314 82.3529 39.6604 82.3529 41.1765Z" fill="#FEAC00" fill-opacity="0.4"/>
<path d="M82.3529 60.3922C82.3529 61.9082 81.1239 63.1373 79.6078 63.1373C78.0918 63.1373 76.8627 61.9082 76.8627 60.3922C76.8627 58.8761 78.0918 57.6471 79.6078 57.6471C81.1239 57.6471 82.3529 58.8761 82.3529 60.3922Z" fill="#FEAC00" fill-opacity="0.4"/>
<path d="M82.3529 79.6078C82.3529 81.1239 81.1239 82.3529 79.6078 82.3529C78.0918 82.3529 76.8627 81.1239 76.8627 79.6078C76.8627 78.0918 78.0918 76.8627 79.6078 76.8627C81.1239 76.8627 82.3529 78.0918 82.3529 79.6078Z" fill="#FEAC00" fill-opacity="0.4"/>
<path d="M101.569 2.7451C101.569 4.26117 100.34 5.4902 98.8235 5.4902C97.3075 5.4902 96.0784 4.26117 96.0784 2.7451C96.0784 1.22902 97.3075 0 98.8235 0C100.34 0 101.569 1.22902 101.569 2.7451Z" fill="#FEAC00" fill-opacity="0.4"/>
<path d="M120.784 2.7451C120.784 4.26117 119.555 5.4902 118.039 5.4902C116.523 5.4902 115.294 4.26117 115.294 2.7451C115.294 1.22902 116.523 0 118.039 0C119.555 0 120.784 1.22902 120.784 2.7451Z" fill="#FEAC00" fill-opacity="0.4"/>
<path d="M140 2.7451C140 4.26117 138.771 5.4902 137.255 5.4902C135.739 5.4902 134.51 4.26117 134.51 2.7451C134.51 1.22902 135.739 0 137.255 0C138.771 0 140 1.22902 140 2.7451Z" fill="#FEAC00" fill-opacity="0.4"/>
<path d="M101.569 21.9608C101.569 23.4769 100.34 24.7059 98.8235 24.7059C97.3075 24.7059 96.0784 23.4769 96.0784 21.9608C96.0784 20.4447 97.3075 19.2157 98.8235 19.2157C100.34 19.2157 101.569 20.4447 101.569 21.9608Z" fill="#FEAC00" fill-opacity="0.4"/>
<path d="M120.784 21.9608C120.784 23.4769 119.555 24.7059 118.039 24.7059C116.523 24.7059 115.294 23.4769 115.294 21.9608C115.294 20.4447 116.523 19.2157 118.039 19.2157C119.555 19.2157 120.784 20.4447 120.784 21.9608Z" fill="#FEAC00" fill-opacity="0.4"/>
<path d="M140 21.9608C140 23.4769 138.771 24.7059 137.255 24.7059C135.739 24.7059 134.51 23.4769 134.51 21.9608C134.51 20.4447 135.739 19.2157 137.255 19.2157C138.771 19.2157 140 20.4447 140 21.9608Z" fill="#FEAC00" fill-opacity="0.4"/>
<path d="M101.569 41.1765C101.569 42.6925 100.34 43.9216 98.8235 43.9216C97.3075 43.9216 96.0784 42.6925 96.0784 41.1765C96.0784 39.6604 97.3075 38.4314 98.8235 38.4314C100.34 38.4314 101.569 39.6604 101.569 41.1765Z" fill="#FEAC00" fill-opacity="0.4"/>
<path d="M120.784 41.1765C120.784 42.6925 119.555 43.9216 118.039 43.9216C116.523 43.9216 115.294 42.6925 115.294 41.1765C115.294 39.6604 116.523 38.4314 118.039 38.4314C119.555 38.4314 120.784 39.6604 120.784 41.1765Z" fill="#FEAC00" fill-opacity="0.4"/>
<path d="M140 41.1765C140 42.6925 138.771 43.9216 137.255 43.9216C135.739 43.9216 134.51 42.6925 134.51 41.1765C134.51 39.6604 135.739 38.4314 137.255 38.4314C138.771 38.4314 140 39.6604 140 41.1765Z" fill="#FEAC00" fill-opacity="0.4"/>
<path d="M101.569 60.3922C101.569 61.9082 100.34 63.1373 98.8235 63.1373C97.3075 63.1373 96.0784 61.9082 96.0784 60.3922C96.0784 58.8761 97.3075 57.6471 98.8235 57.6471C100.34 57.6471 101.569 58.8761 101.569 60.3922Z" fill="#FEAC00" fill-opacity="0.4"/>
<path d="M120.784 60.3922C120.784 61.9082 119.555 63.1373 118.039 63.1373C116.523 63.1373 115.294 61.9082 115.294 60.3922C115.294 58.8761 116.523 57.6471 118.039 57.6471C119.555 57.6471 120.784 58.8761 120.784 60.3922Z" fill="#FEAC00" fill-opacity="0.4"/>
<path d="M140 60.3922C140 61.9082 138.771 63.1373 137.255 63.1373C135.739 63.1373 134.51 61.9082 134.51 60.3922C134.51 58.8761 135.739 57.6471 137.255 57.6471C138.771 57.6471 140 58.8761 140 60.3922Z" fill="#FEAC00" fill-opacity="0.4"/>
<path d="M101.569 79.6078C101.569 81.1239 100.34 82.3529 98.8235 82.3529C97.3075 82.3529 96.0784 81.1239 96.0784 79.6078C96.0784 78.0918 97.3075 76.8627 98.8235 76.8627C100.34 76.8627 101.569 78.0918 101.569 79.6078Z" fill="#FEAC00" fill-opacity="0.4"/>
<path d="M120.784 79.6078C120.784 81.1239 119.555 82.3529 118.039 82.3529C116.523 82.3529 115.294 81.1239 115.294 79.6078C115.294 78.0918 116.523 76.8627 118.039 76.8627C119.555 76.8627 120.784 78.0918 120.784 79.6078Z" fill="#FEAC00" fill-opacity="0.4"/>
<path d="M140 79.6078C140 81.1239 138.771 82.3529 137.255 82.3529C135.739 82.3529 134.51 81.1239 134.51 79.6078C134.51 78.0918 135.739 76.8627 137.255 76.8627C138.771 76.8627 140 78.0918 140 79.6078Z" fill="#FEAC00" fill-opacity="0.4"/>
</svg>
