<svg width="217" height="46" viewBox="0 0 217 46" fill="none" xmlns="http://www.w3.org/2000/svg">
<path d="M210.4 12.2C207 12.2 204.3 9.5 204.3 6.1C204.3 2.7 207 -4.15258e-07 210.4 -2.6664e-07C213.8 -1.18021e-07 216.5 2.7 216.5 6.1C216.5 9.5 213.8 12.2 210.4 12.2Z" fill="#FFE48C"/>
<path d="M176.4 12.2C173 12.2 170.3 9.5 170.3 6.1C170.3 2.7 173 -4.15258e-07 176.4 -2.6664e-07C179.8 -1.18021e-07 182.5 2.7 182.5 6.1C182.5 9.5 179.7 12.2 176.4 12.2Z" fill="#FFE48C"/>
<path d="M142.3 12.2C138.9 12.2 136.2 9.5 136.2 6.1C136.2 2.7 138.9 -4.22996e-06 142.3 -4.08134e-06C145.7 -3.93272e-06 148.4 2.7 148.4 6.1C148.4 9.5 145.7 12.2 142.3 12.2Z" fill="#FFE48C"/>
<path d="M108.3 12.2C104.9 12.2 102.2 9.5 102.2 6.1C102.2 2.7 104.9 -4.22996e-06 108.3 -4.08134e-06C111.7 -3.93272e-06 114.4 2.7 114.4 6.1C114.4 9.5 111.6 12.2 108.3 12.2Z" fill="#FFE48C"/>
<path d="M74.2 12.2C70.8 12.2 68.1001 9.49999 68.1001 6.09999C68.1001 2.69999 70.8 -8.04465e-06 74.2 -7.89603e-06C77.6 -7.74742e-06 80.3 2.69999 80.3 6.09999C80.3 9.49999 77.6 12.2 74.2 12.2Z" fill="#FFE48C"/>
<path d="M136.2 39.1C136.2 42.4689 138.931 45.2 142.3 45.2C145.669 45.2 148.4 42.4689 148.4 39.1C148.4 35.7311 145.669 33 142.3 33C138.931 33 136.2 35.7311 136.2 39.1Z" fill="#FFE48C"/>
<path d="M102.2 39.1C102.2 42.4689 104.931 45.2 108.3 45.2C111.669 45.2 114.4 42.4689 114.4 39.1C114.4 35.7311 111.669 33 108.3 33C104.931 33 102.2 35.7311 102.2 39.1Z" fill="#FFE48C"/>
<path d="M68.1001 39.1C68.1001 42.4689 70.8311 45.2 74.2 45.2C77.569 45.2 80.3 42.4689 80.3 39.1C80.3 35.7311 77.569 33 74.2 33C70.8311 33 68.1001 35.7311 68.1001 39.1Z" fill="#FFE48C"/>
<path d="M33.9999 39.1C33.9999 42.4689 36.731 45.2 40.1 45.2C43.4689 45.2 46.2 42.4689 46.2 39.1C46.2 35.7311 43.4689 33 40.1 33C36.731 33 33.9999 35.7311 33.9999 39.1Z" fill="#FFE48C"/>
<path d="M-6.13018e-05 39.1C-6.14491e-05 42.4689 2.73104 45.2 6.09998 45.2C9.46891 45.2 12.2 42.4689 12.2 39.1C12.2 35.7311 9.46891 33 6.09998 33C2.73104 33 -6.11545e-05 35.7311 -6.13018e-05 39.1Z" fill="#FFE48C"/>
</svg>
