<svg width="30" height="30" viewBox="0 0 30 30" fill="none" xmlns="http://www.w3.org/2000/svg">
<path d="M6.01929 4.72692C6.40764 4.54961 6.78063 4.3583 7.10552 4.12196C8.2864 3.26284 9.09848 1.58754 10.5172 1.12706C11.886 0.682751 13.5217 1.54641 15.0387 1.54641C16.5558 1.54641 18.1915 0.682751 19.5603 1.12706C20.979 1.58754 21.7911 3.26284 22.972 4.12196C24.1647 4.98968 26.0062 5.25002 26.8742 6.44235C27.7336 7.62284 27.4178 9.44985 27.8785 10.8681C28.323 12.2365 29.6673 13.5222 29.6673 15.0387C29.6673 16.5552 28.323 17.841 27.8785 19.2094C27.4179 20.6276 27.7337 22.4546 26.8742 23.6351C26.0062 24.8274 24.1646 25.0878 22.972 25.9555C21.7911 26.8146 20.979 28.4899 19.5603 28.9504C18.1915 29.3947 16.5558 28.531 15.0387 28.531C13.5217 28.531 11.886 29.3947 10.5172 28.9504C9.09848 28.4899 8.2864 26.8146 7.10552 25.9555C5.9128 25.0878 4.07131 24.8274 3.2033 23.6351C2.3439 22.4546 2.65966 20.6276 2.19902 19.2094C1.75451 17.841 0.410156 16.5552 0.410156 15.0387C0.410156 13.5222 1.75451 12.2365 2.19896 10.8681C2.6596 9.44985 2.3439 7.62284 3.2033 6.44235C3.47716 6.06619 3.8479 5.78284 4.26457 5.54385" fill="#77D1B3"/>
<path d="M28.0156 15.0153C28.0156 16.3661 26.8185 17.5114 26.4228 18.7303C26.0126 19.9936 26.2938 21.6209 25.5285 22.6724C24.7556 23.7345 23.1158 23.9663 22.0538 24.7393C21.0023 25.5046 20.2793 26.9968 19.016 27.407C17.7971 27.8028 16.3406 27.0335 14.9898 27.0335C13.639 27.0335 12.1825 27.8028 10.9636 27.407C9.70029 26.9968 8.97724 25.5046 7.9257 24.7393C6.8637 23.9664 5.22393 23.7345 4.45096 22.6724C3.68569 21.6209 3.96684 19.9936 3.55669 18.7303C3.16089 17.5114 1.96387 16.3662 1.96387 15.0154C1.96387 13.6646 3.16096 12.5193 3.55669 11.3004C3.96684 10.0371 3.68569 8.40975 4.45096 7.35828C5.22387 6.29627 6.86363 6.06439 7.9257 5.29142C8.97724 4.52614 9.70029 3.03394 10.9636 2.62372C12.1825 2.22793 13.639 2.99721 14.9898 2.99721C16.3406 2.99721 17.7971 2.22793 19.016 2.62366C20.2793 3.03381 21.0023 4.52608 22.0538 5.29136C23.1158 6.06426 24.7557 6.29614 25.5286 7.35821C26.2939 8.40975 26.0127 10.0371 26.4229 11.3003C26.8185 12.5192 28.0156 13.6645 28.0156 15.0153Z" fill="#F5F5F5"/>
<path d="M16.6262 21.5213C16.6262 22.4222 15.8957 23.1523 14.9952 23.1523C14.0944 23.1523 13.3643 22.4222 13.3643 21.5213C13.3643 20.6205 14.0944 19.8904 14.9952 19.8904C15.8957 19.8904 16.6262 20.6205 16.6262 21.5213Z" fill="#92E0C4"/>
<path d="M16.6281 8.47368V14.9975C16.6281 15.4541 16.4323 15.8457 16.1716 16.1719C15.8454 16.4327 15.4538 16.6285 14.9972 16.6285C14.0836 16.6285 13.3662 15.9107 13.3662 14.9975V8.47368C13.3662 7.56008 14.0836 6.84271 14.9972 6.84271C15.9108 6.84271 16.6281 7.56008 16.6281 8.47368Z" fill="#92E0C4"/>
<path d="M25.7921 11.5307C25.4058 10.3377 25.6706 8.80103 24.9497 7.80813C24.2216 6.80527 22.677 6.58625 21.6765 5.85646C20.686 5.13381 20.0049 3.72466 18.8149 3.33736C18.2642 3.15809 17.6619 3.23209 17.0439 3.35745C18.1991 3.77034 18.8745 5.14535 19.8492 5.85646C20.8496 6.58631 22.3943 6.80527 23.1224 7.80813C23.8433 8.80109 23.5784 10.3378 23.9648 11.5307C24.3376 12.6816 25.4652 13.7631 25.4652 15.0387C25.4652 16.3142 24.3376 17.3957 23.9648 18.5467C23.5784 19.7397 23.8433 21.2764 23.1224 22.2693C22.3943 23.2721 20.8497 23.4911 19.8493 24.221C18.8746 24.932 18.1991 26.307 17.044 26.7199C17.662 26.8453 18.2642 26.9193 18.8149 26.7401C20.005 26.3527 20.6861 24.9436 21.6766 24.221C22.677 23.4911 24.2216 23.2722 24.9497 22.2693C25.6706 21.2763 25.4058 19.7396 25.7921 18.5467C26.1649 17.3957 27.2925 16.3143 27.2925 15.0387C27.2925 13.7631 26.1649 12.6816 25.7921 11.5307Z" fill="#EFE9F1"/>
</svg>
