<svg xmlns="http://www.w3.org/2000/svg" viewBox="0 0 923.08 178.66"><defs><style>.cls-1{fill:#1877f2;}</style></defs><g id="Layer_2" data-name="Layer 2"><g id="Layer_1-2" data-name="Layer 1"><path class="cls-1" d="M58.48,175.9H23.69V89.2H0V61H23.69V40.88C23.69,17.07,34.17,0,68.86,0,76.2,0,87.72,1.48,87.72,1.48V27.69H75.62c-12.33,0-17.14,3.75-17.14,14.12V61H87.25L84.69,89.2H58.48ZM138.29,58.71l-1.55,0c-32.25,0-47,24.26-47,58.7,0,43.38,19.14,60.74,47.26,60.74,16.09,0,26.66-6.77,33.09-19.4v17.14h33.08V61H170.08V78.65C164.83,67.28,154,58.84,138.29,58.71Zm8.41,27.16c13.54,0,21.67,9.45,21.67,25.52l0,16.41c0,10.84-6.72,23.51-21.71,23.51-23,0-22.44-24.89-22.44-33.18,0-27.88,12.29-32.26,22.44-32.26Zm69.82,32.58c0-14-.67-59.67,58.87-59.67,23.91,0,33.89,7.6,33.89,7.6l-8,24.88a52.3,52.3,0,0,0-22.95-5.49c-16.64,0-27.25,9.65-27.25,26.61l0,12.17c0,16.3,10.24,27.19,27.26,27.19,11.84,0,22.74-5.54,22.74-5.54l8,24.36s-9.12,7.64-33.51,7.64c-56.69,0-59-41-59-59.75ZM503.25,58.74c32.26,0,47.25,24.26,47.25,58.7,0,43.38-19.15,60.74-47.27,60.74-16.08,0-28-6.77-34.4-19.4v17.14l-32.67,0V3.49l34.69-3V77.1c5-13.41,21.45-18.36,32.41-18.36Zm-9.72,27.13c-13.55,0-22.68,9.45-22.68,25.52l0,16.41c0,10.84,6.33,23.51,22.72,23.51,23.05,0,22.43-24.89,22.43-33.18C516,90.25,503.68,85.87,493.53,85.87Zm-124.07-27c-36.59,0-55.9,19.94-55.9,55.38v6.59c0,46,27.12,57.85,59.46,57.85,31.42,0,45.65-8.79,45.65-8.79l-6.49-23.41s-16.73,7.12-35,7.12c-18.94,0-27.08-4.83-29.17-23h73.44V111.77c0-38.45-21.67-52.94-52-52.94Zm.88,23.44c12.66,0,20.86,7.76,20.41,25.77H348.06c.74-19,9.59-25.77,22.28-25.77Zm249.31-23.6c-37.56,0-57.34,21.17-57.34,59.1,0,52.06,34.09,60.44,57.41,60.44,34.13,0,56.84-18.38,56.84-60C676.56,75,651,58.68,619.65,58.68ZM619.18,86c16.52,0,23.07,12.37,23.07,26.44v12.1c0,17-9.16,26.9-23.13,26.9-13.06,0-22.25-9.22-22.25-26.9V112.4C596.87,93.54,607.8,86,619.18,86ZM745.65,58.68c-37.56,0-57.34,21.17-57.34,59.1,0,52.06,34.09,60.44,57.41,60.44,34.13,0,56.83-18.38,56.83-60C802.55,75,777,58.68,745.65,58.68ZM745.18,86c16.52,0,23.06,12.37,23.06,26.44v12.1c0,17-9.16,26.9-23.12,26.9-13.07,0-22.25-9.22-22.25-26.9V112.4C722.87,93.54,733.8,86,745.18,86Zm70.48,89.94V3.49l34.79-3V116L885,61h36.73l-36,57,37.39,57.9H886.24l-35.79-56.22V175.9Z"/></g></g></svg>