<svg width="70" height="70" viewBox="0 0 70 70" fill="none" xmlns="http://www.w3.org/2000/svg">
<circle cx="35" cy="35" r="35" fill="white"/>
<path d="M42.7638 40.7107L38.4498 42.9266C38.0762 42.5502 37.5589 42.3167 36.988 42.3167H34.0152C33.883 42.3167 33.8346 42.3086 33.8201 42.3051C33.7931 42.2868 33.7259 42.2236 33.6714 42.1723L33.643 42.1455C31.2233 39.8669 29.1787 40.0115 26.8533 40.9292C26.4894 41.0728 26.4825 41.0731 26.1218 41.0895L25.4669 41.0904C25.2625 40.5109 24.7102 40.0945 24.0624 40.0945H21.8751C21.0539 40.0945 20.3857 40.7634 20.3857 41.5855V47.322C20.3857 48.1432 21.0539 48.8113 21.8751 48.8113H24.0623C24.7102 48.8113 25.2625 48.3953 25.4669 47.8165H26.6697C26.8059 47.8283 26.9387 47.856 27.0681 47.8996L32.7243 49.4121C32.9719 49.4792 33.1993 49.5453 33.4193 49.6092C34.1497 49.8215 34.7638 49.9999 35.404 49.9998C36.1273 49.9998 36.884 49.7721 37.8795 49.1081C37.8844 49.1048 37.8894 49.1014 37.8942 49.098L44.8682 44.1318C45.7849 43.4778 46.0521 42.2972 45.4895 41.3853C44.9335 40.4862 43.7613 40.1964 42.7638 40.7107ZM24.3798 47.322C24.3798 47.4942 24.2344 47.6396 24.0623 47.6396H21.8751C21.7029 47.6396 21.5576 47.4942 21.5576 47.322V41.5856C21.5576 41.4125 21.703 41.2664 21.8751 41.2664H24.0623C24.2345 41.2664 24.3798 41.4125 24.3798 41.5856V47.322ZM44.1879 43.1776L37.2218 48.1382C35.8039 49.082 35.2004 48.9065 33.7461 48.484C33.5212 48.4187 33.2887 48.3511 33.0289 48.2806L27.3712 46.7677C27.1436 46.6971 26.9097 46.6561 26.6696 46.6448H25.5516V42.2628L26.1751 42.2602C26.621 42.2398 26.7593 42.226 27.2834 42.0193C29.2989 41.2238 30.8542 41.129 32.8401 42.9991L32.8682 43.0255C33.2101 43.3474 33.422 43.4885 34.0152 43.4885H36.988C37.4781 43.4885 37.8768 43.8872 37.8768 44.3774C37.8768 44.8666 37.4781 45.2646 36.988 45.2646H32.1685C31.8449 45.2646 31.5826 45.5269 31.5826 45.8505C31.5826 46.1741 31.8449 46.4364 32.1685 46.4364H36.988C38.1243 46.4364 39.0486 45.5127 39.0486 44.3774C39.0486 44.2338 39.0338 44.0937 39.0057 43.9583L43.2999 41.7525C43.6914 41.5508 44.2268 41.5715 44.4925 42.0011C44.7267 42.3809 44.5956 42.8868 44.1879 43.1776Z" fill="black"/>
<path d="M33.8722 33.8584C33.238 34.1674 32.7998 34.8186 32.7998 35.5702C32.7998 36.399 33.3334 37.1051 34.0753 37.3648V38.2375C34.0753 39.306 34.9438 40.1753 36.0113 40.1753H38.6071C39.6755 40.1753 40.5449 39.306 40.5449 38.2375V37.3648C41.2867 37.1051 41.8203 36.3989 41.8203 35.5702C41.8203 34.8185 41.3821 34.1673 40.7478 33.8584C41.0044 32.9052 41.5245 32.1955 42.0715 31.4511C42.913 30.3058 43.8667 29.0078 43.8647 26.7214C43.8647 26.5173 43.8562 26.3078 43.8396 26.0987C43.8139 25.7761 43.5323 25.5361 43.209 25.561C42.8865 25.5867 42.6458 25.869 42.6715 26.1916C42.6856 26.3699 42.6929 26.5481 42.6929 26.7219C42.6945 28.624 41.9332 29.6602 41.1271 30.7572C40.5155 31.5896 39.8861 32.4476 39.5861 33.6672H35.0337C34.7338 32.4477 34.1042 31.5897 33.4924 30.7574C32.6861 29.6604 31.9246 28.6242 31.9271 26.7221C31.9297 24.6938 32.7986 23.4129 33.5272 22.6955C34.5304 21.7077 35.9045 21.1525 37.3017 21.1722C37.3073 21.1722 37.3129 21.1722 37.3185 21.1722C38.4569 21.1549 39.5986 21.5259 40.5306 22.215C40.7907 22.4074 41.1577 22.3524 41.3501 22.0922C41.5424 21.832 41.4875 21.4651 41.2273 21.2728C40.0924 20.4339 38.7016 19.9825 37.3099 20.0005C35.6056 19.9797 33.9281 20.6565 32.7051 21.8608C31.432 23.1144 30.7578 24.795 30.7554 26.7207C30.7523 29.008 31.7065 30.3062 32.5484 31.4516C33.0954 32.1959 33.6157 32.9055 33.8722 33.8584ZM39.3731 38.2375C39.3731 38.6599 39.0295 39.0035 38.6071 39.0035H36.0114C35.5899 39.0035 35.2471 38.6599 35.2471 38.2375V37.4716H39.3731V38.2375ZM34.7027 34.8391H39.9175C40.3206 34.8391 40.6486 35.1671 40.6486 35.5702C40.6486 35.9725 40.3206 36.2997 39.9175 36.2997H34.7027C34.2996 36.2997 33.9716 35.9725 33.9716 35.5702C33.9716 35.1671 34.2996 34.8391 34.7027 34.8391Z" fill="black"/>
<path d="M37.8959 24.2801C37.8959 23.9565 37.6336 23.6942 37.31 23.6942C36.9864 23.6942 36.7241 23.9565 36.7241 24.2801V27.914C36.7241 28.2376 36.9864 28.4999 37.31 28.4999C37.6336 28.4999 37.8959 28.2376 37.8959 27.914V24.2801Z" fill="black"/>
<path d="M37.3101 29.9788C36.9864 29.9788 36.7241 30.2411 36.7241 30.5647V30.568C36.7241 30.8917 36.9864 31.1523 37.3101 31.1523C37.6337 31.1523 37.896 30.8884 37.896 30.5648C37.896 30.2411 37.6337 29.9788 37.3101 29.9788Z" fill="black"/>
<path d="M49.0283 26.7168H46.6484C46.3248 26.7168 46.0625 26.9791 46.0625 27.3027C46.0625 27.6263 46.3248 27.8886 46.6484 27.8886H49.0283C49.3518 27.8886 49.6142 27.6263 49.6142 27.3027C49.6142 26.9791 49.3518 26.7168 49.0283 26.7168Z" fill="black"/>
<path d="M45.6642 22.9428C45.7765 22.9428 45.8899 22.9106 45.9901 22.8433L47.9648 21.518C48.2335 21.3377 48.3051 20.9737 48.1247 20.705C47.9444 20.4363 47.5805 20.3647 47.3117 20.545L45.3371 21.8704C45.0684 22.0507 44.9968 22.4147 45.1771 22.6834C45.2903 22.8518 45.4755 22.9428 45.6642 22.9428Z" fill="black"/>
<path d="M47.9647 33.0874L45.9901 31.7621C45.7214 31.5817 45.3574 31.6534 45.1771 31.922C44.9968 32.1907 45.0684 32.5547 45.3371 32.735L47.3117 34.0604C47.4119 34.1276 47.5254 34.1598 47.6376 34.1598C47.8264 34.1598 48.0116 34.0689 48.1247 33.9004C48.305 33.6317 48.2334 33.2677 47.9647 33.0874Z" fill="black"/>
<path d="M25.5918 27.8886H27.97C28.2936 27.8886 28.5559 27.6263 28.5559 27.3027C28.5559 26.9791 28.2936 26.7168 27.97 26.7168H25.5918C25.2682 26.7168 25.0059 26.9791 25.0059 27.3027C25.0059 27.6263 25.2682 27.8886 25.5918 27.8886Z" fill="black"/>
<path d="M26.6554 21.5181L28.6301 22.8434C28.7303 22.9107 28.8437 22.9429 28.956 22.9429C29.1447 22.9429 29.33 22.8519 29.4431 22.6835C29.6234 22.4148 29.5518 22.0508 29.2831 21.8705L27.3085 20.5452C27.0398 20.3648 26.6758 20.4365 26.4955 20.7051C26.3151 20.9737 26.3867 21.3378 26.6554 21.5181Z" fill="black"/>
<path d="M28.6301 31.7621L26.6554 33.0874C26.3867 33.2677 26.3151 33.6318 26.4955 33.9004C26.6086 34.0689 26.7938 34.1598 26.9826 34.1598C27.0948 34.1598 27.2083 34.1276 27.3085 34.0604L29.2831 32.735C29.5518 32.5547 29.6234 32.1907 29.4431 31.922C29.2627 31.6534 28.8987 31.5817 28.6301 31.7621Z" fill="black"/>
<path d="M42.1157 24.0567C42.23 24.1709 42.3793 24.228 42.5288 24.228C42.6788 24.228 42.8289 24.1705 42.9435 24.0559C43.1723 23.8271 43.1715 23.4553 42.9427 23.2264C42.7139 22.9976 42.3429 22.9976 42.114 23.2264C41.8852 23.4552 41.8852 23.8262 42.114 24.0551L42.1157 24.0567Z" fill="black"/>
</svg>
