<svg width="30" height="30" viewBox="0 0 30 30" fill="none" xmlns="http://www.w3.org/2000/svg">
<g clip-path="url(#clip0)">
<path d="M5.75155 4.42241C6.14976 4.24054 6.53222 4.0443 6.86535 3.80188C8.07622 2.92066 8.90892 1.20227 10.3636 0.729933C11.7672 0.274199 13.4445 1.16007 15 1.16007C16.5555 1.16007 18.2328 0.274199 19.6364 0.729933C21.0911 1.20227 21.9238 2.92066 23.1347 3.80188C24.3577 4.69193 26.2459 4.95897 27.1359 6.18197C28.0172 7.39283 27.6934 9.26683 28.1658 10.7216C28.6215 12.1252 30 13.444 30 14.9995C30 16.555 28.6215 17.8738 28.1658 19.2774C27.6934 20.7321 28.0172 22.6062 27.1359 23.817C26.2459 25.04 24.3576 25.3071 23.1347 26.1971C21.9238 27.0783 21.0911 28.7967 19.6364 29.269C18.2328 29.7248 16.5555 28.8389 15 28.8389C13.4445 28.8389 11.7672 29.7248 10.3636 29.269C8.90892 28.7967 8.07622 27.0783 6.86535 26.1971C5.64236 25.3071 3.75411 25.04 2.86407 23.817C1.98284 22.6062 2.30662 20.7321 1.83429 19.2774C1.37849 17.8738 0 16.555 0 14.9995C0 13.444 1.37849 12.1252 1.83423 10.7216C2.30656 9.26683 1.98284 7.39283 2.86407 6.18197C3.14487 5.79613 3.52503 5.50549 3.95227 5.26036" fill="#77D1B3"/>
<path d="M27.1597 14.9994C27.1597 16.2604 26.0422 17.3295 25.6728 18.4674C25.2899 19.6467 25.5524 21.1658 24.838 22.1474C24.1165 23.1388 22.5858 23.3552 21.5944 24.0768C20.6128 24.7912 19.9378 26.1842 18.7585 26.5671C17.6207 26.9366 16.261 26.2185 15 26.2185C13.7391 26.2185 12.3794 26.9366 11.2416 26.5671C10.0623 26.1842 9.38733 24.7912 8.40572 24.0768C7.41434 23.3553 5.88361 23.1388 5.16204 22.1474C4.44766 21.1658 4.71011 19.6467 4.32723 18.4674C3.95776 17.3296 2.84033 16.2605 2.84033 14.9995C2.84033 13.7385 3.95782 12.6694 4.32723 11.5316C4.71011 10.3523 4.44766 8.83314 5.16204 7.85159C5.88355 6.8602 7.41427 6.64374 8.40572 5.92217C9.38733 5.20778 10.0623 3.81481 11.2416 3.43187C12.3794 3.06239 13.7391 3.78052 15 3.78052C16.261 3.78052 17.6207 3.06239 18.7585 3.43181C19.9378 3.81468 20.6128 5.20772 21.5944 5.92211C22.5858 6.64362 24.1165 6.86008 24.8381 7.85152C25.5524 8.83313 25.29 10.3523 25.6729 11.5315C26.0422 12.6693 27.1597 13.7385 27.1597 14.9994Z" fill="#F5F5F5"/>
<path d="M28.1658 10.7214C27.6934 9.2667 28.0172 7.3927 27.1359 6.18183C26.2459 4.95883 24.3576 4.69179 23.1346 3.80175C21.9238 2.92052 21.0911 1.20213 19.6363 0.729799C19.0421 0.536882 18.3987 0.584628 17.7364 0.703662C17.7661 0.712053 17.796 0.720202 17.8255 0.729799C19.2802 1.20213 20.1129 2.92052 21.3238 3.80175C22.5468 4.69179 24.435 4.95883 25.3251 6.18183C26.2063 7.3927 25.8825 9.2667 26.3549 10.7214C26.8106 12.125 28.1891 13.4438 28.1891 14.9994C28.1891 16.5549 26.8106 17.8737 26.3549 19.2773C25.8826 20.732 26.2063 22.606 25.3251 23.8169C24.435 25.0399 22.5467 25.3069 21.3238 26.197C20.1129 27.0782 19.2802 28.7966 17.8255 29.2689C17.796 29.2785 17.7661 29.2867 17.7363 29.2951C18.3987 29.4141 19.0421 29.4619 19.6363 29.2689C21.0911 28.7966 21.9238 27.0782 23.1346 26.197C24.3576 25.3069 26.2459 25.0399 27.1359 23.8169C28.0171 22.606 27.6934 20.732 28.1658 19.2773C28.6215 17.8737 30 16.5549 30 14.9994C30 13.4438 28.6215 12.125 28.1658 10.7214Z" fill="#67B59F"/>
<path d="M25.6729 11.5314C25.29 10.3521 25.5524 8.83299 24.8381 7.85144C24.1165 6.86005 22.5858 6.64353 21.5944 5.92208C20.6128 5.2077 19.9378 3.81466 18.7585 3.43178C18.2128 3.25456 17.616 3.32772 17.0035 3.45164C18.1482 3.85981 18.8176 5.2191 19.7835 5.92208C20.7749 6.64359 22.3057 6.86005 23.0272 7.85144C23.7416 8.83305 23.4791 10.3522 23.862 11.5314C24.2315 12.6692 25.3489 13.7383 25.3489 14.9993C25.3489 16.2603 24.2314 17.3294 23.862 18.4673C23.4791 19.6466 23.7416 21.1657 23.0272 22.1473C22.3057 23.1386 20.775 23.3552 19.7836 24.0767C18.8177 24.7796 18.1483 26.1389 17.0036 26.5471C17.616 26.671 18.2128 26.7441 18.7586 26.567C19.9379 26.184 20.6128 24.7911 21.5944 24.0767C22.5858 23.3552 24.1165 23.1387 24.8381 22.1473C25.5524 21.1656 25.29 19.6465 25.6729 18.4673C26.0423 17.3294 27.1598 16.2604 27.1598 14.9993C27.1598 13.7383 26.0423 12.6692 25.6729 11.5314Z" fill="#EFE9F1"/>
<path d="M11.9114 19.8642L9.66392 17.16C9.32475 16.7519 9.38064 16.146 9.78875 15.8068L10.4188 15.2832C10.8269 14.944 11.4327 14.9999 11.7719 15.408L12.9042 16.7704C13.1748 17.0959 13.6688 17.1127 13.9607 16.8062L19.7492 11.1585C20.1153 10.7742 20.7235 10.7595 21.1077 11.1255L21.7009 11.6906C22.0852 12.0567 22.0999 12.6649 21.7339 13.0491L14.742 19.96C13.9598 20.7812 12.6363 20.7364 11.9114 19.8642Z" fill="#92E0C4"/>
<path d="M21.701 11.6906L21.1077 11.1255C20.7234 10.7595 20.1152 10.7743 19.7493 11.1585L19.5429 11.3598L19.8901 11.6906C20.2744 12.0566 20.2891 12.6649 19.923 13.0491L12.9312 19.96C12.7906 20.1076 12.6324 20.2267 12.4635 20.3185C13.1915 20.7142 14.1315 20.6008 14.742 19.96L21.734 13.0491C22.0999 12.6648 22.0852 12.0566 21.701 11.6906Z" fill="#77D1B3"/>
</g>
<defs>
<clipPath id="clip0">
<rect width="30" height="30" fill="white"/>
</clipPath>
</defs>
</svg>
