<?xml version="1.0" encoding="UTF-8"?><svg id="Layer_1" xmlns="http://www.w3.org/2000/svg" xmlns:xlink="http://www.w3.org/1999/xlink" viewBox="0 0 1285.02 1263.23"><defs><style>.cls-1{fill:url(#linear-gradient);}.cls-2{fill:#010101;}.cls-3{fill:#6b2382;}.cls-4{fill:#ed6931;}.cls-5{fill:#ebac12;}.cls-6{fill:#e94b4e;}.cls-7{fill:#e6393c;}.cls-8{fill:#f4951e;}.cls-9{fill:#ead008;}.cls-10{fill:#f18623;}.cls-11{fill:#e7235a;}.cls-12{fill:#802082;}.cls-13{fill:#882484;}.cls-14{fill:#8c2383;}.cls-15{fill:#924189;}.cls-16{fill:#c51866;}.cls-17{fill:#b6186b;}.cls-18{fill:#34277f;}.cls-19{fill:#d0333f;}.cls-20{fill:#a8167e;}.cls-21{fill:#b0137c;}.cls-22{fill:#c22d70;}.cls-23{fill:#ca125c;}.cls-24{fill:#c79117;}.cls-25{fill:#dd636f;}.cls-26{fill:#dd5d73;}.cls-27{fill:#124669;}.cls-28{fill:#2454a2;}.cls-29{fill:#2473ba;}.cls-30{fill:#204899;}.cls-31{fill:#1d5258;}.cls-32{fill:#1d577e;}.cls-33{fill:#1e4395;}.cls-34{fill:#125799;}.cls-35{fill:#215f6a;}.cls-36{fill:#1f949a;}.cls-37{fill:#223a8b;}.cls-38{fill:#114152;}.cls-39{fill:#0da1a2;}.cls-40{fill:#0d9539;}.cls-41{fill:#0cb8d6;}.cls-42{fill:#0e4580;}.cls-43{fill:#179fae;}.cls-44{fill:#96c233;}.cls-45{fill:#95c12e;}.cls-46{fill:#892a25;}.cls-47{fill:#2c2d72;}.cls-48{fill:#2a768d;}.cls-49{fill:#2a65ae;}.cls-50{fill:#2a66b0;}.cls-51{fill:#54baa4;}.cls-52{fill:#2961ab;}.cls-53{fill:#287b89;}.cls-54{fill:#492565;}.cls-55{fill:#2b4e9d;}.cls-56{fill:#3485af;}.cls-57{fill:#256979;}.cls-58{fill:#3c79a8;}.cls-59{fill:#59b358;}.cls-60{fill:#55bfc9;}.cls-61{fill:#62247f;}.cls-62{fill:#46babc;}.cls-63{fill:#32b6b5;}.cls-64{fill:url(#linear-gradient-2);}</style><linearGradient id="linear-gradient" x1="603.4" y1="180.97" x2="757.04" y2="343.35" gradientTransform="translate(1231.62) rotate(-180) scale(1 -1)" gradientUnits="userSpaceOnUse"><stop offset=".01" stop-color="#e9427f"/><stop offset=".97" stop-color="#c92a1b"/></linearGradient><linearGradient id="linear-gradient-2" x1="575.49" y1="369.22" x2="729.73" y2="369.22" gradientTransform="translate(1231.62) rotate(-180) scale(1 -1)" gradientUnits="userSpaceOnUse"><stop offset=".04" stop-color="#c82b5f"/><stop offset=".97" stop-color="#c92a1b"/></linearGradient></defs><g><polygon class="cls-60" points="864.62 608.42 978.05 608.42 1001.18 759.03 864.62 608.42"/><polygon class="cls-44" points="769.55 564.89 864.62 608.42 790.98 692.08 769.55 564.89"/><polygon class="cls-15" points="667.8 663.97 790.98 692.08 769.55 564.89 667.8 663.97"/><polygon class="cls-43" points="749.06 765.49 667.8 663.97 790.98 692.08 749.06 765.49"/><polygon class="cls-19" points="640.23 548.88 769.55 564.89 724.03 416.28 640.23 548.88"/><polygon class="cls-26" points="564.2 449.25 640.23 548.88 724.03 416.28 564.2 449.25"/><polygon class="cls-8" points="656.13 289.22 724.03 416.28 729.39 349.01 656.13 289.22"/><polygon class="cls-4" points="656.13 289.22 564.2 449.25 724.03 416.28 656.13 289.22"/><polygon class="cls-1" points="501.89 176.74 501.89 315.01 656.13 289.22 501.89 176.74"/><path class="cls-33" d="M604.65,1092.65c6.91-20.58,13.09-44.19,16.72-70.76l23.45,34.73c-1.09,3.32-2.17,6.63-3.21,9.85l-36.96,26.19h0Z"/><path class="cls-38" d="M983.1,1176.59l-46.45,9.9c1.92-14.6,8.25-22.21,8.25-22.21,0,0,14.25-42.74,14.25-47.02,0-2,4.09-17.97,8.07-36.83l18.39,49.99c-2.33,14.76-3.85,25.36-3.65,26.73,.35,2.46,.7,10.6,1.14,19.43Z"/><path class="cls-41" d="M1184.22,928.12l-2.03,6.72s-14.62-7.04-17.56-10.54c-4.04-4.81-.69-25.12-.72-25.86-.03-.66-16.54-12.43-17.09-25.07l35.11,7.5,2.29,47.26Z"/><path class="cls-41" d="M1186.54,852.22l-4.61,28.65-35.11-7.5c-.06-1.39,.07-2.78,.43-4.18,2.33-4.6-8.12-13.52-15.77-21.53l46.88-32.38c3.66,5.99,5.41,15.16,5.59,19.72,.17,4.32,.41,10.42,2.59,17.2Z"/><path class="cls-61" d="M861.14,1173.22l40.19-12.52c1.93,5.74,3.06,9.43,3.06,10.19,0,4.75-9.51,37.99-10.46,41.8-.37,1.47-.87,5.65-1.2,10.55l-34.34-13.23c3.95-12.46,6.48-22.74,6.08-23.91-.12-.35-1.28-5.02-3.34-12.88Z"/><path class="cls-12" d="M901.34,1160.7l-40.19,12.52c-1.12-4.29-2.52-9.52-4.15-15.51l35.23-22.79c3.76,10.34,6.94,19.34,9.11,25.77Z"/><path class="cls-31" d="M974.13,1021.1c2.39-1.54-4.28-44.17-4.99-46.31-.18-.55-.03-4.7,.27-10.63l12.48,9.83,10.94,112.71c-2.63,15.49-5.22,31.13-7.21,43.74l-18.39-49.99c4.54-21.53,8.92-46.81,6.9-59.34Z"/><path class="cls-56" d="M1001.18,759.03l54.02,54.16c5.23,15,13.84,30.62,24.03,39.72,6.2,5.54,16.05,12.82,21.66,16.96l-82.02,16.63c-6.16-5.77-16.01-115.24-17.69-127.46Z"/><path class="cls-43" d="M933.37,805.27c-13.11-7.23-22.32-13.89-28.82-19.71l96.63-26.53-43.33,70.79c-14.64-13.76-22.85-22.92-24.49-24.55Z"/><path class="cls-41" d="M889.16,761.84s-10.41,.35-24.54,.13v-153.54l136.57,150.61-96.63,26.53c-16.1-14.44-15.39-23.72-15.39-23.72Z"/><path class="cls-39" d="M864.62,761.96c-7.63-.12-16.34-.42-25.09-1.03l-48.55-68.85,73.64-83.66v153.54Z"/><path class="cls-55" d="M670.9,809.77l46.32,41.06s0,.62-.03,1.73h0s-9.92,26.81-18.45,53.47l-27.85-96.27s0,0,0,0Z"/><path class="cls-37" d="M641.61,1066.46c-6.47,19.93-11.83,36.98-11.83,38.86,0,4.74-11.43,67.46-16.17,79.82-.15,.4-.31,.79-.46,1.19l-8.5-93.68,36.96-26.19Z"/><path class="cls-37" d="M622.6,1011.92l42.92-14.87c-.96,1.19-1.54,1.84-1.54,1.84,0,0-9.98,29.68-19.17,57.72l-23.45-34.73c.45-3.28,.86-6.6,1.23-9.97Z"/><path class="cls-54" d="M885.37,1116.31c2.42,6.48,4.73,12.77,6.86,18.62l-35.23,22.79c-4.52-16.57-10.91-38.96-18.67-63.24l47.04,21.84Z"/><path class="cls-13" d="M840.72,960.9c6.47,4.31,1.52,29.82,3.66,50.21l-22.86,34.49c-5.61-15.09-11.6-29.94-17.86-43.7-5.13-11.27-17.82-39.44-27.33-60.58l60.79,13.8c1.58,3.23,2.81,5.25,3.6,5.77Z"/><path class="cls-3" d="M844.38,1011.11c.69,6.57,2.11,12.62,4.89,17.25,6.37,10.61,22.81,52.34,36.09,87.95l-47.04-21.84c-5.06-15.84-10.71-32.5-16.8-48.87l22.86-34.49Z"/><path class="cls-22" d="M745.53,864.8h57.16c3.05,8.63,6.13,17.27,9.15,25.63l-38.31,44.69c-5.16-11.47-8.84-19.66-8.84-19.66l-19.16-50.66Z"/><path class="cls-21" d="M837.12,955.12l-60.79-13.8c-.97-2.15-1.9-4.22-2.79-6.19l38.31-44.69c10.26,28.38,19.85,53.64,25.27,64.69Z"/><path class="cls-25" d="M749.06,765.49l21.4,5.75h0c1.1,3.27,16.21,48.22,32.23,93.56h-57.16l-10.6-28.02,14.13-71.3Z"/><path class="cls-34" d="M1045.55,918.29l55.35-48.43c8.15,6.04,14.81,11.35,18.25,17.83,1.21,22.33,5.01,54.4,8.59,79.07l-53.28,2.64c-8.69-17.11-17.37-33-23.89-42.27,.36-.96-1.55-4.17-5.01-8.84Z"/><path class="cls-47" d="M1205.61,1185.26l11.4,35.99s-6.64,42.76-19,40.87c-11.88,9.15-20.43-40.91-20.43-40.91,0,0-23.64-41.54-30.42-55.21-.89-10.5-.48-4.2-.89-10.5l65.5,17.66c3.08,7.27-6.16,12.1-6.16,12.1Z"/><path class="cls-32" d="M604.65,1092.65h0l8.5,93.68c-3.36,8.47-7.89,17.24-10.26,22.95l-40.43-9.01c2.21-4.28,4.15-8.16,5.55-11.33-1.27-13.87,19.82-46.14,36.65-96.3Z"/><path class="cls-36" d="M749.06,765.49l41.91-73.4,48.55,68.85c-16.87-1.18-33.87-3.54-43.46-8.14-12.36,3.05-25.67,18.24-25.67,18.24,0,0,.02,.07,.07,.2l-21.4-5.75Z"/><path class="cls-33" d="M623.12,1006.82c-3.59-15.71-.77-34.63,5.05-55.87l45.73,34.44c-3.38,5.29-6.57,9.43-8.38,11.66l-42.92,14.87c.18-1.69,.36-3.39,.52-5.1Z"/><path class="cls-28" d="M636.31,924.64l62.43-18.59c-5.92,18.51-11.17,36.96-11.95,46.3-1,11.94-7.21,24.14-12.89,33.05l-45.73-34.44c2.31-8.42,5.09-17.21,8.14-26.32Z"/><path class="cls-49" d="M670.9,809.77l27.85,96.27s0,0,0,0l-62.43,18.59c11.63-34.75,27.08-74.05,34.59-114.86Z"/><path class="cls-28" d="M675.37,765.96c.46-3.87,0-8.57-1.1-13.74l74.79,13.27-14.13,71.3-2.51-6.64-15.23,22.43s-.07,.2-.21,.56l-46.09-43.36c2.66-14.46,4.33-29.11,4.47-43.81Z"/><g><path class="cls-60" d="M1001.18,759.03l65.92-29.73c-2.18,5.66-4.76,11.5-7.82,17.53-6.18,26.61-9.37,29.04-9.5,39.08-.09,7.36,1.9,17.18,5.42,27.28l-54.02-54.16Z"/><path class="cls-60" d="M1172.51,809.92c2.33,.78,4.27,2.78,5.85,5.37l-46.88,32.38c-3.66-3.83-6.68-7.46-7.35-10.31-2.07-8.79-.5-36.98,1.06-45.6,.65-3.56-11.21-37.99-25.38-77.22l11.64-5.25c10.16,31.56,22.55,64.59,33.64,80.75,4.79,6.99,19.7,17.3,27.41,19.87Z"/></g><path class="cls-24" d="M816.69,416.28h-92.66l5.36-67.27,57.46,35.2c13.18,10.09,24.52,21.14,29.84,32.06Z"/><path class="cls-5" d="M769.55,564.89l-45.52-148.61h92.66c2.9,5.95,4.02,11.87,2.67,17.58-1.51,6.4-5.71,9.72-11.6,10.86,10.24,8.65,16.81,15.15,16.81,15.15,0,0,9.04,6.97,22.33,14.78l17.71,133.78-95.06-43.53Z"/><path class="cls-10" d="M501.89,176.74l73.29-17.58c10.32,27.25,48.78,88.05,57.94,103.65,3.16,5.37,12,15.27,23.01,26.4h0s-154.25-112.47-154.25-112.47Z"/><path class="cls-14" d="M395.52,121.41l127.69-41.38c1.2,1.53,2.44,3.12,3.71,4.76l-58.61,40.35-72.79-3.72Z"/><path class="cls-17" d="M468.31,125.13l58.61-40.35c2.5,3.22,5.11,6.62,7.78,10.14l-32.81,81.82-33.58-51.61Z"/><path class="cls-6" d="M534.7,94.93c16.49,21.75,34.98,47.94,39.49,61.46,.29,.88,.63,1.8,.99,2.77l-73.29,17.58,32.81-81.82Z"/><path class="cls-24" d="M443.53,52.7h0s26.61-36.11,38.02-27.56c5.89,4.42-.63,22.78-8.34,39.49l33.52-5.16s5.43,6.57,13.24,16.44l-123.09,12.59,46.65-35.81Zm29.79,19.31l-1.41-2.63c.25,.93,.79,1.84,1.41,2.63Z"/><path class="cls-11" d="M396.88,88.51l-44.12,4.51,10.95-12.77s24.7-19.95,31.36-15.2c6.06-12.12,17.1-24.71,17.1-24.71l5.7-20.9s5.7-22.82,19.96-19.01c14.25,3.81,16.15,15.21,10.44,21.86-5.7,6.65-12.58,9.98-12.58,9.98l-2.61,9.98,10.45,10.46-46.65,35.81Z"/><path class="cls-23" d="M333.79,108.36c7.77-5.53,12.82-8.15,12.82-8.15l6.16-7.18,167.2-17.11c1.04,1.32,2.12,2.69,3.24,4.12l-127.69,41.38-61.73-13.05Z"/><path class="cls-18" d="M315.25,186.41s-22.81,2.64-30.4-7.34c-8.79-5.48-1.22-18.96,14.25-38.96,2.8-3.25,5.61-6.29,8.37-9.12l24.78,47.92c-8.49,9.36-17.01,7.5-17.01,7.5Z"/><path class="cls-20" d="M367.31,174.09c-10.72,.24-21.17-.25-30.22-1.94-1.57,2.73-3.21,4.95-4.84,6.75l-24.78-47.92c9.86-10.11,19.22-17.58,26.32-22.63l61.73,13.05-28.2,52.68Z"/><path class="cls-11" d="M395.52,121.41l40.05,44.3c-12.08,2.46-41.02,7.78-68.25,8.39l28.2-52.68Z"/><path class="cls-16" d="M501.89,315.01c-9.55-28.14-16.56-50.43-16.56-50.43,0,0-9.25-40.74-14.01-53.79-2.77-7.58-11.93-25.86-16.08-34.05h46.65v138.26Z"/><path class="cls-64" d="M564.18,449.21c-9.21-11.77-17.79-23.4-21.83-30.68-11.26-20.3-28.02-66.88-40.46-103.52l154.25-25.79-91.96,160Z"/><path class="cls-46" d="M667.8,663.97l-36.75-6.33c-4.31-13.97-8.06-29.89-7.93-38.5,.26-18.07,17.1-70.26,17.1-70.26l129.33,16.01-101.75,99.08Z"/><path class="cls-29" d="M749.06,765.49l-74.79-13.27c-5.67-26.6-28.54-65.68-32.15-67.96-2.19-1.38-6.89-13.08-11.07-26.63l36.75,6.33,81.27,101.52Z"/><path class="cls-59" d="M1075.26,647.62c.74,5.15,1.36,10.46,1.74,15.96l-98.94-55.15,85.93-10.52c1.59,2.93,3.19,6,4.79,9.25,.01,.14,.03,.28,.05,.43,8,8.68,17.34,19.51,21.96,27.42,.76,4.73,4.9,21.36,10.95,42.36l-19.48-10.86c-2.4-6.5-4.75-12.83-7-18.89Z"/><path class="cls-45" d="M864.62,608.42l83.87-103.66c5.76,1.98,11.45,4.19,16.9,6.49l12.67,97.17h-113.44Z"/><path class="cls-40" d="M1007.02,535.89c3.59,8.08,29.65,11.87,56.97,62.01l-85.93,10.52-12.67-97.17c21.8,9.23,39.61,20.06,41.64,24.63Z"/><path class="cls-9" d="M846.9,474.65c16.58,9.74,39.77,20.81,60.34,21.33,12.28,.31,26.96,3.86,41.24,8.78l-83.87,103.66-17.71-133.78Z"/><polygon class="cls-52" points="1127.73 966.76 1074.45 969.4 1099 1020.23 1127.73 966.76"/><polygon class="cls-28" points="1133.05 998.16 1127.73 966.76 1099 1020.23 1133.05 998.16"/><polygon class="cls-50" points="992.83 1086.7 984.12 996.97 1005.2 1019.3 992.83 1086.7"/><polygon class="cls-37" points="1195.21 882.11 1181.93 880.87 1184.71 927.11 1191.83 902.92 1195.21 882.11"/><path class="cls-37" d="M1186.54,852.22l-4.61,28.65,13.28,1.24s.2-15.84-5.6-22.57c-5.8-6.73-3.08-7.32-3.08-7.32Z"/><path class="cls-51" d="M1076.99,663.57s3.94,64.47-13.01,68.09c-29.84-39.58-85.93-123.24-85.93-123.24l98.94,55.15Z"/><polygon class="cls-63" points="1001.18 759.03 977.01 608.06 1063.16 730.9 1001.18 759.03"/><polygon class="cls-62" points="1101.93 678.03 1082.25 666.51 1099.82 713.86 1111.46 709.3 1101.93 678.03"/><polygon class="cls-48" points="969.46 898.69 1018.87 886.49 961.72 833.42 969.46 898.69"/><path class="cls-35" d="M1043.16,920.37c-4.88,12.72-12.56,32.75-19.77,51.56l-41.5,2.06,61.28-53.62Z"/><polygon class="cls-43" points="1100.89 869.86 1018.87 886.49 1045.55 918.29 1100.89 869.86"/><polygon class="cls-57" points="1018.87 886.49 969.46 898.69 969.4 964.16 981.89 973.99 1018.87 886.49"/><polygon class="cls-27" points="1023.39 971.93 1005.2 1019.3 984.12 996.97 981.89 973.99 1023.39 971.93"/><polygon class="cls-56" points="983.1 1176.59 985.62 1202.94 936.66 1186.49 983.1 1176.59"/><polygon class="cls-38" points="956.53 1230.2 985.62 1202.94 936.66 1186.49 956.53 1230.2"/><polygon class="cls-18" points="959.12 1252.03 956.53 1230.2 907.83 1243.74 907.83 1249.95 959.12 1252.03"/><polygon class="cls-56" points="921.22 1216.37 956.53 1230.2 936.66 1186.49 921.22 1216.37"/><polygon class="cls-47" points="907.83 1243.74 956.53 1230.2 921.22 1216.37 907.83 1243.74"/><path class="cls-18" d="M892.74,1223.24l4.58,31.6s-31.57,13.46-58.99,.71c10.66-14.44,20.08-45.54,20.08-45.54l34.34,13.23Z"/><polygon class="cls-11" points="449.35 168.12 441.39 164.46 435.69 165.84 395.52 121.41 468.31 125.13 449.35 168.12 449.35 168.12"/><path class="cls-7" d="M449.35,168.12l18.96-42.99,33.58,51.61h-46.22c-1.75-3.4-4.01-7.01-6.32-8.62Z"/><polygon class="cls-30" points="1133.05 998.16 1148.81 1047.3 1099 1020.23 1133.05 998.16"/><polygon class="cls-42" points="1133.66 1111.36 1148.81 1047.3 1099 1020.23 1133.66 1111.36"/><polygon class="cls-37" points="1165.14 1094.47 1133.66 1111.36 1148.81 1047.3 1165.14 1094.47"/><polygon class="cls-48" points="1146.27 1155.49 1165.14 1094.47 1133.66 1111.36 1146.27 1155.49"/><path class="cls-38" d="M1211.76,1173.15s-6.46-7.16-8.68-8.43c-2.22-1.27-14.05-15.64-14.05-15.64l-23.89-54.61-18.88,61.02,65.5,17.66Z"/><polygon class="cls-37" points="542.35 1249 604.12 1252.6 602.88 1209.29 562.45 1200.28 542.35 1249"/><polygon class="cls-53" points="1044.46 917 1043.16 920.37 981.89 973.99 1018.87 886.49 1044.46 917"/><polygon class="cls-58" points="1001.18 759.03 1018.87 886.49 957.86 829.82 1001.18 759.03"/></g><g><path class="cls-2" d="M122.67,978.32c-6.92,32.13-33.66,45.81-58.57,45.81-34.12,0-61.79-29.36-61.79-65.64s26.13-65.79,61.79-65.79c22.29,0,37.81,8.3,48.88,21.67l-18.91,20.75c-7.38-11.84-17.06-16.29-28.28-16.29-17.83,0-32.28,17.68-32.28,39.66s14.45,39.04,32.28,39.04c13.83,0,27.52-8.92,27.52-24.44h-29.21v-22.29h58.57v27.52Z"/><path class="cls-2" d="M165.55,910.37c0,8.92-7.22,16.14-16.14,16.14s-16.14-7.22-16.14-16.14,7.23-16.14,16.14-16.14,16.14,7.22,16.14,16.14Zm-30.13,111.45h27.21v-78.86h-27.21v78.86Z"/><path class="cls-2" d="M181.84,942.96h27.21v11.38h.31s8.61-13.68,24.13-13.68c10.15,0,17.22,4.92,17.22,4.92l-11.38,23.06s-5.07-4.3-14.14-4.3c-14.14,0-16.14,13.99-16.14,15.99v41.5h-27.21v-78.86Z"/><path class="cls-2" d="M290.67,940.66c10.61,0,19.37,3.54,25.82,9.84v-7.53h27.21v78.86h-26.9v-8.92h-.31c-5.84,6.46-15.06,11.22-25.82,11.22-23.06,0-39.2-18.6-39.2-41.66s16.14-41.81,39.2-41.81Zm8.15,60.26c10.61,0,18.29-7.69,18.29-18.45s-8.15-18.6-18.29-18.6-18.45,7.69-18.45,18.6,7.38,18.45,18.45,18.45Z"/><path class="cls-2" d="M365.99,926.21c.15-23.06,11.22-38.89,30.9-38.89,13.83,0,22.44,7.07,22.44,7.07l-9.53,19.21s-3.69-2.15-8.15-2.15c-6.92,0-8.45,4.61-8.45,15.53v15.99h18.14v20.75h-18.14v58.11h-27.21v-58.11h-11.38v-20.75h11.38v-16.76Z"/><path class="cls-2" d="M422.71,926.21c.15-23.06,11.22-38.89,30.9-38.89,13.83,0,22.44,7.07,22.44,7.07l-9.53,19.21s-3.69-2.15-8.15-2.15c-6.92,0-8.45,4.61-8.45,15.53v15.99h18.14v20.75h-18.14v58.11h-27.21v-58.11h-11.38v-20.75h11.38v-16.76Z"/><path class="cls-2" d="M498.33,986.16c0,12.14,10.15,16.29,17.06,16.29,8.76,0,12.6-1.69,19.21-8.76l19.68,9.84c-8.92,14.91-23.37,20.6-40.89,20.6-23.83,0-43.35-18.75-43.35-41.66s19.52-41.81,43.35-41.81,42.27,14.14,42.27,41.81c0,1.08,0,2.77-.15,3.69h-57.18Zm30.74-15.06c-1.23-8.3-6.92-12.76-14.91-12.76-9.38,0-14.6,5.53-15.06,12.76h29.98Z"/><path class="cls-2" d="M0,1040.07H89.16v25.36h-30.13v101.45H30.13v-101.45H0v-25.36Z"/><path class="cls-2" d="M110.21,1131.22c0,12.14,10.15,16.29,17.06,16.29,8.76,0,12.6-1.69,19.21-8.76l19.68,9.84c-8.92,14.91-23.37,20.6-40.89,20.6-23.83,0-43.35-18.75-43.35-41.66s19.52-41.81,43.35-41.81,42.27,14.14,42.27,41.81c0,1.08,0,2.77-.15,3.69h-57.18Zm30.74-15.06c-1.23-8.3-6.92-12.76-14.91-12.76-9.38,0-14.6,5.53-15.06,12.76h29.98Z"/><path class="cls-2" d="M213.05,1085.72c10.61,0,19.37,3.54,25.82,9.84v-7.53h27.21v78.86h-26.9v-8.92h-.31c-5.84,6.46-15.06,11.22-25.82,11.22-23.06,0-39.2-18.6-39.2-41.66s16.14-41.81,39.2-41.81Zm8.15,60.26c10.61,0,18.29-7.69,18.29-18.45s-8.15-18.6-18.29-18.6-18.45,7.69-18.45,18.6,7.38,18.45,18.45,18.45Z"/><path class="cls-2" d="M284.52,1088.03h27.21v8.3h.31c6.15-6.15,13.99-10.61,22.6-10.61,10.45,0,21.98,3.84,27.52,14.45,8.3-9.99,17.52-14.45,26.13-14.45,14.45,0,30.74,7.22,30.74,29.21v51.96h-27.21v-44.58c0-7.84-4.15-14.76-13.83-14.76-8.61,0-12.3,6.3-12.6,12.3v47.04h-27.21v-44.58c0-7.84-4.15-14.76-13.83-14.76-9.07,0-12.6,6.92-12.6,13.22v46.12h-27.21v-78.86Z"/></g><g><path class="cls-2" d="M44.77,1198.71c14.12,0,26,10.75,26,25.75s-11.81,25.81-26,25.81h-14.94v-51.56h14.94Zm-1.38,41.06c8.69,0,14.62-6.62,14.69-15.25,0-8.62-5.94-15.31-14.69-15.31h-1.81v30.56h1.81Z"/><path class="cls-2" d="M85.15,1235.78c0,4.94,4.12,6.62,6.94,6.62,3.56,0,5.12-.69,7.81-3.56l8,4c-3.62,6.06-9.5,8.38-16.62,8.38-9.69,0-17.62-7.62-17.62-16.94s7.94-17,17.62-17,17.19,5.75,17.19,17c0,.44,0,1.12-.06,1.5h-23.25Zm12.5-6.12c-.5-3.38-2.81-5.19-6.06-5.19-3.81,0-5.94,2.25-6.12,5.19h12.19Z"/><path class="cls-2" d="M135.22,1251.21c-4.38,0-8.12-1.94-10.5-4.56h-.12v3.62h-10.94v-53.75h11.06v24.75c2.62-2.56,6.19-4,10.5-4,9.38,0,15.94,7.62,15.94,17s-6.56,16.94-15.94,16.94Zm-3.31-24.5c-4.12,0-7.44,3.12-7.44,7.56s3.12,7.5,7.44,7.5,7.5-3.12,7.5-7.5-3.31-7.56-7.5-7.56Z"/><path class="cls-2" d="M157.85,1206.28h11.06v11.94h6.75v8.44h-6.75v10.19c0,3,.75,4.44,2.5,4.44,1.44,0,2.75-1,2.75-1l2.75,8.94s-3.56,2-8.12,2c-8.81,0-10.94-6.56-10.94-12.25v-12.31h-4.62v-8.44h4.62v-11.94Z"/><path class="cls-2" d="M244.73,1250.28h-12.62l-3.81-10.31h-19.62l-3.81,10.31h-12.62l20.81-51.56h10.88l20.81,51.56Zm-26.19-35.62h-.12l-5.75,15h11.62l-5.75-15Z"/><path class="cls-2" d="M260.36,1217.28c4.31,0,7.88,1.44,10.5,4v-24.75h11.06v53.75h-10.94v-3.62h-.12c-2.38,2.62-6.12,4.56-10.5,4.56-9.38,0-15.94-7.56-15.94-16.94s6.56-17,15.94-17Zm3.31,24.5c4.31,0,7.44-3.12,7.44-7.5s-3.31-7.56-7.44-7.56-7.5,3.12-7.5,7.56,3,7.5,7.5,7.5Z"/><path class="cls-2" d="M304.99,1235.65l7.81-17.44h13.12l-17.19,32.06h-7.5l-17.19-32.06h13.12l7.81,17.44Z"/><path class="cls-2" d="M340.68,1204.96c0,3.62-2.94,6.56-6.56,6.56s-6.56-2.94-6.56-6.56,2.94-6.56,6.56-6.56,6.56,2.94,6.56,6.56Zm-12.25,45.31h11.06v-32.06h-11.06v32.06Z"/><path class="cls-2" d="M356.74,1234.21c0,4.44,3.44,7.94,7.62,7.94,3.31,0,5.38-1.5,5.38-1.5l3.75,7.69s-3.62,2.88-10.75,2.88c-9.25,0-17.75-7.5-17.75-16.88s8.44-17.06,17.75-17.06c7.12,0,10.75,3,10.75,3l-3.75,7.56s-2.06-1.5-5.38-1.5c-4.19,0-7.62,3.5-7.62,7.88Z"/><path class="cls-2" d="M387.18,1235.78c0,4.94,4.12,6.62,6.94,6.62,3.56,0,5.12-.69,7.81-3.56l8,4c-3.62,6.06-9.5,8.38-16.62,8.38-9.69,0-17.62-7.62-17.62-16.94s7.94-17,17.62-17,17.19,5.75,17.19,17c0,.44,0,1.12-.06,1.5h-23.25Zm12.5-6.12c-.5-3.38-2.81-5.19-6.06-5.19-3.81,0-5.94,2.25-6.12,5.19h12.19Z"/></g></svg>