<svg width="40" height="40" viewBox="0 0 40 40" fill="none" xmlns="http://www.w3.org/2000/svg">
<circle cx="20" cy="20" r="20" fill="#FFCE31"/>
<path d="M15.3706 13.2412H15.3657C15.15 13.2412 14.9751 13.4161 14.9751 13.6318C14.9751 13.8476 15.15 14.0225 15.3657 14.0225H15.3706C15.5863 14.0225 15.7612 13.8476 15.7612 13.6318C15.7612 13.4161 15.5863 13.2412 15.3706 13.2412Z" fill="#4D4D4D"/>
<path d="M28.4375 13.2412H17.112C16.8963 13.2412 16.7214 13.4161 16.7214 13.6318C16.7214 13.8476 16.8963 14.0225 17.112 14.0225H28.4375C28.4577 14.0225 28.4776 14.024 28.4975 14.0255L27.4059 15.117H22.3105C22.0948 15.117 21.9199 15.2919 21.9199 15.5077C21.9199 15.7234 22.0948 15.8983 22.3105 15.8983H26.6247L21.1798 21.3432C20.5293 21.9937 19.4707 21.9937 18.8202 21.3432L11.5025 14.0255C11.5224 14.024 11.5423 14.0225 11.5625 14.0225H13.6328C13.8486 14.0225 14.0234 13.8476 14.0234 13.6318C14.0234 13.4161 13.8486 13.2412 13.6328 13.2412H11.5625C10.7009 13.2412 10 13.9421 10 14.8037V25.196C10 26.0575 10.7009 26.7585 11.5625 26.7585H28.4375C29.2991 26.7585 30 26.0575 30 25.196V14.8037C30 13.9421 29.2991 13.2412 28.4375 13.2412ZM10.7812 25.196V14.8037C10.7812 14.6882 10.8071 14.5789 10.8523 14.4801L16.2891 19.9169L10.8086 25.3975C10.7913 25.333 10.7812 25.2657 10.7812 25.196ZM28.4375 25.9772H11.5625C11.4927 25.9772 11.4254 25.9671 11.361 25.9499L16.8416 20.4694L18.2678 21.8956C18.7454 22.3732 19.3727 22.612 20 22.612C20.6273 22.612 21.2546 22.3732 21.7322 21.8956L23.1584 20.4694L28.639 25.9499C28.5746 25.9671 28.5073 25.9772 28.4375 25.9772ZM29.2188 25.196C29.2188 25.2657 29.2087 25.333 29.1914 25.3975L23.7109 19.917L29.1477 14.4801C29.1929 14.5789 29.2188 14.6882 29.2188 14.8037V25.196Z" fill="#4D4D4D"/>
<path d="M20.6758 15.1172H20.6699C20.4542 15.1172 20.2793 15.2921 20.2793 15.5078C20.2793 15.7236 20.4542 15.8984 20.6699 15.8984H20.6758C20.8915 15.8984 21.0664 15.7236 21.0664 15.5078C21.0664 15.2921 20.8915 15.1172 20.6758 15.1172Z" fill="#4D4D4D"/>
</svg>
