<svg width="112" height="108" viewBox="0 0 112 108" fill="none" xmlns="http://www.w3.org/2000/svg">
<g opacity="0.6" clip-path="url(#clip0)">
<path d="M86.0151 106.136C96.8772 105.955 105.535 96.9223 105.352 85.9615C105.169 75.0007 96.2159 66.2618 85.3538 66.4428C74.4917 66.6238 65.8343 75.656 66.0169 86.6169C66.1996 97.5777 75.1531 106.316 86.0151 106.136Z" fill="url(#paint0_linear)"/>
<path d="M86.664 105.35C97.526 105.169 106.183 96.1367 106.001 85.1758C105.818 74.215 96.8647 65.4762 86.0026 65.6572C75.1405 65.8382 66.4831 74.8704 66.6657 85.8312C66.8484 96.792 75.8019 105.531 86.664 105.35Z" fill="url(#paint1_linear)"/>
<path d="M87.2594 104.538C98.1215 104.357 106.779 95.3252 106.596 84.3643C106.414 73.4035 97.4602 64.6647 86.5981 64.8457C75.736 65.0266 67.0786 74.0589 67.2612 85.0197C67.4438 95.9805 76.3973 104.719 87.2594 104.538Z" fill="url(#paint2_linear)"/>
<path d="M87.828 103.701C98.6901 103.52 107.348 94.4875 107.165 83.5267C106.982 72.5658 98.0288 63.827 87.1667 64.008C76.3046 64.189 67.6472 73.2212 67.8298 84.182C68.0124 95.1429 76.9659 103.882 87.828 103.701Z" fill="url(#paint3_linear)"/>
<path d="M88.3701 102.864C99.2322 102.683 107.89 93.6503 107.707 82.6895C107.524 71.7287 98.5709 62.9899 87.7088 63.1709C76.8467 63.3518 68.1893 72.384 68.3719 83.3449C68.5545 94.3057 77.508 103.045 88.3701 102.864Z" fill="url(#paint4_linear)"/>
<path d="M88.8584 101.974C99.7205 101.793 108.378 92.7605 108.195 81.7996C108.013 70.8388 99.0592 62.1 88.1971 62.281C77.335 62.4619 68.6776 71.4942 68.8602 82.455C69.0428 93.4158 77.9963 102.155 88.8584 101.974Z" fill="url(#paint5_linear)"/>
<path d="M89.2936 101.085C100.156 100.904 108.813 91.8715 108.63 80.9107C108.448 69.9499 99.4944 61.2111 88.6323 61.392C77.7702 61.573 69.1128 70.6052 69.2954 81.5661C69.478 92.5269 78.4315 101.266 89.2936 101.085Z" fill="url(#paint6_linear)"/>
<path d="M89.702 100.169C100.564 99.9885 109.222 90.9562 109.039 79.9954C108.856 69.0346 99.9028 60.2958 89.0407 60.4768C78.1786 60.6577 69.5212 69.69 69.7038 80.6508C69.8865 91.6116 78.84 100.35 89.702 100.169Z" fill="url(#paint7_linear)"/>
<path d="M90.0835 99.2278C100.946 99.0468 109.603 90.0146 109.42 79.0538C109.238 68.0929 100.284 59.3541 89.4222 59.5351C78.5601 59.7161 69.9027 68.7483 70.0853 79.7091C70.2679 90.67 79.2214 99.4088 90.0835 99.2278Z" fill="url(#paint8_linear)"/>
<path d="M90.4385 98.2869C101.301 98.1059 109.958 89.0737 109.775 78.1129C109.593 67.152 100.639 58.4132 89.7772 58.5942C78.9151 58.7752 70.2577 67.8074 70.4403 78.7682C70.6229 89.7291 79.5764 98.4678 90.4385 98.2869Z" fill="url(#paint9_linear)"/>
<path d="M90.7401 97.3198C101.602 97.1389 110.26 88.1066 110.077 77.1458C109.894 66.185 100.941 57.4462 90.0788 57.6271C79.2167 57.8081 70.5593 66.8403 70.7419 77.8012C70.9245 88.762 79.878 97.5008 90.7401 97.3198Z" fill="url(#paint10_linear)"/>
<path d="M90.9884 96.3272C101.851 96.1462 110.508 87.114 110.325 76.1531C110.143 65.1923 101.189 56.4535 90.3271 56.6345C79.465 56.8154 70.8076 65.8477 70.9902 76.8085C71.1728 87.7693 80.1263 96.5081 90.9884 96.3272Z" fill="url(#paint11_linear)"/>
<path d="M91.2102 95.335C102.072 95.154 110.73 86.1218 110.547 75.1609C110.364 64.2001 101.411 55.4613 90.5489 55.6423C79.6868 55.8233 71.0294 64.8555 71.212 75.8163C71.3946 86.7771 80.3481 95.5159 91.2102 95.335Z" fill="url(#paint12_linear)"/>
<path d="M91.405 94.3164C102.267 94.1354 110.925 85.1032 110.742 74.1424C110.559 63.1816 101.606 54.4428 90.7437 54.6237C79.8816 54.8047 71.2242 63.8369 71.4068 74.7978C71.5895 85.7586 80.543 94.4974 91.405 94.3164Z" fill="url(#paint13_linear)"/>
<path d="M91.5469 93.2988C102.409 93.1179 111.066 84.0856 110.884 73.1248C110.701 62.164 101.748 53.4252 90.8856 53.6062C80.0235 53.7871 71.3661 62.8193 71.5487 73.7802C71.7313 84.741 80.6848 93.4798 91.5469 93.2988Z" fill="url(#paint14_linear)"/>
<path d="M91.6619 92.2546C102.524 92.0737 111.181 83.0415 110.999 72.0806C110.816 61.1198 101.863 52.381 91.0006 52.562C80.1385 52.7429 71.4811 61.7752 71.6637 72.736C71.8463 83.6968 80.7998 92.4356 91.6619 92.2546Z" fill="url(#paint15_linear)"/>
<path d="M91.7505 91.2112C102.613 91.0302 111.27 81.998 111.087 71.0372C110.905 60.0763 101.951 51.3375 91.0892 51.5185C80.2271 51.6995 71.5697 60.7317 71.7523 71.6925C71.9349 82.6534 80.8884 91.3922 91.7505 91.2112Z" fill="url(#paint16_linear)"/>
<path d="M91.7855 90.1419C102.648 89.9609 111.305 80.9287 111.122 69.9678C110.94 59.007 101.986 50.2682 91.1242 50.4492C80.2621 50.6301 71.6047 59.6624 71.7873 70.6232C71.9699 81.584 80.9235 90.3228 91.7855 90.1419Z" fill="url(#paint17_linear)"/>
<path d="M91.7943 89.073C102.656 88.892 111.314 79.8598 111.131 68.899C110.949 57.9382 101.995 49.1993 91.133 49.3803C80.2709 49.5613 71.6135 58.5935 71.7961 69.5544C71.9787 80.5152 80.9322 89.254 91.7943 89.073Z" fill="url(#paint18_linear)"/>
<path d="M91.7765 88.0046C102.639 87.8237 111.296 78.7915 111.113 67.8306C110.931 56.8698 101.977 48.131 91.1152 48.312C80.2531 48.4929 71.5957 57.5252 71.7783 68.486C71.9609 79.4468 80.9144 88.1856 91.7765 88.0046Z" fill="url(#paint19_linear)"/>
<path d="M91.7052 86.9104C102.567 86.7294 111.225 77.6972 111.042 66.7364C110.859 55.7756 101.906 47.0368 91.0439 47.2177C80.1818 47.3987 71.5244 56.4309 71.707 67.3918C71.8896 78.3526 80.8431 87.0914 91.7052 86.9104Z" fill="url(#paint20_linear)"/>
<path d="M91.6076 85.8167C102.47 85.6357 111.127 76.6035 110.944 65.6426C110.762 54.6818 101.808 45.943 90.9462 46.124C80.0842 46.305 71.4267 55.3372 71.6093 66.298C71.792 77.2588 80.7455 85.9976 91.6076 85.8167Z" fill="url(#paint21_linear)"/>
<path d="M91.4835 84.7232C102.346 84.5422 111.003 75.51 110.82 64.5491C110.638 53.5883 101.684 44.8495 90.8222 45.0305C79.9601 45.2114 71.3027 54.2437 71.4853 65.2045C71.6679 76.1653 80.6214 84.9041 91.4835 84.7232Z" fill="url(#paint22_linear)"/>
<path d="M91.3059 83.604C102.168 83.423 110.825 74.3908 110.643 63.43C110.46 52.4692 101.507 43.7304 90.6446 43.9113C79.7825 44.0923 71.1251 53.1245 71.3077 64.0854C71.4903 75.0462 80.4438 83.785 91.3059 83.604Z" fill="url(#paint23_linear)"/>
<path d="M91.1019 82.4851C101.964 82.3041 110.621 73.2719 110.439 62.3111C110.256 51.3503 101.303 42.6115 90.4406 42.7924C79.5785 42.9734 70.9211 52.0056 71.1037 62.9665C71.2864 73.9273 80.2399 82.6661 91.1019 82.4851Z" fill="url(#paint24_linear)"/>
<path d="M90.872 81.3936C101.734 81.2126 110.391 72.1804 110.209 61.2195C110.026 50.2587 101.073 41.5199 90.2106 41.7009C79.3486 41.8819 70.6911 50.9141 70.8738 61.8749C71.0564 72.8357 80.0099 81.5745 90.872 81.3936Z" fill="url(#paint25_linear)"/>
<path d="M90.5886 80.2761C101.451 80.0952 110.108 71.0629 109.926 60.1021C109.743 49.1413 100.789 40.4025 89.9273 40.5834C79.0652 40.7644 70.4078 49.7966 70.5904 60.7575C70.773 71.7183 79.7266 80.4571 90.5886 80.2761Z" fill="url(#paint26_linear)"/>
<path d="M90.3047 79.1318C101.167 78.9509 109.824 69.9187 109.642 58.9578C109.459 47.997 100.505 39.2582 89.6434 39.4392C78.7813 39.6201 70.1239 48.6524 70.3065 59.6132C70.4891 70.574 79.4426 79.3128 90.3047 79.1318Z" fill="url(#paint27_linear)"/>
<path d="M89.9419 78.0156C100.804 77.8347 109.461 68.8024 109.279 57.8416C109.096 46.8808 100.143 38.142 89.2806 38.323C78.4185 38.5039 69.7611 47.5361 69.9437 58.497C70.1263 69.4578 79.0798 78.1966 89.9419 78.0156Z" fill="url(#paint28_linear)"/>
<path d="M89.5791 76.8997C100.441 76.7187 109.099 67.6865 108.916 56.7256C108.733 45.7648 99.7799 37.026 88.9178 37.207C78.0557 37.388 69.3983 46.4202 69.5809 57.381C69.7635 68.3418 78.717 77.0806 89.5791 76.8997Z" fill="url(#paint29_linear)"/>
<path d="M89.1634 75.7844C100.025 75.6035 108.683 66.5712 108.5 55.6104C108.318 44.6496 99.3641 35.9108 88.502 36.0917C77.6399 36.2727 68.9825 45.3049 69.1651 56.2658C69.3478 67.2266 78.3013 75.9654 89.1634 75.7844Z" fill="url(#paint30_linear)"/>
<path d="M88.7207 74.6428C99.5828 74.4619 108.24 65.4296 108.058 54.4688C107.875 43.508 98.9215 34.7692 88.0594 34.9501C77.1973 35.1311 68.5399 44.1633 68.7225 55.1242C68.9051 66.085 77.8586 74.8238 88.7207 74.6428Z" fill="url(#paint31_linear)"/>
<path d="M88.2521 73.5283C99.1142 73.3474 107.772 64.3151 107.589 53.3543C107.406 42.3935 98.4529 33.6547 87.5908 33.8356C76.7287 34.0166 68.0713 43.0488 68.2539 54.0097C68.4365 64.9705 77.39 73.7093 88.2521 73.5283Z" fill="url(#paint32_linear)"/>
<path d="M87.7569 72.4146C98.6189 72.2336 107.276 63.2014 107.094 52.2405C106.911 41.2797 97.9576 32.5409 87.0955 32.7219C76.2334 32.9029 67.576 41.9351 67.7586 52.8959C67.9413 63.8567 76.8948 72.5955 87.7569 72.4146Z" fill="url(#paint33_linear)"/>
<path d="M87.2088 71.3015C98.0708 71.1206 106.728 62.0883 106.546 51.1275C106.363 40.1667 97.4095 31.4279 86.5474 31.6088C75.6853 31.7898 67.0279 40.822 67.2105 51.7829C67.3932 62.7437 76.3467 71.4825 87.2088 71.3015Z" fill="url(#paint34_linear)"/>
<path d="M86.6342 70.189C97.4963 70.008 106.154 60.9758 105.971 50.0149C105.788 39.0541 96.8349 30.3153 85.9728 30.4963C75.1108 30.6773 66.4533 39.7095 66.636 50.6703C66.8186 61.6311 75.7721 70.3699 86.6342 70.189Z" fill="url(#paint35_linear)"/>
<path d="M86.0332 69.0767C96.8953 68.8957 105.553 59.8635 105.37 48.9026C105.187 37.9418 96.234 29.203 85.3719 29.384C74.5098 29.565 65.8524 38.5972 66.035 49.558C66.2176 60.5188 75.1711 69.2576 86.0332 69.0767Z" fill="url(#paint36_linear)"/>
<path d="M85.3797 67.9922C96.2417 67.8112 104.899 58.779 104.717 47.8182C104.534 36.8573 95.5804 28.1185 84.7183 28.2995C73.8562 28.4805 65.1988 37.5127 65.3814 48.4735C65.5641 59.4344 74.5176 68.1732 85.3797 67.9922Z" fill="url(#paint37_linear)"/>
<path d="M84.7256 66.8809C95.5877 66.6999 104.245 57.6677 104.062 46.7068C103.88 35.746 94.9264 27.0072 84.0643 27.1882C73.2022 27.3692 64.5448 36.4014 64.7274 47.3622C64.91 58.323 73.8635 67.0618 84.7256 66.8809Z" fill="url(#paint38_linear)"/>
<path d="M84.0192 65.7971C94.8813 65.6162 103.539 56.5839 103.356 45.6231C103.173 34.6623 94.2199 25.9235 83.3579 26.1044C72.4958 26.2854 63.8384 35.3176 64.021 46.2785C64.2036 57.2393 73.1571 65.9781 84.0192 65.7971Z" fill="url(#paint39_linear)"/>
<path d="M83.2866 64.7407C94.1487 64.5598 102.806 55.5275 102.624 44.5667C102.441 33.6059 93.4874 24.8671 82.6253 25.048C71.7632 25.229 63.1058 34.2612 63.2884 45.2221C63.471 56.1829 72.4246 64.9217 83.2866 64.7407Z" fill="url(#paint40_linear)"/>
<path d="M82.5272 63.658C93.3893 63.477 102.047 54.4448 101.864 43.4839C101.682 32.5231 92.728 23.7843 81.8659 23.9653C71.0038 24.1463 62.3464 33.1785 62.529 44.1393C62.7116 55.1001 71.6651 63.8389 82.5272 63.658Z" fill="url(#paint41_linear)"/>
<path d="M81.7418 62.6023C92.6039 62.4213 101.261 53.3891 101.079 42.4283C100.896 31.4674 91.9426 22.7286 81.0805 22.9096C70.2184 23.0906 61.561 32.1228 61.7436 43.0836C61.9262 54.0445 70.8797 62.7833 81.7418 62.6023Z" fill="url(#paint42_linear)"/>
<path d="M80.9038 61.5742C91.7659 61.3933 100.423 52.361 100.241 41.4002C100.058 30.4394 91.1046 21.7006 80.2425 21.8815C69.3804 22.0625 60.723 31.0947 60.9056 42.0556C61.0882 53.0164 70.0417 61.7552 80.9038 61.5742Z" fill="url(#paint43_linear)"/>
<path d="M80.039 60.5198C90.901 60.3388 99.5585 51.3066 99.3758 40.3458C99.1932 29.3849 90.2397 20.6461 79.3776 20.8271C68.5155 21.0081 59.8581 30.0403 60.0407 41.0011C60.2234 51.962 69.1769 60.7008 80.039 60.5198Z" fill="url(#paint44_linear)"/>
<path d="M79.1486 59.5193C90.0107 59.3383 98.6681 50.3061 98.4855 39.3453C98.3028 28.3844 89.3493 19.6456 78.4872 19.8266C67.6252 20.0076 58.9677 29.0398 59.1504 40.0006C59.333 50.9615 68.2865 59.7003 79.1486 59.5193Z" fill="url(#paint45_linear)"/>
<path d="M78.2312 58.4927C89.0933 58.3117 97.7507 49.2795 97.5681 38.3187C97.3855 27.3578 88.432 18.619 77.5699 18.8C66.7078 18.981 58.0504 28.0132 58.233 38.974C58.4156 49.9349 67.3691 58.6737 78.2312 58.4927Z" fill="url(#paint46_linear)"/>
<path d="M77.2882 57.5198C88.1503 57.3388 96.8077 48.3066 96.6251 37.3458C96.4425 26.3849 87.489 17.6461 76.6269 17.8271C65.7648 18.0081 57.1074 27.0403 57.29 38.0011C57.4726 48.962 66.4261 57.7008 77.2882 57.5198Z" fill="url(#paint47_linear)"/>
<path d="M76.3184 56.5205C87.1805 56.3395 95.8379 47.3073 95.6553 36.3465C95.4726 25.3857 86.5191 16.6469 75.657 16.8278C64.795 17.0088 56.1375 26.041 56.3202 37.0019C56.5028 47.9627 65.4563 56.7015 76.3184 56.5205Z" fill="url(#paint48_linear)"/>
<path d="M75.2965 55.5757C86.1586 55.3947 94.816 46.3625 94.6334 35.4017C94.4508 24.4408 85.4973 15.702 74.6352 15.883C63.7731 16.064 55.1157 25.0962 55.2983 36.057C55.4809 47.0179 64.4344 55.7567 75.2965 55.5757Z" fill="url(#paint49_linear)"/>
<path d="M74.2747 54.6309C85.1368 54.4499 93.7942 45.4177 93.6116 34.4568C93.4289 23.496 84.4754 14.7572 73.6134 14.9382C62.7513 15.1192 54.0938 24.1514 54.2765 35.1122C54.4591 46.073 63.4126 54.8118 74.2747 54.6309Z" fill="url(#paint50_linear)"/>
<path d="M73.1997 53.687C84.0618 53.506 92.7192 44.4738 92.5366 33.513C92.354 22.5522 83.4005 13.8134 72.5384 13.9943C61.6763 14.1753 53.0189 23.2075 53.2015 34.1684C53.3841 45.1292 62.3376 53.868 73.1997 53.687Z" fill="url(#paint51_linear)"/>
<path d="M72.1259 52.7964C82.988 52.6154 91.6454 43.5832 91.4628 32.6224C91.2801 21.6615 82.3266 12.9227 71.4646 13.1037C60.6025 13.2847 51.945 22.3169 52.1277 33.2777C52.3103 44.2386 61.2638 52.9774 72.1259 52.7964Z" fill="url(#paint52_linear)"/>
<path d="M71.0259 51.9331C81.888 51.7521 90.5454 42.7199 90.3628 31.7591C90.1802 20.7983 81.2267 12.0595 70.3646 12.2404C59.5025 12.4214 50.8451 21.4536 51.0277 32.4145C51.2103 43.3753 60.1638 52.1141 71.0259 51.9331Z" fill="url(#paint53_linear)"/>
<path d="M69.9263 51.0964C80.7884 50.9155 89.4458 41.8833 89.2632 30.9224C89.0805 19.9616 80.127 11.2228 69.265 11.4038C58.4029 11.5847 49.7455 20.617 49.9281 31.5778C50.1107 42.5386 59.0642 51.2774 69.9263 51.0964Z" fill="url(#paint54_linear)"/>
<path d="M68.8273 50.2864C79.6894 50.1054 88.3468 41.0732 88.1642 30.1124C87.9816 19.1515 79.028 10.4127 68.166 10.5937C57.3039 10.7747 48.6465 19.8069 48.8291 30.7677C49.0117 41.7286 57.9652 50.4674 68.8273 50.2864Z" fill="url(#paint55_linear)"/>
<path d="M67.7025 49.5303C78.5646 49.3493 87.222 40.3171 87.0394 29.3563C86.8568 18.3954 77.9033 9.65662 67.0412 9.8376C56.1791 10.0186 47.5217 19.0508 47.7043 30.0116C47.8869 40.9725 56.8404 49.7113 67.7025 49.5303Z" fill="url(#paint56_linear)"/>
<path d="M66.5519 48.8013C77.414 48.6203 86.0714 39.5881 85.8888 28.6273C85.7062 17.6664 76.7527 8.92762 65.8906 9.10859C55.0285 9.28957 46.3711 18.3218 46.5537 29.2826C46.7363 40.2435 55.6898 48.9823 66.5519 48.8013Z" fill="url(#paint57_linear)"/>
<path d="M65.4281 48.0986C76.2902 47.9177 84.9476 38.8855 84.765 27.9246C84.5824 16.9638 75.6289 8.22498 64.7668 8.40596C53.9047 8.58693 45.2473 17.6192 45.4299 28.58C45.6125 39.5408 54.566 48.2796 65.4281 48.0986Z" fill="url(#paint58_linear)"/>
<path d="M64.2783 47.4231C75.1404 47.2421 83.7978 38.2099 83.6152 27.2491C83.4326 16.2882 74.4791 7.54945 63.617 7.73042C52.7549 7.9114 44.0975 16.9436 44.2801 27.9044C44.4627 38.8653 53.4162 47.6041 64.2783 47.4231Z" fill="url(#paint59_linear)"/>
<path d="M63.1289 46.7744C73.991 46.5935 82.6484 37.5612 82.4658 26.6004C82.2832 15.6396 73.3297 6.90076 62.4676 7.08174C51.6055 7.26271 42.9481 16.2949 43.1307 27.2558C43.3133 38.2166 52.2668 46.9554 63.1289 46.7744Z" fill="url(#paint60_linear)"/>
<path d="M61.954 46.1795C72.8161 45.9985 81.4735 36.9663 81.2909 26.0054C81.1083 15.0446 72.1548 6.30579 61.2927 6.48677C50.4306 6.66774 41.7732 15.7 41.9558 26.6608C42.1384 37.6216 51.0919 46.3604 61.954 46.1795Z" fill="url(#paint61_linear)"/>
<path d="M60.806 45.6106C71.6681 45.4296 80.3255 36.3974 80.1429 25.4366C79.9603 14.4757 71.0068 5.73695 60.1447 5.91792C49.2826 6.0989 40.6252 15.1311 40.8078 26.0919C40.9905 37.0528 49.944 45.7916 60.806 45.6106Z" fill="url(#paint62_linear)"/>
<path d="M59.632 45.0691C70.4941 44.8881 79.1515 35.8559 78.9689 24.8951C78.7862 13.9342 69.8327 5.19544 58.9707 5.37642C48.1086 5.55739 39.4511 14.5896 39.6338 25.5504C39.8164 36.5113 48.7699 45.2501 59.632 45.0691Z" fill="url(#paint63_linear)"/>
<path d="M58.4584 44.5545C69.3205 44.3735 77.9779 35.3413 77.7953 24.3804C77.6127 13.4196 68.6592 4.68079 57.7971 4.86177C46.935 5.04274 38.2776 14.075 38.4602 25.0358C38.6428 35.9966 47.5963 44.7354 58.4584 44.5545Z" fill="url(#paint64_linear)"/>
<path d="M57.2857 44.093C68.1478 43.9121 76.8052 34.8798 76.6226 23.919C76.4399 12.9582 67.4864 4.21937 56.6243 4.40034C45.7622 4.58132 37.1048 13.6135 37.2875 24.5744C37.4701 35.5352 46.4236 44.274 57.2857 44.093Z" fill="url(#paint65_linear)"/>
<path d="M56.1129 43.6316C66.975 43.4506 75.6324 34.4184 75.4498 23.4576C75.2672 12.4967 66.3137 3.75794 55.4516 3.93892C44.5895 4.11989 35.9321 13.1521 36.1147 24.1129C36.2973 35.0738 45.2508 43.8126 56.1129 43.6316Z" fill="url(#paint66_linear)"/>
<path d="M54.9411 43.2236C65.8031 43.0427 74.4606 34.0104 74.2779 23.0496C74.0953 12.0888 65.1418 3.34998 54.2797 3.53096C43.4176 3.71193 34.7602 12.7442 34.9428 23.705C35.1255 34.6658 44.079 43.4046 54.9411 43.2236Z" fill="url(#paint67_linear)"/>
<path d="M53.7702 42.8692C64.6322 42.6882 73.2897 33.656 73.107 22.6951C72.9244 11.7343 63.9709 2.99549 53.1088 3.17647C42.2467 3.35744 33.5893 12.3897 33.7719 23.3505C33.9546 34.3113 42.9081 43.0501 53.7702 42.8692Z" fill="url(#paint68_linear)"/>
<path d="M52.5993 42.5144C63.4614 42.3334 72.1188 33.3012 71.9361 22.3404C71.7535 11.3796 62.8 2.64075 51.9379 2.82173C41.0758 3.0027 32.4184 12.0349 32.601 22.9958C32.7837 33.9566 41.7372 42.6954 52.5993 42.5144Z" fill="url(#paint69_linear)"/>
<path d="M51.4557 42.2129C62.3178 42.0319 70.9752 32.9997 70.7926 22.0389C70.61 11.078 61.6565 2.33924 50.7944 2.52022C39.9323 2.70119 31.2749 11.7334 31.4575 22.6942C31.6401 33.6551 40.5936 42.3939 51.4557 42.2129Z" fill="url(#paint70_linear)"/>
<path d="M50.2861 41.9385C61.1482 41.7575 69.8057 32.7253 69.623 21.7645C69.4404 10.8036 60.4869 2.06483 49.6248 2.2458C38.7627 2.42678 30.1053 11.459 30.2879 22.4198C30.4706 33.3807 39.4241 42.1195 50.2861 41.9385Z" fill="url(#paint71_linear)"/>
<path d="M49.117 41.6909C59.9791 41.51 68.6365 32.4777 68.4538 21.5169C68.2712 10.5561 59.3177 1.81727 48.4556 1.99824C37.5935 2.17922 28.9361 11.2114 29.1187 22.1723C29.3014 33.1331 38.2549 41.8719 49.117 41.6909Z" fill="url(#paint72_linear)"/>
<path d="M47.9483 41.4697C58.8103 41.2888 67.4678 32.2565 67.2851 21.2957C67.1025 10.3349 58.149 1.59608 47.2869 1.77705C36.4248 1.95803 27.7674 10.9902 27.95 21.9511C28.1327 32.9119 37.0862 41.6507 47.9483 41.4697Z" fill="url(#paint73_linear)"/>
<path d="M46.8069 41.3018C57.669 41.1208 66.3264 32.0886 66.1438 21.1277C65.9612 10.1669 57.0077 1.42811 46.1456 1.60908C35.2835 1.79006 26.6261 10.8223 26.8087 21.7831C26.9913 32.7439 35.9448 41.4827 46.8069 41.3018Z" fill="url(#paint74_linear)"/>
<path d="M45.666 41.1604C56.5281 40.9794 65.1855 31.9472 65.0029 20.9864C64.8203 10.0256 55.8668 1.28675 45.0047 1.46773C34.1426 1.6487 25.4852 10.6809 25.6678 21.6418C25.8504 32.6026 34.8039 41.3414 45.666 41.1604Z" fill="url(#paint75_linear)"/>
<path d="M44.5255 41.0459C55.3876 40.8649 64.045 31.8327 63.8624 20.8719C63.6798 9.91105 54.7263 1.17225 43.8642 1.35322C33.0021 1.5342 24.3447 10.5664 24.5273 21.5273C24.7099 32.4881 33.6634 41.2269 44.5255 41.0459Z" fill="url(#paint76_linear)"/>
<path d="M43.4125 40.9844C54.2746 40.8034 62.932 31.7712 62.7494 20.8104C62.5668 9.84953 53.6133 1.11073 42.7512 1.2917C31.8891 1.47268 23.2317 10.5049 23.4143 21.4657C23.5969 32.4266 32.5504 41.1654 43.4125 40.9844Z" fill="url(#paint77_linear)"/>
<path d="M42.2733 40.95C53.1354 40.769 61.7928 31.7368 61.6102 20.7759C61.4276 9.8151 52.4741 1.0763 41.612 1.25728C30.7499 1.43825 22.0925 10.4705 22.2751 21.4313C22.4577 32.3921 31.4112 41.1309 42.2733 40.95Z" fill="url(#paint78_linear)"/>
<path d="M41.1611 40.9417C52.0232 40.7607 60.6806 31.7285 60.498 20.7676C60.3154 9.8068 51.3619 1.068 40.4998 1.24898C29.6377 1.42995 20.9803 10.4622 21.1629 21.423C21.3456 32.3838 30.2991 41.1226 41.1611 40.9417Z" fill="url(#paint79_linear)"/>
<path d="M40.0758 40.9597C50.9379 40.7788 59.5953 31.7465 59.4127 20.7857C59.2301 9.82487 50.2766 1.08607 39.4145 1.26704C28.5524 1.44802 19.895 10.4802 20.0776 21.4411C20.2602 32.4019 29.2137 41.1407 40.0758 40.9597Z" fill="url(#paint80_linear)"/>
<path d="M38.9915 41.0313C49.8536 40.8503 58.511 31.8181 58.3284 20.8572C58.1457 9.8964 49.1922 1.1576 38.3301 1.33858C27.4681 1.51955 18.8106 10.5518 18.9933 21.5126C19.1759 32.4734 28.1294 41.2122 38.9915 41.0313Z" fill="url(#paint81_linear)"/>
<path d="M37.9075 41.1294C48.7696 40.9484 57.427 31.9162 57.2444 20.9554C57.0618 9.99455 48.1082 1.25574 37.2462 1.43672C26.3841 1.61769 17.7267 10.6499 17.9093 21.6107C18.0919 32.5716 27.0454 41.3104 37.9075 41.1294Z" fill="url(#paint82_linear)"/>
<path d="M36.8505 41.2539C47.7126 41.0729 56.37 32.0407 56.1874 21.0799C56.0047 10.1191 47.0512 1.38026 36.1892 1.56123C25.3271 1.74221 16.6696 10.7744 16.8523 21.7353C17.0349 32.6961 25.9884 41.4349 36.8505 41.2539Z" fill="url(#paint83_linear)"/>
<path d="M35.7943 41.4319C46.6564 41.2509 55.3138 32.2187 55.1312 21.2579C54.9486 10.297 45.9951 1.55823 35.133 1.73921C24.2709 1.92019 15.6135 10.9524 15.7961 21.9132C15.9787 32.8741 24.9322 41.6129 35.7943 41.4319Z" fill="url(#paint84_linear)"/>
<path d="M34.7647 41.6094C45.6268 41.4284 54.2842 32.3962 54.1015 21.4354C53.9189 10.4745 44.9654 1.73573 34.1033 1.9167C23.2413 2.09768 14.5838 11.1299 14.7665 22.0907C14.9491 33.0516 23.9026 41.7904 34.7647 41.6094Z" fill="url(#paint85_linear)"/>
<path d="M33.7627 41.8665C44.6248 41.6855 53.2822 32.6533 53.0996 21.6924C52.917 10.7316 43.9635 1.99281 33.1014 2.17378C22.2393 2.35476 13.5819 11.387 13.7645 22.3478C13.9471 33.3086 22.9006 42.0474 33.7627 41.8665Z" fill="url(#paint86_linear)"/>
<path d="M32.7609 42.1235C43.623 41.9426 52.2804 32.9104 52.0978 21.9495C51.9151 10.9887 42.9616 2.24989 32.0996 2.43086C21.2375 2.61184 12.58 11.6441 12.7627 22.6049C12.9453 33.5657 21.8988 42.3045 32.7609 42.1235Z" fill="url(#paint87_linear)"/>
<path d="M31.7599 42.4341C42.622 42.2531 51.2794 33.2209 51.0968 22.2601C50.9142 11.2992 41.9607 2.56043 31.0986 2.74141C20.2365 2.92238 11.5791 11.9546 11.7617 22.9154C11.9443 33.8763 20.8978 42.6151 31.7599 42.4341Z" fill="url(#paint88_linear)"/>
<path d="M30.8123 42.7705C41.6744 42.5895 50.3318 33.5573 50.1492 22.5965C49.9665 11.6357 41.013 2.89686 30.1509 3.07783C19.2889 3.25881 10.6314 12.291 10.8141 23.2519C10.9967 34.2127 19.9502 42.9515 30.8123 42.7705Z" fill="url(#paint89_linear)"/>
<path d="M29.8651 43.1338C40.7272 42.9528 49.3846 33.9206 49.202 22.9598C49.0194 11.9989 40.0659 3.26014 29.2038 3.44111C18.3417 3.62209 9.6843 12.6543 9.86692 23.6151C10.0495 34.576 19.003 43.3148 29.8651 43.1338Z" fill="url(#paint90_linear)"/>
<path d="M28.9453 43.5498C39.8074 43.3688 48.4648 34.3366 48.2822 23.3758C48.0996 12.415 39.1461 3.67615 28.284 3.85713C17.4219 4.03811 8.7645 13.0703 8.94712 24.0312C9.12974 34.992 18.0832 43.7308 28.9453 43.5498Z" fill="url(#paint91_linear)"/>
<path d="M28.026 43.9927C38.8881 43.8117 47.5455 34.7795 47.3629 23.8187C47.1803 12.8578 38.2268 4.11903 27.3647 4.3C16.5026 4.48098 7.84519 13.5132 8.02781 24.474C8.21043 35.4349 17.1639 44.1737 28.026 43.9927Z" fill="url(#paint92_linear)"/>
<path d="M27.1601 44.4612C38.0221 44.2802 46.6796 35.248 46.4969 24.2872C46.3143 13.3263 37.3608 4.58753 26.4987 4.76851C15.6366 4.94948 6.97922 13.9817 7.16184 24.9425C7.34446 35.9034 16.298 44.6422 27.1601 44.4612Z" fill="url(#paint93_linear)"/>
<path d="M26.2949 44.9834C37.157 44.8024 45.8144 35.7702 45.6318 24.8094C45.4492 13.8486 36.4957 5.10975 25.6336 5.29072C14.7715 5.4717 6.11411 14.5039 6.29673 25.4648C6.47935 36.4256 15.4329 45.1644 26.2949 44.9834Z" fill="url(#paint94_linear)"/>
<path d="M25.4568 45.5318C36.3189 45.3508 44.9763 36.3186 44.7937 25.3577C44.6111 14.3969 35.6576 5.65809 24.7955 5.83906C13.9334 6.02004 5.27597 15.0523 5.45859 26.0131C5.64121 36.9739 14.5947 45.7127 25.4568 45.5318Z" fill="url(#paint95_linear)"/>
<path d="M24.6455 46.1062C35.5076 45.9252 44.165 36.893 43.9824 25.9322C43.7998 14.9714 34.8463 6.23255 23.9842 6.41353C13.1221 6.5945 4.46469 15.6267 4.64731 26.5876C4.82993 37.5484 13.7834 46.2872 24.6455 46.1062Z" fill="url(#paint96_linear)"/>
<path d="M23.8617 46.7339C34.7238 46.5529 43.3812 37.5207 43.1986 26.5599C43.016 15.599 34.0625 6.86024 23.2004 7.04121C12.3383 7.22219 3.68088 16.2544 3.8635 27.2152C4.04612 38.1761 12.9996 46.9149 23.8617 46.7339Z" fill="url(#paint97_linear)"/>
<path d="M23.1048 47.3877C33.9668 47.2067 42.6243 38.1745 42.4416 27.2137C42.259 16.2528 33.3055 7.51405 22.4434 7.69502C11.5813 7.876 2.92392 16.9082 3.10654 27.869C3.28916 38.8299 12.2427 47.5687 23.1048 47.3877Z" fill="url(#paint98_linear)"/>
<path d="M22.3483 48.0684C33.2104 47.8874 41.8678 38.8552 41.6852 27.8943C41.5026 16.9335 32.549 8.19471 21.687 8.37568C10.8249 8.55666 2.16745 17.5889 2.35007 28.5497C2.53269 39.5105 11.4862 48.2493 22.3483 48.0684Z" fill="url(#paint99_linear)"/>
<path d="M21.6455 48.8015C32.5076 48.6206 41.165 39.5883 40.9824 28.6275C40.7998 17.6667 31.8463 8.92786 20.9842 9.10884C10.1221 9.28981 1.46469 18.322 1.64731 29.2829C1.82993 40.2437 10.7834 48.9825 21.6455 48.8015Z" fill="url(#paint100_linear)"/>
<path d="M20.9697 49.5608C31.8318 49.3798 40.4893 40.3476 40.3066 29.3868C40.124 18.4259 31.1705 9.68714 20.3084 9.86812C9.44633 10.0491 0.788912 19.0813 0.971533 30.0421C1.15415 41.003 10.1077 49.7418 20.9697 49.5608Z" fill="url(#paint101_linear)"/>
<path d="M26.4262 49.0945C36.7213 45.5976 42.2553 34.3403 38.7868 23.9507C35.3183 13.561 24.1607 7.97324 13.8656 11.4701C3.57056 14.967 -1.9635 26.2243 1.50499 36.614C4.97348 47.0036 16.1311 52.5914 26.4262 49.0945Z" fill="#E5E6E4"/>
<path d="M99.8159 100.094C107.367 92.2155 107.158 79.6496 99.3483 72.0272C91.5386 64.4047 79.0859 64.6122 71.5344 72.4906C63.983 80.3689 64.1924 92.9348 72.0021 100.557C79.8118 108.18 92.2645 107.972 99.8159 100.094Z" fill="#E5E6E4"/>
</g>
<defs>
<linearGradient id="paint0_linear" x1="70.7878" y1="73.3371" x2="100.811" y2="98.9942" gradientUnits="userSpaceOnUse">
<stop stop-color="#A6A2A2"/>
<stop offset="0.2222" stop-color="#AEABAA"/>
<stop offset="0.5785" stop-color="#C4C2C1"/>
<stop offset="1" stop-color="#E5E6E4"/>
</linearGradient>
<linearGradient id="paint1_linear" x1="71.4325" y1="72.5479" x2="101.455" y2="98.2049" gradientUnits="userSpaceOnUse">
<stop stop-color="#A7A3A3"/>
<stop offset="0.2265" stop-color="#AFACAB"/>
<stop offset="0.5881" stop-color="#C4C3C2"/>
<stop offset="1" stop-color="#E4E5E3"/>
</linearGradient>
<linearGradient id="paint2_linear" x1="72.0382" y1="71.7354" x2="102.061" y2="97.3925" gradientUnits="userSpaceOnUse">
<stop stop-color="#A8A4A4"/>
<stop offset="0.2284" stop-color="#B0ACAC"/>
<stop offset="0.5917" stop-color="#C5C3C2"/>
<stop offset="1" stop-color="#E4E5E3"/>
</linearGradient>
<linearGradient id="paint3_linear" x1="72.605" y1="70.9008" x2="102.628" y2="96.5578" gradientUnits="userSpaceOnUse">
<stop stop-color="#A9A5A5"/>
<stop offset="0.2331" stop-color="#B1ADAD"/>
<stop offset="0.6023" stop-color="#C6C4C3"/>
<stop offset="1" stop-color="#E3E4E2"/>
</linearGradient>
<linearGradient id="paint4_linear" x1="73.1332" y1="70.0447" x2="103.156" y2="95.7018" gradientUnits="userSpaceOnUse">
<stop stop-color="#AAA6A6"/>
<stop offset="0.238" stop-color="#B2AEAE"/>
<stop offset="0.6134" stop-color="#C7C5C4"/>
<stop offset="1" stop-color="#E3E3E1"/>
</linearGradient>
<linearGradient id="paint5_linear" x1="73.623" y1="69.1678" x2="103.646" y2="94.8249" gradientUnits="userSpaceOnUse">
<stop stop-color="#AAA7A7"/>
<stop offset="0.2403" stop-color="#B2AFAF"/>
<stop offset="0.6177" stop-color="#C7C6C5"/>
<stop offset="1" stop-color="#E2E3E1"/>
</linearGradient>
<linearGradient id="paint6_linear" x1="74.0743" y1="68.2712" x2="104.097" y2="93.9282" gradientUnits="userSpaceOnUse">
<stop stop-color="#ABA8A8"/>
<stop offset="0.2456" stop-color="#B3B0B0"/>
<stop offset="0.6286" stop-color="#C7C6C5"/>
<stop offset="1" stop-color="#E1E2E0"/>
</linearGradient>
<linearGradient id="paint7_linear" x1="74.4878" y1="67.3554" x2="104.511" y2="93.0125" gradientUnits="userSpaceOnUse">
<stop stop-color="#ACA8A8"/>
<stop offset="0.2481" stop-color="#B3B0B0"/>
<stop offset="0.6334" stop-color="#C8C6C5"/>
<stop offset="1" stop-color="#E1E1DF"/>
</linearGradient>
<linearGradient id="paint8_linear" x1="74.8633" y1="66.4214" x2="104.886" y2="92.0785" gradientUnits="userSpaceOnUse">
<stop stop-color="#ADA9A9"/>
<stop offset="0.2507" stop-color="#B4B1B1"/>
<stop offset="0.6385" stop-color="#C8C7C6"/>
<stop offset="1" stop-color="#E0E1DF"/>
</linearGradient>
<linearGradient id="paint9_linear" x1="75.2012" y1="65.4704" x2="105.224" y2="91.1275" gradientUnits="userSpaceOnUse">
<stop stop-color="#AEAAAA"/>
<stop offset="0.2567" stop-color="#B5B2B2"/>
<stop offset="0.652" stop-color="#C9C7C6"/>
<stop offset="1" stop-color="#DFE0DE"/>
</linearGradient>
<linearGradient id="paint10_linear" x1="75.5016" y1="64.5026" x2="105.524" y2="90.1597" gradientUnits="userSpaceOnUse">
<stop stop-color="#AFABAB"/>
<stop offset="0.2631" stop-color="#B6B3B3"/>
<stop offset="0.6664" stop-color="#CAC8C7"/>
<stop offset="1" stop-color="#DFDFDD"/>
</linearGradient>
<linearGradient id="paint11_linear" x1="75.7648" y1="63.5193" x2="105.788" y2="89.1764" gradientUnits="userSpaceOnUse">
<stop stop-color="#B0ACAC"/>
<stop offset="0.2661" stop-color="#B7B4B3"/>
<stop offset="0.6724" stop-color="#CAC9C8"/>
<stop offset="1" stop-color="#DEDFDD"/>
</linearGradient>
<linearGradient id="paint12_linear" x1="75.9909" y1="62.5212" x2="106.014" y2="88.1783" gradientUnits="userSpaceOnUse">
<stop stop-color="#B1ADAD"/>
<stop offset="0.2731" stop-color="#B8B5B4"/>
<stop offset="0.6885" stop-color="#CBCAC9"/>
<stop offset="1" stop-color="#DEDEDC"/>
</linearGradient>
<linearGradient id="paint13_linear" x1="76.18" y1="61.509" x2="106.203" y2="87.1661" gradientUnits="userSpaceOnUse">
<stop stop-color="#B1AEAE"/>
<stop offset="0.2806" stop-color="#B8B6B5"/>
<stop offset="0.7055" stop-color="#CCCBCA"/>
<stop offset="1" stop-color="#DDDDDC"/>
</linearGradient>
<linearGradient id="paint14_linear" x1="76.3324" y1="60.4838" x2="106.355" y2="86.1408" gradientUnits="userSpaceOnUse">
<stop stop-color="#B2AFAF"/>
<stop offset="0.2842" stop-color="#B9B7B6"/>
<stop offset="0.7128" stop-color="#CCCBCA"/>
<stop offset="1" stop-color="#DCDDDB"/>
</linearGradient>
<linearGradient id="paint15_linear" x1="76.4484" y1="59.4458" x2="106.471" y2="85.1029" gradientUnits="userSpaceOnUse">
<stop stop-color="#B3B0B0"/>
<stop offset="0.2925" stop-color="#BAB7B7"/>
<stop offset="0.7317" stop-color="#CDCCCB"/>
<stop offset="1" stop-color="#DCDCDA"/>
</linearGradient>
<linearGradient id="paint16_linear" x1="76.5282" y1="58.3967" x2="106.551" y2="84.0538" gradientUnits="userSpaceOnUse">
<stop stop-color="#B4B1B1"/>
<stop offset="0.3015" stop-color="#BBB8B8"/>
<stop offset="0.7522" stop-color="#CECDCC"/>
<stop offset="1" stop-color="#DBDBDA"/>
</linearGradient>
<linearGradient id="paint17_linear" x1="76.5717" y1="57.3368" x2="106.594" y2="82.9939" gradientUnits="userSpaceOnUse">
<stop stop-color="#B5B2B2"/>
<stop offset="0.3058" stop-color="#BCB9B9"/>
<stop offset="0.7612" stop-color="#CECECC"/>
<stop offset="1" stop-color="#DADBD9"/>
</linearGradient>
<linearGradient id="paint18_linear" x1="76.5795" y1="56.2671" x2="106.602" y2="81.9242" gradientUnits="userSpaceOnUse">
<stop stop-color="#B6B3B3"/>
<stop offset="0.3158" stop-color="#BDBABA"/>
<stop offset="0.7842" stop-color="#CFCECD"/>
<stop offset="1" stop-color="#DADAD8"/>
</linearGradient>
<linearGradient id="paint19_linear" x1="76.5515" y1="55.1884" x2="106.574" y2="80.8455" gradientUnits="userSpaceOnUse">
<stop stop-color="#B7B3B3"/>
<stop offset="0.3208" stop-color="#BDBABA"/>
<stop offset="0.7945" stop-color="#CFCECD"/>
<stop offset="1" stop-color="#D9D9D8"/>
</linearGradient>
<linearGradient id="paint20_linear" x1="76.4879" y1="54.1015" x2="106.511" y2="79.7586" gradientUnits="userSpaceOnUse">
<stop stop-color="#B8B4B4"/>
<stop offset="0.3261" stop-color="#BEBBBB"/>
<stop offset="0.8054" stop-color="#D0CFCD"/>
<stop offset="1" stop-color="#D9D9D7"/>
</linearGradient>
<linearGradient id="paint21_linear" x1="76.389" y1="53.0073" x2="106.412" y2="78.6644" gradientUnits="userSpaceOnUse">
<stop stop-color="#B9B5B5"/>
<stop offset="0.3379" stop-color="#BFBCBC"/>
<stop offset="0.8326" stop-color="#D1D0CE"/>
<stop offset="1" stop-color="#D8D8D6"/>
</linearGradient>
<linearGradient id="paint22_linear" x1="76.2552" y1="51.9064" x2="106.278" y2="77.5634" gradientUnits="userSpaceOnUse">
<stop stop-color="#B9B6B6"/>
<stop offset="0.3508" stop-color="#BFBDBD"/>
<stop offset="0.8623" stop-color="#D1D1D0"/>
<stop offset="1" stop-color="#D7D7D6"/>
</linearGradient>
<linearGradient id="paint23_linear" x1="76.0862" y1="50.7999" x2="106.109" y2="76.457" gradientUnits="userSpaceOnUse">
<stop stop-color="#BAB7B7"/>
<stop offset="0.3575" stop-color="#C0BEBE"/>
<stop offset="0.8764" stop-color="#D2D1D0"/>
<stop offset="1" stop-color="#D7D7D5"/>
</linearGradient>
<linearGradient id="paint24_linear" x1="75.8826" y1="49.6884" x2="105.905" y2="75.3455" gradientUnits="userSpaceOnUse">
<stop stop-color="#BBB8B8"/>
<stop offset="0.3725" stop-color="#C1BFBE"/>
<stop offset="0.911" stop-color="#D3D2D0"/>
<stop offset="1" stop-color="#D6D6D4"/>
</linearGradient>
<linearGradient id="paint25_linear" x1="75.6446" y1="48.5731" x2="105.667" y2="74.2302" gradientUnits="userSpaceOnUse">
<stop stop-color="#BCB9B9"/>
<stop offset="0.3892" stop-color="#C2C0C0"/>
<stop offset="0.9496" stop-color="#D3D3D2"/>
<stop offset="1" stop-color="#D5D5D4"/>
</linearGradient>
<linearGradient id="paint26_linear" x1="75.3722" y1="47.4545" x2="105.395" y2="73.1116" gradientUnits="userSpaceOnUse">
<stop stop-color="#BDBABA"/>
<stop offset="0.408" stop-color="#C3C1C1"/>
<stop offset="0.993" stop-color="#D5D4D3"/>
<stop offset="1" stop-color="#D5D4D3"/>
</linearGradient>
<linearGradient id="paint27_linear" x1="75.0655" y1="46.3334" x2="105.088" y2="71.9905" gradientUnits="userSpaceOnUse">
<stop stop-color="#BEBBBB"/>
<stop offset="0.4178" stop-color="#C4C2C1"/>
<stop offset="1" stop-color="#D4D4D2"/>
</linearGradient>
<linearGradient id="paint28_linear" x1="74.725" y1="45.2109" x2="104.748" y2="70.8679" gradientUnits="userSpaceOnUse">
<stop stop-color="#BFBCBC"/>
<stop offset="0.4405" stop-color="#C5C3C2"/>
<stop offset="1" stop-color="#D4D3D2"/>
</linearGradient>
<linearGradient id="paint29_linear" x1="74.3507" y1="44.0878" x2="104.374" y2="69.7449" gradientUnits="userSpaceOnUse">
<stop stop-color="#C0BDBD"/>
<stop offset="0.4667" stop-color="#C6C4C3"/>
<stop offset="1" stop-color="#D3D2D1"/>
</linearGradient>
<linearGradient id="paint30_linear" x1="73.9429" y1="42.9647" x2="103.966" y2="68.6218" gradientUnits="userSpaceOnUse">
<stop stop-color="#C0BEBE"/>
<stop offset="0.4806" stop-color="#C6C5C4"/>
<stop offset="1" stop-color="#D2D2D0"/>
</linearGradient>
<linearGradient id="paint31_linear" x1="73.5018" y1="41.8425" x2="103.525" y2="67.4996" gradientUnits="userSpaceOnUse">
<stop stop-color="#C1BFBF"/>
<stop offset="0.5134" stop-color="#C7C6C5"/>
<stop offset="1" stop-color="#D2D1D0"/>
</linearGradient>
<linearGradient id="paint32_linear" x1="73.0275" y1="40.722" x2="103.05" y2="66.3791" gradientUnits="userSpaceOnUse">
<stop stop-color="#C2BFBF"/>
<stop offset="0.5314" stop-color="#C8C5C5"/>
<stop offset="1" stop-color="#D1D0CF"/>
</linearGradient>
<linearGradient id="paint33_linear" x1="72.5201" y1="39.6045" x2="102.543" y2="65.2615" gradientUnits="userSpaceOnUse">
<stop stop-color="#C3C0C0"/>
<stop offset="0.5512" stop-color="#C8C6C6"/>
<stop offset="1" stop-color="#D0D0CE"/>
</linearGradient>
<linearGradient id="paint34_linear" x1="71.9801" y1="38.4902" x2="102.003" y2="64.1473" gradientUnits="userSpaceOnUse">
<stop stop-color="#C4C1C1"/>
<stop offset="0.5994" stop-color="#C9C7C7"/>
<stop offset="1" stop-color="#D0CFCE"/>
</linearGradient>
<linearGradient id="paint35_linear" x1="71.4075" y1="37.3803" x2="101.43" y2="63.0373" gradientUnits="userSpaceOnUse">
<stop stop-color="#C5C2C2"/>
<stop offset="0.6603" stop-color="#CAC8C8"/>
<stop offset="1" stop-color="#CFCECD"/>
</linearGradient>
<linearGradient id="paint36_linear" x1="70.8026" y1="36.2752" x2="100.825" y2="61.9323" gradientUnits="userSpaceOnUse">
<stop stop-color="#C6C3C3"/>
<stop offset="0.696" stop-color="#CBC9C8"/>
<stop offset="1" stop-color="#CFCECC"/>
</linearGradient>
<linearGradient id="paint37_linear" x1="70.1654" y1="35.1764" x2="100.188" y2="60.8335" gradientUnits="userSpaceOnUse">
<stop stop-color="#C7C4C4"/>
<stop offset="0.7892" stop-color="#CCCACA"/>
<stop offset="1" stop-color="#CECDCC"/>
</linearGradient>
<linearGradient id="paint38_linear" x1="69.4962" y1="34.0842" x2="99.519" y2="59.7412" gradientUnits="userSpaceOnUse">
<stop stop-color="#C7C5C5"/>
<stop offset="0.9237" stop-color="#CCCBCA"/>
<stop offset="1" stop-color="#CDCCCB"/>
</linearGradient>
<linearGradient id="paint39_linear" x1="68.7953" y1="32.9996" x2="98.8181" y2="58.6566" gradientUnits="userSpaceOnUse">
<stop stop-color="#C8C6C6"/>
<stop offset="1" stop-color="#CDCCCB"/>
</linearGradient>
<linearGradient id="paint40_linear" x1="68.0628" y1="31.9236" x2="98.0856" y2="57.5807" gradientUnits="userSpaceOnUse">
<stop stop-color="#C9C7C7"/>
<stop offset="1" stop-color="#CCCBCA"/>
</linearGradient>
<linearGradient id="paint41_linear" x1="67.2989" y1="30.8568" x2="97.3217" y2="56.5139" gradientUnits="userSpaceOnUse">
<stop stop-color="#CAC8C8"/>
<stop offset="1" stop-color="#CBCAC9"/>
</linearGradient>
<linearGradient id="paint42_linear" x1="66.5039" y1="29.8" x2="96.5267" y2="55.4571" gradientUnits="userSpaceOnUse">
<stop stop-color="#CBC9C9"/>
<stop offset="1" stop-color="#CBCAC9"/>
</linearGradient>
<linearGradient id="paint43_linear" x1="65.6778" y1="28.7542" x2="95.7005" y2="54.4113" gradientUnits="userSpaceOnUse">
<stop stop-color="#CCCACA"/>
<stop offset="1" stop-color="#CAC9C8"/>
</linearGradient>
<linearGradient id="paint44_linear" x1="64.8209" y1="27.72" x2="94.8436" y2="53.3771" gradientUnits="userSpaceOnUse">
<stop stop-color="#CDCBCB"/>
<stop offset="1" stop-color="#CAC8C7"/>
</linearGradient>
<linearGradient id="paint45_linear" x1="63.9334" y1="26.6985" x2="93.9562" y2="52.3556" gradientUnits="userSpaceOnUse">
<stop stop-color="#CECBCB"/>
<stop offset="1" stop-color="#C9C8C7"/>
</linearGradient>
<linearGradient id="paint46_linear" x1="63.0155" y1="25.6906" x2="93.0383" y2="51.3477" gradientUnits="userSpaceOnUse">
<stop stop-color="#CFCCCC"/>
<stop offset="0.892" stop-color="#C9C8C7"/>
<stop offset="1" stop-color="#C8C7C6"/>
</linearGradient>
<linearGradient id="paint47_linear" x1="62.0674" y1="24.6968" x2="92.0902" y2="50.3539" gradientUnits="userSpaceOnUse">
<stop stop-color="#CFCDCD"/>
<stop offset="0.8175" stop-color="#CAC8C7"/>
<stop offset="1" stop-color="#C8C6C5"/>
</linearGradient>
<linearGradient id="paint48_linear" x1="61.0893" y1="23.718" x2="91.1121" y2="49.3751" gradientUnits="userSpaceOnUse">
<stop stop-color="#D0CECE"/>
<stop offset="0.7571" stop-color="#CAC9C8"/>
<stop offset="1" stop-color="#C7C6C5"/>
</linearGradient>
<linearGradient id="paint49_linear" x1="60.0814" y1="22.7552" x2="90.1042" y2="48.4123" gradientUnits="userSpaceOnUse">
<stop stop-color="#D1CFCF"/>
<stop offset="0.6664" stop-color="#CBCAC9"/>
<stop offset="1" stop-color="#C6C5C4"/>
</linearGradient>
<linearGradient id="paint50_linear" x1="59.0439" y1="21.8092" x2="89.0667" y2="47.4663" gradientUnits="userSpaceOnUse">
<stop stop-color="#D2D0D0"/>
<stop offset="0.5995" stop-color="#CDCBCA"/>
<stop offset="1" stop-color="#C6C4C3"/>
</linearGradient>
<linearGradient id="paint51_linear" x1="57.9788" y1="20.8827" x2="88.0016" y2="46.5397" gradientUnits="userSpaceOnUse">
<stop stop-color="#D3D1D1"/>
<stop offset="0.5713" stop-color="#CDCCCB"/>
<stop offset="1" stop-color="#C5C4C3"/>
</linearGradient>
<linearGradient id="paint52_linear" x1="56.8991" y1="19.986" x2="86.9219" y2="45.6431" gradientUnits="userSpaceOnUse">
<stop stop-color="#D4D2D2"/>
<stop offset="0.5253" stop-color="#CFCDCC"/>
<stop offset="1" stop-color="#C5C3C2"/>
</linearGradient>
<linearGradient id="paint53_linear" x1="55.8071" y1="19.1216" x2="85.8299" y2="44.7787" gradientUnits="userSpaceOnUse">
<stop stop-color="#D5D3D3"/>
<stop offset="0.4882" stop-color="#D0CECD"/>
<stop offset="1" stop-color="#C4C2C1"/>
</linearGradient>
<linearGradient id="paint54_linear" x1="54.7039" y1="18.2892" x2="84.7267" y2="43.9463" gradientUnits="userSpaceOnUse">
<stop stop-color="#D6D4D4"/>
<stop offset="0.4716" stop-color="#D0CFCE"/>
<stop offset="1" stop-color="#C3C2C1"/>
</linearGradient>
<linearGradient id="paint55_linear" x1="53.5905" y1="17.4889" x2="83.6133" y2="43.146" gradientUnits="userSpaceOnUse">
<stop stop-color="#D6D5D5"/>
<stop offset="0.4432" stop-color="#D1D0D0"/>
<stop offset="1" stop-color="#C3C1C0"/>
</linearGradient>
<linearGradient id="paint56_linear" x1="52.4674" y1="16.721" x2="82.4901" y2="42.3781" gradientUnits="userSpaceOnUse">
<stop stop-color="#D7D6D6"/>
<stop offset="0.419" stop-color="#D2D1D1"/>
<stop offset="0.946" stop-color="#C4C2C1"/>
<stop offset="1" stop-color="#C2C0BF"/>
</linearGradient>
<linearGradient id="paint57_linear" x1="51.3357" y1="15.9853" x2="81.3584" y2="41.6424" gradientUnits="userSpaceOnUse">
<stop stop-color="#D8D6D6"/>
<stop offset="0.4185" stop-color="#D3D1D1"/>
<stop offset="0.9427" stop-color="#C3C2C1"/>
<stop offset="1" stop-color="#C1C0BF"/>
</linearGradient>
<linearGradient id="paint58_linear" x1="50.1961" y1="15.2821" x2="80.2189" y2="40.9392" gradientUnits="userSpaceOnUse">
<stop stop-color="#D9D7D7"/>
<stop offset="0.3978" stop-color="#D4D2D2"/>
<stop offset="0.8937" stop-color="#C5C3C2"/>
<stop offset="1" stop-color="#C1BFBE"/>
</linearGradient>
<linearGradient id="paint59_linear" x1="49.0495" y1="14.6114" x2="79.0723" y2="40.2685" gradientUnits="userSpaceOnUse">
<stop stop-color="#DAD8D8"/>
<stop offset="0.3796" stop-color="#D5D3D3"/>
<stop offset="0.8507" stop-color="#C6C4C3"/>
<stop offset="1" stop-color="#C0BEBD"/>
</linearGradient>
<linearGradient id="paint60_linear" x1="47.8967" y1="13.9733" x2="77.9195" y2="39.6304" gradientUnits="userSpaceOnUse">
<stop stop-color="#DBD9D9"/>
<stop offset="0.3713" stop-color="#D6D4D4"/>
<stop offset="0.8301" stop-color="#C7C5C5"/>
<stop offset="1" stop-color="#C0BEBD"/>
</linearGradient>
<linearGradient id="paint61_linear" x1="46.7387" y1="13.3677" x2="76.7615" y2="39.0247" gradientUnits="userSpaceOnUse">
<stop stop-color="#DCDADA"/>
<stop offset="0.3563" stop-color="#D7D5D5"/>
<stop offset="0.7945" stop-color="#C8C6C6"/>
<stop offset="1" stop-color="#BFBDBC"/>
</linearGradient>
<linearGradient id="paint62_linear" x1="45.5763" y1="12.7946" x2="75.599" y2="38.4517" gradientUnits="userSpaceOnUse">
<stop stop-color="#DDDBDB"/>
<stop offset="0.3429" stop-color="#D8D6D6"/>
<stop offset="0.7627" stop-color="#C9C7C7"/>
<stop offset="1" stop-color="#BEBCBB"/>
</linearGradient>
<linearGradient id="paint63_linear" x1="44.4101" y1="12.2545" x2="74.4329" y2="37.9116" gradientUnits="userSpaceOnUse">
<stop stop-color="#DEDCDC"/>
<stop offset="0.3367" stop-color="#D9D7D7"/>
<stop offset="0.7472" stop-color="#CAC8C8"/>
<stop offset="1" stop-color="#BEBCBB"/>
</linearGradient>
<linearGradient id="paint64_linear" x1="43.2412" y1="11.7474" x2="73.264" y2="37.4045" gradientUnits="userSpaceOnUse">
<stop stop-color="#DEDDDD"/>
<stop offset="0.3253" stop-color="#D9D8D8"/>
<stop offset="0.72" stop-color="#CBCAC9"/>
<stop offset="1" stop-color="#BDBBBA"/>
</linearGradient>
<linearGradient id="paint65_linear" x1="42.0703" y1="11.273" x2="72.0931" y2="36.9301" gradientUnits="userSpaceOnUse">
<stop stop-color="#DFDEDE"/>
<stop offset="0.3201" stop-color="#DAD9D9"/>
<stop offset="0.7067" stop-color="#CCCACA"/>
<stop offset="1" stop-color="#BCBABA"/>
</linearGradient>
<linearGradient id="paint66_linear" x1="40.8983" y1="10.8316" x2="70.9211" y2="36.4887" gradientUnits="userSpaceOnUse">
<stop stop-color="#E0DFDF"/>
<stop offset="0.3103" stop-color="#DBDADA"/>
<stop offset="0.6834" stop-color="#CDCCCB"/>
<stop offset="1" stop-color="#BCBAB9"/>
</linearGradient>
<linearGradient id="paint67_linear" x1="39.7261" y1="10.4233" x2="69.7489" y2="36.0804" gradientUnits="userSpaceOnUse">
<stop stop-color="#E1E0E0"/>
<stop offset="0.3013" stop-color="#DCDBDB"/>
<stop offset="0.662" stop-color="#CECDCC"/>
<stop offset="1" stop-color="#BBB9B8"/>
</linearGradient>
<linearGradient id="paint68_linear" x1="38.5545" y1="10.0482" x2="68.5773" y2="35.7052" gradientUnits="userSpaceOnUse">
<stop stop-color="#E2E1E1"/>
<stop offset="0.2972" stop-color="#DDDCDC"/>
<stop offset="0.6514" stop-color="#CFCDCD"/>
<stop offset="1" stop-color="#BBB8B8"/>
</linearGradient>
<linearGradient id="paint69_linear" x1="37.3844" y1="9.70604" x2="67.4072" y2="35.3631" gradientUnits="userSpaceOnUse">
<stop stop-color="#E3E2E2"/>
<stop offset="0.2894" stop-color="#DEDDDD"/>
<stop offset="0.6333" stop-color="#D0CFCF"/>
<stop offset="1" stop-color="#BAB8B7"/>
</linearGradient>
<linearGradient id="paint70_linear" x1="36.2165" y1="9.39738" x2="66.2393" y2="35.0544" gradientUnits="userSpaceOnUse">
<stop stop-color="#E4E2E2"/>
<stop offset="0.2858" stop-color="#DFDDDD"/>
<stop offset="0.624" stop-color="#D1CFCF"/>
<stop offset="0.9876" stop-color="#BAB8B7"/>
<stop offset="1" stop-color="#B9B7B6"/>
</linearGradient>
<linearGradient id="paint71_linear" x1="35.0518" y1="9.12206" x2="65.0746" y2="34.7791" gradientUnits="userSpaceOnUse">
<stop stop-color="#E5E3E3"/>
<stop offset="0.2824" stop-color="#E0DEDE"/>
<stop offset="0.6152" stop-color="#D2D0D0"/>
<stop offset="0.9721" stop-color="#BBB8B8"/>
<stop offset="1" stop-color="#B9B6B6"/>
</linearGradient>
<linearGradient id="paint72_linear" x1="33.8909" y1="8.8803" x2="63.9137" y2="34.5374" gradientUnits="userSpaceOnUse">
<stop stop-color="#E5E4E4"/>
<stop offset="0.2758" stop-color="#E0DFDF"/>
<stop offset="0.5992" stop-color="#D3D1D1"/>
<stop offset="0.9454" stop-color="#BCBAB9"/>
<stop offset="1" stop-color="#B8B6B5"/>
</linearGradient>
<linearGradient id="paint73_linear" x1="32.7349" y1="8.67171" x2="62.7577" y2="34.3288" gradientUnits="userSpaceOnUse">
<stop stop-color="#E6E5E5"/>
<stop offset="0.2697" stop-color="#E1E0E0"/>
<stop offset="0.5844" stop-color="#D4D2D2"/>
<stop offset="0.9207" stop-color="#BDBCBB"/>
<stop offset="1" stop-color="#B7B5B4"/>
</linearGradient>
<linearGradient id="paint74_linear" x1="31.5846" y1="8.49692" x2="61.6074" y2="34.154" gradientUnits="userSpaceOnUse">
<stop stop-color="#E7E6E6"/>
<stop offset="0.2669" stop-color="#E2E1E1"/>
<stop offset="0.5772" stop-color="#D5D3D3"/>
<stop offset="0.9078" stop-color="#BFBCBC"/>
<stop offset="1" stop-color="#B7B4B4"/>
</linearGradient>
<linearGradient id="paint75_linear" x1="30.4408" y1="8.3557" x2="60.4636" y2="34.0128" gradientUnits="userSpaceOnUse">
<stop stop-color="#E8E7E7"/>
<stop offset="0.2615" stop-color="#E3E2E2"/>
<stop offset="0.5639" stop-color="#D6D5D4"/>
<stop offset="0.8856" stop-color="#C0BEBD"/>
<stop offset="1" stop-color="#B6B4B3"/>
</linearGradient>
<linearGradient id="paint76_linear" x1="29.3042" y1="8.24836" x2="59.327" y2="33.9054" gradientUnits="userSpaceOnUse">
<stop stop-color="#E9E8E8"/>
<stop offset="0.2563" stop-color="#E4E3E3"/>
<stop offset="0.5516" stop-color="#D7D6D5"/>
<stop offset="0.8649" stop-color="#C2BFBE"/>
<stop offset="1" stop-color="#B6B3B2"/>
</linearGradient>
<linearGradient id="paint77_linear" x1="28.176" y1="8.17481" x2="58.1988" y2="33.8319" gradientUnits="userSpaceOnUse">
<stop stop-color="#EAE9E9"/>
<stop offset="0.2541" stop-color="#E5E4E4"/>
<stop offset="0.5455" stop-color="#D8D6D6"/>
<stop offset="0.854" stop-color="#C2C0C0"/>
<stop offset="1" stop-color="#B5B2B2"/>
</linearGradient>
<linearGradient id="paint78_linear" x1="27.0567" y1="8.13506" x2="57.0794" y2="33.7921" gradientUnits="userSpaceOnUse">
<stop stop-color="#EBEAEA"/>
<stop offset="0.2495" stop-color="#E6E5E5"/>
<stop offset="0.5342" stop-color="#D9D8D8"/>
<stop offset="0.8352" stop-color="#C3C1C1"/>
<stop offset="1" stop-color="#B4B1B1"/>
</linearGradient>
<linearGradient id="paint79_linear" x1="25.9473" y1="8.1291" x2="55.9701" y2="33.7862" gradientUnits="userSpaceOnUse">
<stop stop-color="#ECEBEB"/>
<stop offset="0.2452" stop-color="#E8E6E6"/>
<stop offset="0.5238" stop-color="#DBD9D9"/>
<stop offset="0.8175" stop-color="#C5C3C2"/>
<stop offset="1" stop-color="#B4B1B0"/>
</linearGradient>
<linearGradient id="paint80_linear" x1="24.8485" y1="8.15731" x2="54.8713" y2="33.8144" gradientUnits="userSpaceOnUse">
<stop stop-color="#ECECEC"/>
<stop offset="0.2434" stop-color="#E8E7E7"/>
<stop offset="0.5186" stop-color="#DBDADA"/>
<stop offset="0.8082" stop-color="#C5C3C3"/>
<stop offset="1" stop-color="#B3B0B0"/>
</linearGradient>
<linearGradient id="paint81_linear" x1="23.7615" y1="8.21959" x2="53.7842" y2="33.8767" gradientUnits="userSpaceOnUse">
<stop stop-color="#EDEDED"/>
<stop offset="0.2395" stop-color="#E9E8E8"/>
<stop offset="0.5091" stop-color="#DCDBDB"/>
<stop offset="0.7922" stop-color="#C6C4C4"/>
<stop offset="1" stop-color="#B2AFAF"/>
</linearGradient>
<linearGradient id="paint82_linear" x1="22.6867" y1="8.31597" x2="52.7095" y2="33.973" gradientUnits="userSpaceOnUse">
<stop stop-color="#EEEEEE"/>
<stop offset="0.2358" stop-color="#EAE9E9"/>
<stop offset="0.5001" stop-color="#DDDCDC"/>
<stop offset="0.777" stop-color="#C8C6C6"/>
<stop offset="1" stop-color="#B2AFAE"/>
</linearGradient>
<linearGradient id="paint83_linear" x1="21.6252" y1="8.44669" x2="51.648" y2="34.1038" gradientUnits="userSpaceOnUse">
<stop stop-color="#EFEEEE"/>
<stop offset="0.2363" stop-color="#EBE9E9"/>
<stop offset="0.4999" stop-color="#DEDCDC"/>
<stop offset="0.7756" stop-color="#C8C6C6"/>
<stop offset="1" stop-color="#B1AEAE"/>
</linearGradient>
<linearGradient id="paint84_linear" x1="20.5778" y1="8.61178" x2="50.6006" y2="34.2688" gradientUnits="userSpaceOnUse">
<stop stop-color="#F0EFEF"/>
<stop offset="0.2329" stop-color="#ECEAEA"/>
<stop offset="0.4915" stop-color="#DFDDDD"/>
<stop offset="0.7613" stop-color="#CAC7C7"/>
<stop offset="1" stop-color="#B1ADAD"/>
</linearGradient>
<linearGradient id="paint85_linear" x1="19.5454" y1="8.81118" x2="49.5682" y2="34.4682" gradientUnits="userSpaceOnUse">
<stop stop-color="#F1F0F0"/>
<stop offset="0.2297" stop-color="#EDECEB"/>
<stop offset="0.4835" stop-color="#E0DEDE"/>
<stop offset="0.7478" stop-color="#CBC9C8"/>
<stop offset="1" stop-color="#B0ADAC"/>
</linearGradient>
<linearGradient id="paint86_linear" x1="18.5286" y1="9.04497" x2="48.5514" y2="34.702" gradientUnits="userSpaceOnUse">
<stop stop-color="#F2F1F1"/>
<stop offset="0.2284" stop-color="#EEEDED"/>
<stop offset="0.4797" stop-color="#E1DFDF"/>
<stop offset="0.7407" stop-color="#CCC9C9"/>
<stop offset="1" stop-color="#AFACAC"/>
</linearGradient>
<linearGradient id="paint87_linear" x1="17.5286" y1="9.31325" x2="47.5514" y2="34.9703" gradientUnits="userSpaceOnUse">
<stop stop-color="#F3F2F2"/>
<stop offset="0.2254" stop-color="#EFEEEE"/>
<stop offset="0.4722" stop-color="#E2E0E0"/>
<stop offset="0.7293" stop-color="#CDCACA"/>
<stop offset="0.9918" stop-color="#B0ACAC"/>
<stop offset="1" stop-color="#AFABAB"/>
</linearGradient>
<linearGradient id="paint88_linear" x1="16.546" y1="9.61623" x2="46.5688" y2="35.2733" gradientUnits="userSpaceOnUse">
<stop stop-color="#F4F3F3"/>
<stop offset="0.2226" stop-color="#F0EFEF"/>
<stop offset="0.4653" stop-color="#E3E2E1"/>
<stop offset="0.7175" stop-color="#CECCCC"/>
<stop offset="0.9747" stop-color="#B1AEAD"/>
<stop offset="1" stop-color="#AEABAA"/>
</linearGradient>
<linearGradient id="paint89_linear" x1="15.5817" y1="9.95392" x2="45.6045" y2="35.611" gradientUnits="userSpaceOnUse">
<stop stop-color="#F4F4F4"/>
<stop offset="0.2216" stop-color="#F0F0F0"/>
<stop offset="0.462" stop-color="#E3E3E3"/>
<stop offset="0.7112" stop-color="#CECDCD"/>
<stop offset="0.9651" stop-color="#B2AFAF"/>
<stop offset="1" stop-color="#ADAAAA"/>
</linearGradient>
<linearGradient id="paint90_linear" x1="14.6365" y1="10.3265" x2="44.6593" y2="35.9836" gradientUnits="userSpaceOnUse">
<stop stop-color="#F5F5F5"/>
<stop offset="0.219" stop-color="#F1F1F1"/>
<stop offset="0.4556" stop-color="#E5E4E4"/>
<stop offset="0.7003" stop-color="#D0CECE"/>
<stop offset="0.9492" stop-color="#B4B0B0"/>
<stop offset="1" stop-color="#ADA9A9"/>
</linearGradient>
<linearGradient id="paint91_linear" x1="13.7114" y1="10.7337" x2="43.7341" y2="36.3907" gradientUnits="userSpaceOnUse">
<stop stop-color="#F6F6F6"/>
<stop offset="0.2181" stop-color="#F2F2F2"/>
<stop offset="0.4525" stop-color="#E5E5E5"/>
<stop offset="0.6947" stop-color="#D1CFCF"/>
<stop offset="0.9405" stop-color="#B4B1B1"/>
<stop offset="1" stop-color="#ACA9A9"/>
</linearGradient>
<linearGradient id="paint92_linear" x1="12.8071" y1="11.1759" x2="42.8299" y2="36.833" gradientUnits="userSpaceOnUse">
<stop stop-color="#F7F7F7"/>
<stop offset="0.2158" stop-color="#F3F3F3"/>
<stop offset="0.4466" stop-color="#E7E6E6"/>
<stop offset="0.6845" stop-color="#D2D0D0"/>
<stop offset="0.9258" stop-color="#B6B3B3"/>
<stop offset="1" stop-color="#ACA8A8"/>
</linearGradient>
<linearGradient id="paint93_linear" x1="11.9245" y1="11.6529" x2="41.9473" y2="37.31" gradientUnits="userSpaceOnUse">
<stop stop-color="#F8F8F8"/>
<stop offset="0.2135" stop-color="#F4F4F4"/>
<stop offset="0.4409" stop-color="#E8E7E7"/>
<stop offset="0.6748" stop-color="#D4D2D2"/>
<stop offset="0.9117" stop-color="#B7B4B4"/>
<stop offset="1" stop-color="#ABA7A7"/>
</linearGradient>
<linearGradient id="paint94_linear" x1="11.0643" y1="12.1652" x2="41.0871" y2="37.8223" gradientUnits="userSpaceOnUse">
<stop stop-color="#F9F9F9"/>
<stop offset="0.2128" stop-color="#F5F5F5"/>
<stop offset="0.4383" stop-color="#E9E8E8"/>
<stop offset="0.6698" stop-color="#D4D3D3"/>
<stop offset="0.9039" stop-color="#B8B5B5"/>
<stop offset="1" stop-color="#AAA7A7"/>
</linearGradient>
<linearGradient id="paint95_linear" x1="10.2276" y1="12.7125" x2="40.2504" y2="38.3696" gradientUnits="userSpaceOnUse">
<stop stop-color="#FAF9F9"/>
<stop offset="0.2121" stop-color="#F6F5F5"/>
<stop offset="0.4359" stop-color="#EAE8E8"/>
<stop offset="0.665" stop-color="#D5D3D3"/>
<stop offset="0.8964" stop-color="#B9B6B6"/>
<stop offset="1" stop-color="#AAA6A6"/>
</linearGradient>
<linearGradient id="paint96_linear" x1="9.41507" y1="13.2949" x2="39.4379" y2="38.952" gradientUnits="userSpaceOnUse">
<stop stop-color="#FBFAFA"/>
<stop offset="0.2101" stop-color="#F7F6F6"/>
<stop offset="0.4308" stop-color="#EBE9E9"/>
<stop offset="0.6563" stop-color="#D7D4D4"/>
<stop offset="0.8837" stop-color="#BAB7B7"/>
<stop offset="1" stop-color="#A9A5A5"/>
</linearGradient>
<linearGradient id="paint97_linear" x1="8.62766" y1="13.9128" x2="38.6504" y2="39.5699" gradientUnits="userSpaceOnUse">
<stop stop-color="#FBFBFB"/>
<stop offset="0.2095" stop-color="#F7F7F7"/>
<stop offset="0.4284" stop-color="#EBEAEA"/>
<stop offset="0.6517" stop-color="#D7D5D5"/>
<stop offset="0.8766" stop-color="#BBB8B8"/>
<stop offset="1" stop-color="#A8A5A5"/>
</linearGradient>
<linearGradient id="paint98_linear" x1="7.86609" y1="14.5659" x2="37.8889" y2="40.2229" gradientUnits="userSpaceOnUse">
<stop stop-color="#FCFCFC"/>
<stop offset="0.2076" stop-color="#F8F8F8"/>
<stop offset="0.4237" stop-color="#ECEBEB"/>
<stop offset="0.6436" stop-color="#D8D7D7"/>
<stop offset="0.8647" stop-color="#BDBABA"/>
<stop offset="1" stop-color="#A8A4A4"/>
</linearGradient>
<linearGradient id="paint99_linear" x1="7.13133" y1="15.2545" x2="37.1541" y2="40.9116" gradientUnits="userSpaceOnUse">
<stop stop-color="#FDFDFD"/>
<stop offset="0.2059" stop-color="#F9F9F9"/>
<stop offset="0.4192" stop-color="#EDECEC"/>
<stop offset="0.6357" stop-color="#D9D8D8"/>
<stop offset="0.8533" stop-color="#BEBBBB"/>
<stop offset="1" stop-color="#A7A3A3"/>
</linearGradient>
<linearGradient id="paint100_linear" x1="6.42405" y1="15.9786" x2="36.4468" y2="41.6357" gradientUnits="userSpaceOnUse">
<stop stop-color="#FEFEFE"/>
<stop offset="0.2054" stop-color="#FAFAFA"/>
<stop offset="0.4171" stop-color="#EEEDED"/>
<stop offset="0.6318" stop-color="#DBD9D9"/>
<stop offset="0.847" stop-color="#BFBCBC"/>
<stop offset="1" stop-color="#A7A3A3"/>
</linearGradient>
<linearGradient id="paint101_linear" x1="5.74524" y1="16.7381" x2="35.768" y2="42.3951" gradientUnits="userSpaceOnUse">
<stop stop-color="white"/>
<stop offset="0.2038" stop-color="#FBFBFB"/>
<stop offset="0.4129" stop-color="#EFEFEF"/>
<stop offset="0.6244" stop-color="#DCDADA"/>
<stop offset="0.8362" stop-color="#C0BDBD"/>
<stop offset="1" stop-color="#A6A2A2"/>
</linearGradient>
<clipPath id="clip0">
<rect width="110" height="105.63" fill="white" transform="translate(0 1.92358) rotate(-0.954527)"/>
</clipPath>
</defs>
</svg>
