<?xml version="1.0" encoding="utf-8"?>
<!-- Generator: Adobe Illustrator 24.3.0, SVG Export Plug-In . SVG Version: 6.00 Build 0)  -->
<svg version="1.1" id="Layer_1" xmlns="http://www.w3.org/2000/svg" xmlns:xlink="http://www.w3.org/1999/xlink" x="0px" y="0px"
	 viewBox="0 0 599.1 51.2" style="enable-background:new 0 0 599.1 51.2;" xml:space="preserve">
<style type="text/css">
	.st0{clip-path:url(#SVGID_2_);}
	.st1{fill:#E41C29;}
	.st2{fill:#110F0D;}
</style>
<g id="g16865">
	<g>
		<defs>
			<path id="SVGID_1_" d="M25.8,50.4c14.2,0,25.7-11.6,25.7-25.8S39.9-1.1,25.7-1.1C11.5-1.1,0,10.5,0,24.7
				C0,38.9,11.5,50.4,25.8,50.4C25.8,50.4,25.8,50.4,25.8,50.4"/>
		</defs>
		<clipPath id="SVGID_2_">
			<use xlink:href="#SVGID_1_"  style="overflow:visible;"/>
		</clipPath>
		<g class="st0">
			<g id="g16867">
				<path id="path16869" class="st1" d="M26.5,27.1l0.4,0.1l-0.1,0.4l0,0l0.6-0.7v0L26.5,27.1L26.5,27.1z M26.6,26.1L26.6,26.1
					l0.5-0.5v0l-0.7,0.1v0.1l0.3,0.1L26.6,26.1L26.6,26.1z M25,30.2h-0.6v0.1l0.2,0.1l-0.1,0.2h0.1L25,30.2L25,30.2L25,30.2z
					 M26.2,29.2h-0.7v0l0.3,0.1l-0.1,0.3l0,0L26.2,29.2L26.2,29.2L26.2,29.2z M26.8,28.6l0.4,0L27.1,29l0,0l0.6-0.7v0L26.8,28.6
					L26.8,28.6L26.8,28.6z M24.9,31.5L24.9,31.5l0.2,0.2L25,31.9l0,0l0.5-0.4l0,0L24.9,31.5z M28.5,31.5l0.4-0.4v0l-0.6,0.1v0.1
					l0.2,0.1L28.5,31.5L28.5,31.5L28.5,31.5z M28.8,27.8l0.7-0.9l0,0l-1.1,0.3v0.1l0.5,0.1L28.8,27.8L28.8,27.8L28.8,27.8z
					 M26.7,30.4H26v0.1l0.3,0.1l-0.1,0.3l0,0L26.7,30.4L26.7,30.4L26.7,30.4z M28,25.4l0.5,0.1L28.3,26h0.1l0.8-0.8v0L28,25.4
					L28,25.4z M27.7,30.4l0.6-0.7v0l-0.9,0.2v0.1l0.4,0.1L27.7,30.4L27.7,30.4L27.7,30.4z M29.5,23.4L29.5,23.4l0.5-0.4v0h-0.6v0
					l0.2,0.1L29.5,23.4L29.5,23.4z M27.9,24.4L27.9,24.4l0.7-0.6v0h-0.9v0l0.4,0.2L27.9,24.4L27.9,24.4z M30.9,28.9L30.9,28.9
					l0.3,0.1l-0.1,0.3l0,0l0.5-0.5v0L30.9,28.9L30.9,28.9z M33,23.9L33,23.9l0.5-0.4v-0.1h-0.6v0.1l0.2,0.1L33,23.9z M27.2,31.6
					h-0.6l0,0l0.2,0.1l-0.1,0.2l0,0L27.2,31.6L27.2,31.6z M31.4,23.6L31.4,23.6l0.6-0.4v0h-0.7v0l0.3,0.1L31.4,23.6L31.4,23.6z
					 M30.3,27.5l0.4,0.1l-0.1,0.4l0,0l0.6-0.7v0L30.3,27.5L30.3,27.5L30.3,27.5z M30.8,22.3h2.9c0,0,0.9,0.4,2.1,0.8
					c0.5,0.2,0.9,0.7,0.8,1.3c0,0,0.5,0.5,0.8,0.8c0.3,0.3,0.3,0.8,0.1,1.2c-0.2,0.2-0.5,0.4-0.8,0.4v0c0.2-0.2,0.1-0.6-0.1-0.8
					c-0.2-0.2-0.3-0.3-0.5-0.2L36.1,26l0.5,0.7v0c-0.4,0.1-0.8,0-1.1-0.3h-2.3v0.1l1.3,0.2v0.1L30.1,32l0,0l1.5-1.3v1.2l-0.1,0.3
					l0.1,0.8v0.3l1.4,1.2l0,0h0.1H33l0.1,0c0,0,0,0,0.1,0l0.1,0.1l0.1,0.1l0.1,0.1c0,0,0,0.1,0,0.1V35c0,0,0,0,0,0.1s0,0,0,0.1
					s0,0,0,0c0,0,0,0,0,0.1h0.1l0,0c0,0,0,0,0-0.1c0,0,0-0.1,0-0.1l0,0c0,0,0,0,0,0c0,0,0-0.1,0-0.1c0,0,0-0.1-0.1-0.1
					c0,0-0.1-0.1-0.1-0.1l-0.1-0.1l-0.1-0.1H33l0,0l0.5-0.1l0,0l0,0h0.1l0.1,0h0.1l0.1,0.1l0.1,0.1l0.1,0.1c0,0,0,0.1,0.1,0.1
					c0,0,0,0.1,0,0.1v0.1c0,0,0,0,0,0.1l0,0c0,0,0,0,0,0.1H34v0c0,0,0,0,0-0.1c0,0,0,0,0-0.1l0,0c0,0,0,0,0,0c0,0,0-0.1,0-0.1
					c0,0,0-0.1,0-0.1c0,0,0-0.1-0.1-0.1l-0.1-0.1l-0.1-0.1h-0.1c2.4-0.5,4.2-0.9,4.2-0.9c2.4,1.4,2.2,1.3,2.8,1.6
					c0.9,0.5,0.9,2-0.9,2c-1.7,0-3.5,0.2-5.2,0.5l1.3-1.2l0,0C35,36.9,34,37.5,33.1,38l0,0c-0.8,0.3-2.1,0.9-3.4,1.4l1.9-1.8l0,0
					c-1.3,1.1-2.7,2-4.1,2.9L25,41.6c-0.6,0.3-1.3,0.4-2,0.1c-1.2-0.4-1.7-0.6-2.8-1c-0.4-0.1-0.5-0.5-0.4-0.9
					c0.1-0.2,0.2-0.4,0.4-0.4l1.5-0.5l0.7,0.3l1,0.5l0.5,0.2l0.1,0h0.1l0,0l0.2,0.1c0.1,0.1,0.2,0.2,0.2,0.3c0,0.1,0,0.2,0,0.3
					c0,0.1,0,0.1,0,0.2v0.1h0.1v-0.1l0.1-0.2c0-0.1,0-0.2,0-0.3c0-0.1-0.1-0.3-0.2-0.4c-0.1-0.1-0.1-0.1-0.2-0.2h-0.1l0,0L24,39.7
					l-0.4-0.3l-1-0.5l-2-1.1l0,0c0,0,2.6-0.8,5.8-1.7l0.5,0.2l0,0l0,0l-0.3-0.2l-0.8-0.7l-0.4-0.1l-0.3-0.7l-0.4-0.2l-0.4-1.6h-0.1
					l0.1,1.8l-1,0.6v-2.4h-0.1l-0.3,2.5l-1.4,0.3l0.5-2.7h-0.1l-0.8,2.8L20,35.6l1-2.9H21l-1.4,2.9l0,0l-1.3,0.1l1.5-3h-0.1
					l-2.1,3.1l-1.4,0.2l2.3-3.4h-0.1l-3.9,4.5L14.4,37l3.4-5.4l5.3-2l0.6-0.2l0.3-0.1l0.2-0.1l0.2-0.1c0.1-0.1,0.2-0.1,0.3-0.2
					l0.1-0.1c0,0,0,0,0.1-0.1l0.1-0.1l0.1-0.1c0,0,0.1-0.1,0.1-0.1c0,0,0.1-0.1,0.1-0.1l0.1-0.1c0-0.1,0.1-0.2,0.1-0.2s0-0.1,0-0.2
					c0,0,0-0.1,0-0.1c0,0,0,0,0,0h-0.1l0,0c0,0,0,0.1,0,0.1c0,0,0,0.1-0.1,0.2c0,0.1-0.1,0.1-0.1,0.2L24.9,28c0,0-0.1,0.1-0.1,0.1
					l-0.1,0.1c0,0-0.1,0.1-0.1,0.1l-0.1,0.1h-0.1l-0.1,0.1c-0.1,0.1-0.2,0.1-0.3,0.2L24,28.9L23.9,29l-0.3,0.1L23,29.3l-0.4,0.1
					l-0.3-0.7l0.7-0.6v0l-1.8,1.1l-0.4-0.9l2.5-1.8v0l-3.8,2.2L19,27.8l3.6-2.4l0,0L18,27.9l-0.2-0.9l3.9-2.5v0l-4.5,2.3l-0.1-1l0,0
					l3.9-2.1v0l-4.8,2v-1l3.9-1.5v-0.1l-4.8,1.3l0.1-1.1l3.6-0.8v-0.1l-4.7,0.6l0.1-0.9l3.4-0.4v-0.1l-4.8,0.1l0.1-0.8H17V21
					l-6.9-0.5v-0.1l1.1-0.4v0l-3-1.1v-0.1l1.1-0.1v-0.1l-2.4-1.5v-0.1l1.7,0.1v0l-2-1.9v-0.1l0.9,0.2l0,0l-0.9-1.2l-0.6-1.7l0,0
					l0.9,1.1l2,1.2H9L7.7,13l-0.5-2.1h0.1l1.1,1.6l2,1.6l0,0l-1.2-2.2L8.9,8.9H9l1.2,2.4l2.6,2.1l0,0L11,10.5l-0.4-3.4h0.1l1.1,3
					l3.6,3.2l4.6,2.3l5,6.9l1.9,1.6l0,0L26,23.1l0,0l2-0.5v-0.1l-1.7-0.1v-0.1l2.6-0.5v-0.1l-3.2-0.2v-0.1l4.1-0.7l1.6,0.4v-0.1
					l-1.5-0.7l-2.5,0.1v-0.1l2.7-0.5l1.7,0.6l0,0l-1.5-1l-1.8-0.1v-0.1l2-0.3l1.8,0.8v0l-1.4-1.4h-1.6v-0.1L31,18l1.7,1.4l0,0
					l-1.3-1.9L30,17.2v-0.1l1.8-0.1l1.6,2l0,0l-1.2-2.5l-1.4-0.6l0,0l2,0.2l1.5,2.6h0.1l-1-3l-2-0.7v-0.1l2.4,0.4l1.3,3.1l0,0
					l-0.8-3.4l-2.1-1.2v-0.1l2.5,1l1.2,3.5h0.1l-0.7-3.8L33,12.6v-0.1l2.6,1.4l1,3.7h0.1l-0.6-3.9l-2.4-2.1v-0.1l2.8,1.9l0.8,3.7
					h0.1l-0.4-4l-2.4-2.6v-0.1l2.9,2.3l0.6,3.6h0.1l-0.3-3.8l-2.2-2.9l0,0l2.6,2.8l0.4,3.1h0.1l-0.1-3.3l-2.1-3.1l0,0l2.4,3l0.3,2.2
					h0.1l-0.1-2.4l-1.5-3.3h0.1l1.8,3.1l0.2,1.3h0.1l0.1-1.4l-0.8-3.1h0.1l1,2.6h0.1L41,8.5l0,0l-0.2,2.5h0.1l1.8-2.5l0,0l-1,2.4
					l0,0L44.2,9v0.1l-4.1,5.5c0,0-1.3,3.6-1.8,4.7c-0.1,0.2-0.2,0.4-0.5,0.5l-3.3,1.3l-0.9,0.8L30.8,22.3L30.8,22.3L30.8,22.3z
					 M26.4,0C12.4,0,1.1,11.3,1.1,25.2c0,13.9,11.3,25.2,25.2,25.2s25.2-11.3,25.2-25.2c0,0,0,0,0,0C51.6,11.3,40.3,0,26.4,0
					C26.4,0,26.4,0,26.4,0 M30.1,25.8l0.5,0.1l-0.1,0.5l0,0l0.7-0.8v0L30.1,25.8L30.1,25.8L30.1,25.8z M32.1,27.9l0.2,0.1l-0.1,0.2
					l0,0l0.4-0.4v0L32.1,27.9L32.1,27.9L32.1,27.9z M28.2,35.9L28.2,35.9l0.1,0l0.1,0.1l0,0l0.1,0.1l0.1,0.1l0.1,0.1v0.1v0.1
					c0,0,0,0,0,0.1c0,0,0,0,0,0.1l0,0h0.1l0,0c0,0,0,0,0-0.1s0-0.1,0-0.1l0,0l0,0v-0.1l-0.1-0.1c0,0,0,0,0-0.1l0,0L28.5,36l-0.1-0.1
					L28.2,35.9l-0.3,0l0,0l0,0l0,0H28h0.1 M30.4,36.8l-0.2,0.1L29.7,37l-0.4,0.1L29,37.2l-0.2,0.1l-1.1,0.4L27,37.9L26.6,38
					l-0.3,0.1l-0.2,0.1l-0.3,0.1h-0.1l-0.5,0.2L25,38.7l-0.2,0.1l0,0v0.1l0,0l0.2-0.1l0.2-0.1l0.5-0.2h0.1l0.3-0.1l0.1-0.1l0.4-0.1
					l0.4-0.1l0.7-0.2l1.1-0.4l0.5-0.2l0.3-0.1h0.1l0.5-0.2l0.2-0.1l0.3-0.1v-0.1L30.4,36.8L30.4,36.8z M25.5,37.6l0.2-0.1l0.8-0.3
					l0.3-0.1h0.1l0.3-0.1l0.4-0.1h0.1l0.2-0.1l0,0v-0.1l0,0h-0.2h-0.1l-0.4,0.1L26.8,37L26.6,37h-0.1l-0.8,0.2L25,37.5l-0.1,0h-0.1
					l-0.6,0.2L24,37.9h-0.1L23.7,38L23.5,38l0,0v0.1l0.2-0.1h0.1H24l0.2-0.1l0.4-0.1c0.1,0,0.2,0,0.3-0.1L25.5,37.6 M29.6,30.3
					L29.6,30.3l0.3,0.1l-0.1,0.3l0,0l0.5-0.5v0L29.6,30.3L29.6,30.3z M29.1,29.6l0.6-0.9l0,0L28.7,29v0.1h0.5L29.1,29.6L29.1,29.6
					L29.1,29.6z M32.5,26.2l-0.7,0.1v0.1l0.3,0.1l-0.1,0.3H32L32.5,26.2L32.5,26.2L32.5,26.2z M29.1,34.2l-1.5-1.8h-0.1l0.4,2.2
					l0.8,0.9l0,0h0.1h0.1l0.1,0H29l0.1,0.1l0.1,0.1c0,0,0,0,0.1,0.1l0.1,0.1c0,0,0,0,0,0.1V36c0,0,0,0,0,0.1l0,0c0,0,0,0,0,0.1h0.1
					v0c0,0,0,0,0-0.1c0,0,0-0.1,0-0.1v0c0,0,0,0,0-0.1c0,0,0-0.1,0-0.1c0,0,0-0.1-0.1-0.1c0,0-0.1-0.1-0.1-0.1L29,35.4
					c0,0-0.1,0-0.1-0.1h-0.1l0,0h0.1l0.4-0.1l0,0h0.1h0.1h0.1l0.1,0.1l0.1,0.1l0.1,0.1l0.1,0.1l0.1,0.1c0,0-21671.1,10836,0.1,0.2
					v0.1c0,0,0,0,0,0.1c0,0,0,0,0,0H30v0c0,0,0,0,0-0.1c0,0,0-0.1,0-0.1v-0.1c0,0,0-0.1,0-0.1c0,0,0-0.1-0.1-0.1
					c0,0-0.1-0.1-0.1-0.1l-0.1-0.1l-0.1-0.1h-0.1l0,0l1.2-0.3L29.4,34L29.1,34.2z M31.6,24.6l0.4,0.2l-0.2,0.4l0,0l0.7-0.6v0
					L31.6,24.6L31.6,24.6L31.6,24.6z M18.5,16.3l-1.7,0.9l-0.1-0.5h-0.1v0.8h0.1L18.5,16.3L18.5,16.3L18.5,16.3z M20.1,18.4
					l-2.4,1.3l-0.1-0.5h-0.1V20h0.1L20.1,18.4L20.1,18.4L20.1,18.4z M19.3,17.3l-2.2,1.2L17,18h0v0.9h0.1l2.4-1.5L19.3,17.3z
					 M22.8,21.4l-1.7,0.9L21,21.8h0v0.8h0.1l1.9-1.2v-0.1L22.8,21.4z M21.9,20.4l-2,1.1L19.8,21h-0.1v0.8h0.1l2.2-1.3L21.9,20.4z
					 M21,19.4l-2.3,1.2l-0.1-0.5h-0.1V21h0.1L21,19.4L21,19.4L21,19.4z M15.5,18.1L15.5,18.1l-5.2-1.5l-2.4-1.9l-0.1,0.1L10,17
					L15.5,18.1z M15.6,17.1L15.6,17.1l-4.4-1.5L9,13.5L9,13.6l2.1,2.3L15.6,17.1L15.6,17.1z M29.7,24.2l0.4,0.2l-0.2,0.4l0,0
					l0.7-0.6v0L29.7,24.2L29.7,24.2L29.7,24.2z M10.3,19.2l1.9,0.6l3.8,0.4V20L10.3,19.2L10.3,19.2L10.3,19.2z M10.8,12.7L10.8,12.7
					l1.5,2.3l3.9,1.3v-0.1l-3.6-1.5L10.8,12.7L10.8,12.7z M23.6,22.5l-1.2,0.6l-0.1-0.5h-0.1v0.8h0.1L23.6,22.5L23.6,22.5L23.6,22.5
					z M15.6,19l-7.2-1.5v0.1l1.9,0.7l5.4,0.8L15.6,19L15.6,19z M17.7,15.7v-0.1L14.4,14l-2-2.7h-0.1l1.8,3L17.7,15.7L17.7,15.7z
					 M31.8,36.4H32h0.2l0.4-0.1l0.3-0.1H33l0.4-0.1l0.4-0.1h0.2H34h0.1l0,0V36h-0.2h-0.2l-0.4,0.1L33,36.1c-0.2,0.1-0.5,0.1-0.8,0.2
					L32,36.4l0,0h-0.1l0,0v0.1L31.8,36.4z M34.8,35.1h0.1H35h0.2l1-0.2h0.1l0.4-0.1l0.2,0h0.2l0.2,0h0.1h0.1l0,0v-0.1h-0.2h-0.2l0,0
					l-0.4,0.1l-0.5,0.1l0,0l-1,0.2L35,35.1h-0.1L34.8,35.1L34.8,35.1L34.8,35.1L34.8,35.1z M32.2,34.8L32.2,34.8h0.1l0.1,0.1l0,0
					l0,0l0.1,0.1l0.1,0.1l0.1,0.1v0.1c0,0,0,0,0,0.1c0,0,0,0,0,0.1c0,0,0,0,0,0.1l0,0h0.1c0,0,0,0,0-0.1c0,0,0,0,0-0.1
					c0,0,0-0.1,0-0.1v0.1c0,0,0,0,0-0.1c0,0,0-0.1,0-0.1c0,0,0-0.1-0.1-0.1l-0.1-0.1l0,0c0,0,0-0.1-0.1-0.1l-0.1-0.1L32.2,34.8
					L32.2,34.8l-0.3,0v0.1l0,0H32 M34.8,26.1C34.7,26.1,34.7,26.1,34.8,26.1L34.8,26.1L34.8,26.1L34.8,26.1L34.8,26.1L34.8,26.1
					L34.8,26.1C34.8,26.1,34.8,26.1,34.8,26.1L34.8,26.1c0-0.1,0-0.1,0-0.1c0,0,0,0,0-0.1l0,0l0,0c0,0,0,0,0-0.1l0,0l0,0l0,0h0.1
					h0.1l0,0l0,0h0.1l0,0l0,0l0,0c0,0,0,0,0,0l0,0l0,0l0,0l0,0c0,0,0,0-0.1,0h-0.1h-0.1c0,0-0.1,0-0.1,0l-0.1,0.1l0,0l0,0v0.1
					c0,0,0,0.1-0.1,0.1c0,0,0,0.1,0,0.1c0,0,0,0,0,0 M34.6,24.5L34.6,24.5L34.6,24.5C34.6,24.5,34.6,24.6,34.6,24.5L34.6,24.5
					L34.6,24.5L34.6,24.5L34.6,24.5c0.1,0.1,0.2,0.1,0.2,0.1H35c0,0,0.1-0.1,0.1-0.1c0,0,0.1-0.1,0.1-0.1l0,0v-0.1c0,0,0,0,0-0.1
					l0,0v-0.1l0,0h-0.1l0,0v0.1l0,0l0,0l0,0l0,0l0,0l0,0H35h-0.1l0,0l0,0l0,0l0,0l0,0l0,0l0,0l0,0l0,0l0,0l0,0v-0.1l0,0l0,0l0,0l0,0
					l0,0l0,0l0,0V24h-0.1h-0.1l0,0l0,0l0,0c0,0,0,0.1,0,0.1c0,0,0,0.1,0,0.1c0,0,0,0,0,0.1L34.6,24.5z M36.6,25.8L36.6,25.8
					L36.6,25.8C36.6,25.8,36.6,25.9,36.6,25.8l0.1,0.2c0,0,0,0.1,0,0.1c0,0,0,0.1,0,0.1c0,0,0,0.1,0,0.1l0,0v0l0,0l0,0v0v-0.1
					c0,0,0,0,0-0.1c0,0,0,0,0,0c0,0,0-0.1,0-0.1C36.7,25.9,36.7,25.9,36.6,25.8C36.7,25.8,36.7,25.8,36.6,25.8L36.6,25.8l0.1-0.1
					l-0.1-0.1l0,0l-0.7-0.7l-0.2,0.2l0.8,0.6L36.6,25.8 M24,25.8v-0.2h-0.1l-0.1,0.5h0.1l0.9-0.6v-0.1L24,25.8L24,25.8z M23.7,23.6
					L22.8,24l-0.1-0.4h-0.1v0.7h0.1L23.7,23.6L23.7,23.6L23.7,23.6z M24.2,26.8v-0.3h-0.1l-0.1,0.5h0.1l0.6-0.5v-0.1l-0.5,0.2
					L24.2,26.8z M24.6,24.4l-1,0.5v-0.3h-0.1l-0.1,0.6l0.1,0l1.2-0.7v-0.1L24.6,24.4z M36.4,35.4H36l-0.4,0.1h-0.2h-0.1h-0.1H35
					l-0.3,0.1h-0.1h-0.2v0.1h0.2h0.1H35h0.3h0.1h0.2c0.1,0,0.3,0,0.4-0.1l0.3,0h0.3h0.1h0.4l0.4-0.1h0.2l0.3,0h0.2h0.2v-0.1h-0.2
					h-0.4h-0.2h-0.4l-0.4,0L36.4,35.4 M20.9,31.3L20.9,31.3l0.2,0.1L21,31.6l0,0l0.5-0.3v0L20.9,31.3z M22,40.5l-0.8-0.4l0.8-0.4v0
					l-1.2,0.3c-0.1,0-0.1,0-0.1,0.1c0,0.1,0,0.2,0.1,0.2c0,0,0,0,0,0l0,0l1.2,0.4l0.6,0.2l0.6,0.2v0l-0.6-0.3L22,40.5 M22.5,31.3
					L22.5,31.3l0.2,0.1l-0.1,0.2l0,0l0.5-0.3v0L22.5,31.3z"/>
			</g>
		</g>
	</g>
</g>
<path id="path16873" class="st2" d="M70.6,42.4c0,3.2,1,6,5.9,7l1.8,0.4v0.4H54.6v-0.4l1.8-0.4c4.9-1,5.9-3.8,5.9-7V7.9
	c0-3.2-1-6.1-5.9-7.1l-1.8-0.4V0.1h23.7v0.4l-1.8,0.4c-4.9,1-5.9,3.9-5.9,7.1L70.6,42.4z M128.1,10.5v40.7h-0.5L91.2,8.3l0.2,26.4
	c0.1,12,3.9,13.6,8.2,14.7l1.1,0.3v0.4H81.4v-0.4l1.1-0.3c4.3-1.1,8.2-2.8,8.2-14.7V7.9L89.9,7c-3.8-4.2-6.2-5.9-10.1-6.6V0.1h17.4
	c1.8,3.2,4.4,6.4,10.1,13.1l20.4,24.1l-0.2-25.7c-0.1-8.6-3.2-10.4-7.6-11l-1.6-0.2V0.1h45c18.6,0,28.1,11.7,28.1,24.8
	s-9.5,25.2-28.1,25.2h-25v-0.4l1.7-0.3c5.1-0.9,6-3.8,6-7.1V10.5c0-7.7-3.9-10.1-8.9-10.1S128.1,2.9,128.1,10.5 M161.6,49.8
	c13.3,0,20.3-9.4,20.3-24.7S174.2,0.4,161,0.4h-6.9v41.9c0,4.1,0.9,7.4,5.9,7.4H161.6z M217.7,49.8c8,0,12.2-2.3,15.6-8.2l3.4-5.7
	h0.4v14.2h-44.2v-0.4l1.8-0.3c4.9-0.8,5.9-3.9,5.9-7.1V7.6c0-3.4-1-5.9-5.9-6.9l-1.8-0.4V0.1h42.2v14.2h-0.4l-3.4-6.1
	c-3.4-6.1-8-7.7-16.6-7.7h-5.9v23.7l3.6-0.1c7.6-0.1,10.2-0.5,12.6-8.2l0.8-2.5h0.4v21.9h-0.4l-0.8-2.4c-2.5-7.8-4.9-8.1-12.6-8.2
	l-3.6-0.1v18c0,4.3,1.6,7.2,6.6,7.2L217.7,49.8z M264.5,0.1c11.2,0,19.1,6.2,19.1,14.9s-7.9,15-19.1,15h-3.1v-0.4h0.1
	c8.1,0,12.9-5.6,12.9-14.6s-4.8-14.6-12.9-14.6H259v41.2c0,5.4,1.4,6.6,7.2,7.8l1.4,0.3v0.4h-24.6v-0.4l1.8-0.4c4.9-1,5.9-3.8,5.9-7
	V7.8c0-3.2-1-6-5.9-7l-1.8-0.4V0.1H264.5z M310.4,49.7c8,0,12.2-2.3,15.6-8.1l3.4-5.7h0.4v14.2h-44.2v-0.4l1.8-0.3
	c4.9-0.8,5.9-3.9,5.9-7.1V7.6c0-3.4-1-5.9-5.9-6.9l-1.8-0.4V0.1h42.2v14.2h-0.4l-3.4-6.1c-3.4-6.1-8-7.7-16.6-7.7h-5.9v23.7l3.6-0.1
	c7.6-0.1,10.2-0.5,12.6-8.2l0.8-2.5h0.4v21.9h-0.4l-0.8-2.4c-2.5-7.8-4.9-8.1-12.6-8.2l-3.6-0.1v18c0,4.3,1.6,7.2,6.6,7.2
	L310.4,49.7z M381.7,10.5v40.7h-0.5L344.9,8.3l0.2,26.4c0.1,12,3.9,13.6,8.2,14.7l1.1,0.3v0.4h-19.4v-0.4l1.1-0.3
	c4.3-1.1,8.2-2.8,8.2-14.7V7.9L343.6,7c-3.8-4.2-6.2-5.9-10.1-6.6V0.1h17.4c1.8,3.2,4.4,6.4,10.1,13.1l20.5,24.1l-0.2-25.7
	c-0.1-8.6-3.2-10.4-7.6-11l-1.6-0.2V0.1h45c18.6,0,28.1,11.7,28.1,24.8s-9.5,25.2-28.1,25.2h-25v-0.4l1.7-0.3c5.1-0.9,6-3.8,6-7.1
	V10.5c0-7.7-3.9-10.1-8.9-10.1S381.8,2.9,381.7,10.5 M415.3,49.8c13.3,0,20.3-9.4,20.3-24.7s-7.7-24.7-21-24.7h-6.9v41.9
	c0,4.1,0.9,7.4,5.9,7.4H415.3z M471.4,49.8c8,0,12.2-2.3,15.6-8.2l3.3-5.7h0.3v14.2h-44.2v-0.4l1.8-0.3c4.9-0.8,5.9-3.9,5.9-7.1V7.6
	c0-3.4-1-5.9-5.9-6.9l-1.8-0.4V0.1h42.2v14.2h-0.3l-3.4-6.1c-3.4-6.1-8-7.7-16.7-7.7h-5.9v23.7l3.6-0.1c7.7-0.1,10.2-0.5,12.6-8.2
	l0.8-2.5h0.3v21.9h-0.3l-0.8-2.4c-2.5-7.8-4.9-8.1-12.6-8.2l-3.6-0.1v18c0,4.3,1.6,7.2,6.6,7.2L471.4,49.8z M542.2,13.1
	c-0.1-9.2-3.2-11.8-7.7-12.4l-1.6-0.2V0.1h19.2v0.4l-1.6,0.2c-4.4,0.6-7.7,3.2-7.7,12.4v38.1h-0.5L505.9,8.3l0.2,26.4
	c0.1,12,3.9,13.6,8.2,14.7l1.1,0.3v0.4h-19.4v-0.4l1.2-0.3c4.3-1.1,8.2-2.8,8.2-14.7V7.9L504.6,7c-3.8-4.2-6.2-5.9-10.1-6.6V0.1
	h17.4c1.8,3.2,4.4,6.4,10.1,13.1l20.4,24.1L542.2,13.1L542.2,13.1z M572.8,0.4h-3.2c-6.7,0-9.5,3.4-12.1,9.9l-2.4,6.1h-0.4V0.1h44.3
	v16.3h-0.4l-2.4-6.1c-2.6-6.4-5.3-9.9-12.1-9.9h-3.2v42c0,3.2,1,6.3,5.9,7.1l1.8,0.3v0.4h-23.7v-0.4l1.8-0.3
	c4.9-0.8,5.9-3.9,5.9-7.1L572.8,0.4z"/>
</svg>
