<svg xmlns="http://www.w3.org/2000/svg" xmlns:xlink="http://www.w3.org/1999/xlink" viewBox="0 0 999 205.07"><defs><style>.cls-1{fill:#a42433;}.cls-2{fill:#e7e7e7;}.cls-3{fill:url(#linear-gradient);}.cls-4{fill:url(#linear-gradient-2);}.cls-5{fill:url(#linear-gradient-3);}.cls-6{fill:url(#linear-gradient-4);}.cls-7{fill:#1c1c1e;}.cls-8{fill:#fff;}</style><linearGradient id="linear-gradient" x1="535.68" y1="-152.83" x2="535.76" y2="-277.99" gradientTransform="matrix(1.42, 0, 0, -1.42, -121.36, -212.12)" gradientUnits="userSpaceOnUse"><stop offset="0" stop-color="#fa99a2"/><stop offset="0.1" stop-color="#e07b81"/><stop offset="0.2" stop-color="#ce6164"/><stop offset="0.3" stop-color="#c45050"/><stop offset="0.4" stop-color="#ba4241"/><stop offset="0.5" stop-color="#b83c3a"/><stop offset="0.6" stop-color="#b33833"/><stop offset="0.7" stop-color="#b23531"/><stop offset="0.8" stop-color="#b0332d"/><stop offset="0.9" stop-color="#b0332d"/><stop offset="1" stop-color="#b0332d"/></linearGradient><linearGradient id="linear-gradient-2" x1="211.72" y1="-152.82" x2="211.72" y2="-280.82" gradientTransform="matrix(1.42, 0, 0, -1.42, -121.36, -212.12)" gradientUnits="userSpaceOnUse"><stop offset="0" stop-color="#fefefe"/><stop offset="0.5" stop-color="#fcfcfc"/><stop offset="1" stop-color="#f2f2f2"/></linearGradient><linearGradient id="linear-gradient-3" x1="553.28" y1="-224.32" x2="548.92" y2="-296.63" gradientTransform="matrix(1.42, 0, 0, -1.42, -121.36, -212.12)" gradientUnits="userSpaceOnUse"><stop offset="0" stop-color="#961e28"/><stop offset="0.2" stop-color="#941c26"/><stop offset="0.4" stop-color="#961e27"/><stop offset="0.6" stop-color="#a5232d"/><stop offset="0.8" stop-color="#b1282f"/><stop offset="1" stop-color="#b52a31"/></linearGradient><linearGradient id="linear-gradient-4" x1="211.72" y1="-223.17" x2="211.72" y2="-292.95" gradientTransform="matrix(1.42, 0, 0, -1.42, -121.36, -212.12)" gradientUnits="userSpaceOnUse"><stop offset="0" stop-color="#dfeae6"/><stop offset="0.5" stop-color="#e6e7e9"/><stop offset="1" stop-color="#e6e7e9"/></linearGradient></defs><g id="Layer_2" data-name="Layer 2"><g id="svg2"><g id="layer1"><path id="path3010" class="cls-1" d="M999,19.94C999,9.23,991.63,0,977.64,0H360.3L298.35,35.35,483.48,48.42,999,24.21Z"/><path id="path3004" class="cls-2" d="M0,20.33C0,8.34,8.47,0,20,0H360.3V5.7L326.83,55.54H34.89Z"/><path id="path3008" class="cls-3" d="M346.77,29.91,360.3,5.7H980.49c8.64,0,18.51,7.58,18.51,18.51V187.27L803.9,176.59,284.11,148.11Z"/><path id="path3002" class="cls-4" d="M0,188V20.33C0,14,6.54,5.7,15.23,5.7H360.3V106.09l-69.07,56.26Z"/><path id="path3006" class="cls-5" d="M360.3,205.07l-33.47-57,33.47-42s103.15-5,180.49-5c31.59,0,91.88,3.81,91.88,3.81,214,4.75,366.33,51,366.33,82.37,0,9.06-9.25,17.8-19.94,17.8Z"/><path id="path3000" class="cls-6" d="M0,187.32c0-12.07,17.78-33.23,39.33-36.27l78.53-21.44c50.94-11.17,195.82-23.52,242.44-23.52v99H19.81C9.24,205.07,0,196.71,0,187.32Z"/><g id="layer1-7"><path id="path5944" class="cls-7" d="M159.78,144.39c0,9.55-3.74,15-22.28,15a47.94,47.94,0,0,1-6.67-.43V32.69c0-9.57,3.25-19.58,22-19.58a30.88,30.88,0,0,1,7,.73ZM121,125.28C121,143,109.42,156,86,158.54c-17.08,1.84-41.81-.31-53.52-1.64a27.17,27.17,0,0,1-.81-6.23c0-15.5,8.29-19.09,16.27-19.09,8.13,0,21,1.49,30.58,1.49,10.41,0,13.66-3.55,13.66-7,0-4.46-4.23-6.32-12.36-7.86l-22.45-4.31c-18.55-3.58-28.47-16.4-28.47-30,0-16.64,11.72-30.53,34.82-33.06,17.4-1.92,38.71.23,50.43,1.65a25,25,0,0,1,.64,5.93c0,15.53-8.13,18.88-16.1,18.88-5.85,0-15.29-1.12-26-1.12-10.91,0-15.47,3-15.47,6.66,0,3.87,4.4,5.42,11.07,6.67l21.48,3.94c21.8,4,31.23,16.48,31.23,31.84m114.24,68a33.26,33.26,0,0,0,13.67,2.91c10.73.21,16.59-3.86,21-13.58L327.78,53.5a31,31,0,0,0-12-2.73c-7.32-.17-17.41,1.31-23.75,16.52l-18.71,44.24L236.51,51.71A53,53,0,0,0,224.15,50c-13,0-20.33,4.74-27.82,12.9L160.71,102l28.63,45.18c5.37,8.26,12.36,12.47,23.59,12.47,7.48,0,13.66-1.71,16.59-3.12L195,104.4l24.4-26,40.18,63.16"/></g><path id="path3084" class="cls-8" d="M423.07,176.68c-8.67,0-13.52-1.49-13.52-1.49V30a47.8,47.8,0,0,1,15.66-2.86c14.85,0,18.41,6.28,24,14.84l56.39,88.63V38.89c0-6.09,3.29-11.81,14.14-11.81a42.93,42.93,0,0,1,12.76,1.55V174.09s-5,2.59-14.51,2.59c-13.66,0-16.69-5.81-22.91-15.33L437.9,70.22V164.7c0,5.89-3,12-14.83,12Z"/><path id="path3086" class="cls-8" d="M564.65,175.16c-9.7,0-12.81-6.53-12.81-13.28V41.3c0-8.35,4.78-14.24,14.24-14.24H643s1.48,3.77,1.48,12.76c0,10.08-4,14.33-10.93,14.33l-52.47,0V88.29h56.25s1.91,2.6,1.91,11.33c0,11.32-4.32,14.31-11.88,14.31H581v34.6h63.76a40.75,40.75,0,0,1,1.5,12.09c0,10.1-3.15,14.54-11.86,14.54Z"/><path id="path3092" class="cls-8" d="M657.79,31.43C657.5,31.27,665,27,673.4,27c9.5,0,13.75,3.28,15.75,14.2l17.31,97.46,24-101.29c1.75-5.79,8.64-10.22,20.1-10.22a43.41,43.41,0,0,1,14.61,2.64l25.4,109.31L808.2,38.68c1.4-7.1,5-11.64,15-11.64a34.18,34.18,0,0,1,14.61,3.19L811.5,159.32c-2.31,12.68-6,17.69-21.87,17.69a71.9,71.9,0,0,1-16.26-2L748.05,67.45l-22,92.24c-3.18,12.83-6,17.17-20.27,17.17a102,102,0,0,1-17.71-1.63Z"/><path id="path3094" class="cls-8" d="M901,25.89c-28.92,0-53.56,12.48-53.56,42.67,0,54.3,78.85,37.24,78.85,64.72,0,11.76-8.77,17.17-26.26,17.17-18.26,0-33.45-5.83-40.08-5.83-9.09,0-13.29,9.56-13.29,18a19.36,19.36,0,0,0,.59,5.52s25.18,9,52.63,9c31.4,0,56.32-13,56.32-45.21,0-54.12-80.48-38.61-80.48-64,0-11.31,10.86-15.22,24.63-15.22,12.6,0,27,4.89,36.12,4.89,8.13,0,12.58-7.46,12.58-16.86a23.75,23.75,0,0,0-.69-6.6S923.71,25.89,901,25.89Z"/></g></g></g></svg>