<svg xmlns="http://www.w3.org/2000/svg" viewBox="0 0 599.7 91.75"><defs><style>.cls-1{fill:#4e6176;}</style></defs><g id="Layer_2" data-name="Layer 2"><g id="layer"><path d="M76.4,39.15v-1.6l-.2-21.4s-.5-2,2.7-1l.1,24Zm1.5,33.6a1.12,1.12,0,0,1-1.4-.9V56.25h2.6v17.4ZM50.2,39.15l-9.4,14-.1-36.8,10.1,5.3s.9-.7,1.4,1.6v15.8h-2ZM36.9,75.45s-.7.7-.9-.5l.2-56.8s.2-1.9,3-2l.2,60.9Zm85,2.7a12.28,12.28,0,0,1-6.5-9.5v-55s.7-.3-.9-1.4L94.2.35s-.5-1.1-2.5.6L74.5,11.75,57.3,2.25a1.36,1.36,0,0,0-1.6-.2c-1.4.8-21.7,11.7-21.7,11.7L18.9,5s-.7-1.1-1.6-.4L.8,15.15s-2.3.9.9,2.7l.6.2,11.5,8.3v48.7l-5.9,3.4s-2,.9-.2,2.2l21,11,16-9a1.36,1.36,0,0,0,.2-2.2l-3.8-2.4L41,56.35H52.4v16.9l-5.2,3.2s-1.6.9.5,2.3l24.1,12.8L88,81.45s1.6-.2.5-1.4l-7.7-5.3V55.45l11.1-16.1H80.7l-.1-23.3L91,21.45s1.3-.4,1.6,2.1v52.7s1.3,11,14.7,15.5l15.6-11.1c-.1-.4.6-1.3-1-2.5"/><path d="M158.6,76.85s-9.1-4.6-13.9-12.8c-1.2-2.5-3.8-8.9-1.9-15.8,0,0,.4-7.7,9.3-11.7l12.2,8.2-.2,31.1c0,.1-1.6,2.8-5.5,1m41.5.9-9.9-6.7V44s-.2-1.3.7-1.4l3.8-3s.7-1.1-.6-2.5-24.4-12.9-24.4-12.9-.9-1.3-3,.2c0,0-25.3,10.3-35.4,23.4,0,0-7.8,5-6.5,24.9h0v.4c.4,2.4,3.5,16,22.4,18.5l13.9-11.1a1,1,0,0,1,1.8-.2l23.4,11.3,14.2-11.1a3.19,3.19,0,0,0-.4-2.7"/><path d="M212.8,26.75s-13.8,8.4-14.9,10.1-.2,2.3-.2,2.3,5.9,3.8,7.5,4.3,1.1,1.4,1.1,1.4l.4,27.7a10.85,10.85,0,0,1,0,2.6s-2.4,1.8-3.6,2.9a1.63,1.63,0,0,0-.3,2.5l21.4,10.8s14.5-10.4,15.7-11,0-1.6,0-1.6-6.2-3.6-7.3-4.1a1.28,1.28,0,0,1-.7-1.6s-.8-27.3-.2-29.7c.5-2.2,1.3-1.5,1.3-1.5a12.72,12.72,0,0,0,3.6-1.6c1.6-1.1.2-2,.2-2s-19.9-10.4-21.4-11.7a1.87,1.87,0,0,0-2.6.2"/><path d="M216.6,23.15a2.41,2.41,0,0,0,2.7,1.4c8.4-3.4,11.9-11.5,11.9-11.5,2.2-7.9-2.9-10-2.9-10-4.4-2.7-7.7-.5-7.7-.5a14.28,14.28,0,0,0-6.5,8.1,18.24,18.24,0,0,0,2.5,12.5"/><path d="M242.8,11.85s23.3-7.5,26.4-8.3,2.9.7,2.9.7-.7,66.5-.2,68.8,1.6,1.8,1.6,1.8,5.4,3.8,6.6,4.3a1.23,1.23,0,0,1,.6,1.8l-13.1,10.2s-21.5-9.5-23.2-10.6c-2.2-1.4-.7-2.3-.7-2.3l3.8-3.8s.7-54.4-.3-57.3-4.5-3.9-4.5-3.9c-.8-1.2.1-1.4.1-1.4"/><path class="cls-1" d="M355.8,49.15c0-24-7.8-35.6-24.8-35.6-16,0-24.8,10.7-24.8,35.6v2c0,24.4,8.9,35.1,24.8,35.1s24.8-9.2,24.8-34.9ZM331,91.65c-18.8,0-31.6-12.3-31.6-39v-4.6c0-25.8,11.7-39.8,31.6-39.8,21,0,31.6,14.1,31.6,39.8v4.4c.1,26.3-11.4,39.2-31.6,39.2"/><path class="cls-1" d="M417.1,90.25V44.05c0-6.7-5.3-11.4-14.1-11.4a22.31,22.31,0,0,0-20.6,13.2v44.5h-6.5v-61h6l.2,11.2c2.6-6.4,11-13.2,22.7-13.2,11.3,0,18.7,6.3,18.7,17.9v45Z"/><rect class="cls-1" x="439.5" y="9.35" width="6.4" height="80.9"/><path class="cls-1" d="M462.8,90.25h6.5V28.65h-6.5Zm-1-68.5H470v-9.3h-8.2Z"/><path class="cls-1" d="M527,90.25V44.05c0-6.7-5.3-11.4-14.1-11.4a22.31,22.31,0,0,0-20.6,13.2v44.5h-6.5v-61h6l.2,11.2c2.6-6.4,11-13.2,22.7-13.2,11.3,0,18.7,6.3,18.7,17.9v45Z"/><path class="cls-1" d="M573.8,32.85c-11.4,0-20.3,7.7-20.5,23.7h40c-.1-16-7.5-23.7-19.5-23.7m-20.6,28.8c0,17,9.2,24.5,22.2,24.5a42.57,42.57,0,0,0,20.1-4.7v5.4c-4.3,3.1-12.5,4.7-21.3,4.7-12.6,0-27.6-7.1-27.6-29.7v-4.4c0-19.1,11.4-30.2,26.9-30.2,16.5,0,26.2,11.4,26.2,30v4.4Z"/></g></g></svg>