<svg xmlns="http://www.w3.org/2000/svg" xmlns:xlink="http://www.w3.org/1999/xlink" viewBox="0 0 274.01 32.28"><defs><style>.cls-1{fill:none;}.cls-2{fill:#100f0d;}.cls-2,.cls-4{fill-rule:evenodd;}.cls-3{clip-path:url(#clip-path);}.cls-4{fill:#231f20;}.cls-5{clip-path:url(#clip-path-2);}</style><clipPath id="clip-path" transform="translate(0 -0.01)"><rect class="cls-1" x="77.56" width="90.3" height="32.32"/></clipPath><clipPath id="clip-path-2" transform="translate(0 -0.01)"><rect class="cls-1" x="257.56" y="4.77" width="16.47" height="25.66"/></clipPath></defs><g id="Layer_2" data-name="Layer 2"><g id="Layer_1-2" data-name="Layer 1"><path class="cls-2" d="M18,29.43H5.13v-.34l3.56-1.72V6.5a9,9,0,0,0-2,.26,4.17,4.17,0,0,0-1.75,1C4.21,8.43.4,12.38.4,12.38L0,12.2.57,5.41h21.5l.71,6.79-.4.18s-3.82-4-4.52-4.61a4.14,4.14,0,0,0-1.76-1,6.2,6.2,0,0,0-1.79-.21V27.37L18,29Z" transform="translate(0 -0.01)"/><path class="cls-2" d="M183.74,29.43H170.92v-.34l3.56-1.72V6.5h0a9,9,0,0,0-2,.26,4.15,4.15,0,0,0-1.71,1c-.74.66-4.56,4.61-4.56,4.61l-.4-.18.58-6.79h21.5l.74,6.79-.43.18s-3.78-4-4.52-4.61a4.43,4.43,0,0,0-1.72-1,6.25,6.25,0,0,0-1.8-.21V27.37L183.7,29Z" transform="translate(0 -0.01)"/><polygon class="cls-2" points="48.62 7.41 51.52 5.75 51.52 5.39 40.11 5.39 40.11 5.7 43.09 7.37 43.09 16.31 32.12 16.4 32.12 7.41 35.06 5.75 35.06 5.39 23.65 5.39 23.65 5.7 26.59 7.41 26.59 27.41 23.65 29.07 23.65 29.42 35.06 29.42 35.06 29.03 32.12 27.36 32.12 17.76 43.09 17.81 43.09 27.41 40.11 29.07 40.11 29.42 51.52 29.42 51.52 29.03 48.62 27.36 48.62 7.41"/><polygon class="cls-2" points="192.34 27.41 189.4 29.07 189.4 29.38 200.81 29.38 200.76 29.03 197.87 27.36 197.87 7.41 200.76 5.75 200.81 5.39 189.4 5.39 189.4 5.7 192.34 7.37 192.34 27.41"/><g class="cls-3"><path class="cls-4" d="M78.42,24.57s2.06,1.22,2.68,1.53,3.37,1.41,3.37,1.41l-1.84.61a16.28,16.28,0,0,1-2.24-1.05c-.44-.18-1.4-.75-1.4-.75Zm16.67-7.72A3,3,0,0,0,93,14.13c-1.1-.39-3.87.22-4.26.26s.22-.92-.57-1.49c-.31-.22-1.06,0-1.06,0a3.31,3.31,0,0,0-.48-.35,1,1,0,0,0-1.1-.44,6.73,6.73,0,0,0-1.23.44,4.28,4.28,0,0,1-1.66-.09.49.49,0,0,0-.48,0,3.92,3.92,0,0,0,.3.83,8.24,8.24,0,0,0,.84.66,11.66,11.66,0,0,1,1.35-.09c.31.05.45.7.45.79s-.22.57-.27.79a2,2,0,0,0,.53,1c.22.18.09.31-.35.35s-.36.53-.36.53a1.48,1.48,0,0,0-.48-.26.44.44,0,0,0-.48.08l0-.3a1.11,1.11,0,0,0-.49-.88c-.13-.13-.61-.48-.7-.79s-.13-.44-.31-.31-.08.53-.08.53l-.14.22-.22,0,.09.44h-.17l.08.43h-.22a3.18,3.18,0,0,0,.14.44,2.14,2.14,0,0,0,.26.66c.13.26.13.57.22.74s0,.4-.22.44-.18-.26-.22-.57-.35-.56-.35-.7-.26-.17-.4-.17-.3-.27-.3-.27-.09.27-.18.13L80.09,17s-.09.26-.27.05a.42.42,0,0,0-.39-.18l0,.31a.66.66,0,0,1-.35-.13c-.18-.09-.79-.49-.79-.49s0,.31-.13.18a1.71,1.71,0,0,0-.62-.26,2.66,2.66,0,0,0,.22.7c.18.31,0,.26.18.53a.84.84,0,0,0,.44.3v.18l.26.3a.26.26,0,0,0,0,.35A3,3,0,0,0,79,19s0,.4.22.48.4,0,.4,0-.13.27.08.27a2.16,2.16,0,0,0,.57-.13v.22a1.64,1.64,0,0,0,.31-.05,1.77,1.77,0,0,0,.7-.31,1.06,1.06,0,0,1,.49-.08c.17,0,0,.35,0,.44s-.27.17-.27.17h-.35c-.13,0-.3.09-.52.13a1.72,1.72,0,0,1-.44.09l-.53.13a.63.63,0,0,1-.44,0c-.22,0-.17.13-.17.13s-.31,0-.44,0,0,.22.13.22.26.35.26.35a1.06,1.06,0,0,0,.22.31,2.56,2.56,0,0,0,.53.13c.13,0,0,.22,0,.22s.31,0,.48,0-.31.31-.09.31a1.74,1.74,0,0,1,.53.13l.13.22c.09.22.27.35.62.26s.87-.17.87-.17l-.17.26c-.18.22-.27.79-.13.79s.65,0,.65,0,.27,0,.27.14-.27.21-.62.21a1.83,1.83,0,0,1-.61-.13l-.18.18s-.22-.18-.39-.09-.09.4-.22.4-.31,0-.44.08a1.92,1.92,0,0,0-.22.35.43.43,0,0,0,.09.22.6.6,0,0,1,.13.22s-.18,0-.18.13.71.27.71.27v.26c0,.22.44.09.44.09a.21.21,0,0,0,.22.13c.17,0,.35-.22.35-.22s0,.22.17.22a.48.48,0,0,0,.31-.13s.13.31.35.13.22-.4.4-.44.74.13.92.13.26.22.39.44.49.13.49.13v.4c0,.26.43.48.61.48a5.83,5.83,0,0,0,1-.26c.22-.05.36.26.14.3s-1.28.4-1.28.4l.4,1.14L87.37,28l-.22-.61A3.29,3.29,0,0,0,88,27.2c.27-.13.44-1,.44-1a59.36,59.36,0,0,0,6.54,0,36.17,36.17,0,0,0,4.92-1.23c.79-.22,7-2.32,7.37-2.37s.88.44,0,.66-2.1.7-2.1.7L105,25.22s.88-1,1.1-1.18.17,0,.17.18a10.46,10.46,0,0,1-.39,1.57.5.5,0,0,1-.48.27v.22s.7-.18,1-.31,1.14-.35,1.14-.35V25.4s-.57.22-.53,0,.27-1.27.31-1.49a.41.41,0,0,1,.31-.3c.13,0,.35.26.35.44v.48l.53-.13v-.13l.26,0,.09.26a.77.77,0,0,0,.52.18,1.41,1.41,0,0,0,.84-.39c.08-.22.39-.18.39-.18a.61.61,0,0,0,.48.22c.31-.09.22-.13.36-.18s.17-.08.35-.13.26.44.26.44a2.59,2.59,0,0,0,.35,0c.13,0,.13-.26.26-.26s.36.31.53.48a7.68,7.68,0,0,1,.7.66c.27.22,1.8,2,1.8,2l.22.92a24.3,24.3,0,0,0-2.54-2.24C112,25,109,25.93,108,26.19s-9.61,3.33-12.77,3.55a93,93,0,0,1-9.7-.26l-4.52-.31c-.75-.08-2.06-.39-2.06-.39l.53,1.36s8.68.92,12.5.79,4.7.26,12.42-2.28c7.11-2.33,7.07-2,8.34-1.58a7.59,7.59,0,0,1,2.11,1.58c.39.35-.09,1.05-.62.57a3.93,3.93,0,0,0-3.68-1.45,13.4,13.4,0,0,0-3.17,1.14l.45.66s2.45-1.19,3.46-1a4,4,0,0,1,2.5,1.45c.4.75,1.14,1.18,1.84.61a2.31,2.31,0,0,0,.84-1.75,8.18,8.18,0,0,0-.18-1.4s.49.7.62.83.57.53.57.53l-.18.13a.68.68,0,0,0-.39.3c-.09.22.31,1,.31,1.36v.75l.35.57s.7,0,1.09.09a2.28,2.28,0,0,0,1.63.09c.57-.32.48-.62.48-.62l.35-.61a21,21,0,0,0,2.33.65,20.83,20.83,0,0,0,2.72.22.89.89,0,0,0,.74-.66.66.66,0,0,0-.13-.56l1.45-.88a2.34,2.34,0,0,0,.83.09,3.24,3.24,0,0,0,.71-.79,2.31,2.31,0,0,0-.09-.83l.48-.4s0,1,0,1.49a1.08,1.08,0,0,0,.43,1c.27.22,1.45.7,2,.26s1.89-2,3.47-1.62a12.8,12.8,0,0,1,2.54.92l.53-.92s-2.41-1.27-3.51-1.1a5.44,5.44,0,0,0-3.25,1.54c-.27.35-1.31,0-.66-.53s2.63-2.15,4.17-1.88c1.76.35,8.43,2.58,9.17,2.8a72.93,72.93,0,0,0,10.23,1.54c4.3.39,11.28-.79,11.28-.79l1.27-1.62s-2.5.48-3.6.61a49.72,49.72,0,0,1-11.81.26A66.26,66.26,0,0,1,139,26.59c-3.25-1.15-4.52-.7-6.06.17a6.89,6.89,0,0,0-2.41,2.63,5.32,5.32,0,0,1,0-.7c.09-.17.22-.52.36-.79s.7-1,.92-1.36.88-2.1,1-2.45a2.76,2.76,0,0,1,.79-1.36c.44-.31,3.42-.09,4.13.08s6.45,1.89,9.48,2.63a30.89,30.89,0,0,0,6.67.93.29.29,0,0,1,.26.39.35.35,0,0,1-.35.13V27a6.6,6.6,0,0,0,.7.22,11.75,11.75,0,0,1,.61,1.54c.14.31-.35.26-.35.26v.18l1.85,0,0-.13s-.45,0-.45-.17-.17-.66-.17-.66a8.83,8.83,0,0,0,.75.53,1.08,1.08,0,0,0,.78.08V29l-.35.26,1.93-.09-.48-.22-.22-.78.4-.49.43,0,.31.45.36-.05L159.34,27l-.84-.09s-.13-.3,0-.3a4.87,4.87,0,0,1,.7,0,1.35,1.35,0,0,1,.62.26c.13.09.79.79.79.79l-.48.57,1,.84.75-.84-.61-.57.17-.26-.44-.75s1.27.14,1.45.14.09-.44.09-.44a.89.89,0,0,0,.26.08.31.31,0,0,0,.22-.13l.31.13s.22-.08.26-.17a2.78,2.78,0,0,0-.22-.75l1.36.4-2.76,1.66,1.49.49,3.51-1.93.48-1.8a16.47,16.47,0,0,1-1.75.83c-.22.09-.62-.31-.62-.31s.79-.87,1-1.13a4.16,4.16,0,0,0,.35-.8s-1.09.44-1.27.49a5.53,5.53,0,0,0-.83.22,5.81,5.81,0,0,1,.08-.62c0-.13.18-1.05.18-1.05a4.69,4.69,0,0,1-.7.26c-.4.14-1.63.66-1.63.66V21.72a6.78,6.78,0,0,1,.79-.22,12.48,12.48,0,0,1,1.45-.05,7.54,7.54,0,0,1,1.36.22s.09-.13-.13-.44-.66-.3-.92-.43a4.78,4.78,0,0,0-1-.22,7,7,0,0,1,.79-.49,9.94,9.94,0,0,1,1.23-.39c.26,0,.79-.35.35-.48a5.53,5.53,0,0,0-1.23,0,7.54,7.54,0,0,0-1.23.18,11.63,11.63,0,0,0,1.19-.57,8,8,0,0,1,1.4-.48c.27-.13.66-.18.27-.35a6.61,6.61,0,0,0-1.58-.18c-.4.05-1.1.18-1.1.18A6,6,0,0,1,164,17c.05-.18.4-1.14.4-1.14l-.53-.22-1.14,1.09-.18-.92-.48.31-.44,1.23-.48-.31c-.13-.09-.26-.53-.26-.53l-.35.13s.22.71.26.93a2.07,2.07,0,0,1,0,.57l-.4-.05-.08-.08a.91.91,0,0,1-.31-.27c-.09-.08-.26,0-.44,0a.58.58,0,0,1-.3-.09,6.09,6.09,0,0,1,.48-.75l.52-.78-.43-.18a2.67,2.67,0,0,0-.62.35,14.45,14.45,0,0,0-1.27,1c-.09.18-.27.22-.27.14s0-1.15,0-1.41a.89.89,0,0,0-.31-.57,1.87,1.87,0,0,0-.22.62c0,.21-.13,1.36-.13,1.49s-.08.35-.17.26-.31-.22-.57-.48l-.66-.66-.57.22a1.53,1.53,0,0,0,.22.44,5.07,5.07,0,0,1,.17,1.36c0,.3-.09,1-.09,1a.22.22,0,0,1-.35,0,5.82,5.82,0,0,0-.39-.79,1.07,1.07,0,0,1-.22-.44,1.4,1.4,0,0,0-.18-.35.27.27,0,0,0-.26-.09l0,0a2.78,2.78,0,0,0-1.45-.57,6.6,6.6,0,0,0-1.49.39,4,4,0,0,1-.92.31,4.46,4.46,0,0,0-.53-.22,2.24,2.24,0,0,0-.92.26c-.18,0-.22,0-.18-.13a3.67,3.67,0,0,1,.31-.7.52.52,0,0,0-.22-.09.22.22,0,0,1-.09-.18,14.15,14.15,0,0,0,.66-2c.57-2-.48-4.64-.53-4.77a16.08,16.08,0,0,0-1.49-2.24l.09-.22c.09-.09.22-.35.31-.39s1.05-.62,1.4-.75,1.14.13,1.54.17.48-.26.48-.61.09-.48.22-.57a8.41,8.41,0,0,1,.92-.35V5.23a13,13,0,0,0-1.32.35c-.26.09-.35.53-.35.7s0,.27-.48.18a5.12,5.12,0,0,0-.92-.22,9,9,0,0,0-1.36.61c-.09.09-.22,0-.22-.3a2,2,0,0,0-.44-.93,1.44,1.44,0,0,1-.35-.87V4L146,3.78a4.42,4.42,0,0,1-.49.62c-.08.13-.52.57-.65.74a3.88,3.88,0,0,0-.09.92s-.31-.26-.35-.44.09-.57.09-.83-.09-.7-.09-.92a3,3,0,0,0,0-.48l-.52-.22a3.19,3.19,0,0,1-.13.35c-.14.18-.35.48-.49.7s-.26.39-.26.39-.57-.43-.79-.56a3.18,3.18,0,0,0-.44-.14,2.62,2.62,0,0,0-.35-.52,2.16,2.16,0,0,0-.61-.22,3.93,3.93,0,0,1-.53-.57c-.13-.22-.62-.09-.62-.09-.21-.39-.21-.35-.3-.44s-.44-.09-.44-.09a3.3,3.3,0,0,1-.18-.3c-.17-.26-.57-.13-.57-.13s-.13-.22-.22-.35a.64.64,0,0,0-.48-.14s-.13-.35-.26-.39-.31-.18-.31.13a1.6,1.6,0,0,0,.09.79c.08.22.48.31.57.31s.13.13.22.39a1,1,0,0,0,.61.35c.13,0,.13.13.26.44s.36.18.62.31,0,.26.26.52a.56.56,0,0,0,.57.22c.18,0,.18.27.36.48a.6.6,0,0,0,.43.27c.14,0,.27.22.4.44a1.19,1.19,0,0,0,.61.3l-.17.18a3.32,3.32,0,0,1-.84,0,.61.61,0,0,0-.43,0l.21.35.49.61h-.31a2.76,2.76,0,0,1-.88-.39s-.31,0-.22.26.48.75.53.88-.13.22-.48.22a3.42,3.42,0,0,1-.79-.31,4.2,4.2,0,0,0-.71,0c-.17,0-.56.57-.74.61a6.75,6.75,0,0,1-.66.35,2.32,2.32,0,0,0-1,.22c-.48.22.13,1.1,0,1.28s-.43.43-.21.61a4.89,4.89,0,0,1,.61.88s-.09.43-.75.7a1.23,1.23,0,0,0-.74,1.18,4.68,4.68,0,0,0,.13,1.36l.48-.13a3.43,3.43,0,0,0,.22-.62c0-.21.18-.39,1.06-.3s1-.31,1.18-.66a5.5,5.5,0,0,1,.57-1.36.77.77,0,0,1,.7,0,1,1,0,0,0,1-.22.68.68,0,0,1,.7-.31,2.31,2.31,0,0,1,.57.53,1.76,1.76,0,0,0,.13.61,1.69,1.69,0,0,0,.66.44l0,.7-.43.09a1.67,1.67,0,0,0-.4.39,3.28,3.28,0,0,1-.75.57,5.76,5.76,0,0,1-.3-.65,5.73,5.73,0,0,0-.49-.75l-.79,0a8.68,8.68,0,0,0,0,1.15,13.54,13.54,0,0,1-.13,1.62l.4.48a6.59,6.59,0,0,1-2.51-.22c-.74-.18-2.89-1.1-2.89-1.1s-.22-.78-.31-1-.4-1.19-.4-1.19l.88-.87c.13-.13.79-.92.79-.92H133.4s.36-.57.57-.84.75-1.44.75-1.44a7.39,7.39,0,0,0-.92.26,3.56,3.56,0,0,1-.75.35s.09-.83.13-1,.18-.92.18-.92-.75.88-.88,1.1-.35.35-.4.22-.21-2.11-.21-2.11l-1.54,2.06-1.14-.87s.13-.35,0-.49a2.23,2.23,0,0,0-.22-.26l.62-.48s.43.17.61-.13-.22-.44-.22-.44l.22-.18s.57.31.75-.26c.13-.31-.36-.53-.36-.53l.09-.17s.66.13.66-.7c0-.49-.7-.22-.7-.22l-.13-.22s.53-.44,0-.84-.88.14-.88.14l-.08-.14a.47.47,0,0,0-.22-.65c-.49-.18-.71.39-.71.39h0c0-.09.05-.57-.43-.53a.54.54,0,0,0-.53.53h-.13s0-.31-.4-.35-.44.22-.44.22l-.09-.13-.21-.53A2.22,2.22,0,0,1,126,2c-.13.14-.83.75-.83.75l0-2.15-.48.09.09-.53L121.47,0l.09.61L121,.49V2.42l-1-.7-.57.79h-.17a.56.56,0,0,0-.66-.48c-.4,0-.4.52-.4.52h-.17s0-.65-.61-.57-.31.62-.31.62H117a.66.66,0,0,0-.71-.18c-.39.18-.13.66-.13.66l-.08,0s-.18-.39-.67,0,.14.71.14.71l-.14.17s-.52-.13-.52.35c0,.7.66.57.66.57V5.1s-.57,0-.4.52.84.27.84.27a.58.58,0,0,0,0,.52c.09.22.62.18.62.18l.48.57a1.64,1.64,0,0,1-.18.35c-.08.22,0,.31,0,.31s-.52.3-.43.57-.18.26-.49,0a4.88,4.88,0,0,1-.92-1,7.5,7.5,0,0,0-.52-.57,1,1,0,0,0-.05.31c0,.22,0,1.88,0,1.88s-.92-.61-1.1-.79a1.4,1.4,0,0,0-.48-.26,6.6,6.6,0,0,0,.26,1c.18.31.53,1.23.53,1.23a3.19,3.19,0,0,0-.75-.3c-.13-.05-1.1-.27-1.1-.27a2.14,2.14,0,0,0,.4.75,15.26,15.26,0,0,1,1,1.31l-1.14.18,1.28,1.36a2.9,2.9,0,0,1-.18.74c0,.09-.26.88-.35,1.05a4.12,4.12,0,0,1-1.41.75c-.3,0-.3-.13-.39-.4a4.1,4.1,0,0,0-.53-1c-.22-.22-.88-.53-1-.74a2.55,2.55,0,0,1-.17-.8,9,9,0,0,0-.53-.74c-.22-.31,0-.57.35-.39s.31.48.62.87a1.43,1.43,0,0,0,.83.57,3.53,3.53,0,0,1-.31-.57c-.13-.26.09-.7,0-.87a5.42,5.42,0,0,0-.66-.71l.26-.61-.65-.26a1.58,1.58,0,0,1-.75-.48c-.22-.18-.39-.27-.18-.27s.36.09.79.09a2,2,0,0,0,.75-.22,3.92,3.92,0,0,0-.44-.22,2.56,2.56,0,0,1-.61-.61A1.31,1.31,0,0,0,109,8c.09-.18.23-.4.23-.4a2.83,2.83,0,0,0-.45-.13,3.79,3.79,0,0,1-.91-.35c-.23-.13,0-.22,0-.22a5.51,5.51,0,0,0,.61-.05c.35-.08.44-.87.44-.87l-.22-.13a3.94,3.94,0,0,1-.7.3,2.25,2.25,0,0,1-.71,0S107,6,107,5.89s.22-.35.22-.62a.77.77,0,0,0-.22-.44,3.41,3.41,0,0,1-.57.4,1.85,1.85,0,0,1-.7,0c-.22,0-.18,0-1-.08s-.44,0-.66.17l-.39.26a.47.47,0,0,1-.14-.39,2.35,2.35,0,0,0,.14-.62c0-.21-.71-.7-.71-.7a1.5,1.5,0,0,0,.09-.61c-.09-.3-.74-.18-.74-.18l0-.17s.4-.53.13-.83-.79,0-.79,0,0-.57-.39-.61-.44.48-.44.48l-.4.13s-.13-.26-.52-.09,0,.7,0,.7L99.7,3a.42.42,0,0,0-.48.22c-.18.26.09.61.09.61l-.27,0s-.13-.4-.17-.57a1.34,1.34,0,0,0-.09-.44l-.09.13-.48.53-.35-.13.48-1.1L96.1,3.3l1,.4-.18.48s-.74-.18-.83,0,.35.57.35.57H96s0-.35-.44-.22-.22.4-.22.4l-.3.17s-.09-.17-.22-.17-.18-.22-.57.31.35.57.35.57l0,.35s-.57.35-.39.61.57,0,.57,0l.26.18s-.09.4.18.44a.25.25,0,0,0,.35-.18l.22.14s-.13.26.09.3a.65.65,0,0,0,.35,0s-.4.75-.62,1.14-.61,1.49-.74,1.67,0,.3.17.52a2.11,2.11,0,0,0,.57.53c.22.05,0,.18-.09.4a.29.29,0,0,0,.09.3,2.51,2.51,0,0,0-.22.79c0,.26.66.79.88.88a5,5,0,0,1,.66.35c.18.17.4.66.57.61s0-1,0-1a3,3,0,0,0,.61-.43c0-.09.22,0,.13.22a2,2,0,0,0-.08.87,1.1,1.1,0,0,0,.7.57c.22,0-.35.4-.53.44s-.83.09-1.09.31-.66.7-1.14.74l-.49.09s0,.09.27.26A1.43,1.43,0,0,0,97,16.76c.48-.22.66-.39,1-.39s.62.22.44.3a5.81,5.81,0,0,1-.7.27c-.13,0-.39.26-.52.26a11.27,11.27,0,0,0-1.1.4c-.18.13-.57.3-.48.39a7.68,7.68,0,0,0,1.22.61,1,1,0,0,1-.39.44c-.27.18-1,.13-1,.27s.22.44.22.44a1.27,1.27,0,0,1-.53-.05c-.3,0-.43-.57-.43-.57S95.44,18.69,95.09,16.85ZM88.42,27s.31,0,.22.22A4.16,4.16,0,0,1,88,28.38c-.18.22-.75.27-.75.27s1.54.17,1.72.22,2,.17,2.41-.49.35-1,0-1.14a18.58,18.58,0,0,0-2.76-.35C88.29,26.89,88.42,27,88.42,27Zm1.41.22-.7,1.4a1.82,1.82,0,0,0,.78,0,.88.88,0,0,0,.62-.62c0-.22.22-.66,0-.7Zm2.81.17c0,.22,0,.27-.22.66s-.14.4-.44.53a1.63,1.63,0,0,1-.48.09l-.09.17h2v-.17l-.4,0,.57-1.45h.48V27l-1.93,0v.18S92.64,27.15,92.64,27.37ZM94.3,27l0,.17a.26.26,0,0,1,.26.36,5,5,0,0,1-.3.92c-.09.22-.57.26-.57.26v.13A21.14,21.14,0,0,0,96,28.65a4.11,4.11,0,0,0,.83-.18L97,28l-.18-.05a.86.86,0,0,1-.26.31,3.22,3.22,0,0,1-1.27.31l.26-.66a1.19,1.19,0,0,1,.44,0,.62.62,0,0,1,.26.26l.35-1s-.35.44-.48.44h-.52l.17-.52a1.62,1.62,0,0,1,.83-.18.47.47,0,0,1,.31.35l.14-.57-1.54.27C95.18,27,94.3,27,94.3,27Zm3-.48v.13h.44c.13,0,.13.18.09.48s-.22,1.32,1.27.88,1.23-1.45,1.23-1.58.13-.52.13-.52l.44-.18v-.18l-1.41.4v.13s.36-.13.36,0-.13.74-.18,1.13c-.08.57-1,1-1,.44A2.71,2.71,0,0,1,99,26.41a2.13,2.13,0,0,1,.31-.22V26a3.39,3.39,0,0,1-.62.26A10.24,10.24,0,0,1,97.33,26.5Zm4-.57-.62.61.36.61.52-.7Zm.52-.71s.49-.13.49.14a6.08,6.08,0,0,1-.35,1.53c-.09.22-.48.35-.48.35l0,.18,2.94-.83.09-.75a3,3,0,0,1-.83.75,1.17,1.17,0,0,1-.62.13l.13-1a2.21,2.21,0,0,1,.44,0c.09.05.18.27.18.27l.17-1a1,1,0,0,1-.26.31.86.86,0,0,1-.44.13l.17-.61a2.17,2.17,0,0,1,.71-.22c.3,0,.22.31.22.31l.26-.05.17-.83-1.44.48c-.53.18-1.5.48-1.5.48ZM151.31,6c-.27.14-.18.62-.18,1s-.52.4-.87.36a1.12,1.12,0,0,0-.84.08,11,11,0,0,0-1.23,1.19l.18.39a5.62,5.62,0,0,1,1.31-.53c.18,0,1.45,0,1.85,0s.35-.09.39-.48a.88.88,0,0,1,.79-.75c.27,0,.75,0,.75,0s-.27-.36-.53-.4a3.07,3.07,0,0,0-.88.18c-.3.13-.52.83-.74,1a3.28,3.28,0,0,1-1.14,0,6,6,0,0,0-1.23.31,7.49,7.49,0,0,1,.88-.7c.3-.22.87-.13,1.27-.26s.26-1,.26-1.19.92-.57.92-.57l-.09-.09Zm-4.65,1.32a1.52,1.52,0,0,0,0-.74c0-.18-.53-1.72-.53-1.76s.05-.13.09-.26.05-.44,0-.4a2.67,2.67,0,0,0-.35.57c-.05.09-.27.35-.23.57a3.92,3.92,0,0,1-.26,1.32c-.09.17-.39.61-.44.75s-.08.3.27.52.66.35.92.18A2.46,2.46,0,0,0,146.66,7.29ZM137.13,1.5a.19.19,0,0,0,.31.05c0-.05,0-.18.09-.18s.13.22.26.44.26.26.31.26.17-.17.17-.17a.73.73,0,0,0,.14.48c.21.3.39.17.39.13V2.29a.54.54,0,0,1,.18.26,1.29,1.29,0,0,0,.35.66.25.25,0,0,0,.35,0s-.09-.22-.05-.26.18.13.22.35a5,5,0,0,0,.22.65c.05.18.49.22.49.22V3.74s0,0,.13.09.35.78.44.92.3,0,.3-.09-.09-.48-.09-.53.14,0,.22.22.49.88.62,1.1a.43.43,0,0,0,.44.13c0-.09,0-.39,0-.53s.13,0,.3.18.09.53.09.53l.53.13c.17,0,0-.18.17-.22s0,.26.31.44.26-.31.17-.44-.57-.18-.57-.18-.08-.3-.26-.39A1.58,1.58,0,0,0,143,5l-.09-.09a6.27,6.27,0,0,0-.57-.53,1.39,1.39,0,0,0-.61-.17c-.09,0-.4-.57-.57-.66s-.66,0-.66,0a3.47,3.47,0,0,0-.4-.8c-.17-.13-.52,0-.52,0l-.26-.53c-.09-.13-.49-.08-.49-.08a1.24,1.24,0,0,0-.31-.4c-.13-.13-.44,0-.44,0a3.53,3.53,0,0,0-.34-.48.28.28,0,0,0-.31,0,2.48,2.48,0,0,0-.22-.35c-.14-.18-.09,0-.14.08S137.09,1.33,137.13,1.5Zm6.72,2.06c-.09,0,0,.18-.09.31s-.22.35-.26.53.13.26.22.43.17.22.26.22l.26,0c.22,0,0-1,0-1s-.18-.44-.22-.53S143.89,3.52,143.85,3.56ZM140.56,7.2a2.08,2.08,0,0,0,1.05,0c.22,0,1.58-.22,1.84-.22h1a.46.46,0,0,0-.17-.22A.76.76,0,0,1,144,6.5s-.22-.09-.61-.26a1.88,1.88,0,0,0-1.23,0c-.22.09-.88.61-1.1.66a2.86,2.86,0,0,1-.88-.13A1.44,1.44,0,0,0,140.56,7.2Zm2.23,1.14c0,.22.23.7.58.57a.32.32,0,0,0,.26-.48,1,1,0,0,0-.26-.22,1,1,0,0,1-.05.31c0,.13-.22.17-.26.09A1.24,1.24,0,0,0,142.79,8.34Zm-4.74,0a.52.52,0,0,0-.08.44c0,.13.52,0,.65,0s.36-.09.4-.18-.13-.26-.22-.26a1.06,1.06,0,0,1-.39-.09A1.6,1.6,0,0,0,138.05,8.34Zm3.6,1.45a.68.68,0,0,0,.44.83,2.11,2.11,0,0,0,1.71-.08,1.19,1.19,0,0,0,.57-.7c0-.09-.26-.22-.3-.18a5.41,5.41,0,0,1-.92.66,2.83,2.83,0,0,1-1-.09A2.28,2.28,0,0,1,141.65,9.79Zm0-1.18a2.51,2.51,0,0,1,.57-.18c.09,0,.09,0,.13.31a1.15,1.15,0,0,0,.75.57c.26.09.83-.13,1-.13s.22.13.39.17a1.1,1.1,0,0,0,.53.09,5.84,5.84,0,0,0,.83,0c.14-.09.35-.31,0-.22a3,3,0,0,1-1.36-.36C144,8.65,144,8,144,8s-.79,0-1.06,0-.61-.17-.61-.17-.09.13-.13.13a.43.43,0,0,0-.22.17c0,.09-.26.05-.44.05s-.18.26-.18.35S141.48,8.65,141.61,8.61Zm8.69.52s.88.09,1.14.09H152a4.38,4.38,0,0,0,1-.53c.13-.13,1.05-.08,1.05-.08l-.09-.22a8.33,8.33,0,0,0-.88,0,7.94,7.94,0,0,0-1.23.66,6.83,6.83,0,0,1-1.53-.18ZM149.11,11a2.91,2.91,0,0,1,.4,0,3.75,3.75,0,0,1,.88.31c.35.13,1.09.66,1.36.75a1.43,1.43,0,0,0,1.09-.13c.22-.22.92-.53,1.06-.66a3.28,3.28,0,0,1,.92,0l0-.27a2.16,2.16,0,0,0-.57-.13,4.9,4.9,0,0,0-.74-.05s-.13.05-.22.31a1.19,1.19,0,0,1-.88.53,1.47,1.47,0,0,1-.83-.39,6.18,6.18,0,0,0-.92-.31c-.18-.05-.18-.09,0-.14s1.36-.17,1.62-.3.92-.92,1.1-1,1.18,0,1.18,0l-.21-.57s-.53,0-.71,0a5.79,5.79,0,0,0-.74.13,8.69,8.69,0,0,0-1.28,1,7.2,7.2,0,0,1-1.79.31,7.93,7.93,0,0,0-.88.13Zm5,2.06a2.13,2.13,0,0,0-.92.35c-.18.13-.79.62-.79.62A3.14,3.14,0,0,0,152,14c-.13-.05-.78-.14-1-.18s-.79-.31-.88-.31-.08-.3,0-.3h.79c.31,0,.66,0,1,0a2,2,0,0,0,.88,0C153,13,153.9,12,154,11.94a5.63,5.63,0,0,1,1.18-.09s0-.39-.09-.39l-.92,0c-.17,0-.39.18-.52.22a5.08,5.08,0,0,0-.53.48c-.09.09-.57.18-.7.4s-.49.13-.79.08a2.86,2.86,0,0,0-.88-.13,7.83,7.83,0,0,0-1.27.22l.09.84a4.36,4.36,0,0,1,.79.35,2.89,2.89,0,0,0,.52.22c.22.08,1,.13,1.14.21s.31.31.53.31,1.32,0,1.67.05a5.3,5.3,0,0,0,.61,0l0-.22a3.36,3.36,0,0,0-.74-.26,6.28,6.28,0,0,0-1,0,4,4,0,0,1-.57,0s.57-.3.66-.48a.71.71,0,0,1,.53-.35,6.19,6.19,0,0,1,.92,0l.61.18s0-.4-.08-.44A5,5,0,0,0,154.16,13.08ZM154.07,15a5,5,0,0,0-.79,0l-1.1.26c-.22.09-.26,0-.52-.13a5.7,5.7,0,0,0-1.19-.22,3.57,3.57,0,0,0-1,0,5.42,5.42,0,0,1-.14.79c-.08.31-.17.62-.17.62a.54.54,0,0,0,.26.09c.14,0,.58.3.75.35a8.85,8.85,0,0,1,.83.35c.22,0,.4.17.57.08a6.49,6.49,0,0,0,1.15-.52,5.1,5.1,0,0,1,1.05-.09v-.44s-.62-.08-.75-.08a1.8,1.8,0,0,0-.48.3c-.13.13-.75.26-.83.4s-.27.08-.57,0a1.12,1.12,0,0,1-.71-.31,4.23,4.23,0,0,0-.7-.39c-.17,0-.35-.09-.31-.22s0-.09.31-.18a5.26,5.26,0,0,1,1.1,0c.17,0,.7.22.83.18l1.54-.58a3.52,3.52,0,0,1,.92,0H155v-.43S154.25,15,154.07,15Zm-5,1.62s-.22.44,0,.61,1.32.23,1.32.23-.75-.44-.93-.53A1.47,1.47,0,0,1,149.11,16.63ZM138,7.86c-.09.18-.26.57-.44.66a2.78,2.78,0,0,1-1,.13c-.18,0-.35.13-.31.44a.83.83,0,0,0,.49.7,1.37,1.37,0,0,0,.83.05c.31-.09.52.08.7,0a3,3,0,0,0,.44-.31c.08-.13.31.09.31.31s0,.3,0,.39,0,.26.22.22.44-.57.44-.57a3.49,3.49,0,0,1,0,.66c-.09.21-.3.26-.3.39s.13.13.34.09.31-.48.31-.7a11.28,11.28,0,0,0,0-1.41l.39-.09a1.39,1.39,0,0,1,.18.49,6.2,6.2,0,0,1,0,.74,1.24,1.24,0,0,0,.35-.52A.88.88,0,0,0,141,9l.3.09a6.21,6.21,0,0,0,0,1.36,2.23,2.23,0,0,0,1.62.83c.79,0,1.45-.13,1.8-.61a6.15,6.15,0,0,0,.48-.83l.4.17a5,5,0,0,1-.88,1.23,7.31,7.31,0,0,1-2,.52c-.31,0-.09.31,0,.31a3,3,0,0,0,1.75-.22c.53-.44,1.45-1.4,1.45-1.4l-.35,1.14a4.05,4.05,0,0,1-1.36.83l-1.41.22V13a5,5,0,0,0,1.54,0,7.94,7.94,0,0,0,1.36-.74l.05.44s-.93.57-1.23.7a6.83,6.83,0,0,1-1.23.22V14s.61.09.83.09,1.18,0,1.18,0l.05.44-.4.08v1l1.15-.49.87.27a8.24,8.24,0,0,0,.14,1c0,.05.22.22.3.05s1.32-2.55,1.41-2.85-.31-.44-.44-.18-.75,1.62-.75,1.62l-.17-.65.83-2c.09-.26-.22-.57-.35-.44s-.7,1.27-.7,1.27l-.13-.61s.57-1.18.65-1.4-.17-.84-.39-.57a6.71,6.71,0,0,0-.57,1l-.27-.58a7.25,7.25,0,0,0,.62-1.4c0-.39-.18-1.05-.53-1.14a3.5,3.5,0,0,0-1,0,1.18,1.18,0,0,1-.91-.44c-.18-.3-.31-.61-.62-.61a16.8,16.8,0,0,0-2.19.09l-.18.17s-.13-.13-.26-.09,0,.18-.27.27-.21-.09-.17-.18-.13-.35-.22-.13a1.46,1.46,0,0,1-.44.48,2.55,2.55,0,0,1-.88,0,5.16,5.16,0,0,0-1-.17A3,3,0,0,0,138,7.86Zm11.5,10.35-1.36.35-.35-.31.39-1.14-.44-.17-1.27.3-.26-.21.3-1.19-.48-.35-1.23.75-.39-.09-.18-1.62-.35-.09a4.52,4.52,0,0,0-.57.39c-.13.09-.7.4-.7.4l-.26-.18s0-.48.08-.66a2.55,2.55,0,0,0,.05-.52l-.44-.31s-.66.66-.79.83-.7.4-.75.27-1-1.36-1-1.36v2.24l.3-.84.22.31,0,.83a2.78,2.78,0,0,0,0-.3l.13-.36.31.18,0,.48a1,1,0,0,0,.17-.22.87.87,0,0,0,.05-.31l.35-.08s0,.35,0,.31a2.2,2.2,0,0,1,.57-.27l.14.31s-.79.17-1,.79a.4.4,0,0,0,.31.48.72.72,0,0,1,.87-.79c.75.13.31.92.31.92s-.22.26,0,.22.53-.22.53-.44v-.57s.48,0,.53.22,0,.57.35.7a10.67,10.67,0,0,1,1.53.79c.31.27,1.32,1,1.32,1l.66-.53.13.22-.53.44.13.13s.31-.26.4-.31.39-.17.31,0a5.44,5.44,0,0,1-.31.53l.26.08.35-.3.26.08-.43.58.43.26.27-.44h.13a3.68,3.68,0,0,1,.35-.4c.18-.21.62-.52.84-.79ZM134.06,15.4c0,.35.13,2.64.13,2.64l.44-.09V15.71Zm1.27.53c0,.13,0,1.62,0,1.76l0,.17.61,0s.44-1.41.44-1.5-.26-.26-.4-.3A4,4,0,0,1,135.33,15.93Zm1.45.39-.39,1.41.83-.4s.35-.7.4-.83-.09-.18-.22-.18Zm1.41.18-.31.57h.48l.31-.61Zm2.37.57V17a.69.69,0,0,0-1-.44c-.75.27-.88.7-.8,1a2.66,2.66,0,0,0,.27.75l.22-.09s-.31-.57,0-.83.48-.4.74-.44a.77.77,0,0,1,.44.22Zm-6,2.81c0-.09-.18-.36,0-.49A4.29,4.29,0,0,1,136,19c.22-.05.4.56.4.56l.22,0a8.1,8.1,0,0,0-.44-.88c-.27-.35-1.19-.22-1.5,0a1,1,0,0,0-.56.75,4.75,4.75,0,0,0,.35,1l.21-.09A1.71,1.71,0,0,0,134.59,19.88Zm2.63-.79-.13-.27a.46.46,0,0,1,.13-.3,4.69,4.69,0,0,1,.7-.31c.22-.09.31-.13.31,0a1.35,1.35,0,0,0,.22.26l.35-.09s-.26-.39-.39-.56a.67.67,0,0,0-.62-.22,2,2,0,0,0-1,.48c-.44.35.18,1.09.18,1.09Zm3.12-1.67-.18.18a2.35,2.35,0,0,0,.53.44c.35.21.92.13,1.05-.18a3.35,3.35,0,0,0,.31-1c0-.39-.35-.43-.49-.22a7.39,7.39,0,0,1-.78,1Zm-5,2.37a.83.83,0,0,1-.57.74,2.94,2.94,0,0,1-.79.18c-.13,0-.18.74-.13.92s.57,0,.92-.18a1.06,1.06,0,0,0,.79-1.05C135.55,19.79,135.38,19.79,135.38,19.79Zm.48-.35c-.13,0-.09,1.27.4,1.27a2.83,2.83,0,0,0,1.58-.39.8.8,0,0,0,.17-1c-.22-.35-.48-.31-.48-.31a2,2,0,0,1,.13.31c.05.08.31.44-.48.65s-1,.13-1.06,0S136,19.39,135.86,19.44Zm2.19-.66a1.28,1.28,0,0,0,.49.79c.21.13.17.26.92-.22s1-.57.74-1.1-.48-.39-.48-.39a2.41,2.41,0,0,1,.09.31c.09.13-.18.39-.48.52s-.66.44-.84.35A4.58,4.58,0,0,1,138.05,18.78Zm.4,2.1.3.14-1.57.74.39.09,1.41-.57.17.13-1,.53.44.13.88-.48.09.17-.57.35.26.22.57-.31.09.18s-.35.26-.22.31,5.7,1.75,6.06,1.8a2.92,2.92,0,0,0,.92-.14,5.72,5.72,0,0,1,.61-.13,1.9,1.9,0,0,1,.53.27c.08,0,0,.17-.09.26a1.19,1.19,0,0,1-.53.17.32.32,0,0,0,.18.27,4.78,4.78,0,0,0,.83.26.92.92,0,0,0,.44-.18,2.42,2.42,0,0,0,.79-.57c.22-.21-.35-1.14-.61-1.44a1.07,1.07,0,0,0-.71-.4,2.88,2.88,0,0,0-.83.31,2.72,2.72,0,0,1-1.05,0,13.37,13.37,0,0,1-1.93-.61,1.88,1.88,0,0,1-.79-.44,2.05,2.05,0,0,0-1.14-.7c-.53-.13-1.54.57-1.54.57s-.26-.13-.31-.17l-.26-.31a1.8,1.8,0,0,0,.48-.26.69.69,0,0,0,.35-.53c0-.13-.08-.4-.08-.4l.39-.21a3.16,3.16,0,0,0,0,.35c0,.09,0,.65,0,.65h.22a1.61,1.61,0,0,1,.09-.35c0-.08,0-.26,0-.39a1.73,1.73,0,0,0-.09-.39l.44-.23s0,.14,0,.18a1.69,1.69,0,0,1,.13.31,2.62,2.62,0,0,1,.09.74l.17,0,.09-.31a1.1,1.1,0,0,0,0-.52c-.05-.13-.14-.53-.14-.53l.27-.22s.26.13.26.18a.83.83,0,0,1,.13.48c0,.17-.08.83-.08.83h.3a.61.61,0,0,1,.05-.17c0-.09.08-.79.08-.79a1.39,1.39,0,0,1,.22.09L144,20a1.28,1.28,0,0,1,0,.31c-.08.17-.21.48-.21.48l.21.17.27-.52c.13-.18.48-.88.57-1A3.46,3.46,0,0,1,145,19l-.18-.18a.58.58,0,0,0-.17.18,3.1,3.1,0,0,1-.18.26l-.09-.09.22-.61-.22-.22-.3.62-.14-.09a.53.53,0,0,1,0-.27c0-.08.09-.65.09-.65l-.26-.13a2.15,2.15,0,0,0-.13.3,4.35,4.35,0,0,1-.18.57l-.13-.09a1.71,1.71,0,0,1,.05-.43c0-.13.13-.48.13-.48l-.31-.09a2.37,2.37,0,0,1-.22.57c-.05,0-.09.3-.09.3l-.13-.13.13-.74h-.39l-.05.7a1,1,0,0,0-.3,0,2.27,2.27,0,0,0-.44.26l-1.06-.08v.7s-.39.22-.57.35-1,.61-1,.61l-.53-.17a1.37,1.37,0,0,1-.35.61,13.56,13.56,0,0,1-1.66.75l-.49.3.53,0Zm6.45-.83-.53,1.1.31.22s.35-.57.48-.84a10.83,10.83,0,0,0,.48-1.05l-.35-.26A9.15,9.15,0,0,0,144.9,20.05Zm.92.83a7.61,7.61,0,0,1-.53.88l.53.22a3.82,3.82,0,0,1,.31-.57c0-.09.44-1.18.44-1.18l-.31-.31S145.91,20.67,145.82,20.88Zm1.23-.13a6.42,6.42,0,0,1-.31.75c-.08.17-.3.74-.3.74l.35.09s.26-.57.31-.74.17-.75.17-.75Zm3-.61c.13-.05.13-.62-.31-.66s-1.27.18-1.27.88.26,1.05.61,1.14c.84.17.88-.22.88-.22s-.79-.13-.79-.7.26-.57.57-.62S150.08,20.14,150.08,20.14Zm-.4.61c0,.09.18.05.18.05s.48-.18.53-.18.13,0,.17.05.66,1.31.66,1.35,0,.18,0,.18a1.56,1.56,0,0,0-.26.13l.08.18a1.82,1.82,0,0,1,.36-.13c.17-.05.26-.36.21-.57a7.82,7.82,0,0,0-.52-1.28.5.5,0,0,0-.66-.21c-.17.08-.7.26-.7.26S149.64,20.67,149.68,20.75Zm.75,1.14a1.31,1.31,0,0,0-.48.4c-.18.17,0,.61.17,1.22s.35.71.57.66l.84-.3c.13-.05-.05-.22-.05-.22a2.57,2.57,0,0,0-.3-.09.49.49,0,0,1-.36-.26c0-.09-.35-1-.35-1.06s0-.13.05-.13a1.26,1.26,0,0,0,.35-.17.19.19,0,0,0,0-.09s-.09-.13-.09-.13Zm.92,1.32c.05.13.44,0,.44,0s.44.7.53.92a.6.6,0,0,1-.27.66c-.22.08,0,.3.18.22s.44-.31.57-.35.13-.4,0-.75a9,9,0,0,0-.57-1.14.4.4,0,0,0-.44,0c-.22.09-.48.22-.48.22Zm1.76,2.1c-.05-.22-.4-.09-.31.09s0,.31.18.44.43.18.35-.09A3.92,3.92,0,0,0,153.11,25.31Zm-1.36-1.22a5.85,5.85,0,0,0-.57.61.78.78,0,0,0,0,.92c.18.31.35.22.44.17s.26-.17.22-.26-.13-.31-.18-.48a.7.7,0,0,1,.22-.57,1,1,0,0,0,.22-.26S151.92,23.91,151.75,24.09Zm-1.54-4.87c0,.09,0,.22.26.13a4.9,4.9,0,0,0,.79-.44s.22.66.66.66a10.58,10.58,0,0,0,1.58-.13v.26a4.74,4.74,0,0,0-.88.53c-.13.17-.26.57,0,.48s.92-.39.92-.39l.05.3a7,7,0,0,0-.75.61c-.08.14,0,.36.18.31a2.56,2.56,0,0,1,.79,0l.13.39-.61.35c-.09.09-.05.4.21.35h.53l.13.58a4.84,4.84,0,0,0-.52.26c-.14.08-.14.31.13.35a2.77,2.77,0,0,1,.66.13l.13.4s-.18.13-.4.26-.17.35.14.35.52,0,.61.09.17.3,0,.3a1.38,1.38,0,0,0-.39.09.3.3,0,0,0,.13.57,3,3,0,0,0,1.23-.18l.13.27s-.53.26-.66.35-.22.35.22.79a3.78,3.78,0,0,0,1.45,1.05h.35l-.39-.88c-.09-.17-.27-.65-.35-.87s.17-.13.22-.05a7.93,7.93,0,0,0,1,1.27c.17.14.31.09.17-.26s-1-1.71-1.09-2a2.8,2.8,0,0,1-.22-.66,4.07,4.07,0,0,1-.75-.66,23.06,23.06,0,0,1-1.32-3c-.17-.62-.48-2.68-.83-2.81s-1.1-.74-1.84-.48a5.27,5.27,0,0,0-1.36.74c-.13.14-.13.31-.27.31A1.83,1.83,0,0,0,150.21,19.22Zm5.27-2.15a1.19,1.19,0,0,0,0,.7,9,9,0,0,1,.26,1.62c0,.27-.18.53.13.53a1.19,1.19,0,0,0,.79-.26,1.29,1.29,0,0,0-.08-.88,7.33,7.33,0,0,0-.58-1.31c-.17-.14-.17-.09-.3-.23A.27.27,0,0,0,155.48,17.07ZM136.26,10.4a5.75,5.75,0,0,0,.39.66c.09.14.22.35.48,0a1.27,1.27,0,0,1,1-.22c.27,0,.53.05.53-.13s-.4-.31-.62-.39a.63.63,0,0,0-.57,0c-.17.08-.7.3-.78.22s-.31-.49-.4-.49A.36.36,0,0,0,136.26,10.4Zm.87,1.19c-.09.22-.09.57-.48.74a9.42,9.42,0,0,0-1,.44c-.13.18-.26.26-.31.53s.09.13.27,0a3.14,3.14,0,0,1,1.14-.17,1,1,0,0,0,.92-.4,3.25,3.25,0,0,0,.22-.74l.22-.53Zm-5.39-4.47-.31.43.26,3.2.26-.43Zm-.57.92-.36.3.05.92.26.22Zm3.15.92-1.84,1v.22L134,9.53Zm-1.79,1.49-.09.22.92-.18.35-.52Zm-.58.66.23.26,1.75.22.31-.35Zm.66,1,.79-.08.31-.27h-1.27Zm28.53,5.75a4.86,4.86,0,0,0,.7,1.18c.26.31.48.48.74.48a6.78,6.78,0,0,0,1.45-.83c.18-.13,1-.44.84-.44l-1.54.09a5.62,5.62,0,0,0,.44-1.05c0-.35.26-1.32.26-1.32a4.27,4.27,0,0,0-.61.79c-.13.31-.88,1.45-.88,1.45l-1.45-.83A3,3,0,0,1,161.14,17.86Zm2,1.93s0,.74.22.66.79-.53,1-.62a9.68,9.68,0,0,0,1.23-.39s-.79,0-1.23.08S163.11,19.79,163.11,19.79Zm.31,4.91c-.44.31-.26.39-.13.39s2.06,1,2.19,1.06.48-.26.31-.36-1.45-.92-1.45-.92.62-.48.83-.61a2.54,2.54,0,0,0,.66-.83Zm-7.29-3.29-.08.66.13.26.35-.61.35.17-.35.75.53-.44h.7a.4.4,0,0,1,.13-.26c.09-.13.31-.4.31-.4l.3.13s.31.09.18-.13a2.55,2.55,0,0,0-1.62-.87,2.07,2.07,0,0,0-1.63.74Zm2-3.81c-.22.09-.26.3-.31.61a5.51,5.51,0,0,1-.08.92c-.09.26-.4.92-.4.92l.53.13s.44-.7.57-1a1.72,1.72,0,0,0,.18-.44l.21.13s-.21.48-.3.66-.31.61-.31.61l.26.05a5.11,5.11,0,0,0,.44-.57c.09-.18.4-.66.4-.66l.26.09s-.3.52-.44.7-.31.7-.31.7l.18.13a7.84,7.84,0,0,0,.7-.79,3.6,3.6,0,0,0,.31-.57l.26.09a2.19,2.19,0,0,1-.3.74,2.16,2.16,0,0,0-.31.75h.18l.61-.61a1.4,1.4,0,0,0,.22-.44l.39.22s-.21.26-.3.39l-.75.7.26.18a6.84,6.84,0,0,0,.71-.53,4.07,4.07,0,0,0,.43-.43l.22.43s-.43.27-.52.35a2.22,2.22,0,0,0-.35.44l.39.13a2.74,2.74,0,0,1,.7-.61c.35-.13.49-.48.27-.53s.08-.26.08-.48-.26-.3-.52-.3.13-.49-.18-.62a1,1,0,0,0-.65,0c-.14,0,0-.44-.18-.57a1.73,1.73,0,0,0-.7,0S160,18,159.69,18a2.68,2.68,0,0,0-.66.17S158.68,17.38,158.15,17.6Zm1.1,3.59-.09.09s-.48,1-.61,1.36a5.38,5.38,0,0,1-.71.92,3.43,3.43,0,0,1-.26-.31,2.09,2.09,0,0,0-.52-.44,7.15,7.15,0,0,1,.22,1,8.74,8.74,0,0,0,.26,1.27,8.82,8.82,0,0,0,1.8-.57,5.59,5.59,0,0,0,1.4-1.18,2.53,2.53,0,0,0-.61-.09c-.26,0-1,.09-1,.09a3.08,3.08,0,0,0,.14-.92V21.37Zm2.19.83s-.26,1.63-.39,2.24-.17.92-.17.92a3.32,3.32,0,0,1,.83.26c.35.22,1.14.58,1.14.58l-.18-.53-.79-.48s1.06-.84,1.54-1.27a3.16,3.16,0,0,0,.61-1,14.61,14.61,0,0,0-1.71.78l-.48.31Zm-1,2.46a8.56,8.56,0,0,1-1,.61c-.35.18-1,.53-1,.53s.88.66,1.23.88,1.1,1.05,1.1,1.05l.13-.09s-.31-.57-.49-.83a5,5,0,0,0-.65-.79s1,.35,1.27.4h.7a2.92,2.92,0,0,1-.35-.31c-.26-.22-1.28-.92-1.28-.92l.4-.4Zm-9.39,3.24a2.25,2.25,0,0,0,2.24,1.37c.92,0,1.09-.44,1-.66a2.9,2.9,0,0,0-.31-.84,2.56,2.56,0,0,0-1.89-.7C151,26.89,151,27.37,151.09,27.72Zm.79-.35c.08.22.48.8.57,1a.9.9,0,0,0,.61.49c.44-.05.4-.09.31-.35a10.32,10.32,0,0,0-.48-1,.71.71,0,0,0-.62-.4S151.83,27.11,151.88,27.37Zm-4.61-1.22s.31.13.35.3.44,1.36.48,1.54-.3,0-.3,0v.14l1.8.3,0-.09s-.35-.13-.35-.21-.17-.53-.17-.53a4.6,4.6,0,0,1,.7.35c.22.18.39.7.53.7s1.27.18,1.27.18l-.05-.13a1.92,1.92,0,0,1-.39-.18,2.59,2.59,0,0,1-.4-.66,1.53,1.53,0,0,0-.39-.31s.48-.39.39-.52,0-.35-.57-.53-3-.61-3-.61ZM144,25.44s.35.14.4.31.22,1.23.26,1.45-.44,0-.44,0l0,.18a16.3,16.3,0,0,0,2.37.48c.39,0,.79-.31.79-.44a4.06,4.06,0,0,0-.13-.79,1.54,1.54,0,0,0-.93-.78c-.43-.1-2.06-.53-2.41-.62a.14.14,0,0,1-.09-.05Zm4.79,1.1.22.7a4.68,4.68,0,0,0,.61.13.24.24,0,0,0,.18-.35.53.53,0,0,0-.45-.39A2,2,0,0,0,148.81,26.54Zm-5.49-.22.66.79.35-.57-.57-.7Zm-3.55-2.41v.18a1.86,1.86,0,0,1,.43.43,6.48,6.48,0,0,1,.18,1.1c.05.35-.39.22-.39.22V26l1.4.44v-.17s-.26-.09-.26-.22-.13-1.1-.13-1.1l1.44,1.89.75.21s-.31-1.66-.31-1.8.49.09.49.09v-.17l-1.5-.48,0,.17.35.35c0,.09.13,1,.13,1l-1.14-1.67L139.9,24Zm-1.41.18a3.9,3.9,0,0,0,.13.87c0,.26.13.48.35.57s.36,0,.31-.22-.09-.83-.13-1a.66.66,0,0,0-.44-.53C138.41,23.74,138.36,24,138.36,24.09Zm-1,.13c0,.22.52,1.49,1.53,1.53s1.06-.31,1.06-.53a1.44,1.44,0,0,0-.18-.83,2.32,2.32,0,0,0-1.19-.83C137.44,23.34,137.4,24,137.4,24.22Zm-4.26-.53s.31,0,.35.09a13.08,13.08,0,0,1,.44,1.27c.09.31-.48.35-.48.35l0,.18,1.27-.44-.09-.13s-.3.13-.39-.14a5.73,5.73,0,0,1-.31-1l1.23,1.18h.31l.53-1.49a8.15,8.15,0,0,1,.17,1.14c0,.35-.26.22-.26.22l.09.22h.61c.22,0,1,.08,1,.08l-.09-.13s-.4-.17-.49-.39-.17-1-.21-1.19.52-.17.52-.17l0-.17L136,23.08l-.48,1.05-1.06-.92-1.23.3ZM122.65,1.46a1.36,1.36,0,0,1,.44-.13,1.05,1.05,0,0,1,.35.17l.79-.88L122,.45Zm-1.18.92,1-.31V1.85l-.87-.7Zm2.28-.22.92.35,0-1.27-.92.74Zm-.61.26c.56,0,.43-.7-.09-.65S122.52,2.42,123.14,2.42Zm-1,1,1.93,0c0-.66-.57-.79-1-.79A1,1,0,0,0,122.17,3.43Zm2.72.27a4.82,4.82,0,0,0-.61,2.1l.22,0s.52-1.36.7-1.66A3.79,3.79,0,0,1,126.34,3a.56.56,0,0,0,.13.17c.09.09.13,0,.13,0l-.22-.88A5.92,5.92,0,0,0,124.89,3.7Zm2-.93c.09.31.48.18.48-.09S126.87,2.47,126.91,2.77Zm1-.26a.25.25,0,0,0,.49,0C128.45,2.16,128,2.2,128,2.51Zm1.14-.13c-.22.22.05.62.31.3S129.23,2.25,129.1,2.38ZM130,3c-.21.13.14.61.36.39S130.2,2.91,130,3Zm.49,1.22c0,.35.53.31.53,0S130.51,4.05,130.51,4.26Zm-4.57.22a8.61,8.61,0,0,1,2-.61c.92-.13,1.63.79,1.36,1.4A5.09,5.09,0,0,1,128,6.76l.27.18a10.39,10.39,0,0,0,1.49-1.18,1.78,1.78,0,0,0-.13-2.42c-1-.83-2.72-.13-3.12.31-.26.26-.61.7-.61.7Zm1,1.89c.74.26,1.32-.18,1.27-1.1s-1.36-1-1.62-.66a16,16,0,0,0-1,1.28A11,11,0,0,0,126.91,6.37Zm-3-.57c.14-.39.14-.92-.83-.92s-.61.92-.61.92S123.44,5.84,123.92,5.8Zm-1.49-2c-.22,0-.09.18,0,.4a1.5,1.5,0,0,0,.13.39l.44,0s0,.08,0-.22.4-.18.4,0v.27l.39,0a1.09,1.09,0,0,0,.22-.39c0-.27,0-.44-.31-.44S122.43,3.78,122.43,3.78Zm-2.37-1.62a4.31,4.31,0,0,0-.3.75c-.09.17,0,.26.13.17a.28.28,0,0,1,.17-.08s.44,0,.92.74c.22.35,1,2.1,1,2.1h.22a7,7,0,0,0-.7-2.32A4.73,4.73,0,0,0,120.06,2.16ZM120.85,6s-.79-1.76-1.84-1.54a1.07,1.07,0,0,0-1,1.36,1.33,1.33,0,0,0,1.49.66C120.15,6.28,120.85,6,120.85,6ZM120,3.52A2.66,2.66,0,0,0,118.09,3,2.25,2.25,0,0,0,116,5.14c.13,1.1,2,2,2,2l.22-.14A4.45,4.45,0,0,1,117,5.67c-.22-.62-.18-1.19,1-1.67s2.86.57,2.86.57l0-.09Zm-1.4-1.14c-.14.35.26.53.39.22S118.7,2.2,118.62,2.38Zm-1.28.09a.27.27,0,1,0,.53-.05C117.74,2.07,117.3,2.2,117.34,2.47Zm.27,5.17c-.27.13-.09.92.74.48a9,9,0,0,1,4.74-1.36,8.19,8.19,0,0,1,5,1.32.34.34,0,0,0,.17-.66,10.41,10.41,0,0,0-5.22-1.27A11.38,11.38,0,0,0,117.61,7.64ZM116.38,3c.26.43.66.08.52-.18S116.2,2.6,116.38,3Zm-.79.61c.35.39.74.09.53-.27S115.32,3.34,115.59,3.61Zm-.18,1.05c.31.09.35-.31,0-.4A.2.2,0,0,0,115.41,4.66Zm0,5.31.26-.31.14-.88-.27-.39Zm-.74.22.35.13.22-2.15-.49-.75Zm-2.11.13,2.11.7.17-.27-2.5-.78Zm.48.74,1.19.44.17-.26-1.58-.49Zm-.22,1,.27.3.92-.22.13-.3Zm-21.1,6.88a3.6,3.6,0,0,0-.84-.57,2.43,2.43,0,0,0-1.58,0c-.44,0-1,.66-1,.66l0,.92a3.29,3.29,0,0,1,1.22-1.18,4.45,4.45,0,0,1,2.07.26Zm-1.36.31c-.84-.26-1.19.3-1.58,1a.67.67,0,0,0,.92.92l2-1.58S91.14,19.44,90.36,19.22ZM88.2,22c.8.75,2,.18,2.72-.35a20,20,0,0,1,2.07-1l.09.26s-1.14.75-1.5,1a7,7,0,0,0-1.4,1.4c-.09.22.83-.35,1.23-.61s2.41-1.19,2.41-1.19l.22.27s-1.84,1.05-2.46,1.49-1.4,2.1-1.14,1.75a14.54,14.54,0,0,1,2.11-1.49,10.42,10.42,0,0,1,2-1l.18.3a16.52,16.52,0,0,0-2.2,1.36c-.56.44-1.22,1.45-1,1.32s1.27-.79,1.71-1a15,15,0,0,1,2-.75l0,.26s-1.71,1.23-1.88,1.41-.13.35.39.22a21.27,21.27,0,0,0,2.07-1l.08.22-.92.83s1.32-.22,1.71-.3,2.42-.7,2.42-.7S98,24,97.2,23.65s-2.11-2.5-2.5-3.82a1.22,1.22,0,0,0-1.89-.66c-.22.18-1.84,1.67-2,1.8a3,3,0,0,1-2,1c-.88-.09-.66-1.71-.66-1.71A1.28,1.28,0,0,0,88.2,22Zm-5.35-9c0,.17-.09.3.53.48a4,4,0,0,0,1.49.18.52.52,0,0,1,.57.65,5,5,0,0,0-.18,1.28c.09.17.4.7.4.7l.26-.13s-.48-.8-.35-1.23.13-1.23-.09-1.41-.26-.3-.65-.22a4.1,4.1,0,0,1-1.28-.13,3.1,3.1,0,0,1-.7-.22Zm1.4,0c.27,0,1.41,0,1.67.31a1.81,1.81,0,0,1,.18,1.49c-.13.66.44,1.8,1.27,1.53s1.45-1,1.76-1.09a11.16,11.16,0,0,1,3.29-.35,1.93,1.93,0,0,1,1.66,1.18,4,4,0,0,1,.22,1.8c-.17.44.44-.13.49-.48s-.22-2.15-1.06-2.63A4.16,4.16,0,0,0,91,14.31a5.61,5.61,0,0,0-2.11.44c-.26.26-.48.26-.48.17s-.13-.87-.26-1.23a1,1,0,0,0-.7-.61,1.53,1.53,0,0,1,.3.61c0,.22.13.53.22.88a2.35,2.35,0,0,0,.13.57l-.35.09s-.17-.57-.35-1.41a1.85,1.85,0,0,0-1.49-1.18A4.6,4.6,0,0,0,84.3,13ZM88,18c.09.17-.13.3-.13.3l.49.18s.3-.18.48-.31a5.48,5.48,0,0,1,1.54-.26c.39,0,1.75.52,2.45.61s1-.52,1-1.18a1.86,1.86,0,0,0-1.44-1.84,9,9,0,0,0-3.16.52c-.13,0-.4.79-.75,1.14a1,1,0,0,1-.92.27S87.9,17.82,88,18Zm-9.74-.44a1.81,1.81,0,0,0,.53.53s0,0,0,.13.3.17.3.17l-.13.22.26,0a4,4,0,0,0,.4.14l-.4.26a.67.67,0,0,0,.36.13h.65l-.3.31a1.48,1.48,0,0,0,.48,0,5.75,5.75,0,0,0,.92-.31,2,2,0,0,0-.52-.53c-.23-.08-.62-.26-.62-.26a.43.43,0,0,0-.18-.17c-.08-.09-.43-.09-.57-.09a1.46,1.46,0,0,1-.61-.44,3.21,3.21,0,0,0-.61-.57S78.07,17.16,78.24,17.51Zm3.69-.66c-.05.57.39,1.14.57,1.14s.31-.35.22-.79a18.29,18.29,0,0,1-.4-1.8A6.35,6.35,0,0,0,81.93,16.85Zm3.33,2.28c-.13.13.09.62.4.35S85.48,18.87,85.26,19.13Zm.14,1.23c.35.13.52-.44.21-.53S85.09,20.23,85.4,20.36Zm-1.15-.75c.31.14.58-.3.31-.44S84,19.48,84.25,19.61Zm0-.74c.18.13.22-.27.31-.7s-.22-.57-.52-.7-.57.39-.62.52-.57.26-.92.53a.73.73,0,0,0,0,1c.26.18.74-.17.7-.26s-.27-.13-.27-.13.22-.22.4-.13.35.35.48.39.35-.22.31-.3a3.17,3.17,0,0,0-.39-.27s0-.17.08-.22A3.1,3.1,0,0,1,84.25,18.87Zm1-.66.22-.22,0,.79h.13a3.06,3.06,0,0,0,.08-.4,2.57,2.57,0,0,0,.09-.52h.4s-.31.79-.35.92,0,.18.13,0a7,7,0,0,0,.44-.83l.35.13-.13.26a2.84,2.84,0,0,1-.48.62.13.13,0,0,0,.17.09,7.83,7.83,0,0,1,1-.75c.44-.26.31-.44.18-.61a2.2,2.2,0,0,0-.75-.66A1.56,1.56,0,0,0,85.48,17a1,1,0,0,0-.65.92,6.23,6.23,0,0,0,.08,1c.09.05.22-.09.22-.09Zm-.44,1.45c0,.35.44.43.44.09S84.83,19.52,84.78,19.66Zm-1.4-.09c-.27.13-.13.44.09.31S83.51,19.48,83.38,19.57Zm.44.13c-.09.18,0,.44.3.22S83.86,19.52,83.82,19.7Zm.48.22c-.09.17.22.44.35.17S84.39,19.75,84.3,19.92ZM83,20.58c.22,0,.22-.53,0-.49S82.81,20.58,83,20.58ZM82,20a.35.35,0,0,0-.18.44c0,.17.13.48,0,.57a4,4,0,0,0-.66.83c0,.17-.13.39.13.44a3.65,3.65,0,0,0,1.06-.22l.48-.26a.88.88,0,0,1,0-.27l.22-.22a.45.45,0,0,1-.13-.26.34.34,0,0,1,.09-.22s-.31-.13-.35-.35a3.74,3.74,0,0,1,0-.48Zm-2.59.87s-.13,0-.09.14.88.26.88.26-.27.09-.09.17a1,1,0,0,0,.48.05s-.13.35,0,.35a3.82,3.82,0,0,0,.79-.75c.13-.13-.17-.3-.39-.3s-1.76-.13-1.85-.13Zm4-.7c-.13.27.13.44.35.22S83.51,20.05,83.42,20.18Zm1.41.14c-.18.13,0,.56.22.48S85.09,20.18,84.83,20.32Zm-.71.39c.27,0,.35-.44,0-.39S83.9,20.67,84.12,20.71Zm.09.39c0,.49.62.22.57,0S84.25,20.62,84.21,21.1Zm-.22.13c-.35.05-.39.4-.09.4S84.21,21.19,84,21.23Zm-.7.79c.48.05.31-.65,0-.57S82.81,22,83.29,22Zm.09-1.22a.22.22,0,1,0,.35.26C84,20.75,83.55,20.62,83.38,20.8Zm3-1.28a4.33,4.33,0,0,1,.83-.17c.18,0,0,.4-.08.4a5.35,5.35,0,0,0-1,.17l0,.26.92.05c.09,0-.09.35-.13.35a8,8,0,0,0-1,0l-.27.44a6.48,6.48,0,0,0,1,.53c.17.09.09.17.48.17s.84-1.35,1-1.88a1.17,1.17,0,0,0-.13-1.19c-.17-.13-.66.4-.83.53a3.32,3.32,0,0,1-.79.26l-.22.27A1.49,1.49,0,0,0,86.36,19.52ZM85.05,21.1l-.22.31.26.66-.35.17s-.09-.43-.14-.57-.3,0-.3.18a7,7,0,0,1,.09.7H84A3.16,3.16,0,0,1,84,22.2c0-.13-.26-.09-.3,0s0,.44,0,.44l-.53.13.31-.53H83a8.26,8.26,0,0,0-.74.88c0,.09.08.22.39.22s.62-.17,1-.17a6,6,0,0,0,1-.05c.22-.09.27-.13.53-.22s.88-.31,1-.48a.34.34,0,0,0-.13-.31.66.66,0,0,0-.18-.35c-.09-.13,0-.17-.13-.31s-.4-.22-.4-.26S85.05,21.1,85.05,21.1Zm-3.74,4.26c0,.08,0,.35.22.3a2.89,2.89,0,0,0,.58-.17s0,.22.17.22a1,1,0,0,0,.35-.22s-.13.26,0,.22.58-.53.58-.53.17.18.3,0a1,1,0,0,0,.09-.35s.18.18.26,0a1.3,1.3,0,0,0,0-.61s.27-.22.31-.27-.17-.21-.31-.17-1.18.79-1.4.92S81.31,25.36,81.31,25.36Zm4.52-1.93c0-.13.23-.22.23-.05s0,.71,0,.71a.34.34,0,0,0,.22-.09,1.59,1.59,0,0,0,.13-.66c0-.13.26.13.26.22v.79a3.14,3.14,0,0,0,.57,0c.09,0,.09-.36,0-.53a1.42,1.42,0,0,0-1.1-.92c-.66-.05-.7.48-.66.65S85.83,23.56,85.83,23.43Zm2.42,1.71a1,1,0,0,0,.83.79c.62.09.7-.18.48-.27a9.39,9.39,0,0,1-1-.48C88.42,25.05,88.25,25,88.25,25.14Zm-.44-.83V24c0-.09.13-.22.17-.09l.14.27h.08v-.84c0-.13.31-.17.31-.08v.3c0,.14,0,.35.22.22a1.39,1.39,0,0,0,.44-.57c.09-.22-.35-.83-1.23-.83s-.35,1.71-.26,1.89Zm.57.52a1.42,1.42,0,0,0,1.14,0A.86.86,0,0,0,90,23.74c-.09-.23-.65-.44-.79-.09a6.49,6.49,0,0,1-1.31,1.09A1.93,1.93,0,0,1,88.38,24.83Zm-.92.39s0,.31-.09.67-.57.48-.44,1,.62.18.92,0A.77.77,0,0,0,88,25.79a1,1,0,0,1-.26-.7Zm-1.4-.74a1.24,1.24,0,0,1-.66-.61c-.05-.09-.75.35-.88.61s.66,1.1,1,1S87,24.7,87,24.7A6.14,6.14,0,0,1,86.06,24.48Zm1,.79s0,.09-.49.17a1.37,1.37,0,0,0-1.14.71.48.48,0,0,0,.49.7,7.14,7.14,0,0,0,.87-.61,2.65,2.65,0,0,0,.44-1.1ZM97.55,3.61a.72.72,0,0,0-.22,1c.22.35.53.35.88.18A.54.54,0,0,0,98.34,4C98.25,3.74,97.86,3.43,97.55,3.61Zm2-.4c-.08.13.14.4.14.4a.82.82,0,0,0-.22.44.41.41,0,0,0,.18.39,4,4,0,0,1,.78-1.18c.4-.26.66-.53,1-.44a.74.74,0,0,1,.39.79,3.44,3.44,0,0,1-.17.39,4,4,0,0,0,.52-.3c.09-.05.58.17.58-.09s-.49-.13-.53-.22a.42.42,0,0,0,0-.22c0-.13-.08-.31-.08-.31s.39-.18.22-.44-.44.09-.44.09l-.4-.13s.31-.48,0-.53-.31.53-.31.53l-.61.17s-.18-.39-.35-.3.08.57.08.57l-.35.39S99.66,3,99.52,3.21Zm-2.36,2a3.47,3.47,0,0,0-1.06-.27c-.48,0-.83,0-1.31.92S96.32,7.2,96.32,7.2a6.27,6.27,0,0,1-1-.7.75.75,0,0,1,.36-1,3.67,3.67,0,0,1,1.49.09Zm-.27.74c-.13-.09-1.18-.57-1.27,0a.67.67,0,0,0,.66.84c.26-.09.48-.35.35-.57S96.89,5.93,96.89,5.93Zm3.43-1.84c-.31.52-.14.61-.14.61s.22-.3.36-.35.26.35.26.35a1.43,1.43,0,0,0,.39-.39c.09-.18.31-.92,0-1C101,3.21,100.58,3.61,100.32,4.09Zm2.19,0c-.31,0-.44.26-.62.44a1.3,1.3,0,0,1-.61.35s0,.35,0,.35.09.44,0,.48.31-.09.48-.17a1.35,1.35,0,0,0,.58-.62c0-.26.39-.35.43-.17s-.17.57,0,.61.57-.22.61-.35S102.82,4.09,102.51,4.09Zm2.15,2c0,.18,0,.49,0,.62s-.35.39-.05.44a6.19,6.19,0,0,0,1.19-.31,4.11,4.11,0,0,0,1-.13c.26-.09.3-.27,0-.4s-.35-.35-.79-.35S104.7,5.89,104.66,6.06Zm-.39,1.71c0,.13.79,0,1.36.18a5.18,5.18,0,0,0,1.53.39,2.35,2.35,0,0,0,1.23-.22c.44-.26.57-.35.44-.39a5.56,5.56,0,0,1-1.14-.22,2.31,2.31,0,0,0-1.41-.35,10.49,10.49,0,0,0-1.71.39C104.35,7.69,104.27,7.64,104.27,7.77Zm.83.88c0,.09.35.39.66.79a4.42,4.42,0,0,0,1.45,1.14,3.2,3.2,0,0,0,1.57.31c.4-.05.75-.31.4-.35a1.36,1.36,0,0,1-.92-.44c-.35-.35-.35-.62-.92-.79S105.14,8.47,105.1,8.65Zm1.71,2.5a1.47,1.47,0,0,0,.26,1.27,12.08,12.08,0,0,1,1.14.57,2.82,2.82,0,0,1,.71.75c.13.26.13-.44,0-.71s-.57-.87-.66-1-.17-.22-.48-.31S107,11.06,106.81,11.15Zm.22,2.37c.13.26.7.74.84,1a5.6,5.6,0,0,0,.91,1.27c.36.36.53.36.36-.3a3.17,3.17,0,0,0-.88-1.54A4,4,0,0,0,107,13.52Zm-1.8-.71s.4.58.61.93.4.44.49.79a4,4,0,0,0,.57,1.18,6.48,6.48,0,0,0,.52.53,9,9,0,0,0,0-1.54c-.09-.26-.48-.35-.57-.52s.09-.27-.26-.53A4.68,4.68,0,0,0,105.23,12.81Zm-9.39-.43a.69.69,0,0,0,.26,1c.62.4,1,.4,1.06.18s.13-.66-.13-.79a1.41,1.41,0,0,0-.58-.27C96.28,12.42,95.93,12.29,95.84,12.38Zm2-3.38,0,.31s.44.09.74.17a2.73,2.73,0,0,0,.75,0,1.06,1.06,0,0,1,.31-.57,2.8,2.8,0,0,0,.44-.44L99.79,8a7.2,7.2,0,0,1-.83.48C98.78,8.56,97.81,9,97.81,9Zm1.63,1.14c.22,0,.31-.39,0-.35S99.22,10.14,99.44,10.14Zm-.13.44c0,.17.31.13.39,0S99.35,10.32,99.31,10.58Zm-.14.44c-.13.26,0,.53.35.26S99.26,10.89,99.17,11Zm-.21.7c-.14.09-.18.48.13.26S99,11.63,99,11.72Zm-.36-.17c.18.13.22-.4.09-.4S98.47,11.41,98.6,11.55Zm.49-.93c-.18,0-.22.22,0,.22s.18-.17,0-.17C99,10.67,99.26,10.67,99.09,10.62Zm-.79-1c-.4-.09-.71-.18-.71-.18l.09-.79A1.39,1.39,0,0,1,98,8.61l.4-.14-.13-.26a1,1,0,0,0-.44.13,2.84,2.84,0,0,1-.61.13l-.09,1.37s.61,0,1,.08a5.89,5.89,0,0,1,.79.22L99,9.92A1.34,1.34,0,0,0,98.3,9.66Zm1.84-.44-.09.09.49.7a3.11,3.11,0,0,1,.7,1.54,2.26,2.26,0,0,1-.49,1.31c-.13.09.4-.09.49-.22s.61-1.18.17-1.8S100.14,9.22,100.14,9.22Zm-.57,6c-.09.18,0,.4-.22.49a4.65,4.65,0,0,1-.83.39c-.09.05.08.13.48.22s1.18-.13,1.27-.57l.09-.4Zm-2.06,3A4.39,4.39,0,0,0,98.65,18c.44-.13,1-1,1-1a3.86,3.86,0,0,0-.4-.13c-.3,0-.48.18-.83.31s-.57.48-1,.48a2.63,2.63,0,0,0-.79.22l0,0A1.76,1.76,0,0,0,97.51,18.17Zm-1.67,2.41c.09,0,.48-.4.31-.49S95.71,20.53,95.84,20.58Zm.22-1a3.69,3.69,0,0,0,2.24.18,3.22,3.22,0,0,0,1.53-1.41.91.91,0,0,0,0-.43,5.61,5.61,0,0,1-1.14.61,12.9,12.9,0,0,0-1.53.48,1.61,1.61,0,0,1-.66.35C96.28,19.44,95.67,19.39,96.06,19.61Zm4.74-4.56c-.62.62-.13,1.45,0,2a1.35,1.35,0,0,1-.08.88,2.4,2.4,0,0,0,.79-.62c.17-.3,0-.39,0-.79a2.46,2.46,0,0,1,.18-1.09c.17-.31.44-1.14.52-1.32A3.79,3.79,0,0,0,100.8,15.05Zm-.92-2.94-.44.35.44.62Zm-3-5.92a2.22,2.22,0,0,1,.26,1.06c-.08.3-.48.61-.44.7a.36.36,0,0,0,0,.17,5.45,5.45,0,0,0-.66.62c-.22.3-.84,1.53-.84,1.53a11.24,11.24,0,0,0,1.06-.43c.22-.09.17.17,0,.3a1.92,1.92,0,0,0-.3.61c0,.18-.18.93-.18.93a3.11,3.11,0,0,1,.83-.71,10.61,10.61,0,0,1,1.54-.3c.09,0-.31-.18-.44-.18l-.7,0v-.18a1.66,1.66,0,0,1,.66-.08c.22,0,1,.17,1,.3s-.09.57-.35.62a1,1,0,0,0-.61.35,1.58,1.58,0,0,0-.31,1,.85.85,0,0,0,1.1.3A6.32,6.32,0,0,0,100,11.5a1.37,1.37,0,0,0,0-1c-.13-.35.44-.39.53-.22a4,4,0,0,1,.57,1.45,2,2,0,0,1-1.1,1.45c-.88.48-1,.61-1.14.57s-.35.52,0,.65a2.22,2.22,0,0,0,1.71-.43c.44-.44,1.45-1.8,1.4-2.41a5.2,5.2,0,0,0-1.22-2.29c-.27-.22.17-.22.44,0a4.67,4.67,0,0,1,1.18,1.53,1.46,1.46,0,0,0,.13.45l.27-.09a1.11,1.11,0,0,1,1.09,0c.53.3,1.23,1,1.54,1.09a1,1,0,0,0,.66.09c0-.09-.22-.22-.31-.26a9.56,9.56,0,0,1-1-1.1,2.61,2.61,0,0,0-1.14-1,1.24,1.24,0,0,0-.66.08l-.17-.39s.92,0,1.18,0a16.6,16.6,0,0,1,1.76,1.19.84.84,0,0,0,.74.17.13.13,0,0,0,0-.26,3.86,3.86,0,0,1-1.19-1.23c-.31-.61-.92-1.58-1.75-1.36a3.88,3.88,0,0,0-1.32.61l-.18-.35s1.06-.57,1.32-.74a2.43,2.43,0,0,0,1-1,1.06,1.06,0,0,0-.05-.66c0-.17-.26-.44-.35-.3s-.26.74-.48.83a7.54,7.54,0,0,0-1,.39c-.31.22-1,.84-1,.84l-.3-.31s.7-.48,1-.7.58-.18.66-.57.18-.75,0-.7-.17.26-.3.35a7.83,7.83,0,0,0-1.06.3,2.4,2.4,0,0,0-.66.53,1.92,1.92,0,0,0-.22.4h-.26a4.93,4.93,0,0,0,.66-.93,3.19,3.19,0,0,0-.13-1.4c-.18-.22-.31,0-.35.09s.13.74,0,1-.75,1.1-.75,1.1l-.18-.09a2.07,2.07,0,0,0,.36-.66c0-.26.13-1.09-.18-1.31S99,4.53,99,4.61s.31.53.22.93-.13.52-.18.7a5,5,0,0,0-.08.57h-.31A2.49,2.49,0,0,0,98.78,6a1.05,1.05,0,0,0-.48-.75c-.31-.17-.62-.22-.66-.08S98,5.8,98,6a2.19,2.19,0,0,1,0,.75A2.65,2.65,0,0,0,98,7l-.18,0a.69.69,0,0,0-.17-.52A1.34,1.34,0,0,0,96.85,6.19Zm5.62,5.44V12a4.63,4.63,0,0,1,1,.39,3.6,3.6,0,0,1,1,1.27c.09.31.13.49.44.66a2.71,2.71,0,0,0,.92.31c.18,0-.17-.53-.39-.7s-.49-.31-.62-.79a3,3,0,0,0-.83-1.54c-.4-.22-.62-.35-.84-.3A2.91,2.91,0,0,0,102.47,11.63Zm2,2.9a2.12,2.12,0,0,0,0,.56,2.53,2.53,0,0,0,.66,1.15,8.59,8.59,0,0,1,.92,1.05c.21.35.3.61.3.48a3.6,3.6,0,0,0,0-.66,5.72,5.72,0,0,1-.49-1.22,5.1,5.1,0,0,1,0-.62,2.07,2.07,0,0,0-.57-.26A9.18,9.18,0,0,1,104.44,14.53Zm5.27,0c-.18,0-.09.79.08,1.23a3.45,3.45,0,0,0,.71,1,.94.94,0,0,0,.61.36c.31.08.53.13.57,0s-.13-.31-.31-.53a10,10,0,0,1-.83-1.27C110.32,15,110.19,14.53,109.71,14.48ZM112,16.41c0,.13,0,.31.21.31s.22-.44.22-.44a.31.31,0,0,0,.14-.22c0-.17-.22-.17-.22-.17a.34.34,0,0,0-.27-.14S112,16.24,112,16.41Zm-.09,1.45a1.91,1.91,0,0,0-.14.66c0,.13.27.08.27.08s0-.13.13-.56.13-.49,0-.57S111.86,17.73,111.86,17.86Zm-9.3-5.18-.22.53s.56.66.39.92-.75,1.23-.39,1.71a1.57,1.57,0,0,0,1.31.7,2.4,2.4,0,0,0,1.1,0c.08,0-.4-.22-.57-.53s-.53-.83-.44-1.18a1.77,1.77,0,0,0,0-1.18A1.33,1.33,0,0,0,102.56,12.68Zm8.55,5.14c0,.13-.22.61-.26.78s.13.36.26.18.18-.48.26-.7.09-.35,0-.39S111.15,17.69,111.11,17.82Zm-4.47-1.06a5.28,5.28,0,0,1,.35,1.1,11.83,11.83,0,0,1,.13,1.27c0,.09.26.18.35,0s.53-1.75.53-1.8a1,1,0,0,0-.53-.35,4.74,4.74,0,0,1-1-.61A1.3,1.3,0,0,0,106.64,16.76Zm2.93,2.5-.08.7.35.13.22-.48Zm-1.22-2.72c0,.09,0,.27.13.7s.39,1.63.39,1.72v.17s.22,0,.27,0a11,11,0,0,0,.35-2c-.18,0-.57-.35-.79-.44A.48.48,0,0,0,108.35,16.54Zm-3.82.35a6.94,6.94,0,0,0,.44.93c.13.26.61,1,.83,1.27s.39.48.53.43.09-1,0-1.14a2.24,2.24,0,0,0-.92-1C104.75,17,104.53,16.89,104.53,16.89Zm5.44.62a1.13,1.13,0,0,0-.13.83c.13.35.26.83.39.88s.27-.13.18-.35-.09-.62-.13-.79S110,17.51,110,17.51Zm-6.71-.62a4.21,4.21,0,0,0-.09.44,4.25,4.25,0,0,1-.44.88c-.22.48.13,1.27.22,1.49s0,1.45.09,1.4A15.32,15.32,0,0,0,104,19a3.34,3.34,0,0,0-.22-1.18c-.08-.26-.22-1-.22-1l-.22,0Zm-3,1.58a1.15,1.15,0,0,0-.39.4c-.18.17-.49.61-.71.79a4.08,4.08,0,0,0-.65.66c-.18.21-.71.83-.53.78a2.6,2.6,0,0,0,1-.26,4.28,4.28,0,0,0,1.14-1.18,2.84,2.84,0,0,0,.48-1.19A.31.31,0,0,0,100.27,18.47Zm-3.38,1.89a1.77,1.77,0,0,0-.52.61.24.24,0,0,0,.21.4c.14-.09.53-.57.67-.7s.34-.22.3-.35A1.8,1.8,0,0,0,96.89,20.36Zm2.59,1.09c-.22-.08-.39,1.06-.39,1.06S99.7,21.54,99.48,21.45Zm.49,2c0,.13-.09.27.08.31s.22-.18.22-.31,0-.17-.13-.17C100.14,23.3,100,23.34,100,23.47Zm-.62-.66c0,.13-.22.53-.26.62s-.13.26,0,.35.22,0,.26-.18a5.85,5.85,0,0,1,.27-.61c0-.13.17-.35,0-.44S99.39,22.68,99.35,22.81Zm-2.1-1.62c-.09.18-.45.79-.49.92s.09.31.22.13a4.15,4.15,0,0,0,.57-1c.09-.09.13-.22,0-.31A.74.74,0,0,0,97.25,21.19Zm.39.7a1.35,1.35,0,0,0-.26.57.18.18,0,0,0,.3.13c.09-.13,0-.35.27-.43s.26-.4.13-.4S97.68,21.81,97.64,21.89Zm.88.35a3.31,3.31,0,0,0-.44.79c0,.31.31.14.35,0s.31-.57.44-.7a.23.23,0,0,0-.05-.4C98.74,21.85,98.6,22,98.52,22.24Zm3.46-5a1.33,1.33,0,0,1-.35.53,3.14,3.14,0,0,0-.65.87c0,.18-1,1.93-1.1,2.11a2.26,2.26,0,0,0,0,.79c0,.17.18.31.31.22a9.17,9.17,0,0,0,.53-.84,8.89,8.89,0,0,1,1.18-.83,1.6,1.6,0,0,0,.53-1.49,3,3,0,0,1,.09-1.09c.13-.31.13-.71-.13-.75A1.24,1.24,0,0,0,102,17.2Zm8.82,3.07c0,.18,1.06.83,1.19,1a3.81,3.81,0,0,0,.31.61c.13.13.48.13.43.09a4.33,4.33,0,0,1-.17-.83,6.48,6.48,0,0,1,.13-.7c0-.13-.22-1.06-.22-1.06a1.45,1.45,0,0,0-.31-.3C112,19,112,19,111.9,19s-.13.17-.26.39-.31.44-.44.22-.18-.44-.26-.4S110.8,20.09,110.8,20.27Zm-6.32-.83a1.47,1.47,0,0,1-.61.79c-.13,0-.22.39-.4.57a2.63,2.63,0,0,0-.26.61h-.39s0-.26-.09-.66-.17-.61-.26-.66-.31.4-.53.58-1.27,1-1.54,1.14-.26.43-.08.52a.8.8,0,0,0,.66.18,13.56,13.56,0,0,0,1.4-.92c.18-.05.26,0,.22.08s-1.19.92-1.36,1.1-.44.48-.44.61.39.22.7.13a3.93,3.93,0,0,0,.88-.52c.22-.13,1.71-1.27,1.84-1.4s.53-.27.35-.09-.83.79-1,1-.62.57-.4.53a4.49,4.49,0,0,0,.79-.26c.36-.22,1.06-.71,1.41-.92a7.93,7.93,0,0,1,1.27-.62,1.26,1.26,0,0,1,.35.09l-.83.61c-.18.13-.27.4.08.35a8.42,8.42,0,0,0,1.15-.48,3.72,3.72,0,0,1,1-.13.78.78,0,0,0-.31.44c-.13.26.22.17.18.31s.13.3.26.26.13.09.13.26a1.68,1.68,0,0,1-.22.48l.18-.08c.13-.09.26-.13.31-.27s.17.14.17.31a1.08,1.08,0,0,1-.17.48l.13,0c.13,0,.31-.31.35-.4s.13,0,.09.27-.13.7-.13.7.21.09.3-.09a1.87,1.87,0,0,0,.18-.79c0-.13-.57-1.09-.61-1.23s-.27-.3-.09-.3.35.17.61.22l.66.26a.53.53,0,0,1,0,.22c0,.13-.17.39,0,.35a1.31,1.31,0,0,0,.27-.22c0-.13.17,0,.13.17a3.2,3.2,0,0,1-.22.49.29.29,0,0,0,.22-.13c0-.13.22-.31.17-.18a2.38,2.38,0,0,1-.13.57c0,.09,0,.26.09.22s.22-.31.35-.53-.13-.87-.26-1.05a2.73,2.73,0,0,0-.71-.7c-.13-.09.09-.26.27-.22a1.79,1.79,0,0,1,.52.35c.09.09.31,0,.35.18s-.13.39,0,.35a.88.88,0,0,0,.31-.22c.13-.13,0,.26,0,.39s-.26.35-.22.35.22,0,.31-.22.22.05.22.22-.13.27-.27.4,0,.44.14.22.26-.18.35-.44-.31-1-.49-1.45-1.66-1.05-2.23-1.18-3.82-.61-4-.7-.26-1-.7-1A1.48,1.48,0,0,0,104.48,19.44Zm13.78,10.48c0-.13-.26-.44-.52-.53s-.53.09-.4.53.35,1.4.35,1.4a12.54,12.54,0,0,0,1.67.13c.84,0,1.1-.48.35-.87s-1.36.43-1.36.43l-.35-.13a.53.53,0,0,1-.13-.22A5.2,5.2,0,0,0,118.26,29.92Zm2.29-1.45c.08.18.35-.13.61,0s-.09.31,0,.44.22,0,.31,0a.47.47,0,0,0-.09-.57.79.79,0,0,0-.7-.13C120.46,28.3,120.5,28.34,120.55,28.47ZM118,26.67c.22.18.57,0,.3-.26S117.78,26.5,118,26.67Zm3.24-2.89c-.35.53-.74,1.36-.79,1.4s0,.13.22,0a8,8,0,0,0,1.58-1.53c.18-.31.09-.48-.22-.52S121.51,23.25,121.2,23.78Zm.14,1.88A1.28,1.28,0,0,0,122,26a1.76,1.76,0,0,0,.35.05l.4-.31s-.44-.05-.66-.05Zm3.64,1.1c-.13,0-.48.18-.4.35s.53.26.79.4.36-.09.22-.27S125,26.76,125,26.76Zm-7.5,1.36c1,1.27,3.68,2.24,5.13,2.72a9.43,9.43,0,0,0,3.16.48c.13,0,.39-.26,0-.26s-.83-.18-.83-.18,1.58-.83,1.71-1,0-.4-.26-.22-1.93,1-1.93,1l-.66-.13s1.53-.84,1.71-1-.09-.22-.31-.13l-1.8.92-.44-.17s1.32-.66,1.58-.84-.13-.26-.35-.13l-1.58.79-.61-.22a18.89,18.89,0,0,0,1.71-.88c.13-.13-.18-.21-.35-.13s-1.8.88-1.8.88l-.31-.18,2.15-1.05a15.91,15.91,0,0,0,2.11.57,18.08,18.08,0,0,0,3.16.18c.26,0,.75-.62.39-.48a12.5,12.5,0,0,1-2.81-.09,11.71,11.71,0,0,1-3.24-1.06,16.26,16.26,0,0,1-3.78-2.8c-.08-.13-.13-.09-.3.08s.13.84.13.84l-.35.22a.93.93,0,0,0-.36-.14c-.13,0-.39.14-.39.27s.44,0,.48.13,0,.35.27.35.08-.3.08-.3l.49-.31.3.31a4.88,4.88,0,0,0-.61.35,1.7,1.7,0,0,1-.48.17,8.6,8.6,0,0,0-.92.48L117.3,27a3.25,3.25,0,0,0,.35-.26c.09-.09-.09-.35-.17-.26a2.07,2.07,0,0,1-.36.31.84.84,0,0,1-.26-.22c-.09-.14-.48-.18-.44,0C116.55,26.94,116.42,26.81,117.48,28.12Zm1.71-1.27c-.13,0-1.32.61-1.32.61l.17.18,2.11-1-.17-.18S119.32,26.76,119.19,26.85Zm0,.61c-.22.13-.93.4-.93.4l.22.17.88-.35c.31-.13,1.32-.66,1.32-.66l-.27-.17S119.45,27.37,119.19,27.46Zm1.75-.22-1.1.53c-.22.13-1,.48-1,.48l.27.22,2.06-1.1Zm.79.4-.22-.09s-.74.4-1,.53-1,.52-1,.52l.22.18.53-.31c.17-.09.26.18.17.27a4.63,4.63,0,0,1-.44.21l.22.09a3.41,3.41,0,0,0,.44-.22c.18,0,.35.05.26.13a1.66,1.66,0,0,1-.39.22l.48.18,2-1.05-.26-.09a6.43,6.43,0,0,0-.71.31c-.13,0-.21-.18-.08-.27a2.13,2.13,0,0,1,.39-.22l-.26-.17-.4.26c-.13.05-.44-.09-.26-.22A1.34,1.34,0,0,0,121.73,27.64Zm1.27-1s2.9-2.8,3.16-3.07,0-.66-.39-.57a1.94,1.94,0,0,0-.79.48l-2.15,0-.31.53h2l-.13.22H122.3l-.22.3,2,.09-.09.22-2.19-.05-.26.35,2.19.09C123,26.45,123,26.67,123,26.67Zm2.46-.65c.09.08,1.36,1.7,1.49,1.75s.4-.05.35-.18-1.49-2.06-1.49-2.06S125.37,25.93,125.46,26Zm-10.57-6.54c-.14.09,0,.7,0,1a2.92,2.92,0,0,0,.26.79c.09.17.62-.13.57-.26l-.52-1C115.15,19.79,115,19.44,114.89,19.48Zm-1.89.84a1.63,1.63,0,0,0-.09.83,1,1,0,0,0,.09.3,2.4,2.4,0,0,1,.7-.48c.35-.17,1-.39.92-.61a1.37,1.37,0,0,0-.22-.53c0-.13-.26-.08-.44,0A6.35,6.35,0,0,0,113,20.32Zm2.54-.88a.42.42,0,0,0,0,.31c0,.13.13.26.18.39s.22.09.35,0,1.1-.26,1.23-.26.31.13.31.44v.87a1.28,1.28,0,0,0,.13.44s-.31.09-.18.31.44.13.44.13a5.49,5.49,0,0,1,.39.7c.09.18.27.75.18.84l-.83.22c-.18,0-2.42.87-2.72,1.05s-.53.35-.4.57.31.61,1.14.4,3.43-1.19,3.47-1.85a2.63,2.63,0,0,0-.35-1.62c-.22-.26-.66-.53-.66-.61s.26-1.93-.35-2.42a1.15,1.15,0,0,0-1.27-.26A5.21,5.21,0,0,0,115.54,19.44Zm-.09,2.1c-.56.27-.52-.35-.56-.31s-.18.18-.18.36.26.52,1,.3.58-1,.45-1S116.07,21.28,115.45,21.54ZM113.83,24a2.68,2.68,0,0,0,1.32.66c.09-.09-.13-.39-.13-.39l2.32-1a3.13,3.13,0,0,0,.7.13s0-.17-.17-.39a7.91,7.91,0,0,1-.7-1.23,14,14,0,0,1-.18-1.49c0-.09-.13-.09-.17.13a6.55,6.55,0,0,0-.09,1.23l-2.9,1.05a2.32,2.32,0,0,1-.09-.26c0-.18-.21-.66-.21-.57A2.35,2.35,0,0,0,113.83,24Zm.18-1s.17.17.3.17,2.51-.83,2.51-.83l-.09-.31s-1.8.66-2.11.75S114,23.08,114,23.08Zm.53.74a.5.5,0,0,0,.39.09c.13,0,2.15-.88,2.15-.88l-.13-.17-1.28.44Zm4.12-5,0,.18,1.23,0c.27,0,1.32,0,1.58-.08l.44-.09v-.13s-.57,0-.75.08Zm3.2.31a8.21,8.21,0,0,1-1.36.48,8.69,8.69,0,0,1-1.18-.13c-.18,0,0,.18,0,.18a.83.83,0,0,0,0,.22c0,.13,1.27,2.63,1.27,2.63l.14-.13-1.19-2.59.26,0,1.06,2.41,0-.22-.83-2.15h.3l.71,1.75.08-.26-.52-1.49.26,0,.4,1.22.17-.44-.31-.92.27,0,.17.61.18-.43-.09-.4h.18s0,.26.08.09a1.4,1.4,0,0,1,.13-.4A.42.42,0,0,0,121.86,19.13Zm-2.63,1.27a14.53,14.53,0,0,0,.57,1.45l.53,1,.08-.08a3.11,3.11,0,0,0-.21-.31c-.09-.18-.88-2.33-.88-2.33A.89.89,0,0,0,119.23,20.4Zm-1-1.75a.48.48,0,0,0,.08.52c.18.22.49.71.57.71s.09.44.14.57a24.11,24.11,0,0,0,1,2.41c.08.22.13.48.43.31a3.86,3.86,0,0,0,1.1-.62c0-.09.18-.39.18-.48s1-2.76,1-2.94a.22.22,0,0,0-.4-.09c-.08.13-.08-.3-.08-.39s0-.27-.18-.31a.7.7,0,0,0-.48.13s-3.29,0-3.38.05A.22.22,0,0,0,118.18,18.65Zm6.75,3c-.13,0-.17.09-.13.22a.87.87,0,0,0,.22.27s0,0-.17.08-.71,0-.84.05-.26.09-.26.17.17.05.22.05a.46.46,0,0,1,.31-.09c.13,0,.26,0,.3.09s-.17.26-.21.39-.05.22,0,.22a.21.21,0,0,0,.17-.18.84.84,0,0,1,.27-.26c.08,0,.3,0,.48,0s.22-.18.35-.22a1,1,0,0,1,.35,0c.18,0,.26.13.13.18s-.48,0-.48.09l-.09.08h.27c.13,0,.43.09.48,0s.09-.13.13-.22,0-.08.09-.08h.17a.21.21,0,0,0-.13.22c0,.13.31.08.31,0v-.4s0,0-.13,0-.22.09-.31,0-.13-.13,0-.13.26,0,.22-.26-.66-.22-.88-.22-.13.17,0,.17a2.82,2.82,0,0,1,.57.09c.09,0,0,.13-.13.18a2.07,2.07,0,0,1-.7,0c-.13,0,0-.35-.18-.48s-.13,0-.17,0-.13.13-.13,0Zm.22-1.27V21a.56.56,0,0,0,.18.31.82.82,0,0,0,.35.17c.13.05.44-.35.48-.39V20.4c0-.08-.09-.08-.22-.08h-.66C125.15,20.32,125.15,20.4,125.15,20.4Zm.27-2.19-2.07,0c-.17,0-.17.09-.17.18v3.73s0,.3.13.22,1.27-.93,1.36-1,.13-.09.13-.14V20.09c0-.13,0-.13.18-.13h.53V18.34S125.51,18.21,125.42,18.21Zm-.66.79a2.46,2.46,0,0,0,0,.52c0,.14-.26.18-.35.18s0-.13.09-.26.09-.13.09-.27,0-.26,0-.39-.17,0-.3-.09a1,1,0,0,0-.49.09c-.13.09-.09.74,0,1s.26.39.26.48a.23.23,0,0,1-.22.13c-.09,0,0,.17,0,.35a.84.84,0,0,1,0,.48c0,.09.4-.13.45-.17a.88.88,0,0,0,.08-.53,1,1,0,0,1,.13-.61c0-.13.31-.18.31-.27a2.26,2.26,0,0,0,0-.52c0-.09.26-.22.09-.31S124.8,19,124.76,19Zm1.1-.66c0,.09,0,1.58,0,1.58l.57,0c.13,0,.18.09.18.22v1.23c0,.09.79.83.92.79s.79-1.18,1-1.58a13.92,13.92,0,0,0,.39-2.24c0-.13-.22-.17-.39-.17H125.9A.19.19,0,0,0,125.86,18.34Zm-.79-1.23c.21,0,.44-.35.44-.83s-.31-.88-.44-.88-.4.53-.4.88S124.85,17.11,125.07,17.11Zm-.49.22c0,.09,0,.14.13.14h.84c.18,0,.18-.14,0-.14a4.65,4.65,0,0,1-.84,0C124.63,17.29,124.58,17.29,124.58,17.33Zm1.15-.22a1.1,1.1,0,0,1,.52,0c.18.13-.09.75,0,.75a1,1,0,0,0,.49-.17.87.87,0,0,0,.09-.88c-.14-.4-.71-.35-1-.27a.56.56,0,0,0-.31.53S125.59,17.11,125.73,17.11Zm-2.42-.52c-.09.88.31,1.27.39,1.27s.27,0,.14,0-.09-.22-.09-.39,0-.44.26-.53.53.26.57.17-.08-.48-.26-.79a.64.64,0,0,0-.7-.26C123.53,16.11,123.31,16.06,123.31,16.59Zm1.27,1.4h.18v-.17H125V18h.26v-.17h.27V18h.13v-.3h-1V18Zm2.64-1v.44h.22v-.31h.21v.31H128v-.31h.18v.31h.18V17Zm-2.81-4.78a2.78,2.78,0,0,0,.39,1.44,1.86,1.86,0,0,1,.09.57h.31s0-.3,0-.44a6.28,6.28,0,0,0,.44-1.49,1.35,1.35,0,0,0-.53-1.05A2.08,2.08,0,0,0,124.41,12.25Zm1.32,2s.26-.21.48-.08.17.61.26.57a3.77,3.77,0,0,0,.44-.84s.26-1.18-.48-1.1-1,1.28-1,1.45Zm-2.16-1.36a1,1,0,0,0-.43,1c0,.39.13.88.39,1.05s.09-.66.22-.74.35-.22.44-.13a1.37,1.37,0,0,1,.18.21h.3S124.58,12.51,123.57,12.9Zm1.06,1.54c-.13,0-.18.13,0,.13h1.1c.09,0,.13-.13,0-.13Zm-.09.35v.44h.22V15h.17v.27h.27v-.31h.22v.31h.26v-.44Zm2.72,1.67c-.13,0-.13.26,0,.26h1c.18,0,.22-.26,0-.26Zm0-.27s-.17-1.27-.7-1.23a.68.68,0,0,0-.7.79.71.71,0,0,0,.53.49c.17,0-.09-.49.3-.49s.31.49.31.49Zm.66,0h.14s-.1-.39.43-.39.22.7.22.7,1-1.23,0-1.41S128,16.19,128,16.19Zm-.92-2a1,1,0,0,0,.18.87,8.1,8.1,0,0,1,.3,1.19h.18s0-.39,0-.53a2.14,2.14,0,0,1,.31-.74,2,2,0,0,0,.22-.92c0-.31-.75-.79-.75-.79A7.15,7.15,0,0,0,127,14.22Zm-6.58-1.05c-.09,0-.44.08-.44.22s.18.26.26.35.09.17.09.17a.92.92,0,0,1-.39,0c-.18,0-.09-.17-.27-.22a.25.25,0,0,0-.26.13.49.49,0,0,0,.09.18c0,.05-.09.09-.09.18s-.18.08-.26.08-.09.09,0,.09.17,0,.35,0a1.56,1.56,0,0,0,.26-.13c.09,0,.26,0,.31,0s-.09.13,0,.17.22,0,.3,0,0-.09,0-.17,0-.13,0-.13a.29.29,0,0,0,0-.31c0-.13-.13-.09-.21-.27s.21-.13.35-.22S120.55,13.12,120.46,13.17Zm-1.49.57c-1.19,1.14-1.23,4.16-1.23,4.16h5.13V11.68A5.24,5.24,0,0,0,119,13.74Zm.57,1.27a.91.91,0,0,0,.52.17c.14,0,.09.13-.08.13a1.5,1.5,0,0,1-.58-.13A1.33,1.33,0,0,0,119,15c-.13,0-.22.13-.26.27s-.09.08-.09.17.13.18.09.22-.22.22-.13.31.13,0,.17-.09.18-.09.27,0-.27.17-.27.26,0,0,.18,0,.26-.09.35-.09a2.3,2.3,0,0,1,.35-.17c.13-.05.35-.09.26,0s-.53.17-.48.22.13,0,.31,0,.39,0,.52,0,0-.48,0-.57,0-.13.09-.22-.09-.09-.35-.13a2.17,2.17,0,0,1-.48-.13S119.36,14.88,119.54,15Zm-.31,1.27s-.13-.09-.09,0a.68.68,0,0,0,.62.27c.3,0,.26.13.13.13a2.13,2.13,0,0,1-.49,0,2.88,2.88,0,0,1-.52-.08,1.24,1.24,0,0,0-.44,0c-.09,0-.09,0-.13.17s-.18.22,0,.35,0,.09-.09.18,0,.09.13,0,.35-.17.35-.09-.52.31-.39.36,0,0,.44-.05.31-.17.39-.22a.65.65,0,0,1,.53-.13c.17,0,0,0-.18.13s-.43.22-.3.22a1.65,1.65,0,0,0,.48,0c0-.09.35-.09.53-.13s0-.14,0-.22a1.23,1.23,0,0,0,0-.4.24.24,0,0,0-.13-.22,1.56,1.56,0,0,0-.62,0c-.22,0-.26-.13-.22-.18Zm1.71-3.47s0,0,0,.18-.08.13-.08.26,0,1.58,0,1.71a.33.33,0,0,0,.31.35c.13,0,.13-.13.13-.26s-.22-.13-.22-.22,0-.13.13-.08a1.44,1.44,0,0,1,.35.7c0,.17-.13.09-.26,0a.44.44,0,0,0-.4.09c-.13,0,.18,1,.18,1.13s-.22.14-.26.22.35.09.57.05,0-.22-.09-.4a1.07,1.07,0,0,1,0-.65c0-.09.13.17.26.48a.7.7,0,0,0,.52.39c.18,0,0,.18-.13.27a1.2,1.2,0,0,1-.61.13c-.18,0,0,.08,0,.17s-.31.05-.36.14.09,0,.44,0a1.2,1.2,0,0,0,.79-.13c.27-.18.13-.92.09-1.06s-.22-.43-.22-.57.22-.17.22-.26V13.82c0-.17.09-.3.09-.48s0-.26-.09-.22-.09.05-.18.22a.51.51,0,0,0,0,.44c0,.13,0,1.27,0,1.49s-.13-.48-.17-.7a3.36,3.36,0,0,1-.09-.7,3.14,3.14,0,0,1,.17-.84,1.2,1.2,0,0,0,.18-.52.59.59,0,0,0,0-.22.67.67,0,0,0-.18.13.28.28,0,0,0-.09.18h-.35l-.08-.22-.09.08c-.09,0-.09.14-.09.31s0,.13,0,.26.14.14.22.18-.08.18-.13.26-.09,0-.17-.08-.18-.05-.22-.18,0-.09.08-.18a.91.91,0,0,0,0-.3S121,12.73,120.94,12.81Zm.26.84a1.28,1.28,0,0,0-.13.44c0,.22,0,.22.13.17s0-.39,0-.57v0h0Zm.31.61c0,.13,0,.22,0,.13s.08-.3,0-.43A1.38,1.38,0,0,0,121.51,14.26Zm24,11.76.31,1.4v.09a2.65,2.65,0,0,0,.61.13c.27,0,.18-.53.09-.75s-.26-.65-.52-.79a1.55,1.55,0,0,0-.53-.21Zm10.84-.09.22-.18-.13-.17-.22.13Zm.44-.31.18-.13-.14-.22-.17.13Zm-43.18-6.4c0,.17,0,.26.35.26a1.25,1.25,0,0,0,.57-.17s0-.22.09-.27.52-.08.61-.08.09.17.22.17,1.1-.31,1.27-.35,0-1,0-1.23c0-1.75.75-5.09,3.73-6.31s5.23-.66,6.32.22a7.57,7.57,0,0,1,3.21,6.05c-.09,3.2-.71,4.87-2,6.14a21.78,21.78,0,0,1-1.8,1.62l1.8,2.32.31-.13-1.63-2.15.27-.17s1.66,2.28,1.79,2.32.22-.17.22-.17l-1.71-2.24.13-.13,1.93,2.19A9.47,9.47,0,0,0,131.82,24c.66-1.71,2.64-5,.05-11.67a8.49,8.49,0,0,0-3.42-3.81.28.28,0,0,1-.27.13,10.14,10.14,0,0,0-4.69-1.4,9.92,9.92,0,0,0-5.31,1.53.44.44,0,0,1-.66,0,13,13,0,0,0-2.5,3.29,17.71,17.71,0,0,0-1.45,4.56A11.4,11.4,0,0,0,113.57,19.22Zm13.38-.7a.4.4,0,0,0,.22.35c.13.09,0,.17-.22.09s-.17-.18-.35-.14-.26.14-.17.18.26,0,.3.13-.39.09-.48.09-.26,0-.18.13.09.09.27.09h.35s.35,0,.35.17v1.27a1,1,0,0,0,.18.44s0-.26.13-.35.22,0,.26-.22.35-.3.44-.57a3,3,0,0,1,.22-.79,1.72,1.72,0,0,0,.26-.61c0-.18-.08,0-.17.09s-.26.35-.36.52a6.37,6.37,0,0,0-.17.7c0,.09-.18.18-.18.18s.09-.61.09-.75a.59.59,0,0,1,.22-.43c.18-.18.31-.22.22-.35a.5.5,0,0,1-.08-.22l-.23-.18-.13.18Zm-4.43-9.3c0,.13.35.13.35-.09S122.52,8.87,122.52,9.22Zm5.09.83c-.13.14,0,.4.26.22S127.74,9.88,127.61,10.05Zm3.38,6c.26,0,.26-.35,0-.31S130.77,16.11,131,16.06Zm.31,1.32c.26,0,.08-.31-.09-.27S131,17.42,131.3,17.38Zm-17-1.36s0,.35,0,.48v.35h.08s0-.22.09-.22h.44l0,1h-.49s-.13-.31-.13-.31h-.13v.88h.13s.09-.26.22-.26,1.14,0,1.23,0,.22.22.22.22l.09,0s0-.31,0-.44a1.2,1.2,0,0,1,0-.39h-.13s0,.26-.22.26l-.53,0v-1s.48.09.57.09a.19.19,0,0,1,.18.17V17l.18-.05v-.39a1.77,1.77,0,0,1,0-.27l-.09,0s0,.13-.13.13l-1.4-.09c-.14,0-.09-.3-.09-.3Zm9.26-7.68a4.84,4.84,0,0,0-.09,1c0,.57.57.31.57.31s-.22-.22,0-.35.18.13.18.13a2.87,2.87,0,0,0,.13-.75c0-.39-.13-.65-.35-.7A.4.4,0,0,0,123.53,8.34Zm-.26-.22c0,.18-.09.92-.09,1.23a.73.73,0,0,0,.57.57,2.65,2.65,0,0,0,.39,0l0,0a.91.91,0,0,0,.52.35,1.9,1.9,0,0,0,.44-.08,1.86,1.86,0,0,1-.39-.14,1.6,1.6,0,0,1-.39-.3s.13-.22.21-.4a5.1,5.1,0,0,0,.09-.88.73.73,0,0,0-.7-.78C123.66,7.69,123.27,7.86,123.27,8.12ZM114.71,15c0,.17-.17.53.26.66a2.75,2.75,0,0,0,1,0c.09,0,.18-.22.18-.4s0-.22-.35-.3S114.75,14.75,114.71,15Zm-.26,0a.67.67,0,0,0,.48,1c.66.18,1.32.18,1.49-.44s-.52-.88-.83-.92S114.54,14.57,114.45,15Zm.52-1.27a1.88,1.88,0,0,0-.26.4h0A.21.21,0,0,1,115,14c.13.05,1.28.44,1.36.48s.09.22.09.22l0,.05.26-.66L116.6,14s0,.22-.13.22a8.6,8.6,0,0,1-1.06-.4l1.19-.21a2.26,2.26,0,0,1,.44,0l.13-.26s-1.41-.57-1.5-.62,0-.08,0-.22l0-.08h-.13a4.11,4.11,0,0,0-.27.35c0,.13-.17.44-.17.44h.09s.26-.22.43-.18,1.1.4,1.1.4-.61,0-.79.08A8.42,8.42,0,0,1,115,13.69ZM125.9,8.26,125.28,8v.18s.23.09.18.13-.18.7-.31,1.18a.62.62,0,0,0,.4.79.65.65,0,0,0,.7-.08,10.57,10.57,0,0,0,.57-1.28c.05-.09.27,0,.27,0l.08-.13a.7.7,0,0,1-.3-.17,1.37,1.37,0,0,0-.4-.18l0,.09.17.13s0,.09,0,.17a6.6,6.6,0,0,1-.43.93.51.51,0,0,1-.31.22c-.17.08-.53-.13-.53-.31s.36-1.1.36-1.23.13-.09.13-.09Zm1.49.52,0,.09.13.13s0,.13,0,.18-.57,1.14-.57,1.27-.09.09-.18.09a.59.59,0,0,1-.18-.09l0,.13.35.17a1.23,1.23,0,0,0,.31.18l0-.13a.76.76,0,0,0-.08-.18s0-.08,0-.17a11,11,0,0,1,.57-1.14.16.16,0,0,1,.22-.09h.13l0-.09Zm1,.57-.09.09a1.07,1.07,0,0,0,.14.22s0,.18,0,.22-.61,1-.66,1.09a.11.11,0,0,1-.17,0,.32.32,0,0,0-.13,0l0,.09.4.44.08-.09a.65.65,0,0,1,0-.21c0-.14.61-1.15.66-1.23a.19.19,0,0,1,.13-.05l-.61,1.93,1.84-.48s-.88.74-1,.79-.17.09-.22,0a.77.77,0,0,1-.09-.13l-.13.09.35.52.14-.13a.14.14,0,0,1,0-.17c.09-.05,1.1-1,1.14-1s.18.13.18.13l.08,0L130.2,11l-1.71.4L129,9.84ZM129,12.9l.35.44h.09a1.58,1.58,0,0,1,0-.26c-.05-.05-.05-.09.09-.13h.21c.05,0,.09.08.09.08a2.46,2.46,0,0,1,.18.44s0,.18,0,.18-.09.13-.18.13-.13-.17-.13-.17l-.09,0,.22.66.13-.09s0-.13,0-.17,1.41-1.45,1.41-1.45v-.09s-1.84.3-1.93.35a.91.91,0,0,1-.27-.09Zm1,0,.22.48.74-.66Zm1.66.87s.09.27,0,.31-1.1.4-1.32.48-.26-.22-.26-.22l-.13.09.22.61a4.54,4.54,0,0,0,.13.62l.61-.13.05-.13s-.53,0-.53-.09a.57.57,0,0,1-.09-.31c0-.09,0-.13.09-.17s1.23-.44,1.36-.49a.26.26,0,0,1,.18,0H132l-.22-.66Zm.58,1.41h-.1a.46.46,0,0,1-.08.26,4.73,4.73,0,0,0-.44.62.41.41,0,0,1-.18.21,3.65,3.65,0,0,1-.74.09c-.13,0-.22-.17-.22-.17h0s0,.3,0,.39a3.92,3.92,0,0,0,0,.4h.09a1.09,1.09,0,0,0,0-.22s0-.09.09-.09l.75,0s.7.53.79.57.09.27.09.27h.08a3.17,3.17,0,0,0,.05-.4,1,1,0,0,0,0-.35h-.13v.13c0,.05-.05.09-.18,0s-.57-.39-.57-.39.39-.66.48-.75.22.14.22.14h.09l-.13-.66Zm-1.67,3.24h.13s0-.17.09-.17h.48a3.63,3.63,0,0,1,0,.39c0,.13.13.44.27.44a3.07,3.07,0,0,0,.61,0c.22,0,.44-.35.44-.53s0-.87,0-.87h-.14s0,.22-.17.22-1.36,0-1.49,0-.09-.18-.09-.18h-.09Zm1-.17s0,.3,0,.39.09.13.22.13.26.05.4,0a.26.26,0,0,0,.17-.26,1.58,1.58,0,0,0,0-.26Zm-1,1.09a8.61,8.61,0,0,1-.22.88l.57.22v-.13a4.25,4.25,0,0,1-.35-.27,3.89,3.89,0,0,1,.13-.48l.79.14a1.3,1.3,0,0,0-.05.3c0,.09-.17.09-.17.09v.13l.53.09-.05-.09s-.13-.09-.13-.13a1.88,1.88,0,0,1,.09-.35l.66.09a1.3,1.3,0,0,0-.05.3c0,.14,0,.31-.13.31a.51.51,0,0,0-.18,0v.14l.4.08.18-1.4h-.09s-.09.17-.18.17-1.4-.17-1.53-.21-.09-.31-.09-.31h-.09S130.51,19.31,130.51,19.39Zm-.31,1.32-.18.39.14,0s0-.22.17-.13,1.14.35,1.14.35l-1.66.57-.09,0,1.71.83a2.6,2.6,0,0,1,.09.36l.08.08.31-.74h-.09a.19.19,0,0,1-.17.13h-.22l-1.19-.57,1.94-.62.21-.39-.13,0s0,.21-.13.21-1.54-.35-1.62-.35-.18-.21-.18-.21l-.09-.05Zm-.61,1.71-.09.09.13.13s-.4.17-.44.3-.22.49.13.66a.94.94,0,0,0,.92,0c.22-.09.57-.22.66,0s0,.35-.13.48a.53.53,0,0,1-.35.18,2.19,2.19,0,0,1-.31,0l-.09,0,.66.48.09-.09-.13-.22s.61-.35.66-.52a.81.81,0,0,0-.26-.62.72.72,0,0,0-.66-.08,2.66,2.66,0,0,1-.62.3c-.13,0-.53-.13-.3-.35s.39-.31.56-.22a2.25,2.25,0,0,0,.31.13l0-.13Zm-.79,1-1.06,1.18.36.35h.08s0-.3,0-.39a3.56,3.56,0,0,1,.48-.44l.44.44a1.34,1.34,0,0,1-.18.26c-.08.13-.35,0-.35,0l0,0,.53.44v-.09a.28.28,0,0,1,0-.21,1.35,1.35,0,0,1,.26-.27l.57.4-.09.13a2,2,0,0,1-.57.44c-.09.08-.22-.05-.22-.05l-.09.09.4.35,1.18-1.23-.08,0a.36.36,0,0,1-.36,0c-.13-.09-1.09-.88-1.18-1s0-.35,0-.35Zm-12-11.58.44.05-.22-.4h-.36Zm-.75-.39-.4.7.09,0s.14-.13.22,0,1.1.7,1.19.74a.09.09,0,0,1,.09.09l-.09.13.13.05.39-.75-.08-.09-.18.18a.3.3,0,0,1-.26,0s-.88-.61-.92-.66-.13-.17-.09-.22l.09-.08Zm1.49-1.62V10a2.5,2.5,0,0,0-.44.13c-.22.09-.44.39-.39.57s.31.35.7.39.79,0,.88.09,0,.4-.27.44a.77.77,0,0,1-.52-.18l0,.09.56.61V11.9a1,1,0,0,1,.44-.14c.22,0,.27-.52.18-.74a.6.6,0,0,0-.48-.27,3,3,0,0,1-1.19-.08c-.26-.18.4-.44.53-.44a2.41,2.41,0,0,1,.52.17l0-.08-.48-.57Zm1.32-.66a.76.76,0,0,0,0,1.05c.31.44.71.48.88.35s.22-.44,0-.92S119.1,9,118.88,9.18Zm-.18-.27a1.07,1.07,0,0,0-.22,1.41c.49.57,1,.74,1.32.52a1.11,1.11,0,0,0,.09-1.58A.81.81,0,0,0,118.7,8.91Zm1.19-.3a.53.53,0,0,1,.22,0,11.7,11.7,0,0,0,.57,1.4.52.52,0,0,1-.09.22l0,.13.49-.26v-.09s-.18,0-.22,0-.57-1.32-.62-1.45.09-.17.09-.17l0-.13-.49.21Zm.7-.4.22.53.09-.05s0-.35.08-.35.44-.13.44-.08.27,1.18.31,1.31,0,.22,0,.27-.13.08-.13.08V10a1.63,1.63,0,0,0,.39,0,2.56,2.56,0,0,1,.39-.09l0-.09s-.18,0-.22-.13-.22-1.32-.22-1.4a.2.2,0,0,1,.18-.14.65.65,0,0,1,.39,0l.13.26.09,0-.09-.48s-.7.08-1,.13S120.59,8.21,120.59,8.21Z" transform="translate(0 -0.01)"/></g><path class="cls-2" d="M73,29.43H52.57v-.34l3-1.67v-20l-3-1.71v-.3H72.32l.44,6.27-.35.13S69.25,8.52,68.5,7.86a4.3,4.3,0,0,0-1.71-1,7.77,7.77,0,0,0-2-.22L61.13,6.5V16.63s3.82,0,4.21-.09c.57-.08.79-.08,1.58-1,.66-.75,1.67-2.07,1.67-2.07H69v8h-.44s-2-2.9-2.15-3A1.69,1.69,0,0,0,65,18c-1.06,0-3.82-.05-3.82-.05V28.25A37.24,37.24,0,0,0,65,28.12C66.75,28,67.71,28,68.85,27S73,22.55,73,22.55l.48.13Z" transform="translate(0 -0.01)"/><path class="cls-2" d="M255.84,22.68l-.49-.13s-3,3.47-4.12,4.43-2.11,1-3.82,1.14a37.07,37.07,0,0,1-3.9.13V17.9s2.76.09,3.81.05a1.74,1.74,0,0,1,1.5.57c.17.08,2.14,3,2.14,3h.45v-8H251s-1,1.32-1.66,2.07c-.79.92-1,.92-1.58,1-.4.05-4.21.09-4.21.09V6.5l3.64.13a7.8,7.8,0,0,1,2,.22,4.66,4.66,0,0,1,1.71,1c.74.66,3.9,4,3.9,4l.35-.13-.43-6.27H235v.3l3,1.71v20l-3,1.67v.34H255.4Z" transform="translate(0 -0.01)"/><polygon class="cls-2" points="218.62 21.84 225.91 5.39 233.94 5.39 233.94 5.75 231 7.41 231 27.36 233.94 29.03 233.94 29.38 222.53 29.38 222.53 29.07 225.51 27.41 225.51 10.35 216.87 29.07 215.81 29.07 206.6 9.96 206.6 27.36 209.54 29.03 209.54 29.38 201.9 29.38 201.9 29.07 204.84 27.41 204.84 7.37 201.9 5.7 201.9 5.39 210.55 5.39 218.62 21.84"/><g class="cls-5"><path class="cls-2" d="M272.07,5.71l.44,6-.39,0S268,7.29,267.55,6.89a3.6,3.6,0,0,0-4.26-.08,2.94,2.94,0,0,0-.74,3.9c1.32,2.54,5.14,4.34,6.14,4.91s5.89,3,5.27,7.85c-.61,4.56-4.7,5.88-6.41,6.23-3.64.66-9.21-.88-9.21-.88l-.44-6.18.48-.09s4.08,4.91,5.71,5.53,3.86.83,5.17-.88.22-4.08-1.09-5c-1.84-1.23-4.57-2.68-6.45-3.9A8.23,8.23,0,0,1,258,12.55a6.53,6.53,0,0,1,4-6.88,12.77,12.77,0,0,1,5.79-.62C269.48,5.19,272.07,5.71,272.07,5.71Z" transform="translate(0 -0.01)"/></g></g></g></svg>