<svg xmlns="http://www.w3.org/2000/svg" width="90" viewBox="0 0 1537.76 713.64"><defs><style>.cls-1{fill:#21a56e;}.cls-2{fill:#231f20;}.cls-3{fill:#fff;}.cls-4{fill:#25ad7a;}.cls-5{fill:#0d542d;}</style></defs><g id="Layer_2" data-name="Layer 2"><g id="Layer_1-2" data-name="Layer 1"><rect class="cls-1" x="26.86" y="428.87" width="283.43" height="284.76"/><rect class="cls-1" x="333.51" y="428.87" width="283.43" height="284.76"/><rect class="cls-1" x="640.17" y="428.87" width="283.43" height="284.76"/><rect class="cls-1" x="946.83" y="428.87" width="283.43" height="284.76"/><rect class="cls-1" x="1253.49" y="428.87" width="283.43" height="284.76"/><path class="cls-2" d="M500.3,326.61H464.22V163.47H406.55V133H557.42v30.48H500.3Z"/><path class="cls-2" d="M589.42,185.24v19.45c9.54-15.09,21.09-22.35,35-22.35a61.63,61.63,0,0,1,9.25.58V213.4a51.4,51.4,0,0,0-6.07-.29c-23.69,0-38.14,16-38.14,41.8v71.7H554.17V185.24Z"/><path class="cls-2" d="M776,326.61H740.79V312.1c-13.84,12.77-25.95,18.29-41.52,18.29-21.63,0-38.64-13.06-44.69-33.68-2-7.25-2.6-14.22-2.6-32.51v-79h35.18v76.93c0,14.22.29,16.84,2,22.06,3.17,9.58,11.53,15.1,22.77,15.1,8.94,0,17.59-4.07,22.49-10.45,4.62-5.81,6.35-12.49,6.35-24.68v-79H776Z"/><path class="cls-2" d="M885.82,227.34c-3.49-13.36-12.5-19.74-28.21-19.74-15.13,0-25.6,6.67-25.6,16.25,0,4.36,2.91,8.13,7.57,10.16,5.23,2.32,11.63,3.78,31.41,7.26,20.36,3.48,29.09,6.39,36.94,12.48,8.43,7,13.38,17.71,13.38,30.48,0,27.58-24.14,46.16-60.21,46.16-38.1,0-61.37-17.71-64.57-49.06h32.58c2.9,15.68,13.08,22.93,31.7,22.93,16.29,0,27.05-7,27.05-17.71,0-8.7-5.24-11.9-24.14-15.09-22.4-4.06-37.82-8.71-46.83-14.51-11.34-7.26-17.16-17.71-17.16-29.9,0-26.71,23.56-45.58,56.72-45.58,34.61,0,57.59,17.42,60.5,45.87Z"/><path class="cls-2" d="M1010.77,189.28V211h-27v69.66c0,10.43.59,13.53,2.94,16.35,2.35,3.11,7.34,4.8,13.22,4.8l10-.28,2.93-.29v25.38H987.27c-13.22,0-15.87-.28-20.86-2.25-9.7-3.67-15-10.15-17-20.31-1.18-5.35-1.47-11-1.47-23.4V211h-20V189.28h20V143.59h35.84v45.69Z"/><path class="cls-2" d="M1061.6,185.32v18.94c11.5-16.28,23.93-22.79,43.2-22.79,38.24,0,65.9,32.26,65.9,76.66,0,44.09-26.73,75.17-65,75.17-18.65,0-30.16-6.21-44.14-23.68V377.7h-37.92V185.32Zm-1.87,72.51c0,27.82,14.92,46.76,36.68,46.76,21.14,0,35.44-18.64,35.44-46.46,0-28.42-14-47.95-34.51-47.95C1074.34,210.18,1059.73,228.53,1059.73,257.83Z"/><path class="cls-2" d="M1222.5,132.12v32.22h-33.34V132.12Zm0,53.12V326.61h-33.34V185.24Z"/><path class="cls-2" d="M1281.4,133V326.61h-33.34V133Z"/><path class="cls-2" d="M1447,255.78c0,43.84-29,74.61-70,74.61-39.09,0-68.06-31.64-68.06-74.61s29-74.31,69.15-74.31C1418.06,181.47,1447,212.82,1447,255.78Zm-103.86-.58c0,28.45,13.66,47,35,47,20.77,0,34.71-18.58,34.71-46.45,0-27.57-13.94-46.15-34.71-46.15S1343.17,228.21,1343.17,255.2Z"/><path class="cls-2" d="M1535.85,185.24V207.6H1510.7v71.7c0,10.74.55,13.93,2.73,16.83,2.19,3.2,6.84,4.94,12.3,4.94l9.3-.29,2.73-.29v26.12H1514c-12.3,0-14.76-.29-19.4-2.32-9-3.77-13.94-10.45-15.86-20.9-1.09-5.51-1.36-11.32-1.36-24.09V207.6h-18.59V185.24h18.59v-47h33.34v47Z"/><polygon class="cls-3" points="168.72 477.82 144.84 549.12 68.73 549.12 129 593.26 106.64 665.4 168.32 621.27 230 665.4 212.18 609.95 174.26 617.87 268.76 549.4 192.66 549.4 168.72 477.82"/><polygon class="cls-3" points="475.37 477.82 451.5 549.12 375.39 549.12 435.65 593.26 413.3 665.4 474.98 621.27 536.66 665.4 518.84 609.95 480.92 617.87 575.42 549.4 499.31 549.4 475.37 477.82"/><polygon class="cls-3" points="782.03 477.82 758.15 549.12 682.04 549.12 742.31 593.26 719.96 665.4 781.64 621.27 843.32 665.4 825.49 609.95 787.58 617.87 882.08 549.4 805.97 549.4 782.03 477.82"/><polygon class="cls-3" points="1088.69 477.82 1064.81 549.12 988.7 549.12 1048.97 593.26 1026.62 665.4 1088.3 621.27 1149.98 665.4 1132.15 609.95 1094.24 617.87 1188.74 549.4 1112.63 549.4 1088.69 477.82"/><polygon class="cls-3" points="1395.35 477.82 1371.47 549.12 1295.36 549.12 1355.63 593.26 1333.27 665.4 1394.95 621.27 1456.63 665.4 1438.81 609.95 1400.89 617.87 1495.39 549.4 1419.29 549.4 1395.35 477.82"/><polygon class="cls-4" points="183.12 263.48 253.91 212.39 256.85 215.73 256.45 214.44 367.58 134.09 228.16 134.09 183.82 0 139.62 133.43 0 133.43 113.44 216.47 70.09 350.47 184.94 267.71 298.11 349.34 265.3 243.09 183.12 263.48"/><polygon class="cls-5" points="183.12 263.48 265.3 243.09 256.85 215.73 255.55 211.09 183.12 263.48"/></g></g></svg>