<svg width="155" height="113" viewBox="0 0 155 113" fill="none" xmlns="http://www.w3.org/2000/svg">
<path fill-rule="evenodd" clip-rule="evenodd" d="M7.41579 50.7386C3.31725 50.7555 0 54.0832 0 58.1858C0 62.2988 3.33425 65.633 7.44727 65.633C11.5603 65.633 14.8945 62.2988 14.8945 58.1858C14.8945 56.1325 14.0636 54.2734 12.7197 52.9262C15.2996 45.4912 19.1162 38.5287 24.0215 32.3378C30.1874 24.5562 37.9335 18.1706 46.7485 13.6025C55.5635 9.03439 65.247 6.3876 75.1601 5.83681C85.0731 5.28601 94.9903 6.84374 104.257 10.4072C113.524 13.9706 121.93 19.4588 128.92 26.5095C135.91 33.5601 141.325 42.013 144.808 51.3103C148.291 60.6076 149.763 70.5378 149.127 80.4457C148.749 86.3354 147.63 92.1376 145.81 97.7183C141.823 97.861 138.634 101.138 138.634 105.161C138.634 109.274 141.968 112.608 146.081 112.608C150.194 112.608 153.528 109.274 153.528 105.161C153.528 103.02 152.625 101.09 151.179 99.7316C153.193 93.6229 154.429 87.2665 154.844 80.813C155.532 70.0967 153.94 59.3563 150.173 49.3005C146.405 39.2447 140.548 30.1021 132.988 22.4762C125.428 14.8503 116.336 8.91441 106.313 5.06023C96.2904 1.20605 85.5641 -0.478759 74.8423 0.116959C64.1204 0.71269 53.6468 3.57543 44.1127 8.51624C34.5785 13.4571 26.2005 20.3636 19.5315 28.7801C14.2941 35.3901 10.2043 42.8133 7.41579 50.7386Z" fill="#FFCE31"/>
</svg>
