<svg width="60" height="60" viewBox="0 0 60 60" fill="none" xmlns="http://www.w3.org/2000/svg">
<g clip-path="url(#clip0)">
<path d="M58.2422 3.51562C57.2577 3.51562 56.4844 2.7423 56.4844 1.75781C56.4844 0.77332 55.7111 0 54.7266 0H5.27344C4.28895 0 3.51562 0.77332 3.51562 1.75781C3.51562 2.7423 2.7423 3.51562 1.75781 3.51562C0.77332 3.51562 0 4.28894 0 5.27344V12.3047C0 13.2892 0.77332 14.0625 1.75781 14.0625C2.7423 14.0625 3.51562 14.8358 3.51562 15.8203C3.51562 16.8048 4.28895 17.5781 5.27344 17.5781H54.7266C55.7111 17.5781 56.4844 16.8048 56.4844 15.8203C56.4844 14.8358 57.2577 14.0625 58.2422 14.0625C59.2267 14.0625 60 13.2892 60 12.3047V5.27344C60 4.28894 59.2267 3.51562 58.2422 3.51562Z" fill="#0D70B2"/>
<path d="M60 5.27344V12.3047C60 13.2892 59.2267 14.0625 58.2422 14.0625C57.2577 14.0625 56.4844 14.8358 56.4844 15.8203C56.4844 16.8048 55.7111 17.5781 54.7266 17.5781H30V0H54.7266C55.7111 0 56.4844 0.77332 56.4844 1.75781C56.4844 2.7423 57.2577 3.51562 58.2422 3.51562C59.2267 3.51562 60 4.28894 60 5.27344Z" fill="#095C92"/>
<path d="M54.7256 60H17.5771C13.7101 60 10.5459 56.8358 10.5459 52.9687V8.78906H49.4521V54.7266C49.4521 57.7147 51.8779 60 54.7256 60Z" fill="#E1E4FB"/>
<path d="M58.2422 42.4219H47.6953C46.7237 42.4219 45.9375 43.2081 45.9375 44.1797V52.9688C45.9375 56.8466 49.0909 60 52.9688 60H54.7266C57.639 60 60 57.639 60 54.7266V52.9688V44.1797C60 43.2081 59.2138 42.4219 58.2422 42.4219Z" fill="#A8AFF1"/>
<path d="M54.7266 60H30V8.78906H49.4531V54.7266C49.4531 57.7147 51.8789 60 54.7266 60Z" fill="#C5C9F7"/>
<path d="M35.2739 29.8828C35.2739 32.0977 33.8676 34.0664 31.7935 34.8397H31.7583V36.9141C31.7583 37.8986 30.985 38.6719 30.0005 38.6719C29.016 38.6719 28.2427 37.8986 28.2427 36.9141V34.8397C27.0824 34.453 25.9927 33.715 25.0436 32.5547C24.4105 31.8163 24.5161 30.7264 25.2545 30.0938C25.9927 29.4609 27.1177 29.5663 27.7153 30.3047C28.4537 31.1836 29.2622 31.6406 30.0006 31.6406C30.2115 31.6406 30.4225 31.6055 30.5982 31.535C31.3013 31.2892 31.7584 30.6212 31.7584 29.8828C31.7584 28.8983 30.9851 28.125 30.0006 28.125C27.0825 28.125 24.7272 25.7696 24.7272 22.8516C24.7272 20.7423 25.9928 18.8085 27.9614 18C28.0319 17.9648 28.1372 17.9648 28.2428 17.9296V15.8203C28.2428 14.8358 29.0161 14.0625 30.0006 14.0625C30.9851 14.0625 31.7584 14.8358 31.7584 15.8203V17.9296C32.6725 18.2461 33.5514 18.7031 34.36 19.4764C35.0631 20.1444 35.0631 21.2694 34.3951 21.9727C33.7272 22.6759 32.6022 22.6758 31.8989 22.0078C31.3013 21.4103 30.6333 21.0938 30.0005 21.0938C29.7544 21.0938 29.5435 21.1289 29.3325 21.2343C28.6646 21.5156 28.2427 22.1484 28.2427 22.8516C28.2427 23.8361 29.016 24.6094 30.0005 24.6094C32.9186 24.6094 35.2739 26.9647 35.2739 29.8828Z" fill="#17ACE8"/>
<path d="M42.4219 44.1797C42.4219 45.1641 41.6486 45.9375 40.6641 45.9375H19.3359C18.3514 45.9375 17.5781 45.1641 17.5781 44.1797C17.5781 43.1952 18.3514 42.4218 19.3359 42.4218H40.6641C41.6486 42.4218 42.4219 43.1952 42.4219 44.1797Z" fill="#17ACE8"/>
<path d="M42.4219 51.2109C42.4219 52.1954 41.6486 52.9688 40.6641 52.9688H19.3359C18.3514 52.9688 17.5781 52.1954 17.5781 51.2109C17.5781 50.2264 18.3514 49.4531 19.3359 49.4531H40.6641C41.6486 49.4531 42.4219 50.2264 42.4219 51.2109Z" fill="#17ACE8"/>
<path d="M35.2725 29.8828C35.2725 32.0976 33.8661 34.0664 31.792 34.8397H31.7568V36.914C31.7568 37.8985 30.9835 38.6718 29.999 38.6718V31.6406C30.21 31.6406 30.4209 31.6054 30.5966 31.535C31.2997 31.2891 31.7568 30.6212 31.7568 29.8828C31.7568 28.8983 30.9835 28.125 29.999 28.125V24.6093C32.9171 24.6093 35.2725 26.9647 35.2725 29.8828Z" fill="#1689FC"/>
<path d="M42.4209 51.2109C42.4209 52.1954 41.6476 52.9688 40.6631 52.9688H29.999V49.4531H40.6631C41.6476 49.4531 42.4209 50.2264 42.4209 51.2109Z" fill="#1689FC"/>
<path d="M42.4209 44.1797C42.4209 45.1641 41.6476 45.9375 40.6631 45.9375H29.999V42.4218H40.6631C41.6476 42.4218 42.4209 43.1952 42.4209 44.1797Z" fill="#1689FC"/>
<path d="M31.8974 22.0078C31.2998 21.4103 30.6318 21.0938 29.999 21.0938V14.0625C30.9835 14.0625 31.7568 14.8358 31.7568 15.8203V17.9296C32.6709 18.2461 33.5498 18.7031 34.3584 19.4764C35.0615 20.1444 35.0615 21.2694 34.3936 21.9727C33.7256 22.6759 32.6006 22.6758 31.8974 22.0078Z" fill="#1689FC"/>
<path d="M52.9678 8.78906C52.9678 9.77356 52.1945 10.5469 51.21 10.5469H8.78809C7.80359 10.5469 7.03027 9.77356 7.03027 8.78906C7.03027 7.80457 7.80359 7.03125 8.78809 7.03125H51.21C52.1945 7.03125 52.9678 7.80457 52.9678 8.78906Z" fill="#095C92"/>
<path d="M52.9688 8.78906C52.9688 9.77356 52.1954 10.5469 51.2109 10.5469H30V7.03125H51.2109C52.1954 7.03125 52.9688 7.80457 52.9688 8.78906Z" fill="#08469C"/>
</g>
<defs>
<clipPath id="clip0">
<rect width="60" height="60" fill="white"/>
</clipPath>
</defs>
</svg>
