<svg width="61" height="60" viewBox="0 0 61 60" fill="none" xmlns="http://www.w3.org/2000/svg">
<g clip-path="url(#clip0)">
<g clip-path="url(#clip1)">
<path d="M60.2175 25.342L29.6262 55.9332C28.2533 57.3061 26.0274 57.3061 24.6546 55.9332L5.31386 36.5925C3.94095 35.2196 3.94095 32.9937 5.31386 31.6209L35.905 1.02968C37.2779 -0.343228 39.5038 -0.343228 40.8766 1.02968L52.1561 12.3092L53.916 16.4127L57.4297 17.5828L60.2174 20.3705C61.5903 21.7433 61.5903 23.9691 60.2175 25.342Z" fill="#D3E0E4"/>
<path d="M16.5879 47.8701L52.1453 12.3126L57.418 17.5853L21.8606 53.1428L16.5879 47.8701Z" fill="#002C3B"/>
<path d="M4.76353 25.6172C2.82193 25.6172 1.24805 27.1911 1.24805 29.1327V56.4847C1.24805 58.4263 2.82193 60.0002 4.76353 60.0002H26.3947L29.9102 42.8088L26.3947 25.6174H4.76353V25.6172Z" fill="#FFE477"/>
<path d="M48.0257 25.6172H26.3945V60.0002H48.0257C49.9673 60.0002 51.5412 58.4263 51.5412 56.4847V29.1327C51.5412 27.1911 49.9673 25.6172 48.0257 25.6172Z" fill="#FFCD00"/>
<path d="M6.84082 48.8699H13.7791V52.3853H6.84082V48.8699Z" fill="#FDFAE5"/>
<path d="M17.5635 48.8699H24.5017V52.3853H17.5635V48.8699Z" fill="#FDFAE5"/>
<path d="M28.2871 48.8699H35.2253V52.3853H28.2871V48.8699Z" fill="#FAF1B4"/>
<path d="M39.0098 48.8699H45.9481V52.3853H39.0098V48.8699Z" fill="#FAF1B4"/>
<path d="M6.94727 34.9898H17.5633V42.4477H6.94727V34.9898Z" fill="#FDFAE5"/>
</g>
</g>
<defs>
<clipPath id="clip0">
<rect width="60" height="60" fill="white" transform="translate(0.5)"/>
</clipPath>
<clipPath id="clip1">
<rect width="60" height="60" fill="white" transform="translate(1.25)"/>
</clipPath>
</defs>
</svg>
