<svg width="61" height="60" viewBox="0 0 61 60" fill="none" xmlns="http://www.w3.org/2000/svg">
<path d="M33.9768 19.5126L23.2268 8.75008C22.8544 8.40215 22.5973 7.94873 22.4898 7.45055C22.3823 6.95238 22.4297 6.43326 22.6255 5.96275C22.8213 5.49224 23.1563 5.09281 23.5855 4.81799C24.0146 4.54316 24.5176 4.40607 25.0268 4.42508C26.4268 4.42508 25.6643 4.02508 37.5268 15.9251C38.0026 16.3958 38.2718 17.0363 38.2753 17.7056C38.2788 18.3748 38.0163 19.0181 37.5456 19.4938C37.0748 19.9696 36.4344 20.2388 35.7651 20.2423C35.0958 20.2458 34.4526 19.9833 33.9768 19.5126Z" fill="#A87E6B"/>
<path d="M37.4627 15.8375C36.9862 16.282 36.3551 16.5228 35.7037 16.5088C35.0523 16.4948 34.4321 16.227 33.9752 15.7625L23.3252 5.11253C23.7863 4.68087 24.3936 4.43971 25.0252 4.43753C26.4377 4.43753 25.9627 4.33753 37.4627 15.8375Z" fill="#BE927C"/>
<path d="M25.0123 32.0625C24.7795 32.3006 24.5014 32.4898 24.1944 32.619C23.8875 32.7481 23.5578 32.8147 23.2248 32.8147C22.8918 32.8147 22.5621 32.7481 22.2551 32.619C21.9482 32.4898 21.6701 32.3006 21.4373 32.0625L10.6873 21.3125C10.3158 20.9653 10.0591 20.513 9.95134 20.0161C9.84356 19.5192 9.88987 19.0012 10.0841 18.5313C10.2783 18.0614 10.6112 17.6619 11.0383 17.386C11.4655 17.1102 11.9666 16.9712 12.4748 16.9875C13.9123 16.9875 13.4998 16.9875 24.9748 28.475C25.2173 28.7055 25.411 28.9823 25.5446 29.2891C25.6781 29.5958 25.7487 29.9263 25.7522 30.2608C25.7557 30.5954 25.692 30.9272 25.5649 31.2367C25.4378 31.5462 25.2499 31.827 25.0123 32.0625Z" fill="#A87E6B"/>
<path d="M24.9264 28.3876C24.4499 28.832 23.8188 29.0728 23.1674 29.0588C22.516 29.0448 21.8958 28.7771 21.4389 28.3126L10.7764 17.6501C11.2393 17.2229 11.8465 16.9863 12.4764 16.9876C13.9514 16.9876 13.6139 17.0751 24.9264 28.3876Z" fill="#BE927C"/>
<path d="M33.974 19.5125L25.0115 28.475L14.249 17.725L23.224 8.75003L33.974 19.5125Z" fill="#F6CCAF"/>
<path d="M32.0992 17.6375C31.17 18.571 30.0656 19.3118 28.8493 19.8173C27.633 20.3227 26.3289 20.5829 25.0117 20.5829C23.6946 20.5829 22.3904 20.3227 21.1741 19.8173C19.9579 19.3118 18.8534 18.571 17.9242 17.6375L16.1367 15.85L23.2242 8.75003L32.0992 17.6375Z" fill="#FFDEC7"/>
<path d="M40.3625 14.0625L37.5625 15.9375L26.8125 5.18753C28.575 2.50003 28.2 3.11253 28.675 2.37503C28.8787 2.05787 29.1515 1.79089 29.473 1.59404C29.7944 1.3972 30.1562 1.27559 30.5313 1.23832C30.9064 1.20106 31.2851 1.24909 31.639 1.37883C31.9929 1.50857 32.3129 1.71666 32.575 1.98753L40.75 10.1625C41.0209 10.4247 41.229 10.7446 41.3587 11.0986C41.4884 11.4525 41.5365 11.8311 41.4992 12.2062C41.4619 12.5813 41.3403 12.9431 41.1435 13.2646C40.9466 13.586 40.6797 13.8588 40.3625 14.0625Z" fill="#F6CCAF"/>
<path d="M40.6615 10.075C40.3594 10.4338 39.987 10.727 39.5672 10.9365C39.1475 11.146 38.6893 11.2673 38.221 11.2931C37.7526 11.3188 37.2839 11.2485 36.8437 11.0863C36.4035 10.9241 36.0012 10.6735 35.6615 10.35L28.3115 2.93753L28.674 2.37503C28.8777 2.05787 29.1505 1.79089 29.472 1.59404C29.7934 1.3972 30.1552 1.27559 30.5303 1.23832C30.9054 1.20106 31.2841 1.24909 31.638 1.37883C31.9919 1.50857 32.3119 1.71666 32.574 1.98753L40.6615 10.075Z" fill="#FFDEC7"/>
<path d="M21.4388 32.0626L19.5638 34.8626C19.3601 35.1797 19.0873 35.4467 18.7658 35.6435C18.4444 35.8404 18.0826 35.962 17.7075 35.9993C17.3324 36.0365 16.9537 35.9885 16.5998 35.8588C16.2459 35.729 15.9259 35.5209 15.6638 35.2501L7.48878 27.0751C7.24251 26.8351 7.04838 26.547 6.91853 26.2286C6.78868 25.9102 6.7259 25.5685 6.73411 25.2247C6.74232 24.881 6.82135 24.5427 6.96626 24.2308C7.11116 23.919 7.31883 23.6405 7.57628 23.4126C8.57182 22.6523 9.6111 21.9511 10.6888 21.3126L21.4388 32.0626Z" fill="#F6CCAF"/>
<path d="M19.9359 30.5626L19.5609 31.1126C19.3572 31.4297 19.0844 31.6967 18.7629 31.8936C18.4415 32.0904 18.0797 32.212 17.7046 32.2493C17.3295 32.2865 16.9508 32.2385 16.5969 32.1088C16.243 31.979 15.923 31.7709 15.6609 31.5001C6.74837 22.6126 7.39837 23.4876 7.87337 23.1751L10.6859 21.3126L19.9359 30.5626Z" fill="#FFDEC7"/>
<path d="M55.5619 53.75C53.3244 53.75 54.7994 54.6375 27.7119 25.7875L31.2869 22.2125L58.0869 47.375C58.5957 47.8929 58.9433 48.5474 59.0873 49.2591C59.2313 49.9707 59.1657 50.7088 58.8983 51.3839C58.6309 52.0589 58.1734 52.6418 57.5811 53.0618C56.9889 53.4819 56.2874 53.7209 55.5619 53.75Z" fill="#A87E6B"/>
<path d="M59.251 50.3375C58.5257 50.9512 57.5944 51.2668 56.6454 51.2204C55.6964 51.174 54.8004 50.7691 54.1385 50.0875L29.5635 23.9375L31.2885 22.2125L58.0885 47.375C58.4876 47.7533 58.7987 48.2148 58.9996 48.7268C59.2005 49.2387 59.2863 49.7886 59.251 50.3375Z" fill="#BE927C"/>
<path d="M34.25 58.75H1.75C1.75 57.0924 2.40848 55.5027 3.58058 54.3306C4.75269 53.1585 6.3424 52.5 8 52.5H28C29.6576 52.5 31.2473 53.1585 32.4194 54.3306C33.5915 55.5027 34.25 57.0924 34.25 58.75Z" fill="#A87E6B"/>
<path d="M33.7375 56.25H8.7375C7.87886 56.25 7.05539 55.909 6.44824 55.3018C5.84109 54.6947 5.5 53.8712 5.5 53.0125C5.5 52.325 11.5125 52.5 28 52.5C29.2177 52.4982 30.4094 52.8522 31.4287 53.5184C32.448 54.1846 33.2504 55.134 33.7375 56.25Z" fill="#BE927C"/>
<path d="M28.001 50V52.5H8.00098V50C8.00098 49.337 8.26437 48.7011 8.73321 48.2322C9.20205 47.7634 9.83794 47.5 10.501 47.5H25.501C26.164 47.5 26.7999 47.7634 27.2687 48.2322C27.7376 48.7011 28.001 49.337 28.001 50Z" fill="#A87E6B"/>
<path d="M27.9989 50H12.9989C12.3358 50 11.6999 49.7366 11.2311 49.2678C10.7623 48.7989 10.4989 48.1631 10.4989 47.5C10.4989 47.375 9.66137 47.5 25.4989 47.5C26.1619 47.5 26.7978 47.7634 27.2666 48.2322C27.7355 48.7011 27.9989 49.337 27.9989 50Z" fill="#BE927C"/>
</svg>
