<svg width="61" height="60" viewBox="0 0 61 60" fill="none" xmlns="http://www.w3.org/2000/svg">
<g clip-path="url(#clip0)">
<path d="M41.0938 18.5197H19.9121C18.9413 18.5197 18.1543 17.7326 18.1543 16.7618V9.75989C18.1543 6.81168 20.5528 4.41321 23.501 4.41321H37.5049C40.453 4.41321 42.8516 6.81168 42.8516 9.75989V16.7618C42.8516 17.7326 42.0645 18.5197 41.0938 18.5197ZM21.6699 16.1759H39.3359V9.75989C39.3359 8.7502 38.5145 7.92883 37.5049 7.92883H23.501C22.4913 7.92883 21.6699 8.7502 21.6699 9.75989V16.1759Z" fill="#384949"/>
<path d="M37.502 4.41321H30.5V7.92883H37.502C38.5115 7.92883 39.333 8.7502 39.333 9.75989V16.1759H30.5V18.5197H41.0908C42.0616 18.5197 42.8486 17.7326 42.8486 16.7618V9.75989C42.8486 6.81168 40.45 4.41321 37.502 4.41321Z" fill="#151F1F"/>
<path d="M58.7422 55.5871H2.25781C1.28703 55.5871 0.5 54.8001 0.5 53.8293V29.0584H60.5V53.8292C60.5 54.8001 59.713 55.5871 58.7422 55.5871Z" fill="#A44E3F"/>
<path d="M30.5 55.5871H58.7422C59.713 55.5871 60.5 54.8001 60.5 53.8293V29.0584H30.5V55.5871Z" fill="#87363E"/>
<path d="M30.5 36.1714C30.3568 36.1714 30.2136 36.1539 30.0737 36.1189L0.5 29.0583V16.7617C0.5 15.7909 1.28703 15.0038 2.25781 15.0038H58.7422C59.713 15.0038 60.5 15.7909 60.5 16.7617V29.0583L30.9263 36.1189C30.7863 36.1539 30.6432 36.1714 30.5 36.1714Z" fill="#CA5742"/>
<path d="M58.7422 15.0038H30.5V36.1714C30.6432 36.1714 30.7863 36.1539 30.9263 36.1189L60.5 29.0583V16.7617C60.5 15.7909 59.713 15.0038 58.7422 15.0038Z" fill="#A44E3F"/>
<path d="M19.7346 25.6169H14.9822C13.9177 25.6169 13.0547 26.4798 13.0547 27.5444V37.7519C13.0547 38.8164 13.9177 39.6794 14.9822 39.6794H19.7346C20.7991 39.6794 21.6621 38.8164 21.6621 37.7519V27.5444C21.6621 26.4798 20.7991 25.6169 19.7346 25.6169Z" fill="#FEC300"/>
<path d="M46.0745 25.6169H41.322C40.2575 25.6169 39.3945 26.4798 39.3945 27.5444V37.7519C39.3945 38.8164 40.2575 39.6794 41.322 39.6794H46.0745C47.139 39.6794 48.002 38.8164 48.002 37.7519V27.5444C48.002 26.4798 47.139 25.6169 46.0745 25.6169Z" fill="#F9A704"/>
</g>
<defs>
<clipPath id="clip0">
<rect width="60" height="60" fill="white" transform="translate(0.5)"/>
</clipPath>
</defs>
</svg>
