<svg width="60" height="60" viewBox="0 0 60 60" fill="none" xmlns="http://www.w3.org/2000/svg">
<g clip-path="url(#clip0)">
<path d="M48.621 5.49434H42.4141V13.7701H48.621V5.49434Z" fill="#5B5D6E"/>
<path d="M57.9314 19.9772L30.0004 5.49434L2.06934 19.9772V56.184H57.9314V19.9772Z" fill="#FF6464"/>
<path d="M57.9303 19.977L55.8613 18.9041V56.1839H57.9303V19.977Z" fill="#E4EAF6"/>
<path d="M2.06934 19.9771V56.1839H4.13829V18.9041L2.06934 19.9771Z" fill="#E4EAF6"/>
<path d="M24.8278 27.218H12.4141V43.7696H24.8278V27.218Z" fill="#B4E1FA"/>
<path d="M24.8278 27.218H12.4141V30.3214H24.8278V27.218Z" fill="#A0D2F0"/>
<path d="M13.4486 27.2182H12.4141V34.5744L17.5865 43.7698H22.7589L13.4486 27.2182Z" fill="#A0D2F0"/>
<path d="M24.8257 36.4139L19.6533 27.2186H16.5498L24.8257 41.9313V36.4139Z" fill="#DAF0FD"/>
<path d="M21.399 30.322L19.6533 27.2186H16.5498L18.2955 30.322H21.399Z" fill="#B4E1FA"/>
<path d="M25.8621 42.7356V27.2185C25.8621 26.6472 25.3995 26.184 24.8276 26.184H12.4138C11.842 26.184 11.3793 26.6472 11.3793 27.2185V42.7358C10.808 42.7358 10.3447 43.199 10.3447 43.7703C10.3447 44.3416 10.808 44.8048 11.3793 44.8048H25.8621C26.4334 44.8048 26.8966 44.3416 26.8966 43.7703C26.8966 43.199 26.4334 42.7356 25.8621 42.7356ZM18.6207 28.2529H23.7932V34.4598H13.4483V28.2528L18.6207 28.2529ZM13.4483 42.7356V36.5287H23.7932V42.7356H13.4483Z" fill="white"/>
<path d="M2.06934 19.9772V23.6888L4.13828 22.6103L30.0004 9.23344L55.8625 22.6187L57.9314 23.6888V19.9772L30.0004 5.49434L2.06934 19.9772Z" fill="#C7CFE2"/>
<path d="M28.5742 3.12852L0.809766 17.4894C0.312305 17.7466 0 18.2599 0 18.8199V20.4188C0 21.1611 0.786211 21.6396 1.44539 21.2986L30 6.52895L58.5546 21.2986C59.2138 21.6396 60 21.1611 60 20.4188V18.8199C60 18.2599 59.6877 17.7467 59.1902 17.4895L31.4258 3.12852C30.5316 2.66598 29.4684 2.66598 28.5742 3.12852Z" fill="#707487"/>
<path d="M57.9314 49.9771H2.06934V55.1497H57.9314V49.9771Z" fill="#C7CFE2"/>
<path d="M49.6541 27.218H33.1025V56.1832H49.6541V27.218Z" fill="#E4EAF6"/>
<path d="M45.517 31.3557H37.2412V43.7694H45.517V31.3557Z" fill="#B4E1FA"/>
<path d="M45.517 31.3557H37.2412V34.4592H45.517V31.3557Z" fill="#A0D2F0"/>
<path d="M37.2412 43.7697H44.2239L37.2412 31.3559V43.7697Z" fill="#A0D2F0"/>
<path d="M45.5162 31.3567H40.3438L45.5162 40.552V31.3567Z" fill="#DAF0FD"/>
<path d="M42.0894 34.4601H45.5162V31.3567H40.3438L42.0894 34.4601Z" fill="#B4E1FA"/>
<path d="M49.6555 57.2185H33.1039C32.5326 57.2185 32.0693 56.7553 32.0693 56.184V27.2185C32.0693 26.6472 32.5326 26.184 33.1039 26.184H49.6555C50.2268 26.184 50.6901 26.6472 50.6901 27.2185V56.184C50.6901 56.7553 50.2268 57.2185 49.6555 57.2185ZM34.1383 55.1496H48.621V28.2529H34.1383V55.1496Z" fill="white"/>
<path d="M45.5184 44.8046H37.2425C36.6708 44.8046 36.208 44.3414 36.208 43.7701V31.3563C36.208 30.785 36.6707 30.3218 37.2425 30.3218H45.5184C46.0902 30.3218 46.553 30.785 46.553 31.3563V43.7701C46.5528 44.3414 46.0902 44.8046 45.5184 44.8046ZM38.2771 42.7356H44.484V32.3907H38.2771V42.7356Z" fill="white"/>
<path d="M59.4827 57.2185H0.517266C0.231563 57.2185 0 56.987 0 56.7013V55.6667C0 55.381 0.231563 55.1495 0.517266 55.1495H59.4827C59.7684 55.1495 60 55.381 60 55.6667V56.7013C60 56.9869 59.7684 57.2185 59.4827 57.2185Z" fill="#8F96AC"/>
<path d="M49.1395 6.52886H41.8981C41.6124 6.52886 41.3809 6.29729 41.3809 6.01159V4.97706C41.3809 4.69136 41.6124 4.45979 41.8981 4.45979H49.1395C49.4252 4.45979 49.6568 4.69136 49.6568 4.97706V6.01159C49.6568 6.29729 49.4252 6.52886 49.1395 6.52886Z" fill="#6F7589"/>
</g>
<defs>
<clipPath id="clip0">
<rect width="60" height="60" fill="white"/>
</clipPath>
</defs>
</svg>
