<svg width="53" height="32" viewBox="0 0 53 32" fill="none" xmlns="http://www.w3.org/2000/svg">
<path d="M52.5035 8.30787V27.3069C52.5035 29.413 50.7962 31.1203 48.6901 31.1203H3.74603C1.6775 31.1207 0.000391026 29.4441 0 27.3756C0 27.3527 0.000260684 27.3299 0.000651711 27.3069V3.81342C-0.0370172 1.74528 1.60907 0.0381899 3.67721 0.000651352C3.70015 0.000260326 3.72296 0 3.7459 0H48.69C50.796 0 52.5034 1.70735 52.5034 3.81342V8.30787H52.5035Z" fill="#3BB54A"/>
<path d="M45.6262 27.1027C47.1306 27.1027 48.3501 25.8832 48.3501 24.3788C48.3501 22.8744 47.1306 21.6549 45.6262 21.6549C44.1219 21.6549 42.9023 22.8744 42.9023 24.3788C42.9023 25.8832 44.1219 27.1027 45.6262 27.1027Z" fill="#2BA037"/>
<path d="M26.219 27.7156C32.9134 27.7156 38.3403 22.2887 38.3403 15.5943C38.3403 8.89985 32.9134 3.47296 26.219 3.47296C19.5245 3.47296 14.0977 8.89985 14.0977 15.5943C14.0977 22.2887 19.5245 27.7156 26.219 27.7156Z" fill="#2BA037"/>
<path d="M6.8108 9.39743C8.31517 9.39743 9.53469 8.1779 9.53469 6.67354C9.53469 5.16917 8.31517 3.94965 6.8108 3.94965C5.30644 3.94965 4.08691 5.16917 4.08691 6.67354C4.08691 8.1779 5.30644 9.39743 6.8108 9.39743Z" fill="#2BA037"/>
<path d="M30.3566 20.1412C30.2304 19.6556 29.7373 19.365 29.2551 19.4921C29.2261 19.4998 29.1974 19.5088 29.1692 19.5194L28.6468 19.6628C28.1399 19.805 27.5987 19.7539 27.127 19.5194C26.5667 19.2367 25.9488 19.0893 25.3221 19.0888C25.4288 18.7287 25.5082 18.3609 25.5596 17.9886V17.319H27.1744C27.699 17.319 28.1243 16.8906 28.1243 16.3622C28.1243 15.8338 27.699 15.4055 27.1744 15.4055H25.4646C25.429 15.0973 25.3654 14.7931 25.2746 14.4966C25.1885 14.1036 25.1408 13.703 25.1321 13.3007C25.1183 13.12 25.151 12.9388 25.2271 12.7745C25.2657 12.6003 25.3672 12.4468 25.5121 12.344C25.6142 12.1981 25.7666 12.0957 25.9396 12.0569C26.1159 11.9653 26.311 11.9162 26.5095 11.9134C27.5069 11.9134 27.7444 12.4397 27.8394 12.918C27.9782 13.4178 28.4723 13.7288 28.9793 13.6355C29.4703 13.5496 29.7993 13.0791 29.714 12.5845C29.7083 12.5517 29.7009 12.5194 29.6917 12.4874C29.4067 10.9567 28.1719 10 26.5095 10C26.0515 10.0038 25.5989 10.1014 25.1796 10.287C24.7838 10.4472 24.4273 10.692 24.1347 11.0046C23.8437 11.3058 23.6173 11.6639 23.4697 12.057C23.2997 12.4486 23.2185 12.8736 23.2323 13.3008C23.2303 13.8487 23.294 14.3948 23.4223 14.9272C23.4763 15.0813 23.5083 15.2423 23.5173 15.4055H21.9499C21.4253 15.4055 21 15.8338 21 16.3622C21 16.8906 21.4253 17.319 21.9499 17.319H23.6597V17.7974C23.6294 18.2879 23.4466 18.7566 23.1373 19.1368L22.7573 19.7108C22.5338 20.0205 22.5152 20.4344 22.7098 20.7632C22.9126 21.059 23.2567 21.2231 23.6123 21.1937L25.1321 21.0503C25.5226 20.9933 25.921 21.0602 26.272 21.2416C26.8323 21.5243 27.4502 21.6717 28.0769 21.6721C28.4652 21.679 28.8516 21.6141 29.2168 21.4808L29.7392 21.3373C30.2214 21.2102 30.51 20.7136 30.3838 20.2279C30.3762 20.1986 30.3671 20.1696 30.3566 20.1412Z" fill="#FEDB41"/>
</svg>
