<svg width="60" height="60" viewBox="0 0 60 60" fill="none" xmlns="http://www.w3.org/2000/svg">
<g clip-path="url(#clip0)">
<path d="M58.0981 18.1968C58.0326 16.2296 56.3931 14.5902 54.426 14.6558H49.9014V29.8689L50.3604 31.3116V39.9017H51.1472C53.5078 39.9017 55.803 40.2296 58.0324 40.9509H58.0979V18.2623C58.0981 18.2623 58.0981 18.1968 58.0981 18.1968Z" fill="#2BA037"/>
<path d="M42.229 41.3443L42.5569 41.4755V41.8033C42.5569 41.9345 42.5569 42.0656 42.6224 42.1311H42.5569V45.9999H42.0979L39.0814 45.8688H38.8848C39.1471 45.0163 39.3438 44.0326 39.3438 43.1146C39.3438 42.459 39.2782 41.8032 39.1471 41.1475H39.4094L42.229 41.3443Z" fill="#F4B844"/>
<path d="M36.5245 36.5574C38.3606 37.0164 40.1966 37.213 42.0982 37.213C46.754 37.213 50.754 35.9672 51.0163 34.5246V39.2458C46.5572 39.3114 42.8851 40.3606 42.4261 41.6721L42.0982 41.541L39.5409 41.4098H39.2786C38.8851 39.5737 37.9016 37.8688 36.459 36.6229L36.5245 36.5574Z" fill="#E5A739"/>
<path d="M7.54114 35.9016H24.9837L25.1804 36.8196C23.3443 38.3934 22.2951 40.754 22.2951 43.1803C22.2951 43.6393 22.3606 44.0328 22.4263 44.4918H11.1476C9.18046 44.4918 7.54102 42.8525 7.54102 40.8852C7.54114 40.8852 7.54114 35.9016 7.54114 35.9016Z" fill="#2BA037"/>
<path d="M60.0004 46.3278V50.6557C60.0004 52.1639 56.066 53.3442 51.2135 53.3442C46.3611 53.3442 42.4922 52.1639 42.4922 50.6557V46.7213C43.2135 48.0328 46.8201 49.0164 51.1479 49.0164C55.4758 49.0164 60.0004 47.7705 60.0004 46.3278Z" fill="#E5A739"/>
<path d="M60.0004 42.1311V46.3279C60.0004 47.7705 55.9348 49.0163 51.1479 49.0163C46.361 49.0163 43.2135 48.0327 42.4922 46.7212V42.3278C43.0168 43.6393 46.6889 44.6884 51.1479 44.6884C55.6068 44.6884 59.6726 43.5737 60.0004 42.1311Z" fill="#F4B844"/>
<path d="M59.9995 42.131C59.6717 43.5737 55.8028 44.6883 51.147 44.6883C46.4913 44.6883 43.0158 43.6392 42.4913 42.3277C42.4258 42.1966 42.4258 42.131 42.4258 41.9999V41.672C42.8848 40.3606 46.5569 39.3114 51.016 39.2458H51.1471C53.5078 39.2458 55.8029 39.5736 58.0324 40.2949C59.2782 40.7539 59.9995 41.3441 59.9995 41.9999V42.131Z" fill="#FEDB41"/>
<path d="M42.4914 46.7214V50.1968H42.0324C40.262 50.1968 38.4915 50.0001 36.721 49.6066H36.5898C37.7702 48.5575 38.6226 47.246 39.0161 45.7379H39.2128L42.0324 45.869H42.4914V46.7214Z" fill="#E5A739"/>
<path d="M51.0161 30.6557V34.5245C50.7538 35.9671 46.7538 37.213 42.0981 37.213C40.1964 37.213 38.3603 37.0163 36.5243 36.5573H36.4588C35.6063 35.836 34.5572 35.2458 33.4424 34.918V30.3279C33.7047 31.7048 37.508 32.8196 42.1637 32.8196C46.8195 32.8196 50.2293 31.9015 51.0161 30.6557Z" fill="#F4B844"/>
<path d="M30.8846 38.7869C33.3109 38.7869 35.2781 40.754 35.2781 43.1803C35.2781 45.6066 33.3109 47.5737 30.8846 47.5737C28.4584 47.5737 26.4912 45.6066 26.4912 43.1803C26.4911 40.754 28.4584 38.7869 30.8846 38.7869Z" fill="#F4B844"/>
<path d="M46.9507 6.65573H3.67211C1.63932 6.65573 0.0655174 8.2294 0 10.2622V32.8852V32.9507C0.0655174 34.9178 1.70496 36.5573 3.67211 36.4916H24.9181L25.1147 36.7539C26.6885 35.3113 28.7213 34.5245 30.8197 34.5245C31.6721 34.5245 32.5246 34.6556 33.377 34.918L50.5573 29.8687V14.6556V10.2622C50.5573 8.29505 48.918 6.65573 46.9507 6.65573Z" fill="#3BB54A"/>
<path d="M25.3108 12.1639C30.5567 12.1639 34.7535 16.3607 34.7535 21.6066C34.7535 26.8525 30.5567 31.0493 25.3108 31.0493C20.0649 31.0493 15.8682 26.8525 15.8682 21.6066C15.8683 16.3607 20.0649 12.1639 25.3108 12.1639Z" fill="#2BA037"/>
<path d="M6.62296 15.6393C8.07158 15.6393 9.24591 14.465 9.24591 13.0164C9.24591 11.5678 8.07158 10.3934 6.62296 10.3934C5.17434 10.3934 4 11.5678 4 13.0164C4 14.465 5.17434 15.6393 6.62296 15.6393Z" fill="#2BA037"/>
<path d="M51.0164 30.7213C50.2296 31.9671 46.3607 32.8852 42.0984 32.8852C37.8361 32.8852 33.6394 31.7704 33.377 30.3935C33.3115 30.3279 33.3115 30.2623 33.3115 30.1968C33.3115 28.7541 37.246 27.5083 42.0984 27.5083C45.8361 27.5083 49.2459 28.2296 50.5574 29.2788C50.8852 29.4755 51.1476 29.8034 51.1476 30.1968C51.1476 30.3935 51.1476 30.5901 51.0164 30.7213Z" fill="#FEDB41"/>
<path d="M39.606 41.4097C39.6716 41.9999 39.7372 42.59 39.7372 43.1802C39.7372 44.0327 39.606 44.8851 39.4094 45.7375C38.9504 47.2457 38.0979 48.6228 36.852 49.7374C33.2455 53.0161 27.6062 52.7539 24.3274 49.1473C23.1471 47.8358 22.3603 46.262 22.098 44.5572C22.0324 44.0982 21.9668 43.6392 21.9668 43.2457C21.9668 40.7539 23.016 38.3276 24.9176 36.6228C27.2782 34.5245 30.4913 33.8032 33.5078 34.7867C34.6881 35.1145 35.7372 35.7047 36.6554 36.4916C38.1634 37.7376 39.2126 39.4426 39.606 41.4097Z" fill="#FEDB41"/>
<path d="M29.8156 25.8303C29.6894 25.3447 29.1963 25.0541 28.7141 25.1812C28.685 25.1888 28.6564 25.1979 28.6282 25.2084L28.1058 25.3519C27.5989 25.4941 27.0577 25.443 26.5859 25.2084C26.0257 24.9258 25.4077 24.7784 24.7811 24.7779C24.8878 24.4178 24.9672 24.05 25.0186 23.6777V23.008H26.6334C27.158 23.008 27.5833 22.5797 27.5833 22.0513C27.5833 21.5229 27.158 21.0946 26.6334 21.0946H24.9236C24.888 20.7864 24.8244 20.4821 24.7336 20.1857C24.6475 19.7927 24.5997 19.3921 24.5911 18.9898C24.5773 18.809 24.61 18.6278 24.6861 18.4636C24.7247 18.2893 24.8262 18.1359 24.9711 18.0331C25.0732 17.8872 25.2256 17.7848 25.3986 17.746C25.5749 17.6544 25.77 17.6053 25.9685 17.6025C26.9658 17.6025 27.2034 18.1287 27.2984 18.6071C27.4372 19.1069 27.9313 19.4179 28.4383 19.3246C28.9293 19.2387 29.2583 18.7682 29.173 18.2736C29.1673 18.2408 29.1599 18.2085 29.1507 18.1765C28.8657 16.6458 27.6309 15.6891 25.9685 15.6891C25.5105 15.6928 25.0579 15.7904 24.6386 15.9761C24.2427 16.1363 23.8863 16.3811 23.5936 16.6937C23.3026 16.9948 23.0763 17.353 22.9287 17.7461C22.7586 18.1377 22.6775 18.5626 22.6913 18.9899C22.6893 19.5378 22.753 20.0838 22.8813 20.6163C22.9353 20.7704 22.9673 20.9314 22.9763 21.0946H21.4089C20.8843 21.0946 20.459 21.5229 20.459 22.0513C20.459 22.5797 20.8843 23.008 21.4089 23.008H23.1187V23.4864C23.0884 23.977 22.9055 24.4456 22.5963 24.8259L22.2163 25.3999C21.9928 25.7096 21.9742 26.1235 22.1688 26.4523C22.3715 26.748 22.7156 26.9122 23.0713 26.8828L24.5911 26.7393C24.9816 26.6824 25.38 26.7492 25.731 26.9307C26.2913 27.2134 26.9092 27.3608 27.5359 27.3612C27.9242 27.3681 28.3106 27.3032 28.6758 27.1699L29.1982 27.0264C29.6804 26.8993 29.969 26.4027 29.8428 25.917C29.8351 25.8876 29.8261 25.8587 29.8156 25.8303Z" fill="#FEDB41"/>
</g>
<defs>
<clipPath id="clip0">
<rect width="60" height="60" fill="white"/>
</clipPath>
</defs>
</svg>
