<svg width="60" height="40" viewBox="0 0 60 40" fill="none" xmlns="http://www.w3.org/2000/svg">
<path d="M56.3852 8.42352H49.6435L7.55957 28.7165V35.9348C7.63178 38.0366 9.33835 39.7132 11.4412 39.7482H56.3852C58.4158 39.712 60.0326 38.0366 59.9963 36.006C59.996 35.9823 59.9953 35.9585 59.9944 35.9348V12.3731C60.1084 10.3077 58.5266 8.54109 56.4613 8.42691C56.4359 8.42561 56.4105 8.42444 56.3852 8.42352Z" fill="#2BA037"/>
<path d="M52.5035 8.5597V27.5588C52.5035 29.6648 50.7962 31.3722 48.6901 31.3722H3.74603C1.6775 31.3726 0.000391026 29.696 0 27.6274C0 27.6045 0.000260684 27.5817 0.000651711 27.5588V4.06525C-0.0370172 1.99711 1.60907 0.290021 3.67721 0.252482C3.70015 0.252091 3.72296 0.251831 3.7459 0.251831H48.69C50.796 0.251831 52.5034 1.95918 52.5034 4.06525V8.5597H52.5035Z" fill="#3BB54A"/>
<path d="M45.6262 27.3545C47.1306 27.3545 48.3501 26.135 48.3501 24.6306C48.3501 23.1263 47.1306 21.9067 45.6262 21.9067C44.1219 21.9067 42.9023 23.1263 42.9023 24.6306C42.9023 26.135 44.1219 27.3545 45.6262 27.3545Z" fill="#2BA037"/>
<path d="M26.219 27.9674C32.9134 27.9674 38.3403 22.5405 38.3403 15.8461C38.3403 9.15168 32.9134 3.72479 26.219 3.72479C19.5245 3.72479 14.0977 9.15168 14.0977 15.8461C14.0977 22.5405 19.5245 27.9674 26.219 27.9674Z" fill="#2BA037"/>
<path d="M6.8108 9.64926C8.31517 9.64926 9.53469 8.42973 9.53469 6.92537C9.53469 5.421 8.31517 4.20148 6.8108 4.20148C5.30644 4.20148 4.08691 5.421 4.08691 6.92537C4.08691 8.42973 5.30644 9.64926 6.8108 9.64926Z" fill="#2BA037"/>
<path d="M30.3566 20.1412C30.2304 19.6556 29.7373 19.365 29.2551 19.4921C29.2261 19.4998 29.1974 19.5088 29.1692 19.5194L28.6468 19.6628C28.1399 19.805 27.5987 19.7539 27.127 19.5194C26.5667 19.2367 25.9488 19.0893 25.3221 19.0888C25.4288 18.7287 25.5082 18.3609 25.5596 17.9886V17.319H27.1744C27.699 17.319 28.1243 16.8906 28.1243 16.3622C28.1243 15.8338 27.699 15.4055 27.1744 15.4055H25.4646C25.429 15.0973 25.3654 14.7931 25.2746 14.4966C25.1885 14.1036 25.1408 13.703 25.1321 13.3007C25.1183 13.12 25.151 12.9388 25.2271 12.7745C25.2657 12.6003 25.3672 12.4468 25.5121 12.344C25.6142 12.1981 25.7666 12.0957 25.9396 12.0569C26.1159 11.9653 26.311 11.9162 26.5095 11.9134C27.5069 11.9134 27.7444 12.4397 27.8394 12.918C27.9782 13.4178 28.4723 13.7288 28.9793 13.6355C29.4703 13.5496 29.7993 13.0791 29.714 12.5845C29.7083 12.5517 29.7009 12.5194 29.6917 12.4874C29.4067 10.9567 28.1719 10 26.5095 10C26.0515 10.0038 25.5989 10.1014 25.1796 10.287C24.7838 10.4472 24.4273 10.692 24.1347 11.0046C23.8437 11.3058 23.6173 11.6639 23.4697 12.057C23.2997 12.4486 23.2185 12.8736 23.2323 13.3008C23.2303 13.8487 23.294 14.3948 23.4223 14.9272C23.4763 15.0813 23.5083 15.2423 23.5173 15.4055H21.9499C21.4253 15.4055 21 15.8338 21 16.3622C21 16.8906 21.4253 17.319 21.9499 17.319H23.6597V17.7974C23.6294 18.2879 23.4466 18.7566 23.1373 19.1368L22.7573 19.7108C22.5338 20.0205 22.5152 20.4344 22.7098 20.7632C22.9126 21.059 23.2567 21.2231 23.6123 21.1937L25.1321 21.0503C25.5226 20.9933 25.921 21.0602 26.272 21.2416C26.8323 21.5243 27.4502 21.6717 28.0769 21.6721C28.4652 21.679 28.8516 21.6141 29.2168 21.4808L29.7392 21.3373C30.2214 21.2102 30.51 20.7136 30.3838 20.2279C30.3762 20.1986 30.3671 20.1696 30.3566 20.1412Z" fill="#FEDB41"/>
</svg>
