<svg width="100" height="50" viewBox="0 0 100 50" fill="none" xmlns="http://www.w3.org/2000/svg">
<g clip-path="url(#clip0)">
<path d="M99.88 0.0326233H0.0878906V49.9287H99.88V0.0326233Z" fill="white"/>
<path d="M0.0878906 19.991H45.029V0.0326233H54.9735V19.991H99.9146V29.9703H54.9735V49.9633H45.029V29.9703H0.0878906V19.991Z" fill="#ED1B2E"/>
<path d="M49.9878 38.0799L53.7993 31.5657H61.2837L57.5762 24.9822L61.2837 18.4333H53.7993L49.9878 11.9191L46.211 18.4333H38.7266L42.4341 24.9822L38.7266 31.5657H46.211L49.9878 38.0799Z" fill="white"/>
<path d="M52.0002 28.1009C52.2774 27.8237 52.7625 27.4772 53.005 26.7842C53.2476 26.1258 53.7673 25.3635 54.2871 24.8438C54.8069 24.324 55.4999 23.7696 55.0148 23.3192C54.4257 22.7994 53.3862 23.9775 53.109 24.2894C52.9011 24.4973 52.5892 24.5319 52.2427 24.7052C52.416 23.1113 52.0695 21.9332 52.0348 19.577C52.0002 18.5721 51.7576 17.9138 51.3072 17.9484C50.926 17.9484 50.7528 18.2256 50.7181 18.6068C50.7181 18.0524 50.7181 17.1861 50.0598 17.1861C49.2975 17.1861 49.2628 18.5721 49.3321 19.3691C49.2975 18.884 49.2975 17.9138 48.6391 17.9138C47.9461 17.9138 47.8768 19.0226 47.9808 19.9928C47.9808 20.0967 48.0154 20.3393 48.0154 20.6511C48.0154 20.0967 47.9115 19.2651 47.3917 19.2651C46.9066 19.2651 46.8373 19.9928 46.872 20.6165C46.9066 21.2402 46.9413 22.7301 46.872 23.1459C46.7334 23.9775 46.8027 26.1258 46.8373 26.7495C46.9066 27.5811 47.5996 27.893 47.5996 28.4474C47.565 29.0018 47.5996 30.0066 47.5996 30.4571C47.5996 30.9075 47.9808 30.9422 48.7777 30.7689C50.0598 30.4917 50.7528 31.0461 51.8269 30.6303C51.723 29.4522 52.0348 28.5513 52.0002 28.1009Z" fill="#ED1B2E"/>
<path d="M49.9878 8.41972C50.7501 7.44952 52.7944 7.58812 53.3835 8.17717C54.0072 8.76622 55.8436 7.96927 56.5713 9.45922L55.4278 12.2659H44.5477L43.4043 9.45922C44.1319 8.00392 45.9684 8.76622 46.5921 8.17717C47.2158 7.58812 49.2255 7.44952 49.9878 8.41972Z" fill="#ED1B2E"/>
<path d="M49.9865 7.38043C50.3501 7.38043 50.6448 7.10119 50.6448 6.75673C50.6448 6.41227 50.3501 6.13303 49.9865 6.13303C49.6229 6.13303 49.3281 6.41227 49.3281 6.75673C49.3281 7.10119 49.6229 7.38043 49.9865 7.38043Z" fill="#FFF200"/>
<path d="M50.399 3.94982C50.7109 3.98447 51.0227 4.12307 51.2653 4.26167V2.84102C51.0574 2.97962 50.7109 3.11822 50.399 3.15287C50.4337 2.84102 50.5723 2.52917 50.7109 2.28662H49.2556C49.3942 2.49452 49.5328 2.84102 49.5674 3.15287C49.2556 3.11822 48.9437 2.97962 48.7012 2.84102V4.29632C48.9091 4.15772 49.2556 4.01912 49.5674 3.98447C49.5328 4.29632 49.3942 5.09327 49.2556 5.30117H50.7109C50.5723 5.05862 50.4337 4.26167 50.399 3.94982Z" fill="#FFF200"/>
<path d="M49.9898 8.10791C50.3017 8.10791 50.7175 8.55836 50.4056 9.18206C51.4451 8.76626 51.2372 10.4641 50.4056 9.90971C50.3363 10.4295 50.96 10.8799 51.5837 10.9839C52.4846 11.1571 52.9697 10.3948 52.9004 10.2216C52.0342 10.4295 52.2074 8.90486 53.143 9.42461C53.0044 9.07811 53.2123 8.69696 53.6627 8.69696C54.0785 8.87021 54.1478 9.28601 53.9053 9.56321C54.9794 9.38996 54.6329 10.8799 53.8706 10.3948C53.732 10.5334 53.8013 11.1225 54.4943 11.365C55.0487 11.5729 55.6031 11.2264 55.6378 10.8106C55.2913 10.7413 55.0834 10.4295 55.2913 10.083C55.4992 9.73646 55.915 9.87506 56.0189 10.083C56.0189 9.56321 55.8803 9.28601 56.0536 8.87021C56.2615 9.00881 56.6773 9.38996 56.8852 9.56321C57.0931 9.73646 56.9545 9.94436 56.5387 10.4641C56.7812 10.776 56.4001 11.2264 56.1229 11.1225C55.9843 11.5383 55.8803 12.0927 55.6378 12.0927C55.6724 12.4738 55.6031 13.3401 55.2913 13.8252C55.915 14.137 55.3952 15.1419 54.9448 14.9686C54.1825 14.6221 51.8956 14.4489 49.9552 14.4489C48.0494 14.4489 45.7279 14.6221 44.9656 14.9686C44.5498 15.1419 44.0301 14.137 44.6191 13.8252C44.3419 13.3401 44.2726 12.5085 44.2726 12.0927C44.03 12.0927 43.9261 11.5383 43.7875 11.1225C43.5103 11.2264 43.1292 10.776 43.3717 10.4641C42.9559 9.94436 42.8173 9.73646 43.0252 9.56321C43.2331 9.42461 43.6489 9.04346 43.8568 8.87021C44.0301 9.28601 43.8568 9.56321 43.8915 10.083C43.9954 9.90971 44.4112 9.77111 44.6191 10.083C44.827 10.3948 44.6191 10.7413 44.2726 10.8106C44.3072 11.2264 44.8616 11.5729 45.416 11.365C46.109 11.1225 46.1437 10.5334 46.0397 10.3948C45.2774 10.8799 44.9656 9.38996 46.0051 9.56321C45.7625 9.25136 45.8318 8.87021 46.2476 8.69696C46.6981 8.73161 46.906 9.07811 46.7674 9.42461C47.7029 8.90486 47.9108 10.3948 47.0099 10.2216C46.9406 10.3948 47.3911 11.1571 48.3266 10.9839C48.9503 10.8799 49.574 10.4295 49.5047 9.90971C48.6731 10.4641 48.4652 8.73161 49.5047 9.18206C49.2622 8.55836 49.678 8.10791 49.9898 8.10791Z" fill="#FFF200"/>
<path d="M49.9882 7.13782C49.0873 7.13782 49.0873 8.38522 49.9882 8.38522C50.9238 8.38522 50.9238 7.13782 49.9882 7.13782Z" fill="#FFF200"/>
<path d="M49.987 5.82101C52.7937 5.82101 55.9815 7.55352 57.2982 8.73162C57.6447 9.07812 57.1596 9.80577 56.8131 9.52857C55.531 8.35047 52.7244 6.75657 49.987 6.75657C47.2497 6.75657 44.443 8.35047 43.1609 9.52857C42.8144 9.84042 42.3293 9.07812 42.6758 8.73162C43.9925 7.55352 47.215 5.82101 49.987 5.82101Z" fill="#FFF200"/>
<path d="M46.7284 11.9886C45.7929 12.1619 45.9661 13.1321 46.9017 12.9935C47.8372 12.8202 47.664 11.8154 46.7284 11.9886Z" fill="#ED1B2E"/>
<path d="M49.9868 12.7509C50.5758 12.7509 51.0263 12.8895 51.0263 12.2658C51.0263 11.6421 50.5758 11.7807 49.9868 11.7807C49.3977 11.7807 48.9473 11.6421 48.9473 12.2658C48.9473 12.8895 49.4324 12.7509 49.9868 12.7509Z" fill="#ED1B2E"/>
<path d="M45.0995 12.7508C44.6144 13.2705 44.3372 13.6863 44.1986 12.9587C44.06 12.2657 44.4758 12.5429 45.0995 12.7508Z" fill="#ED1B2E"/>
<path d="M53.2747 11.9886C54.2103 12.1619 54.0371 13.1321 53.1015 12.9935C52.1659 12.8202 52.3392 11.8154 53.2747 11.9886Z" fill="#ED1B2E"/>
<path d="M54.9023 12.751C55.3874 13.2707 55.6646 13.6865 55.8033 12.9589C55.9419 12.2312 55.4914 12.5431 54.9023 12.751Z" fill="#ED1B2E"/>
<path d="M42.7101 7.72681C41.7399 7.72681 41.7399 9.14746 42.7101 9.14746C43.6803 9.18211 43.7149 7.72681 42.7101 7.72681Z" fill="white"/>
<path d="M43.9894 6.82578C43.0192 6.82578 43.0192 8.24642 43.9894 8.24642C44.9596 8.24642 44.9596 6.82578 43.9894 6.82578Z" fill="white"/>
<path d="M45.38 6.0979C44.4098 6.0979 44.4098 7.51855 45.38 7.51855C46.3502 7.5532 46.3502 6.13255 45.38 6.0979Z" fill="white"/>
<path d="M46.8351 5.54367C45.8649 5.54367 45.8649 6.96432 46.8351 6.96432C47.7706 6.96432 47.8053 5.54367 46.8351 5.54367Z" fill="white"/>
<path d="M48.2882 5.09311C47.318 5.09311 47.318 6.51376 48.2882 6.51376C49.2584 6.54841 49.293 5.09311 48.2882 5.09311Z" fill="white"/>
<path d="M49.989 4.71204C48.8109 4.71204 48.8109 6.47919 49.989 6.47919C51.1672 6.47919 51.2018 4.71204 49.989 4.71204Z" fill="white"/>
<path d="M57.2616 7.72681C58.2318 7.72681 58.2318 9.14746 57.2616 9.14746C56.326 9.18211 56.2914 7.72681 57.2616 7.72681Z" fill="white"/>
<path d="M56.0141 6.82578C56.9843 6.82578 56.9843 8.24642 56.0141 8.24642C55.0439 8.24642 55.0093 6.82578 56.0141 6.82578Z" fill="white"/>
<path d="M54.6294 6.0979C55.5996 6.0979 55.5996 7.51855 54.6294 7.51855C53.6592 7.5532 53.6245 6.13255 54.6294 6.0979Z" fill="white"/>
<path d="M53.1769 5.54367C54.1471 5.54367 54.1471 6.96432 53.1769 6.96432C52.2067 6.96432 52.2067 5.54367 53.1769 5.54367Z" fill="white"/>
<path d="M51.7212 5.09311C52.6914 5.09311 52.6914 6.51376 51.7212 6.51376C50.751 6.54841 50.7163 5.09311 51.7212 5.09311Z" fill="white"/>
</g>
<defs>
<clipPath id="clip0">
<rect width="99.896" height="50" fill="white" transform="translate(0.0527344)"/>
</clipPath>
</defs>
</svg>
