<svg width="60" height="60" viewBox="0 0 60 60" fill="none" xmlns="http://www.w3.org/2000/svg">
<g clip-path="url(#clip0)">
<path d="M51.209 8.82553C62.9131 20.539 62.9056 39.5227 51.1922 51.2269C39.4787 62.931 20.495 62.9235 8.79083 51.2101C-2.90684 39.5033 -2.90684 20.5325 8.79083 8.82553C20.4283 -2.88795 39.358 -2.94942 51.0715 8.68809C51.1175 8.73374 51.1633 8.77956 51.209 8.82553Z" fill="#D7443E"/>
<path d="M44.9056 20.3243L35.1955 30.0346L44.9056 39.7447L39.7099 44.9405L29.9998 35.2303L20.2896 44.9405L15.0938 39.7447L24.804 30.0346L15.0938 20.3243L20.2896 15.1286L29.9998 24.8387L39.7099 15.1286L44.9056 20.3243Z" fill="#D4E1F4"/>
</g>
<defs>
<clipPath id="clip0">
<rect width="60" height="60" fill="white"/>
</clipPath>
</defs>
</svg>
