<svg width="55" height="55" viewBox="0 0 55 55" fill="none" xmlns="http://www.w3.org/2000/svg">
<g clip-path="url(#clip0)">
<path d="M22.1973 28.0885C22.1973 32.2784 25.6056 35.687 29.7956 35.687L30.874 28.0886L29.7956 20.4903C25.6059 20.4902 22.1973 23.8985 22.1973 28.0885Z" fill="#FFDA2D"/>
<path d="M29.7949 20.4901V35.6869C29.8388 35.6775 32.7539 35.8703 35.1653 33.4589C36.5411 32.083 37.3933 30.1834 37.3933 28.0884C37.3933 25.9936 36.5411 24.094 35.1653 22.7181C33.7895 21.3422 31.8898 20.4901 29.7949 20.4901Z" fill="#FDB504"/>
<path d="M25.4326 28.0886C25.4326 30.4944 27.3895 32.4518 29.7957 32.4518L30.8741 28.0887L29.7957 23.7256C27.3898 23.7255 25.4326 25.6825 25.4326 28.0886Z" fill="#FDB504"/>
<path d="M29.7949 23.7255V32.4518C29.8213 32.4462 31.4912 32.5599 32.8787 31.1725C33.6687 30.3824 34.158 29.2916 34.158 28.0886C34.158 26.8857 33.6687 25.7949 32.8787 25.0049C32.0886 24.2148 30.9979 23.7255 29.7949 23.7255Z" fill="#F77E01"/>
<path d="M29.7961 20.2488C29.927 19.1015 30.7431 11.9422 30.8746 10.7891C30.7437 9.77044 29.9276 3.41186 29.7961 2.388C22.4615 0.478337 21.3097 0.177566 21.2258 0.157939C20.806 0.0596944 20.373 0.00997925 19.9362 0.00997925C18.779 0.00997925 17.5846 0.360142 16.5418 1.0774C1.80831 11.2221 2.86851 10.4798 2.4834 10.7188C2.43433 10.7586 1.3654 11.3166 0.640705 12.6228C-0.131768 14.0151 -0.196042 15.6856 0.395472 17.0979C1.32938 19.3284 3.69846 20.5443 5.89391 20.1816C6.45814 20.0884 6.35051 20.0758 12.186 18.3726L17.8121 16.7176C18.0404 16.8739 17.4851 16.4937 22.9706 20.249H26.3834H29.7961V20.2488Z" fill="#FFCCBD"/>
<path d="M46.9132 17.7942L47.9917 12.9413L46.9132 4.8531C45.2977 4.8531 43.6759 4.8531 42.0604 4.8531C40.0771 4.8531 38.0872 4.58361 36.1472 4.03922C33.9249 3.46065 32.02 2.96479 29.7979 2.38611V20.247L34.9131 22.4631L46.9132 17.7942Z" fill="#FFBDA9"/>
<path d="M22.7832 18.4548C22.7628 18.4462 22.0507 18.3369 21.5155 17.6631C20.9687 16.9749 20.8879 16.0391 21.2568 15.2832C21.7111 14.3525 22.7646 13.8291 23.8168 14.092C24.5638 14.2788 28.1822 15.1833 29.7978 15.5872L30.8763 13.9199L29.7978 12.2525C28.2939 11.8765 26.1043 11.3291 24.6015 10.9534C21.1664 10.0947 17.7959 12.6808 17.7959 16.267C17.7959 18.8207 19.5286 21.0113 22.0154 21.5979C22.9146 21.8276 28.9047 23.3582 29.7978 23.5864L30.8763 21.9168L29.7978 20.2472L26.2992 19.3533C25.8931 19.2493 27.6792 19.7056 22.7832 18.4548Z" fill="#FFBDA9"/>
<path d="M31.9593 16.1281C32.2338 15.0304 32.4698 14.0872 32.7441 12.9895C31.7127 12.7316 30.8262 12.51 29.7949 12.2523V15.5869C29.8162 15.5923 31.5268 16.0199 31.9593 16.1281Z" fill="#FFA68C"/>
<path d="M34.0355 20.891C33.8116 20.9656 33.5796 21.0102 33.3458 21.0244C33.112 21.0385 32.8763 21.0223 32.6451 20.9752L31.2201 20.6111L29.7949 20.2469V23.5862C30.9425 23.8794 31.9566 24.1368 31.9401 24.1329C32.4566 24.2436 32.9838 24.2842 33.5061 24.256C34.0307 24.2275 34.5504 24.1296 35.0493 23.9633L37.1915 23.2636C37.6568 23.1114 36.0055 23.6513 39.4583 22.5224C42.4581 21.5168 43.8824 21.0292 46.9105 21.0292L47.989 19.4116L46.9105 17.7939C45.2085 17.7939 43.9021 17.9381 42.6607 18.2025C41.1571 18.5226 40.4613 18.79 34.0355 20.891Z" fill="#FFA68C"/>
<path d="M46.9111 0.000213623H54.9993V25.8823C52.8215 25.8823 48.1798 25.8823 46.9111 25.8823C46.9111 25.1521 46.9111 0.729981 46.9111 0.000213623Z" fill="#32BEA6"/>
<path d="M8.08819 37.2059L7.00977 44.2156L8.08819 50.1469H12.9411C14.9243 50.1469 16.9142 50.4164 18.8543 50.9608C20.0722 51.2779 28.5911 53.4959 29.7959 53.8095L30.8744 43.1984L29.7959 35.9266L20.8405 32.7574L8.08819 37.2059Z" fill="#FFCCBD"/>
<path d="M21.4927 30.744C20.968 30.7725 20.4483 30.8704 19.9494 31.0367C18.7454 31.4295 16.0944 32.2964 15.5404 32.4775C12.5563 33.4789 11.1172 33.9707 8.08819 33.9707L7.00977 35.5883L8.08819 37.2059C11.496 37.2059 13.2606 36.6477 16.4388 35.5883C17.8771 35.1181 19.5247 34.5793 20.963 34.109C21.4109 33.9599 21.8908 33.9305 22.3536 34.0248C23.1518 34.2288 29.0079 35.7251 29.7961 35.9265L30.8745 34.2569L29.7961 32.5873C28.9856 32.3802 24.1343 31.1411 23.0894 30.8743C23.0894 30.8743 22.3777 30.6962 21.4927 30.744Z" fill="#FFBDA9"/>
<path d="M23.0387 38.8718C22.7642 39.9694 22.5284 40.9127 22.2539 42.0104C23.1686 42.239 28.8776 43.6663 29.7954 43.8957L30.8738 42.2284L29.7954 40.561C28.7341 40.2956 24.0994 39.1369 23.0387 38.8718Z" fill="#FFBDA9"/>
<path d="M29.7979 35.9266V53.8095C33.9208 54.883 33.8597 54.8913 34.4164 54.955C35.7773 55.1109 37.2266 54.7728 38.4598 53.9245C53.1262 43.8344 51.8671 44.687 52.5182 44.2832C52.5673 44.2434 53.6362 43.6854 54.3609 42.3792C55.1334 40.9869 55.1977 39.3164 54.6061 37.9041C53.6486 35.6175 51.0598 34.2035 48.4416 34.9746C47.0799 35.3751 38.5423 37.8864 37.1895 38.2843L33.1633 35.6871L29.7979 35.9266Z" fill="#FFBDA9"/>
<path d="M32.9879 33.4023L31.3928 32.9948L29.7979 32.5873V35.9265C30.1239 36.0097 32.382 36.5865 32.2375 36.5495C34.0867 36.9788 34.583 39.3503 33.1099 40.5004C32.5621 40.9282 31.8614 41.0768 31.1865 40.9082C31.1609 40.9018 29.8879 40.5835 29.7979 40.5611V43.8958C30.2686 44.0071 30.5694 44.1091 31.067 44.1709C33.444 44.4663 35.6627 43.1725 36.6563 41.1366C37.542 39.321 37.3796 37.0346 36.03 35.3298C35.2858 34.3895 34.2308 33.6955 32.9879 33.4023Z" fill="#FFA68C"/>
<path d="M8.08815 54.9997C5.91039 54.9997 1.26865 54.9997 0 54.9997C0 54.2695 0 29.8475 0 29.1176H8.08815V54.9997Z" fill="#FE4A4A"/>
</g>
<defs>
<clipPath id="clip0">
<rect width="55" height="55" fill="white"/>
</clipPath>
</defs>
</svg>
