<svg width="50" height="50" viewBox="0 0 50 50" fill="none" xmlns="http://www.w3.org/2000/svg">
<g clip-path="url(#clip0)">
<path d="M41.2598 16.4062L40.5566 39.8436L31.6798 49.0625C29.9512 49.5604 28.1055 49.8536 26.2305 49.9414L25 48.8867L5.75195 32.0508L4.28711 11.0743C4.99023 10.0488 5.78125 9.08193 6.63086 8.14463C11.172 3.16416 17.7345 0 25 0C27.3438 0 29.629 0.351562 31.7676 0.966894C32.7638 1.23047 33.7598 1.55283 34.6973 1.96289L41.2598 16.4062Z" fill="#54E360"/>
<path d="M41.2598 16.4062L40.5566 39.8436L31.6798 49.0625C29.9512 49.5604 28.1055 49.8536 26.2305 49.9414L25 48.8867V0C27.3438 0 29.629 0.351562 31.7676 0.966894C32.7638 1.23047 33.7598 1.55283 34.6973 1.96289L41.2598 16.4062Z" fill="#00CC71"/>
<path d="M22.0718 34.7627C20.6799 33.9673 18.9461 32.976 18.9461 31.1406V28.6673C18.5799 27.962 14.0681 25.8449 12.37 25.0481C11.865 24.8106 11.2972 24.6618 10.7436 24.5088C9.30303 24.1097 7.50918 23.6133 6.81963 21.858C6.11299 20.0599 6.83818 17.6237 9.2458 13.7141C10.3516 11.9188 10.2 11.3365 10.1985 11.3309C9.8209 10.9461 7.54922 11.0447 6.57793 11.0877C5.72607 11.1247 4.97393 11.1389 4.29717 11.0859C1.64814 15.0424 0 19.7935 0 24.9022C0 38.6336 11.2686 49.9998 25 49.9998C25.4146 49.9998 25.8187 49.9578 26.2283 49.9376C24.6866 47.6937 23.8929 42.9495 23.8929 36.0859C23.8099 35.7568 22.6368 35.0859 22.0718 34.7627Z" fill="#3AAAFF"/>
<path d="M49.999 24.9022C49.999 36.3281 42.1669 46.1327 31.6787 49.0624C31.7372 48.8279 31.7665 48.5937 31.7665 48.3592V42.7732C31.7665 42.3338 33.1143 41.1035 33.9051 40.3711C36.1317 38.2909 39.1786 35.4199 39.1786 31.1424C39.1786 28.5056 37.0399 28.037 35.6336 27.7439C34.1981 27.4216 32.7039 27.0995 31.5027 25.3709C31.3269 25.1073 31.1804 24.8729 31.0633 24.6384C30.448 23.6424 29.6278 22.2654 27.8406 22.2654C26.5517 22.2654 25.6726 22.6755 24.9989 23.1151C24.8231 23.2616 24.6473 23.3787 24.4715 23.496C23.5926 24.1404 22.7722 24.7263 20.3992 24.7263C18.0555 24.7263 16.6493 23.3786 16.1805 22.2068C16.0047 21.7672 15.6532 20.654 16.5028 19.8045C16.9129 19.3943 17.1181 19.3943 18.5242 20.0973C19.8133 20.7127 21.9521 21.7966 23.915 19.8045C24.2958 19.4236 24.6474 19.1307 24.999 18.9255C26.6103 17.7536 28.1044 17.783 29.9208 17.7536H30.3017C32.704 17.7536 36.7177 17.7536 36.7177 13.8277C36.7177 12.3629 36.0733 9.75553 35.3993 7.61676C34.872 5.88834 34.2276 3.89615 34.2276 2.89996C34.2276 2.34332 34.3154 2.07975 34.6962 1.96246C43.6318 5.74215 49.999 14.619 49.999 24.9022Z" fill="#3AAAFF"/>
<path d="M50.0001 24.9023C50.0001 36.3282 42.1681 46.1328 31.6799 49.0624C31.7384 48.828 31.7677 48.5938 31.7677 48.3593V42.7733C31.7677 42.3339 33.1154 41.1036 33.9063 40.3711C36.1328 38.291 39.1798 35.42 39.1798 31.1425C39.1798 28.5057 37.041 28.0371 35.6348 27.744C34.1992 27.4217 32.7051 27.0996 31.5038 25.3709C31.328 25.1074 31.1815 24.873 31.0645 24.6385C30.4491 23.6425 29.6289 22.2655 27.8417 22.2655C26.5528 22.2655 25.6737 22.6756 25 23.1152V18.9257C26.6113 17.7538 28.1055 17.7832 29.9219 17.7538H30.3027C32.7051 17.7538 36.7187 17.7538 36.7187 13.8279C36.7187 12.363 36.0743 9.75571 35.4004 7.61694C34.873 5.88853 34.2286 3.89634 34.2286 2.90015C34.2286 2.34351 34.3164 2.07993 34.6973 1.96265C43.6329 5.74224 50.0001 14.6191 50.0001 24.9023Z" fill="#008ADF"/>
</g>
<defs>
<clipPath id="clip0">
<rect width="50" height="50" fill="white"/>
</clipPath>
</defs>
</svg>
