<svg width="61" height="60" viewBox="0 0 61 60" fill="none" xmlns="http://www.w3.org/2000/svg">
<g clip-path="url(#clip0)">
<path d="M34.7638 36.612L44.8902 39.3124C48.627 40.3089 51.2272 43.6932 51.2272 47.5607V58.7925C51.2272 59.4593 50.6867 59.9998 50.0199 59.9998H10.9709C10.3041 59.9998 9.76367 59.4593 9.76367 58.7925V47.5607C9.76367 43.6932 12.3638 40.3089 16.1007 39.3124L26.2271 36.612H34.7638Z" fill="#D8E2F1"/>
<path d="M30.4969 47.7005H32.2512L34.0055 44.4654L30.4969 40.8806L26.9883 44.4654L28.7426 47.7005H30.4969Z" fill="#DD5790"/>
<path d="M30.4956 60.0001H34.624L32.2499 47.7005H30.4956H28.7413L26.3672 60.0001H30.4956Z" fill="#DD5790"/>
<path d="M30.4985 50.1395H32.7235L32.2528 47.7005H30.4985H28.7442L28.2734 50.1395H30.4985Z" fill="#DA387D"/>
<path d="M30.5 40.8803L34.0086 44.4651C34.6157 45.0854 35.6581 44.8908 36.0007 44.0933L38.7568 37.6756L34.7683 36.612H30.5V40.8803Z" fill="#B9CBEA"/>
<path d="M30.4911 40.8803L26.9825 44.4651C26.3754 45.0854 25.333 44.8908 24.9905 44.0933L22.2344 37.6756L26.2228 36.612H30.4911V40.8803Z" fill="#B9CBEA"/>
<path d="M34.7652 36.6121V31.3682H26.2285V36.6121C26.2285 38.9694 28.1395 40.8804 30.4968 40.8804C32.8542 40.8804 34.7652 38.9694 34.7652 36.6121Z" fill="#F1D0A5"/>
<path d="M45.4141 39.4719C46.6927 40.9767 47.447 42.9178 47.447 44.9997V59.9996H50.0202C50.687 59.9996 51.2275 59.4592 51.2275 58.7924V47.5606C51.2276 43.8768 48.8676 40.633 45.4141 39.4719Z" fill="#B9CBEA"/>
<path d="M26.2285 34.1444C27.5577 34.6426 28.9958 34.9158 30.4968 34.9158C31.9978 34.9158 33.436 34.6425 34.7652 34.1444V31.3682H26.2285V34.1444Z" fill="#FFB983"/>
<path d="M20.7402 11.3413V22.7208C20.7402 28.1089 25.1082 32.4769 30.4963 32.4769C35.8845 32.4769 40.2524 28.1089 40.2524 22.7208V11.3413H20.7402Z" fill="#F1D0A5"/>
<path d="M40.2565 22.7208V11.3413H37.9395V25.2707C37.9395 27.1745 37.3922 28.9496 36.4492 30.451C38.7638 28.6672 40.2565 25.869 40.2565 22.7208Z" fill="#FFB983"/>
<path d="M44.155 13.6586V19.0227H40.2525L39.7102 16.2216C39.6002 15.6539 39.1031 15.2439 38.5249 15.2439H37.782C35.9768 15.2439 34.3708 14.0977 33.784 12.3906L33.7838 12.39C33.6624 12.0367 33.1651 12.0299 33.034 12.3796L32.9886 12.5006C32.3699 14.1507 30.7924 15.2439 29.0302 15.2439H22.4679C21.8897 15.2439 21.3926 15.6539 21.2827 16.2216L20.7403 19.0227H16.8379V13.6586C16.8379 6.11508 22.9531 0 30.4964 0C38.0398 0 44.155 6.11508 44.155 13.6586Z" fill="#5766CB"/>
<path d="M37.707 2.05667C39.3098 4.29484 40.2536 7.03702 40.2536 9.99999V19.0227H44.1561V13.6586C44.1561 8.76167 41.5787 4.46769 37.707 2.05667Z" fill="#3342AA"/>
<path d="M42.207 22.4657H40.2559V17.3364C40.2559 16.9363 40.5801 16.6121 40.9802 16.6121H42.207C43.2847 16.6121 44.1582 17.4857 44.1582 18.5633V20.5144C44.1583 21.5921 43.2847 22.4657 42.207 22.4657Z" fill="#F1D0A5"/>
<path d="M18.7891 22.4657H20.7402V17.3364C20.7402 16.9363 20.416 16.6121 20.0159 16.6121H18.7891C17.7114 16.6121 16.8379 17.4857 16.8379 18.5633V20.5144C16.8378 21.5921 17.7114 22.4657 18.7891 22.4657Z" fill="#F1D0A5"/>
<path d="M42.7559 60V56.7072C42.7559 56.2071 43.1612 55.8018 43.6613 55.8018C44.1613 55.8018 44.5666 56.2072 44.5666 56.7072V60H42.7559Z" fill="#D0E2E7"/>
<path d="M16.4121 60V56.7072C16.4121 56.2071 16.8175 55.8018 17.3175 55.8018C17.8175 55.8018 18.2229 56.2072 18.2229 56.7072V60H16.4121Z" fill="#D0E2E7"/>
</g>
<defs>
<clipPath id="clip0">
<rect width="60" height="60" fill="white" transform="translate(0.5)"/>
</clipPath>
</defs>
</svg>
