<svg width="60" height="60" viewBox="0 0 60 60" fill="none" xmlns="http://www.w3.org/2000/svg">
<g clip-path="url(#clip0)">
<path d="M34.9863 37.5H50.7921V41.0157H34.9863V37.5Z" fill="#E1E1E6"/>
<path d="M42.8887 37.5H50.7916V41.0157H42.8887V37.5Z" fill="#D2D2D7"/>
<path d="M51.8487 30.7169C51.6744 28.6064 49.8789 26.9531 47.7611 26.9531H38.0146C35.897 26.9531 34.1014 28.6063 33.927 30.7168L31.6641 58.0973L35.1677 58.3869L37.4306 31.0064C37.4556 30.7049 37.712 30.4687 38.0145 30.4687H47.7609C48.0635 30.4687 48.32 30.7049 48.3448 31.0064L50.6077 58.3869L54.1113 58.0973L51.8487 30.7169Z" fill="#FFF5F5"/>
<path d="M51.8495 30.7169C51.6753 28.6064 49.8797 26.9531 47.7619 26.9531H42.8887V30.4687H47.7619C48.0645 30.4687 48.321 30.7049 48.3457 31.0064L50.6086 58.3869L54.1123 58.0973L51.8495 30.7169Z" fill="#E1E1E6"/>
<path d="M54.6113 60H49.9238C48.953 60 48.166 59.213 48.166 58.2422C48.166 57.2714 48.953 56.4844 49.9238 56.4844H54.6113C55.5821 56.4844 56.3691 57.2714 56.3691 58.2422C56.3691 59.213 55.5821 60 54.6113 60Z" fill="#08475E"/>
<path d="M35.8574 60H31.1699C30.1991 60 29.4121 59.213 29.4121 58.2422C29.4121 57.2714 30.1991 56.4844 31.1699 56.4844H35.8574C36.8282 56.4844 37.6152 57.2714 37.6152 58.2422C37.6152 59.213 36.8282 60 35.8574 60Z" fill="#0A789B"/>
<path d="M5.39122 56.3643C7.07274 57.3351 9.22289 56.759 10.1937 55.0775L15.6737 45.5859V31.5234L4.10439 51.5619C3.13361 53.2434 3.7097 55.3934 5.39122 56.3643Z" fill="#7D81E7"/>
<path d="M31.7578 23.4376V9.96112C31.7578 7.04866 29.3967 4.68757 26.4843 4.68768C17.7469 4.68792 10.6641 11.771 10.6641 20.5082V28.1251L14.1797 32.8126V56.4844C14.1797 58.4261 15.7536 60.0001 17.6953 60.0001C19.637 60.0001 21.2109 58.4261 21.2109 56.4844V26.8499C21.2109 26.8057 21.2168 26.7616 21.2285 26.7188L22.9688 24.0235H24.7266V26.3673C24.7266 28.6325 26.5629 30.4688 28.8281 30.4688H38.7891C40.7306 30.4688 42.3047 28.8949 42.3047 26.9532C42.3047 25.0116 40.7307 23.4376 38.7891 23.4376H31.7578Z" fill="#8BB9FF"/>
<path d="M38.7891 23.4375H31.7578V9.96111C31.7578 7.04866 29.3967 4.68757 26.4843 4.68768C24.635 4.68768 22.8605 5.00608 21.2109 5.5892V26.8499C21.2109 26.8056 21.2168 26.7615 21.2285 26.7188L22.9688 24.0235H24.7266V26.3672C24.7266 28.6324 26.5629 30.4688 28.8281 30.4688H38.7891C40.7306 30.4688 42.3047 28.8948 42.3047 26.9532C42.3047 25.0116 40.7307 23.4375 38.7891 23.4375Z" fill="#7D81E7"/>
<path d="M21.2109 21.0937V27.1874C21.2109 28.9996 22.68 30.4687 24.4922 30.4687H28.8281C26.5629 30.4687 24.7266 28.6324 24.7266 26.3671V21.0937C24.7266 20.1229 23.9395 19.3359 22.9687 19.3359C21.998 19.3359 21.2109 20.1229 21.2109 21.0937Z" fill="#525CDD"/>
<path d="M36.4434 14.0625C32.5663 14.0625 29.4121 10.9083 29.4121 7.03125C29.4121 3.15422 32.5663 0 36.4434 0C40.3204 0 43.4746 3.15422 43.4746 7.03125C43.4746 10.9083 40.3204 14.0625 36.4434 14.0625Z" fill="#FFCBBC"/>
</g>
<defs>
<clipPath id="clip0">
<rect width="60" height="60" fill="white"/>
</clipPath>
</defs>
</svg>
