<svg width="76" height="50" viewBox="0 0 76 50" fill="none" xmlns="http://www.w3.org/2000/svg">
<path d="M64.6516 50H11.2652L0 43.2521V6.77722L11.3087 0H64.6516L75.9056 6.64664V43.2521L64.6516 50Z" fill="#4A7AFF"/>
<path d="M64.6627 0H37.8945V49.9998H64.6511L75.9091 43.2259V6.78207L64.6627 0Z" fill="#0053BF"/>
<path d="M75.9056 0H64.6461L37.891 17.8315L11.2595 0H0V6.78207L27.2506 25L0 43.2179V49.9998H11.2597L37.891 32.1685L64.6459 49.9998H75.9056V43.2179L48.6549 25L75.9056 6.78207V0Z" fill="white"/>
<path d="M75.9091 0H64.6496L37.8945 17.8315V32.1685L64.6494 49.9998H75.9091V43.2179L48.6585 25L75.9091 6.78207V0Z" fill="#E9EDF5"/>
</svg>
