<svg width="60" height="60" viewBox="0 0 60 60" fill="none" xmlns="http://www.w3.org/2000/svg">
<g clip-path="url(#clip0)">
<path d="M52.2507 56.4351L48.7309 44.0263L51.2174 35.5407L51.0128 15.7033C51.0033 14.7851 50.6293 13.9083 49.973 13.2661C49.3168 12.624 48.4321 12.2689 47.5139 12.2793L41.3444 12.3493C39.435 12.3709 37.9043 13.9353 37.924 15.8444L38.1572 35.6419L45.5383 35.5846L43.1444 43.4575C43.0364 43.9178 43.0476 44.3978 43.1766 44.8526L46.893 57.9549C47.2407 59.1805 48.3565 59.9804 49.5705 59.9803C49.8219 59.9803 50.0778 59.9459 50.3317 59.8739C51.8113 59.4543 52.6704 57.9147 52.2507 56.4351Z" fill="#5F6E9B"/>
<path d="M37.4363 59.9803C37.3572 59.9803 37.2775 59.977 37.1974 59.9701C35.665 59.8398 34.5283 58.492 34.6586 56.9597L35.7632 43.9629C35.779 43.777 35.8135 43.5932 35.8661 43.4141L39.6626 30.4866C40.0959 29.0111 41.6436 28.1661 43.1189 28.5995C44.5945 29.0329 45.4393 30.5802 45.0059 32.0559L41.2884 44.7143L40.2076 57.4315C40.0843 58.8835 38.8674 59.9803 37.4363 59.9803Z" fill="#414B82"/>
<path d="M27.0254 43.9988C27.0114 43.8128 26.9787 43.6285 26.9276 43.4491L24.1789 33.7562L18.375 33.702L21.4932 44.6984L22.4552 57.4252C22.5651 58.8785 23.7716 59.9866 25.2027 60C25.2817 60.0007 25.3616 59.9981 25.4416 59.992C26.9751 59.8761 28.1243 58.539 28.0084 57.0055L27.0254 43.9988Z" fill="#50374B"/>
<path d="M24.3646 34.6744H11.3945L11.3969 15.6446C11.397 14.7203 11.767 13.8344 12.4243 13.1846C13.0816 12.5348 13.9716 12.175 14.8959 12.1854L21.0468 12.2552C22.9495 12.2767 24.4777 13.8307 24.4672 15.7335L24.3646 34.6744Z" fill="#1E2D64"/>
<path d="M20.7506 10.2433C23.5792 10.2433 25.8722 7.95029 25.8722 5.12167C25.8722 2.29305 23.5792 0 20.7506 0C17.922 0 15.6289 2.29305 15.6289 5.12167C15.6289 7.95029 17.922 10.2433 20.7506 10.2433Z" fill="#FFB69E"/>
<path d="M16.9518 33.7418H11.2319L13.6415 44.0262L10.122 56.4352C9.70237 57.9147 10.5616 59.4543 12.0411 59.8738C12.295 59.9459 12.5507 59.9802 12.8023 59.9802C14.0161 59.9801 15.1323 59.1803 15.4798 57.9549L19.196 44.8525C19.3251 44.3977 19.3362 43.9177 19.2283 43.4575L16.9518 33.7418Z" fill="#695A6E"/>
<path d="M38.1527 35.6421L51.2131 35.541L51.0084 15.6091C50.9989 14.691 50.6249 13.8142 49.9687 13.172C49.3124 12.5298 48.4277 12.1747 47.5096 12.1851L41.3444 12.255C40.4268 12.2654 39.5508 12.6399 38.9094 13.2962C38.2679 13.9524 37.9135 14.8367 37.9241 15.7544L38.1527 35.6421Z" fill="#87AFB9"/>
<path d="M41.606 10.2433C44.4347 10.2433 46.7277 7.95029 46.7277 5.12167C46.7277 2.29305 44.4347 0 41.606 0C38.7774 0 36.4844 2.29305 36.4844 5.12167C36.4844 7.95029 38.7774 10.2433 41.606 10.2433Z" fill="#BA6746"/>
<path d="M21.0874 30.2751H8.66797L12.0721 15.476C12.6632 12.9066 14.9173 11.1121 17.5539 11.1121C19.2032 11.1121 20.7632 11.8319 21.8335 13.0868C22.9039 14.3418 23.3685 15.9955 23.1084 17.6242L21.0874 30.2751ZM10.3884 30.2751L19.5051 30.3048L21.4533 17.3598C21.6359 16.2164 21.3097 15.0553 20.5583 14.1744C19.8067 13.2934 18.7117 12.7882 17.5537 12.7882C15.7027 12.7882 14.1203 14.048 13.7055 15.8518L10.3884 30.2751Z" fill="#692823"/>
<path d="M30.5736 32.0637C29.7725 31.9989 29.0239 31.5292 28.6381 30.758C28.0514 29.5845 28.5267 28.1575 29.7003 27.5706L37.7359 23.5518L41.8014 14.8565C42.357 13.668 43.7714 13.1551 44.9595 13.7107C46.1481 14.2664 46.661 15.6805 46.1053 16.8689L41.6898 26.3129C41.4632 26.7979 41.0793 27.192 40.6004 27.4314L31.8253 31.82C31.4233 32.0212 30.9911 32.0976 30.5736 32.0637Z" fill="#BA6746"/>
<path d="M43.3182 22.8295L46.1051 16.8685C46.6607 15.6799 46.1478 14.266 44.9592 13.7103C43.771 13.1547 42.3567 13.6677 41.8012 14.8563L38.8516 21.165L43.3182 22.8295Z" fill="#B4D7DC"/>
<path d="M29.7136 32.1053C29.2944 32.1053 28.8699 31.9943 28.4853 31.7615L20.0927 26.6799C19.6328 26.4014 19.281 25.9752 19.0948 25.4709L15.5736 15.9393C15.1189 14.7085 15.7481 13.3423 16.9788 12.8876C18.2095 12.433 19.5759 13.0621 20.0306 14.2928L23.264 23.0457L30.9463 27.6972C32.0687 28.3768 32.4276 29.8374 31.7481 30.9598C31.3013 31.6974 30.5172 32.1053 29.7136 32.1053Z" fill="#243678"/>
<path d="M20.8966 40.3757H9.1371C8.31703 40.3757 7.65234 39.711 7.65234 38.891V30.9326C7.65234 30.1125 8.31703 29.4478 9.1371 29.4478H20.8965C21.7166 29.4478 22.3812 30.1125 22.3812 30.9326V38.891C22.3814 39.7108 21.7166 40.3757 20.8966 40.3757Z" fill="#CD5014"/>
<path d="M30.9462 27.697L29.8829 27.0532L27.4238 31.1184L28.4855 31.7612C28.4929 31.7656 28.5005 31.7694 28.5079 31.7737L30.9659 27.7101C30.9591 27.706 30.9532 27.7011 30.9462 27.697Z" fill="white"/>
<path d="M30.9491 27.697L28.4883 31.7613C29.6127 32.4422 31.0727 32.0796 31.7509 30.9596C32.4303 29.8372 32.0714 28.3764 30.9491 27.697Z" fill="#FFB69E"/>
<path d="M19.2329 34.1453H10.5826C10.2695 34.1453 10.0156 33.8915 10.0156 33.5784V32.6723C10.0156 32.3592 10.2695 32.1053 10.5826 32.1053H19.2329C19.546 32.1053 19.7998 32.3592 19.7998 32.6723V33.5784C19.7999 33.8915 19.546 34.1453 19.2329 34.1453Z" fill="#692823"/>
</g>
<defs>
<clipPath id="clip0">
<rect width="60" height="60" fill="white"/>
</clipPath>
</defs>
</svg>
