<svg width="60" height="60" viewBox="0 0 60 60" fill="none" xmlns="http://www.w3.org/2000/svg">
<path d="M41.6354 43.5669L35.4188 36.7722V28.5067H24.5792V36.7748L18.4316 43.5669H41.6354Z" fill="#FFDDCE"/>
<path d="M40.5042 43.4446L34.9311 41.8084L30.0004 47.4624L21.475 37.6857L12.4125 40.3456C8.8752 41.3839 6.44531 44.6293 6.44531 48.3159V57.0605C6.44531 58.6839 7.76145 59.9999 9.38496 59.9999H13.3718L14.0903 59.4872H14.464L15.1825 59.9999H44.814L45.8687 59.2473H46.7434V51.7789C46.7435 47.9241 44.2029 44.5305 40.5042 43.4446Z" fill="#407093"/>
<path d="M47.5885 40.3452L38.527 37.685L34.3145 42.5153L39.9438 44.168C43.4809 45.2064 45.9104 48.4518 45.9104 52.138V59.2473H46.6248V59.9999H50.6156C52.2391 59.9999 53.5551 58.6838 53.5551 57.0604V48.3154C53.5551 44.629 51.1256 41.3836 47.5885 40.3452Z" fill="#365E7D"/>
<path d="M15.1819 59.9999V55.1918C15.1819 54.6918 14.7765 54.2864 14.2765 54.2864C13.7764 54.2864 13.3711 54.6918 13.3711 55.1918V59.9999H15.1819Z" fill="#365E7D"/>
<path d="M46.6252 59.9999V55.1918C46.6252 54.6918 46.2199 54.2864 45.7198 54.2864C45.2198 54.2864 44.8145 54.6918 44.8145 55.1918V59.9999H46.6252Z" fill="#365E7D"/>
<path d="M13.6677 17.717L12.7395 16.6935H10.7555L9.82725 17.717L8.60394 24.897C8.48851 25.5747 9.01058 26.1934 9.69811 26.1934H13.7966C14.4842 26.1934 15.0062 25.5747 14.8908 24.897L13.6677 17.717Z" fill="#E4F6FF"/>
<path d="M12.6526 15.9716V6.89239C12.6526 6.39235 12.2472 5.987 11.7472 5.987C11.2471 5.987 10.8418 6.39235 10.8418 6.89239V15.9716H12.6526Z" fill="#407093"/>
<path d="M35.0163 6.16489H34.8166H25.1795H24.9798C21.3514 6.16489 18.4102 9.10618 18.4102 12.7345V12.838V19.0713L19.4966 20.0285H41.5859V12.838V12.7345C41.586 9.10629 38.6446 6.16489 35.0163 6.16489Z" fill="#EFC984"/>
<path d="M35.017 6.16489H34.8173H33.9668V20.0285H40.5837L41.5866 19.0713V12.838V12.7345C41.5867 9.10629 38.6453 6.16489 35.017 6.16489Z" fill="#EABC6B"/>
<path d="M30 33.2901C30.1092 33.2901 30.2178 33.2883 30.3261 33.2846C32.9182 31.6384 34.6788 28.8002 34.8357 25.54V14.0654H22.3708V17.0851C22.3708 18.1821 21.4815 19.0713 20.3846 19.0713H18.4121V22.3194C18.4121 23.1493 19.0849 23.8222 19.9149 23.8222C20.1767 23.8222 20.3899 24.0274 20.4063 24.2887C20.7232 29.3128 24.896 33.2901 30 33.2901Z" fill="#FFDDCE"/>
<path d="M39.617 19.0713C38.52 19.0713 37.6308 18.1821 37.6308 17.0851V14.0654H33.9677V25.2447C33.8016 28.6985 31.8141 31.6729 28.9453 33.2307C29.2924 33.2687 29.6443 33.2901 30.0015 33.2901C35.1055 33.2901 39.2783 29.3128 39.5952 24.2887C39.6117 24.0274 39.8248 23.8222 40.0866 23.8222C40.9165 23.8222 41.5894 23.1494 41.5894 22.3194V19.0713H39.617Z" fill="#FFCBBE"/>
<path d="M34.8369 10.2097V7.97168C33.7341 7.96301 32.8427 7.06723 32.8427 5.96238V1.94027L31.9967 0.584767L30.31 0.0482825C30.1078 -0.0160535 29.8906 -0.0160535 29.6883 0.0482825L11.3261 5.88879C10.3018 6.21457 10.4051 7.69652 11.4648 7.87699L29.9992 11.0337L34.8369 10.2097Z" fill="#407093"/>
<path d="M34.8362 8.00623L32.1656 7.67588C30.7263 7.49787 29.2706 7.49787 27.8314 7.676L17.668 8.93365V13.4627C17.668 13.9535 18.0658 14.3514 18.5566 14.3514H34.8362V8.00623Z" fill="#4A80AA"/>
<path d="M48.6717 5.8888L31.9961 0.584778V5.89888C31.9961 6.9906 32.877 7.87583 33.9666 7.88439V10.358L48.533 7.87712C49.5927 7.69642 49.6961 6.21458 48.6717 5.8888Z" fill="#365E7D"/>
<path d="M33.9668 7.89868V14.3514H41.4444C41.9352 14.3514 42.333 13.9535 42.333 13.4627V8.93356L33.9668 7.89868Z" fill="#407093"/>
<path d="M13.6685 17.717H9.82812V15.1961C9.82812 14.6604 10.2623 14.2262 10.798 14.2262H12.6985C13.2342 14.2262 13.6684 14.6604 13.6684 15.1961V17.717H13.6685Z" fill="#FFE07D"/>
<path d="M35.4178 33.7464C35.4178 37.2629 34.397 40.7039 32.4793 43.6515L30 47.4625L43.8328 39.2427L35.4178 33.7464Z" fill="#4A80AA"/>
<path d="M24.583 33.7464C24.583 37.2629 25.6038 40.7039 27.5214 43.6515L30.0008 47.4625L16.168 39.2427L24.583 33.7464Z" fill="#4A80AA"/>
<path d="M34.6176 39.0716C33.195 39.3848 31.636 39.5585 30.0002 39.5585C28.3645 39.5585 26.8055 39.3848 25.3828 39.0716C25.8768 40.682 26.5927 42.2249 27.5208 43.6515L30.0002 47.4625L32.4796 43.6515C33.4078 42.2249 34.1237 40.682 34.6176 39.0716Z" fill="#F4FBFF"/>
</svg>
