<svg width="61" height="60" viewBox="0 0 61 60" fill="none" xmlns="http://www.w3.org/2000/svg">
<g clip-path="url(#clip0)">
<path d="M45.1479 8.71231L40.9428 0H10.5805C8.91367 0 7.5625 1.35129 7.5625 3.01816V56.982C7.5625 58.6487 8.91367 60 10.5805 60H46.313C46.9739 60 47.5848 59.787 48.0821 59.4266H50.6256V10.6212L45.1479 8.71231Z" fill="#EAF6FF"/>
<path d="M50.6271 10.6211L49.3326 10.17V12.495V56.9819C49.3326 58.6488 47.9813 60.0001 46.3145 60.0001H50.4209C52.0878 60.0001 53.4391 58.6488 53.4391 56.9819V12.4949L50.6271 10.6211Z" fill="#D8ECFE"/>
<path d="M46.1971 20.7984H14.8087C14.3087 20.7984 13.9033 20.393 13.9033 19.893C13.9033 19.393 14.3087 18.9876 14.8087 18.9876H46.197C46.6971 18.9876 47.1024 19.393 47.1024 19.893C47.1024 20.393 46.6972 20.7984 46.1971 20.7984Z" fill="#82AEE3"/>
<path d="M46.1971 28.8468H14.8087C14.3087 28.8468 13.9033 28.4414 13.9033 27.9414C13.9033 27.4414 14.3087 27.036 14.8087 27.036H46.197C46.6971 27.036 47.1024 27.4414 47.1024 27.9414C47.1024 28.4414 46.6972 28.8468 46.1971 28.8468Z" fill="#82AEE3"/>
<path d="M46.1971 36.895H14.8087C14.3087 36.895 13.9033 36.4897 13.9033 35.9897C13.9033 35.4896 14.3087 35.0843 14.8087 35.0843H46.197C46.6971 35.0843 47.1024 35.4896 47.1024 35.9897C47.1025 36.4897 46.6972 36.895 46.1971 36.895Z" fill="#82AEE3"/>
<path d="M46.1971 44.9432H14.8087C14.3087 44.9432 13.9033 44.5378 13.9033 44.0378C13.9033 43.5377 14.3087 43.1324 14.8087 43.1324H46.197C46.6971 43.1324 47.1024 43.5377 47.1024 44.0378C47.1025 44.5378 46.6972 44.9432 46.1971 44.9432Z" fill="#82AEE3"/>
<path d="M43.9614 12.495H53.4382L40.9434 0V9.47684C40.9434 11.1437 42.2945 12.495 43.9614 12.495Z" fill="#B3DAFE"/>
</g>
<defs>
<clipPath id="clip0">
<rect width="60" height="60" fill="white" transform="translate(0.5)"/>
</clipPath>
</defs>
</svg>
