<svg width="60" height="60" viewBox="0 0 60 60" fill="none" xmlns="http://www.w3.org/2000/svg">
<g clip-path="url(#clip0)">
<path d="M34.6004 0H26.4826H18.3648L14.3633 8.00285L17.5081 9.57527L20.5379 3.51562H26.4826H32.4273L35.457 9.57527L38.6019 8.00285L34.6004 0Z" fill="#60474F"/>
<path d="M35.4627 9.57527L38.6076 8.00285L34.6061 0H26.4883V3.51562H32.433L35.4627 9.57527Z" fill="#3F303A"/>
<path d="M26.4844 15.1205H0V42.3047H26.4844H52.8516V15.1205H26.4844Z" fill="#60474F"/>
<path d="M26.4883 15.1205H52.8555V42.3047H26.4883V15.1205Z" fill="#3F303A"/>
<path d="M26.4844 7.03128H0V15.1204L11.8846 22.9654L26.4844 22.967L41.079 22.9688L52.8516 15.1204V7.03128H26.4844Z" fill="#C47E4E"/>
<path d="M52.8555 15.1204V7.03128H26.4883V22.967L41.0829 22.9688L52.8555 15.1204Z" fill="#9B5E34"/>
<path d="M44.0586 28.2421C35.3212 28.2421 28.2383 35.3251 28.2383 44.0624C28.2383 52.7998 35.3212 59.9999 44.0586 59.9999C52.796 59.9999 59.9961 52.7998 59.9961 44.0624C59.9961 35.3251 52.796 28.2421 44.0586 28.2421Z" fill="#FD697F"/>
<path d="M60.0039 44.0624C60.0039 35.3251 52.8038 28.2421 44.0664 28.2421V59.9999C52.8038 59.9999 60.0039 52.7998 60.0039 44.0624Z" fill="#E6455D"/>
<path d="M51.5159 39.093L49.0303 36.6074L44.0607 41.5769L39.0911 36.6074L36.6055 39.093L41.575 44.0626L36.6055 49.0322L39.0911 51.5178L44.0607 46.5483L49.0303 51.5178L51.5159 49.0322L46.5464 44.0626L51.5159 39.093Z" fill="#60474F"/>
<path d="M51.5216 49.0322L46.5521 44.0626L51.5216 39.093L49.036 36.6074L44.0664 41.5769V46.5483L49.036 51.5178L51.5216 49.0322Z" fill="#3F303A"/>
<path d="M15.9375 28.2422C13.0296 28.2422 10.6641 25.8766 10.6641 22.9688V17.6953H21.2109V22.9688C21.2109 25.8766 18.8454 28.2422 15.9375 28.2422Z" fill="#FFEA80"/>
<path d="M37.0312 28.2422C34.1234 28.2422 31.7578 25.8766 31.7578 22.9688V17.6953H42.3047V22.9688C42.3047 25.8766 39.9391 28.2422 37.0312 28.2422Z" fill="#FFC34D"/>
</g>
<defs>
<clipPath id="clip0">
<rect width="60" height="60" fill="white"/>
</clipPath>
</defs>
</svg>
