<svg width="75" height="50" viewBox="0 0 75 50" fill="none" xmlns="http://www.w3.org/2000/svg">
<g clip-path="url(#clip0)">
<path d="M74.8538 0.0492554H0V49.9507H74.8538V0.0492554Z" fill="#F0F0F0"/>
<path d="M74.8538 25H0V49.9508H74.8538V25Z" fill="#496E2D"/>
<path d="M55.1653 16.7216C54.1975 13.9765 51.5819 12.0083 48.5054 12.0083H42.4528C38.553 12.0083 35.3915 15.1697 35.3915 19.0696C35.3915 20.3437 35.7307 21.5683 36.321 22.6003C34.0735 22.5819 31.9934 22.6158 30.684 22.6003C30.684 19.877 30.684 16.4078 30.684 15.6819L30.9621 15.4038C32.2105 14.1554 31.7941 12.0749 31.7941 12.0749C31.7941 12.0749 29.7139 11.6588 28.4656 12.9072L27.0106 14.3621H25.388C21.8131 14.3621 18.9152 17.2601 18.9152 20.8349H23.6226V26.1308C23.6226 26.9054 23.7789 27.6434 24.0611 28.3155L22.4459 29.6615H20.0921V27.3077H17.7383V32.0152H28.3301V36.7226H25.9763V39.0764H30.6837V34.369L32.8414 31.7798H37.9412L40.0988 34.369V36.7228H37.745V39.0766H47.1599V26.131C47.1599 24.181 48.7406 22.6003 50.6906 22.6003C50.7408 22.6003 50.7903 22.602 50.84 22.6041C50.7425 22.2267 50.6906 21.8311 50.6906 21.4234C50.6908 18.9018 52.6737 16.8434 55.1653 16.7216ZM42.4526 36.7228V31.78H42.6488L44.8064 34.3691V36.7229H42.4526V36.7228Z" fill="#D80027"/>
</g>
<defs>
<clipPath id="clip0">
<rect width="74.8538" height="50" fill="white"/>
</clipPath>
</defs>
</svg>
